<svg width="110" height="110" viewBox="0 0 110 110" fill="none" xmlns="http://www.w3.org/2000/svg">
    <g clip-path="url(#clip0_1726_76479)">
        <path d="M32.2993 0H10.3353C4.83512 0 0.376465 4.45887 0.376465 9.9591V13.4742L21.3174 17.3565L42.2584 13.4742V9.9591C42.2584 4.45887 37.7997 0 32.2993 0Z" fill="#F1F2F2"/>
        <path d="M14.8529 0H10.3353C4.83512 0 0.376465 4.45887 0.376465 9.9591V13.4742L7.2425 14.7471C8.36596 9.01557 11.0748 3.91441 14.8529 0Z" fill="#E7E7E7"/>
        <path d="M0.376465 13.4727V36.3752C0.376465 40.9888 4.11646 44.7286 8.72983 44.7286H22.0697L29.0314 51.1776L33.905 44.7286C38.5186 44.7286 42.2584 40.9886 42.2584 36.3752V13.4727H0.376465Z" fill="#E7284C"/>
        <path d="M109.305 44.5515L99.7458 24.2057C98.9583 22.5293 96.961 21.8089 95.2847 22.5964C91.1541 24.537 89.3786 29.4589 91.3192 33.5895L96.7021 45.047C98.6427 49.1777 103.565 50.9532 107.695 49.0126C109.372 48.2251 110.092 46.2278 109.305 44.5515Z" fill="#0D253F"/>
        <path d="M103.71 56.166L88.9717 25.5688C88.167 23.8982 86.9072 22.4886 85.3371 21.5021C83.767 20.5156 81.9503 19.9922 80.096 19.9922H62.7645V30.7301H77.3398L84.8245 52.9163C85.2633 54.2168 85.33 55.6141 85.017 56.9505C84.7041 58.287 84.024 59.5094 83.0534 60.4799L79.3147 64.2186C73.4361 70.0973 63.3094 66.5465 62.4858 58.2737C62.4449 57.8625 62.4471 57.6268 62.4471 57.6268L61.1791 51.4416L42.8262 57.6268V91.0409H81.2737C94.9414 91.0409 106.021 79.961 106.021 66.2933C106.021 62.7868 105.231 59.3253 103.71 56.166Z" fill="#19CE67"/>
        <path d="M62.4472 44.7305H22.0697C18.508 44.7305 15.6206 47.6177 15.6206 51.1795C15.6206 54.7414 18.5078 57.6286 22.0697 57.6286H62.4472C66.0088 57.6286 68.8962 54.7414 68.8962 51.1795C68.8962 47.6177 66.0088 44.7305 62.4472 44.7305Z" fill="#0D253F"/>
        <path d="M42.8263 57.6289H26.1253C11.9045 57.6289 0.376221 69.1572 0.376221 83.378C0.376221 87.6113 3.80813 91.0432 8.04147 91.0432H42.8263C48.048 91.0432 52.2809 86.8101 52.2809 81.5885V67.0838C52.2809 61.8618 48.048 57.6289 42.8263 57.6289Z" fill="#62EB9D"/>
        <path d="M76.4914 29.1755V21.5468C76.4914 21.0185 76.4511 20.4995 76.3743 19.9922H62.7644V30.7301H76.3743C76.4513 30.2229 76.4914 29.7038 76.4914 29.1755Z" fill="#15C360"/>
        <path d="M66.1451 17.8398H55.4844C52.5792 17.8398 50.2239 20.195 50.2239 23.1004V27.621C50.2239 30.5261 52.579 32.8815 55.4844 32.8815H66.1451C68.1922 32.8815 69.8515 31.222 69.8515 29.1752V21.5464C69.8517 19.4994 68.1922 17.8398 66.1451 17.8398Z" fill="#0D253F"/>
        <path d="M13.5337 60.9141C5.68214 65.3247 0.376465 73.7309 0.376465 83.3775C0.376465 87.6109 3.80838 91.0428 8.04172 91.0428H38.3313C27.4254 83.8443 18.7301 73.3531 13.5337 60.9141Z" fill="#19CE67"/>
        <path d="M23.0922 110C31.7422 110 38.7545 102.988 38.7545 94.3381C38.7545 85.688 31.7422 78.6758 23.0922 78.6758C14.4422 78.6758 7.42993 85.688 7.42993 94.3381C7.42993 102.988 14.4422 110 23.0922 110Z" fill="#0D253F"/>
        <path d="M23.0923 100.995C26.7693 100.995 29.7501 98.0144 29.7501 94.3375C29.7501 90.6605 26.7693 87.6797 23.0923 87.6797C19.4154 87.6797 16.4346 90.6605 16.4346 94.3375C16.4346 98.0144 19.4154 100.995 23.0923 100.995Z" fill="#F1F2F2"/>
        <path d="M85.3615 110C94.0115 110 101.024 102.988 101.024 94.3381C101.024 85.688 94.0115 78.6758 85.3615 78.6758C76.7115 78.6758 69.6992 85.688 69.6992 94.3381C69.6992 102.988 76.7115 110 85.3615 110Z" fill="#0D253F"/>
        <path d="M85.3616 100.995C89.0386 100.995 92.0194 98.0144 92.0194 94.3375C92.0194 90.6605 89.0386 87.6797 85.3616 87.6797C81.6846 87.6797 78.7039 90.6605 78.7039 94.3375C78.7039 98.0144 81.6846 100.995 85.3616 100.995Z" fill="#F1F2F2"/>
        <path d="M42.8264 66.902H30.4367C29.9964 66.902 29.5742 66.7271 29.2629 66.4158C28.9516 66.1045 28.7767 65.6822 28.7767 65.242C28.7767 64.8017 28.9516 64.3795 29.2629 64.0682C29.5742 63.7569 29.9964 63.582 30.4367 63.582H42.8264C43.2666 63.582 43.6888 63.7569 44.0001 64.0682C44.3114 64.3795 44.4863 64.8017 44.4863 65.242C44.4863 65.6822 44.3114 66.1045 44.0001 66.4158C43.6888 66.7271 43.2666 66.902 42.8264 66.902ZM42.8264 74.0902H25.712C25.2717 74.0902 24.8495 73.9154 24.5382 73.6041C24.2269 73.2927 24.052 72.8705 24.052 72.4303C24.052 71.99 24.2269 71.5678 24.5382 71.2565C24.8495 70.9452 25.2717 70.7703 25.712 70.7703H42.8264C43.2666 70.7703 43.6888 70.9452 44.0001 71.2565C44.3114 71.5678 44.4863 71.99 44.4863 72.4303C44.4863 72.8705 44.3114 73.2927 44.0001 73.6041C43.6888 73.9154 43.2666 74.0902 42.8264 74.0902Z" fill="#0D253F"/>
        <path d="M28.7399 25.8463H24.5752V21.6816C24.5752 21.1683 24.3712 20.676 24.0083 20.313C23.6453 19.95 23.153 19.7461 22.6397 19.7461H19.9952C19.4819 19.7461 18.9896 19.95 18.6266 20.313C18.2636 20.676 18.0597 21.1683 18.0597 21.6816V25.8461H13.895C13.3817 25.8461 12.8894 26.05 12.5264 26.413C12.1634 26.776 11.9595 27.2683 11.9595 27.7816V30.4261C11.9595 30.6802 12.0095 30.9319 12.1068 31.1667C12.2041 31.4016 12.3466 31.6149 12.5264 31.7947C12.7061 31.9744 12.9195 32.117 13.1543 32.2142C13.3891 32.3115 13.6408 32.3616 13.895 32.3616H18.0597V36.5263C18.0597 37.0396 18.2636 37.5319 18.6266 37.8949C18.9896 38.2579 19.4819 38.4618 19.9952 38.4618H22.6397C23.153 38.4618 23.6453 38.2579 24.0083 37.8949C24.3712 37.5319 24.5752 37.0396 24.5752 36.5263V32.3616H28.7399C28.9941 32.3616 29.2458 32.3115 29.4806 32.2142C29.7154 32.117 29.9288 31.9744 30.1085 31.7947C30.2882 31.6149 30.4308 31.4016 30.5281 31.1667C30.6253 30.9319 30.6754 30.6802 30.6754 30.4261V27.7816C30.6753 27.2683 30.4714 26.7761 30.1084 26.4132C29.7455 26.0502 29.2532 25.8463 28.7399 25.8463Z" fill="white"/>
        <path d="M25.8865 44.7305H22.0697C18.508 44.7305 15.6206 47.6177 15.6206 51.1793C15.6206 54.7409 18.5078 57.6284 22.0697 57.6284H33.5969C29.4611 54.8708 26.5394 50.1873 25.8865 44.7305Z" fill="#0D253F"/>
        <path d="M6.66506 20.7103C6.66506 18.2102 6.96208 15.7851 7.51916 13.4727H0.376465V36.3752C0.376465 40.9888 4.11647 44.7288 8.72983 44.7288H18.696C11.4493 39.5902 6.66506 30.7526 6.66506 20.7103Z" fill="#D10028"/>
    </g>
    <defs>
        <clipPath id="clip0_1726_76479">
            <rect width="110" height="110" fill="white"/>
        </clipPath>
    </defs>
</svg>
