<svg width="110" height="110" viewBox="0 0 110 110" fill="none" xmlns="http://www.w3.org/2000/svg">
    <g clip-path="url(#clip0_1747_66064)">
        <path d="M23.2829 84.3711L0.486124 107.168C0.174862 107.479 0 107.901 0 108.342C0 108.782 0.174862 109.204 0.486124 109.515C0.797422 109.827 1.21961 110.001 1.65983 110.001C2.10004 110.001 2.52223 109.827 2.83353 109.515L25.6303 86.7185L23.2829 84.3711Z" fill="#033164"/>
        <path d="M94.9342 10.3516L101.976 17.3931L85.5454 33.8234L78.5039 26.7818L94.9342 10.3516Z" fill="#DBE9D8"/>
        <path d="M92.5865 8.00391L97.2809 12.6983L80.8506 29.1286L76.1562 24.4342L92.5865 8.00391ZM109.027 19.7511L104.332 15.0561L99.6372 19.7511L104.332 24.4461C105.629 25.7427 107.731 25.7427 109.027 24.4461C110.324 23.1498 110.324 21.0476 109.027 19.7511Z" fill="#DBE9D8"/>
        <path d="M104.333 19.7527C105.629 18.4562 105.629 16.3543 104.333 15.0577L90.2475 0.972404C88.951 -0.324135 86.849 -0.324135 85.5525 0.972404C84.2559 2.26894 84.2559 4.3709 85.5525 5.66744L99.6378 19.7527C100.934 21.0493 103.037 21.0493 104.333 19.7527Z" fill="#E5EEE3"/>
        <path d="M26.0821 77.6602L18.4612 86.6669C18.1922 86.9847 18.0525 87.3921 18.0698 87.8081C18.0871 88.2241 18.2601 88.6185 18.5546 88.9129L21.0896 91.448C21.3841 91.7424 21.7784 91.9155 22.1944 91.9328C22.6105 91.9501 23.0178 91.8104 23.3357 91.5414L32.3424 83.9204L30.7774 79.2254L26.0821 77.6602Z" fill="#DBE9D8"/>
        <path d="M42.5147 75.3094L34.6897 67.4844L26.082 77.6571L32.3421 83.9171L42.5147 75.3094Z" fill="#DBE9D8"/>
        <path d="M87.8995 36.1844L80.0745 28.3594L60.5117 47.9221L71.4668 52.6174L87.8995 36.1844Z" fill="#DBE9D8"/>
        <path d="M73.8138 22.1016L57.3809 38.5343L63.6411 51.0546L83.2039 31.4916L73.8138 22.1016Z" fill="#E5EEE3"/>
        <path d="M62.0758 62.0086H52.6855L56.5982 51.8359L65.2058 49.4883L66.7709 57.3136L62.0758 62.0086Z" fill="#0D253F"/>
        <path d="M52.6872 62.0069L47.9922 47.9216L52.6872 43.2266L65.2075 49.4866L52.6872 62.0069Z" fill="#0D253F"/>
        <path d="M43.2963 80.7879L62.0767 62.0075L57.3816 57.3125L42.1226 63.1815L33.9062 76.0928L38.6013 80.7879C39.8976 82.0844 41.9998 82.0844 43.2963 80.7879Z" fill="#03C557"/>
        <path d="M29.2107 71.3972L33.9057 76.0923C35.2023 77.3888 37.3042 77.3888 38.6007 76.0923L57.3811 57.3119L47.991 47.9219L29.2107 66.7022C27.9141 67.9988 27.9141 70.1009 29.2107 71.3972Z" fill="#19CE67"/>
        <path d="M66.7706 57.3133L62.0756 52.6183L61.293 47.1406L66.7706 47.923L71.4656 52.6183L66.7706 57.3133Z" fill="#0D253F"/>
        <path d="M57.3799 38.5195L66.7686 47.9083L62.0743 52.6026L52.6855 43.2139L57.3799 38.5195Z" fill="#033164"/>
        <path d="M97.2905 40.8825L92.5954 36.1875L87.9004 40.8825L92.5954 45.5776C93.892 46.8741 95.9939 46.8741 97.2905 45.5776C98.5868 44.281 98.5868 42.1788 97.2905 40.8825Z" fill="#DBE9D8"/>
        <path d="M92.594 40.8852C93.8905 39.5887 93.8905 37.4867 92.594 36.1902L69.1186 12.7146C67.8221 11.4181 65.7201 11.4181 64.4236 12.7146C63.127 14.0111 63.127 16.1131 64.4236 17.4096L87.8989 40.885C89.1955 42.1815 91.2977 42.1815 92.594 40.8852Z" fill="#E5EEE3"/>
    </g>
    <defs>
        <clipPath id="clip0_1747_66064">
            <rect width="110" height="110" fill="white"/>
        </clipPath>
    </defs>
</svg>
