<svg width="110" height="110" viewBox="0 0 110 110" fill="none" xmlns="http://www.w3.org/2000/svg">
    <path d="M80.8873 45.5062V59.3621C80.8873 62.1246 78.6476 64.3643 75.8851 64.3643C73.1225 64.3643 70.8828 62.1246 70.8828 59.3621V45.5062C70.8828 42.7436 73.1225 40.5039 75.8851 40.5039C78.6481 40.5039 80.8873 42.7436 80.8873 45.5062Z" fill="#D10028"/>
    <path d="M70.8828 45.6824V52.4304H80.8873V45.5024C80.8873 42.7132 78.6045 40.457 75.8052 40.5006C73.0436 40.5438 70.8828 42.9203 70.8828 45.6824Z" fill="#E8566F"/>
    <path d="M35.4414 8.78757V4.88749C35.4414 2.18828 37.6297 0 40.3289 0H60.6175C63.3167 0 65.5049 2.18828 65.5049 4.88749V8.78757H35.4414Z" fill="#223E5C"/>
    <path d="M62.7263 0.484375C63.0439 1.14192 63.2091 1.86259 63.2097 2.59278V5.57476C63.2097 5.81826 63.113 6.05178 62.9408 6.22396C62.7686 6.39613 62.5351 6.49286 62.2916 6.49286H35.4414V8.7881H65.5049V4.88803C65.5049 2.94533 64.3683 1.2721 62.7263 0.484375Z" fill="#0D253F"/>
    <path d="M31.2361 11.6104C31.2361 10.8621 31.5333 10.1445 32.0624 9.61541C32.5915 9.08631 33.3091 8.78906 34.0574 8.78906H66.8904C67.6386 8.78906 68.3563 9.08631 68.8853 9.61541C69.4144 10.1445 69.7117 10.8621 69.7117 11.6104C69.7117 12.3586 69.4144 13.0762 68.8853 13.6053C68.3563 14.1344 67.6386 14.4317 66.8904 14.4317H34.0574C33.6869 14.4317 33.32 14.3588 32.9777 14.2171C32.6353 14.0753 32.3243 13.8675 32.0623 13.6055C31.8003 13.3435 31.5925 13.0324 31.4507 12.6901C31.309 12.3478 31.236 11.9809 31.2361 11.6104Z" fill="#39DB7F"/>
    <path d="M67.3738 8.83203C67.4009 8.98903 67.4179 9.14923 67.4179 9.31403C67.4179 10.0623 67.1207 10.7799 66.5916 11.309C66.0625 11.8381 65.3449 12.1353 64.5966 12.1353H31.7636C31.5988 12.1353 31.4386 12.1184 31.2816 12.0913C31.3948 12.7459 31.7355 13.3395 32.2436 13.7674C32.7517 14.1954 33.3946 14.4303 34.0589 14.4306H66.8918C67.598 14.4309 68.2786 14.1661 68.7991 13.6888C69.3195 13.2114 69.6419 12.5561 69.7024 11.8525C69.763 11.1489 69.5574 10.4482 69.1262 9.88892C68.695 9.32963 68.0697 8.95247 67.3738 8.83203Z" fill="#19CE67"/>
    <path d="M35.4414 14.4297H65.5049V18.5051H35.4414V14.4297Z" fill="#1ABB5F"/>
    <path d="M32.992 18.5039H67.9577C68.3419 18.5039 68.7223 18.5796 69.0772 18.7266C69.4321 18.8736 69.7546 19.0891 70.0262 19.3608C70.2978 19.6325 70.5133 19.955 70.6602 20.3099C70.8072 20.6648 70.8828 21.0453 70.8828 21.4294V61.4355C70.8828 62.2113 70.5746 62.9553 70.026 63.5038C69.4775 64.0524 68.7335 64.3606 67.9577 64.3606H32.992C32.2162 64.3606 31.4721 64.0524 30.9235 63.5038C30.3749 62.9553 30.0666 62.2113 30.0665 61.4355V21.4294C30.0666 20.6536 30.3749 19.9095 30.9235 19.3609C31.4721 18.8123 32.2161 18.504 32.992 18.5039Z" fill="#39DB7F"/>
    <path d="M68.5301 18.5625C68.5669 18.748 68.5871 18.9394 68.5871 19.1354V59.1415C68.5871 59.5256 68.5114 59.906 68.3643 60.2609C68.2173 60.6159 68.0018 60.9383 67.7302 61.21C67.4585 61.4816 67.136 61.697 66.781 61.844C66.4261 61.991 66.0457 62.0666 65.6615 62.0665H30.6958C30.5035 62.0663 30.3116 62.0473 30.1229 62.0096C30.2555 62.6727 30.6138 63.2694 31.1366 63.6982C31.6595 64.1271 32.3148 64.3615 32.9911 64.3618H67.9568C68.7326 64.3618 69.4766 64.0536 70.0253 63.5051C70.5739 62.9565 70.8822 62.2125 70.8823 61.4367V21.4306C70.8821 20.7544 70.6477 20.099 70.2189 19.5761C69.79 19.0532 69.1933 18.695 68.5301 18.5625Z" fill="#19CE67"/>
    <path d="M30.0665 28.8242H70.8828V54.367H30.0665V28.8242Z" fill="#F1F2F2"/>
    <path d="M56.3783 39.7471H52.6049V35.9737C52.6049 35.4088 52.3805 34.8671 51.9811 34.4676C51.5816 34.0682 51.0398 33.8438 50.4749 33.8438C49.91 33.8438 49.3683 34.0682 48.9688 34.4676C48.5694 34.8671 48.345 35.4088 48.345 35.9737V39.7471H44.5716C44.0067 39.7471 43.4649 39.9715 43.0654 40.371C42.666 40.7704 42.4416 41.3122 42.4416 41.8771C42.4416 42.442 42.666 42.9838 43.0654 43.3832C43.4649 43.7827 44.0067 44.0071 44.5716 44.0071H48.345V47.7805C48.345 48.3454 48.5694 48.8871 48.9688 49.2866C49.3683 49.686 49.91 49.9104 50.4749 49.9104C51.0398 49.9104 51.5816 49.686 51.9811 49.2866C52.3805 48.8871 52.6049 48.3454 52.6049 47.7805V44.0071H56.3783C56.9432 44.0071 57.485 43.7827 57.8844 43.3832C58.2839 42.9838 58.5083 42.442 58.5083 41.8771C58.5083 41.3122 58.2839 40.7704 57.8844 40.371C57.485 39.9715 56.9432 39.7471 56.3783 39.7471Z" fill="#1ABB5F"/>
    <path d="M68.5848 28.8242H70.8801V54.367H68.5848V28.8242Z" fill="#E6E7E8"/>
    <path d="M71.1187 64.3639H57.2627C54.5002 64.3639 52.2605 62.1242 52.2605 59.3616C52.2605 56.5991 54.5002 54.3594 57.2627 54.3594H71.1187C73.8812 54.3594 76.1209 56.5991 76.1209 59.3616C76.1209 62.1242 73.8812 64.3639 71.1187 64.3639Z" fill="#D10028"/>
    <path d="M71.1187 54.3594H64.1907V64.3639H71.1187C73.8813 64.3639 76.121 62.1242 76.121 59.3616C76.121 56.5991 73.8813 54.3594 71.1187 54.3594Z" fill="#E8566F"/>
    <path d="M104.735 15.9267C101.871 15.979 99.6294 18.4363 99.6294 21.3008V44.2826C99.6294 45.4999 99.1456 46.6678 98.2849 47.5285L75.7814 70.032C72.3379 73.4755 70.4034 78.1458 70.4032 83.0157V92.4262H94.1208V86.325C94.1208 84.0995 94.9292 81.9498 96.3954 80.2756L107.76 67.302C109.226 65.6278 110.034 63.4781 110.034 61.2527V21.1281C110.035 18.2224 107.653 15.8734 104.735 15.9267Z" fill="#FCC4AE"/>
    <path d="M107.432 16.6289C107.627 17.1752 107.739 17.7614 107.739 18.3747V58.4987C107.739 60.7242 106.93 62.8739 105.463 64.5481L94.0993 77.5217C92.633 79.1958 91.8247 81.3456 91.8247 83.571V92.4265H94.1199V86.3253C94.1199 84.0998 94.9283 81.9501 96.3945 80.276L107.759 67.3023C109.225 65.6283 110.034 63.4786 110.034 61.253V21.129C110.034 19.2046 108.985 17.5291 107.432 16.6289Z" fill="#F2AD97"/>
    <path d="M100.692 52.339C99.0976 50.8016 96.7518 50.5496 94.8326 51.4484C95.2995 51.6774 95.7277 51.9778 96.1018 52.339C98.2029 54.3643 98.2258 57.7103 96.1711 59.765L84.4884 71.4483C84.184 71.7526 84.013 72.1654 84.013 72.5959C84.013 73.0263 84.184 73.4391 84.4884 73.7435C84.7927 74.0479 85.2055 74.2189 85.636 74.2189C86.0664 74.2189 86.4792 74.0479 86.7836 73.7435L100.762 59.765C102.817 57.7098 102.793 54.3643 100.692 52.339Z" fill="#F2AD97"/>
    <path d="M99.783 108.806V94.721C99.783 94.1123 99.5412 93.5285 99.1107 93.098C98.6803 92.6676 98.0965 92.4258 97.4878 92.4258H67.0198C66.4111 92.4258 65.8273 92.6676 65.3968 93.098C64.9664 93.5285 64.7245 94.1123 64.7245 94.721V108.806C64.7245 109.415 64.9664 109.999 65.3968 110.429C65.8273 110.859 66.4111 111.101 67.0198 111.101H97.4878C98.0965 111.101 98.6803 110.859 99.1107 110.429C99.5412 109.999 99.783 109.415 99.783 108.806Z" fill="#19CE67"/>
    <path d="M86.0106 96.0979H85.8403C85.5968 96.0979 85.3633 96.0012 85.1911 95.829C85.019 95.6568 84.9222 95.4233 84.9222 95.1798C84.9222 94.9363 85.019 94.7028 85.1911 94.5306C85.3633 94.3584 85.5968 94.2617 85.8403 94.2617H86.0106C86.2541 94.2617 86.4877 94.3584 86.6598 94.5306C86.832 94.7028 86.9287 94.9363 86.9287 95.1798C86.9287 95.4233 86.832 95.6568 86.6598 95.829C86.4877 96.0012 86.2541 96.0979 86.0106 96.0979ZM82.168 96.0979H67.4784C67.2349 96.0979 67.0014 96.0012 66.8292 95.829C66.657 95.6568 66.5603 95.4233 66.5603 95.1798C66.5603 94.9363 66.657 94.7028 66.8292 94.5306C67.0014 94.3584 67.2349 94.2617 67.4784 94.2617H82.168C82.4114 94.2617 82.645 94.3584 82.8171 94.5306C82.9893 94.7028 83.086 94.9363 83.086 95.1798C83.086 95.4233 82.9893 95.6568 82.8171 95.829C82.645 96.0012 82.4114 96.0979 82.168 96.0979Z" fill="#39DB7F"/>
    <path d="M67.0198 111.101C66.4111 111.101 65.8273 110.859 65.3968 110.429C64.9664 109.999 64.7245 109.415 64.7245 108.806V101.92H88.3068C88.9155 101.92 89.4993 101.678 89.9298 101.248C90.3602 100.818 90.602 100.234 90.602 99.625V92.4258H97.4878C98.0965 92.4258 98.6803 92.6676 99.1107 93.098C99.5412 93.5285 99.783 94.1123 99.783 94.721V108.806C99.783 109.415 99.5412 109.999 99.1107 110.429C98.6803 110.859 98.0965 111.101 97.4878 111.101H67.0198Z" fill="#0CC15A"/>
    <path d="M67.0198 111.101C66.4111 111.101 65.8273 110.859 65.3968 110.429C64.9664 109.999 64.7245 109.415 64.7245 108.806V106.511H92.8973C93.506 106.511 94.0898 106.269 94.5203 105.839C94.9507 105.408 95.1925 104.824 95.1925 104.216V92.4258H97.4878C98.0965 92.4258 98.6803 92.6676 99.1107 93.098C99.5412 93.5285 99.783 94.1123 99.783 94.721V108.806C99.783 109.415 99.5412 109.999 99.1107 110.429C98.6803 110.859 98.0965 111.101 97.4878 111.101H67.0198Z" fill="#1ABB5F"/>
    <path d="M15.9138 86.325V92.4262H39.6315V83.0157C39.6316 80.6044 39.1566 78.2166 38.2338 75.9889C37.311 73.7611 35.9584 71.7369 34.2533 70.032L11.7498 47.5285C10.889 46.6676 10.4053 45.5 10.4053 44.2826V21.3008C10.4053 18.4363 8.16418 15.979 5.30017 15.9267C2.382 15.8734 0 18.2224 0 21.1281V61.2522C0 63.4777 0.808384 65.6274 2.27459 67.3015L13.6388 80.2752C15.1053 81.9494 15.9138 84.0993 15.9138 86.325Z" fill="#FCC4AE"/>
    <path d="M37.3334 92.4263H39.6287V83.0158C39.6287 80.6045 39.1538 78.2168 38.231 75.989C37.3082 73.7612 35.9556 71.7371 34.2504 70.0321L31.9552 67.7369C35.3987 71.1804 37.3332 75.8507 37.3334 80.7206V92.4263ZM9.33788 52.339C10.9326 50.8016 13.2784 50.5496 15.1976 51.4484C14.7307 51.6774 14.3025 51.9778 13.9284 52.339C11.8273 54.3643 11.8044 57.7103 13.8591 59.765L25.5418 71.4483C25.8462 71.7526 26.0172 72.1654 26.0172 72.5959C26.0172 73.0263 25.8462 73.4391 25.5418 73.7435C25.2375 74.0479 24.8247 74.2189 24.3942 74.2189C23.9638 74.2189 23.551 74.0479 23.2466 73.7435L9.26857 59.765C7.21341 57.7098 7.23682 54.3643 9.33788 52.339Z" fill="#F2AD97"/>
    <path d="M45.307 108.806V94.721C45.307 94.1123 45.0652 93.5285 44.6347 93.098C44.2043 92.6676 43.6205 92.4258 43.0117 92.4258H12.5438C11.935 92.4258 11.3512 92.6676 10.9208 93.098C10.4904 93.5285 10.2485 94.1123 10.2485 94.721V108.806C10.2485 109.415 10.4904 109.999 10.9208 110.429C11.3512 110.859 11.935 111.101 12.5438 111.101H43.0117C43.6205 111.101 44.2043 110.859 44.6347 110.429C45.0652 109.999 45.307 109.415 45.307 108.806Z" fill="#19CE67"/>
    <path d="M12.5438 111.101C11.935 111.101 11.3512 110.859 10.9208 110.429C10.4904 109.999 10.2485 109.415 10.2485 108.806V106.511H38.4213C39.03 106.511 39.6138 106.269 40.0442 105.839C40.4747 105.408 40.7165 104.824 40.7165 104.216V92.4258H43.0117C43.6205 92.4258 44.2043 92.6676 44.6347 93.098C45.0652 93.5285 45.307 94.1123 45.307 94.721V108.806C45.307 109.415 45.0652 109.999 44.6347 110.429C44.2043 110.859 43.6205 111.101 43.0117 111.101H12.5438Z" fill="#0CC15A"/>
</svg>
