<svg width="110" height="110" viewBox="0 0 110 110" fill="none" xmlns="http://www.w3.org/2000/svg">
    <path d="M42.6056 0H40.3922C38.5588 0 37.0723 1.48629 37.0723 3.31998V7.74662L45.9253 9.90988V3.31998C45.9255 1.48629 44.439 0 42.6056 0Z" fill="#39AB69"/>
    <path d="M52.1228 3.31998V7.74662L45.4831 9.90988V3.31998C45.4831 1.48736 43.9957 0 42.1631 0H48.8028C50.6354 0 52.1228 1.48736 52.1228 3.31998Z" fill="#3AA567"/>
    <path d="M66.7308 110H16.2679C11.9897 110 8.52148 106.532 8.52148 102.254V22.1331C8.52148 17.8549 11.9897 14.3867 16.2679 14.3867H66.7308C71.009 14.3867 74.4772 17.8549 74.4772 22.1331V102.254C74.4772 106.532 71.009 110 66.7308 110Z" fill="#072446"/>
    <path d="M80.6742 22.1329V102.254C80.6742 106.532 77.206 110 72.9278 110H66.2881C70.5663 110 74.0345 106.532 74.0345 102.254L66.7928 72.5958L74.0345 22.1331C74.0345 17.8549 70.5663 14.3867 66.2881 14.3867H72.9278C77.206 14.3865 80.6742 17.8547 80.6742 22.1329Z" fill="#061526"/>
    <path d="M47.2876 91.755L15.1611 72.5967V22.134C15.1611 21.9887 15.1897 21.8447 15.2453 21.7105C15.3009 21.5762 15.3824 21.4542 15.4852 21.3514C15.588 21.2486 15.71 21.1671 15.8443 21.1115C15.9785 21.0559 16.1225 21.0273 16.2678 21.0273H72.9277C73.073 21.0273 73.2169 21.0559 73.3512 21.1115C73.4855 21.1671 73.6075 21.2486 73.7103 21.3514C73.813 21.4542 73.8946 21.5762 73.9502 21.7105C74.0058 21.8447 74.0344 21.9887 74.0343 22.134V72.5967L47.2876 91.755Z" fill="white"/>
    <path d="M55.2021 25.0651L52.4489 9.57205C52.3576 9.06025 52.0892 8.59687 51.6906 8.26305C51.2921 7.92923 50.7888 7.74623 50.2689 7.74609H32.7308C32.2109 7.74615 31.7076 7.92911 31.309 8.26295C30.9104 8.59679 30.642 9.06021 30.5508 9.57205L27.7975 25.0651C27.5563 26.4218 28.5987 27.6658 29.9754 27.6658H53.0245C54.401 27.6658 55.4434 26.4218 55.2021 25.0651ZM52.4777 20.0519C52.1703 20.3611 51.8048 20.6064 51.4021 20.7735C50.9994 20.9407 50.5676 21.0264 50.1316 21.0258H39.0652C37.2326 21.0258 35.7453 19.5384 35.7453 17.7058C35.7453 16.7895 36.1171 15.9596 36.7191 15.3597C37.0265 15.0505 37.3921 14.8053 37.7948 14.6381C38.1974 14.471 38.6292 14.3852 39.0652 14.3858H50.1316C51.9642 14.3858 53.4516 15.8732 53.4516 17.7058C53.4516 18.6221 53.0797 19.4523 52.4777 20.0519Z" fill="#10B758"/>
    <path d="M59.2215 27.6658H52.5815C53.9583 27.6658 55.0007 26.4218 54.7594 25.0651L52.0062 9.57205C51.9149 9.06025 51.6464 8.59687 51.2479 8.26305C50.8493 7.92923 50.3461 7.74623 49.8262 7.74609H56.4659C57.5393 7.74609 58.458 8.51631 58.6459 9.57205L61.3992 25.0651C61.6404 26.4218 60.598 27.6658 59.2215 27.6658Z" fill="#39AB69"/>
    <path d="M72.9279 103.359H16.2678C16.1225 103.359 15.9785 103.33 15.8443 103.275C15.71 103.219 15.588 103.138 15.4852 103.035C15.3824 102.932 15.3009 102.81 15.2453 102.676C15.1897 102.542 15.1611 102.398 15.1611 102.252V96.719L43.5319 94.5938L74.0343 96.719V102.252C74.0344 102.398 74.0058 102.542 73.9502 102.676C73.8946 102.81 73.8131 102.932 73.7103 103.035C73.6076 103.138 73.4856 103.219 73.3514 103.275C73.2171 103.33 73.0732 103.359 72.9279 103.359Z" fill="#F1F2F2"/>
    <path d="M77.354 41.4557C67.4417 39.866 59.8691 31.2747 59.8691 20.9142C59.8691 10.5541 67.442 1.96245 77.354 0.37282C78.4351 0.199441 81.3307 0.766199 81.3307 0.766199C91.8392 4.35968 98.4772 9.42397 98.4772 20.914V21.0247C97.6415 36.4073 82.3308 41.654 77.354 41.4557Z" fill="#F91541"/>
    <path d="M101.479 20.9142C101.479 26.6598 99.1508 31.8611 95.3861 35.6258C91.6214 39.3905 86.42 41.719 80.6745 41.719C79.5626 41.7192 78.4524 41.6311 77.3545 41.4556C81.77 40.7473 85.7229 38.6491 88.7462 35.6258C92.5109 31.8611 94.8393 26.6598 94.8393 20.9142C94.8393 15.1684 92.5109 9.96727 88.7462 6.20256C85.7231 3.17928 81.77 1.08111 77.3545 0.372774C78.4524 0.197272 79.5626 0.109196 80.6745 0.109375C86.42 0.109375 91.6214 2.43764 95.3861 6.20256C99.1508 9.96748 101.479 15.1686 101.479 20.9142Z" fill="#D10028"/>
    <path d="M91.8394 19.2844C91.8394 15.8482 89.0538 13.0625 85.6176 13.0625C83.7484 13.0625 82.0726 13.8873 80.9322 15.1922C80.9002 15.2292 80.8605 15.2589 80.816 15.2793C80.7715 15.2996 80.7231 15.3101 80.6741 15.3101C80.6251 15.3101 80.5768 15.2996 80.5322 15.2793C80.4877 15.2589 80.448 15.2292 80.416 15.1922C79.2756 13.8873 77.5998 13.0625 75.7307 13.0625C72.2945 13.0625 69.5088 15.8482 69.5088 19.2844V20.4346C69.5088 24.9822 77.7957 31.5999 80.674 31.5999C83.5523 31.5999 91.8392 24.9822 91.8392 20.4346V19.2844" fill="white"/>
    <path d="M15.1611 72.5938H74.0343V96.7186H15.1611V72.5938Z" fill="#C5F7DA"/>
    <path d="M54.3796 91.7537C54.042 91.7538 53.7124 91.651 53.4348 91.459C53.1572 91.2669 52.9447 90.9948 52.8258 90.6788L51.2684 86.5433H49.482C49.1532 86.5433 48.8317 86.4456 48.5585 86.2627C48.2852 86.0797 48.0724 85.8197 47.9472 85.5157L47.1933 83.6854L44.4136 90.7048C44.2911 91.0142 44.0784 91.2796 43.8032 91.4666C43.528 91.6536 43.2029 91.7536 42.8702 91.7537L42.8562 91.7535C42.5211 91.7506 42.1947 91.6464 41.92 91.4546C41.6452 91.2627 41.435 90.9922 41.3169 90.6786L39.7595 86.5431H37.0877C36.758 86.5431 36.4358 86.4449 36.1621 86.2611C35.8884 86.0773 35.6756 85.8162 35.5509 85.511L34.7066 83.4442L31.8317 90.7046C31.7092 91.0139 31.4966 91.2793 31.2214 91.4663C30.9462 91.6533 30.6212 91.7534 30.2885 91.7535L30.2743 91.7532C29.9392 91.7504 29.6128 91.6462 29.3381 91.4544C29.0633 91.2625 28.8531 90.992 28.735 90.6784L27.1776 86.5429H24.0632C23.623 86.5429 23.2008 86.368 22.8895 86.0567C22.5782 85.7454 22.4033 85.3232 22.4033 84.883C22.4033 84.4427 22.5782 84.0205 22.8895 83.7093C23.2008 83.398 23.623 83.2231 24.0632 83.2231H28.3261C28.6636 83.2231 28.9931 83.326 29.2706 83.518C29.5481 83.7101 29.7605 83.9821 29.8795 84.2979L30.3274 85.4867L33.1395 78.3848C33.2615 78.0768 33.4728 77.8124 33.7463 77.6255C34.0197 77.4386 34.3429 77.3377 34.6741 77.3359H34.6829C35.0126 77.3359 35.3349 77.4341 35.6086 77.6179C35.8823 77.8017 36.095 78.0628 36.2197 78.3681L38.2029 83.2229H40.9082C41.2457 83.2229 41.5752 83.3258 41.8527 83.5178C42.1302 83.7098 42.3426 83.9819 42.4616 84.2977L42.9095 85.4865L45.6198 78.642C45.7416 78.3344 45.9525 78.0702 46.2255 77.8833C46.4984 77.6965 46.821 77.5954 47.1518 77.5931H47.1632C47.4921 77.5931 47.8135 77.6907 48.0868 77.8737C48.36 78.0566 48.5728 78.3166 48.698 78.6207L50.5938 83.2229H52.4174C52.7549 83.2229 53.0844 83.3258 53.3619 83.5178C53.6394 83.7098 53.8518 83.9819 53.9707 84.2977L54.5699 85.8882L58.1293 78.5303C58.2694 78.2429 58.4892 78.0018 58.7624 77.8357C59.0357 77.6697 59.3509 77.5857 59.6706 77.5938C59.9904 77.6028 60.3008 77.7042 60.5645 77.8855C60.8281 78.0669 61.0337 78.3205 61.1566 78.616L63.0715 83.2229H65.1332C65.5734 83.2229 65.9956 83.3978 66.3069 83.709C66.6182 84.0203 66.793 84.4425 66.793 84.8828C66.793 85.323 66.6182 85.7452 66.3069 86.0565C65.9956 86.3678 65.5734 86.5426 65.1332 86.5426H61.9642C61.6362 86.5427 61.3156 86.4455 61.0428 86.2635C60.77 86.0814 60.5572 85.8226 60.4313 85.5198L59.5092 83.3015L55.874 90.8159C55.7382 91.0968 55.5259 91.3337 55.2616 91.4996C54.9973 91.6654 54.6916 91.7535 54.3796 91.7537Z" fill="#11BD5B"/>
    <path d="M28.7209 64.409C28.2806 64.409 27.8584 64.2341 27.547 63.9228L23.9795 60.3554C23.6707 60.0435 23.4979 59.622 23.499 59.1832C23.5001 58.7443 23.675 58.3237 23.9853 58.0133C24.2957 57.703 24.7163 57.5282 25.1552 57.5272C25.5941 57.5261 26.0155 57.6989 26.3273 58.0078L28.7209 60.4016L35.079 54.0439C35.2331 53.8898 35.4161 53.7675 35.6175 53.6841C35.8189 53.6006 36.0348 53.5577 36.2528 53.5577C36.4708 53.5577 36.6867 53.6006 36.8881 53.6841C37.0895 53.7675 37.2725 53.8898 37.4266 54.0439C37.5807 54.198 37.703 54.381 37.7864 54.5824C37.8699 54.7838 37.9128 54.9997 37.9128 55.2177C37.9128 55.4357 37.8699 55.6516 37.7864 55.853C37.703 56.0544 37.5807 56.2374 37.4266 56.3915L29.895 63.9228C29.5835 64.2341 29.1613 64.4089 28.7209 64.409ZM28.7209 46.7029C28.2806 46.7029 27.8584 46.528 27.547 46.2167L23.9795 42.6492C23.6707 42.3374 23.4979 41.9159 23.499 41.477C23.5001 41.0381 23.675 40.6175 23.9853 40.3072C24.2957 39.9969 24.7163 39.8221 25.1552 39.821C25.5941 39.82 26.0155 39.9928 26.3273 40.3016L28.7209 42.6954L35.079 36.3378C35.2331 36.1836 35.4161 36.0613 35.6175 35.9779C35.8189 35.8945 36.0348 35.8516 36.2528 35.8516C36.4708 35.8516 36.6867 35.8945 36.8881 35.9779C37.0895 36.0613 37.2725 36.1836 37.4266 36.3378C37.5807 36.4919 37.703 36.6749 37.7864 36.8763C37.8699 37.0777 37.9128 37.2936 37.9128 37.5116C37.9128 37.7296 37.8699 37.9454 37.7864 38.1468C37.703 38.3482 37.5807 38.5312 37.4266 38.6854L29.895 46.2167C29.5835 46.5279 29.1613 46.7028 28.7209 46.7029Z" fill="#11BD5B"/>
    <path d="M64.0747 63.9627H53.8937C53.4534 63.9627 53.0312 63.7879 52.7199 63.4766C52.4087 63.1653 52.2338 62.7431 52.2338 62.3029C52.2338 61.8626 52.4087 61.4404 52.7199 61.1291C53.0312 60.8179 53.4534 60.643 53.8937 60.643H64.0747C64.2927 60.6429 64.5085 60.6859 64.7099 60.7693C64.9113 60.8527 65.0943 60.9749 65.2484 61.1291C65.4026 61.2832 65.5248 61.4662 65.6083 61.6676C65.6917 61.869 65.7346 62.0849 65.7346 62.3029C65.7346 62.5208 65.6917 62.7367 65.6083 62.9381C65.5248 63.1395 65.4026 63.3225 65.2484 63.4766C65.0943 63.6308 64.9113 63.753 64.7099 63.8364C64.5085 63.9198 64.2927 63.9628 64.0747 63.9627ZM47.2539 63.9627H43.0486C42.6083 63.9627 42.1861 63.7879 41.8748 63.4766C41.5636 63.1653 41.3887 62.7431 41.3887 62.3029C41.3887 61.8626 41.5636 61.4404 41.8748 61.1291C42.1861 60.8179 42.6083 60.643 43.0486 60.643H47.2537C47.4717 60.6429 47.6875 60.6859 47.8889 60.7693C48.0903 60.8527 48.2733 60.9749 48.4275 61.1291C48.5816 61.2832 48.7039 61.4662 48.7873 61.6676C48.8707 61.869 48.9136 62.0849 48.9136 62.3029C48.9136 62.5208 48.8707 62.7367 48.7874 62.9381C48.704 63.1395 48.5817 63.3225 48.4276 63.4766C48.2735 63.6308 48.0905 63.753 47.8891 63.8364C47.6877 63.9198 47.4719 63.9628 47.2539 63.9627ZM64.0747 57.323H43.0486C42.6083 57.323 42.1861 57.1481 41.8748 56.8368C41.5636 56.5255 41.3887 56.1033 41.3887 55.6631C41.3887 55.2229 41.5636 54.8007 41.8748 54.4894C42.1861 54.1781 42.6083 54.0032 43.0486 54.0032H64.0747C64.2927 54.0032 64.5085 54.0461 64.7099 54.1295C64.9113 54.2129 65.0943 54.3352 65.2484 54.4893C65.4026 54.6435 65.5248 54.8265 65.6083 55.0279C65.6917 55.2293 65.7346 55.4451 65.7346 55.6631C65.7346 55.8811 65.6917 56.0969 65.6083 56.2983C65.5248 56.4997 65.4026 56.6827 65.2484 56.8369C65.0943 56.991 64.9113 57.1133 64.7099 57.1967C64.5085 57.2801 64.2927 57.323 64.0747 57.323ZM64.0747 46.2566H53.8937C53.4534 46.2566 53.0312 46.0817 52.7199 45.7704C52.4087 45.4591 52.2338 45.0369 52.2338 44.5967C52.2338 44.1565 52.4087 43.7343 52.7199 43.423C53.0312 43.1117 53.4534 42.9368 53.8937 42.9368H64.0747C64.2927 42.9368 64.5085 42.9797 64.7099 43.0631C64.9113 43.1465 65.0943 43.2688 65.2484 43.4229C65.4026 43.5771 65.5248 43.7601 65.6083 43.9615C65.6917 44.1629 65.7346 44.3787 65.7346 44.5967C65.7346 44.8147 65.6917 45.0306 65.6083 45.232C65.5248 45.4334 65.4026 45.6164 65.2484 45.7705C65.0943 45.9246 64.9113 46.0469 64.7099 46.1303C64.5085 46.2137 64.2927 46.2566 64.0747 46.2566ZM47.2539 46.2566H43.0486C42.6083 46.2566 42.1861 46.0817 41.8748 45.7704C41.5636 45.4591 41.3887 45.0369 41.3887 44.5967C41.3887 44.1565 41.5636 43.7343 41.8748 43.423C42.1861 43.1117 42.6083 42.9368 43.0486 42.9368H47.2537C47.4717 42.9368 47.6875 42.9797 47.8889 43.0631C48.0903 43.1465 48.2733 43.2688 48.4275 43.4229C48.5816 43.5771 48.7039 43.7601 48.7873 43.9615C48.8707 44.1629 48.9136 44.3787 48.9136 44.5967C48.9136 44.8147 48.8707 45.0305 48.7874 45.2319C48.704 45.4333 48.5817 45.6163 48.4276 45.7705C48.2735 45.9246 48.0905 46.0469 47.8891 46.1303C47.6877 46.2137 47.4719 46.2566 47.2539 46.2566ZM59.2055 39.6166H43.0486C42.6083 39.6166 42.1861 39.4418 41.8748 39.1305C41.5636 38.8192 41.3887 38.397 41.3887 37.9568C41.3887 37.5165 41.5636 37.0943 41.8748 36.783C42.1861 36.4718 42.6083 36.2969 43.0486 36.2969H59.2055C60.1224 36.2969 60.8653 37.04 60.8653 37.9568C60.8653 38.8735 60.1224 39.6166 59.2055 39.6166Z" fill="#10B758"/>
</svg>
