<svg width="110" height="110" viewBox="0 0 110 110" fill="none" xmlns="http://www.w3.org/2000/svg">
    <g clip-path="url(#clip0_1211_61591)">
        <path d="M71.8125 25.9671C71.1738 25.9671 70.529 25.7778 69.9664 25.3836L59.4092 17.9886C59.0625 17.7458 58.7671 17.4371 58.5397 17.0801C58.3124 16.7231 58.1576 16.3248 58.0842 15.908C58.0108 15.4912 58.0203 15.064 58.112 14.6508C58.2037 14.2376 58.3759 13.8465 58.6187 13.4999L67.115 1.37369C68.1365 -0.0838129 70.1458 -0.437661 71.6033 0.583492L82.1607 7.97841C82.5074 8.22118 82.8029 8.52988 83.0303 8.88687C83.2577 9.24387 83.4125 9.64217 83.4859 10.059C83.5593 10.4759 83.5498 10.9031 83.4581 11.3163C83.3663 11.7295 83.194 12.1205 82.9511 12.4671L74.4545 24.5934C73.8275 25.4882 72.8281 25.9671 71.8125 25.9671Z"
              fill="#0EBF5A"/>
        <path d="M69.9666 25.3818C70.5072 25.7619 71.152 25.9657 71.8128 25.9653C72.8283 25.9653 73.8278 25.4864 74.4547 24.5916L82.9511 12.4652C83.4415 11.7651 83.6337 10.8989 83.4855 10.0571C83.3372 9.21535 82.8607 8.46691 82.1607 7.97645L76.9301 4.3125L64.7285 21.7125L69.9666 25.3818Z"
              fill="#06B552"/>
        <path d="M34.131 57.2657C33.4927 57.2657 32.8483 57.0767 32.2857 56.6831C30.8275 55.6626 30.4728 53.6529 31.4933 52.195L36.6169 44.8748C37.6376 43.4167 39.6469 43.0624 41.1052 44.0825C42.5634 45.1032 42.9181 47.1126 41.8976 48.5706L36.774 55.8907C36.4768 56.3159 36.0812 56.6629 35.6211 56.9023C35.1609 57.1417 34.6497 57.2664 34.131 57.2657ZM44.6879 64.6609C44.0496 64.6609 43.4051 64.4718 42.8427 64.078C41.3845 63.0575 41.0298 61.0481 42.0503 59.5899L47.1741 52.2698C48.1951 50.8116 50.2047 50.4571 51.6624 51.4776C53.1206 52.4981 53.4753 54.5076 52.4548 55.9657L47.331 63.2859C47.0338 63.711 46.6382 64.0581 46.1781 64.2975C45.7179 64.5369 45.2067 64.6615 44.6879 64.6609Z"
              fill="#0D9F4C"/>
        <path d="M52.4513 59.1882C51.8125 59.1882 51.1678 58.9989 50.6051 58.6047L34.7692 47.5121C34.4224 47.2693 34.1268 46.9605 33.8993 46.6034C33.6719 46.2462 33.5171 45.8478 33.4437 45.4308C33.3704 45.0138 33.3799 44.5864 33.4719 44.1731C33.5638 43.7598 33.7363 43.3687 33.9794 43.0221L55.9902 11.6343C57.0122 10.1776 59.0206 9.82442 60.4776 10.8451L76.3135 21.9377C76.6603 22.1806 76.9558 22.4894 77.1832 22.8465C77.4105 23.2037 77.5653 23.6021 77.6386 24.019C77.712 24.436 77.7025 24.8633 77.6106 25.2765C77.5187 25.6898 77.3464 26.0809 77.1033 26.4275L55.0926 57.8156C54.7953 58.2401 54.3999 58.5865 53.9401 58.8255C53.4802 59.0644 52.9695 59.1889 52.4513 59.1882Z"
              fill="#19CE67"/>
        <path d="M50.605 58.6047C51.1456 58.9848 51.7903 59.1886 52.4511 59.1882C53.4663 59.1882 54.4653 58.7096 55.0924 57.8156L77.103 26.4276C77.3462 26.081 77.5187 25.6899 77.6106 25.2766C77.7025 24.8633 77.7121 24.436 77.6387 24.019C77.5654 23.602 77.4106 23.2035 77.1831 22.8464C76.9557 22.4893 76.6601 22.1806 76.3132 21.9378L68.4385 16.4219L42.7275 53.0869L50.605 58.6047Z"
              fill="#0EBF5A"/>
        <path d="M67.1533 35.0234L58.0068 48.0894C59.5046 47.772 61.0316 47.6122 62.5627 47.6126C74.6621 47.6126 84.5056 57.4561 84.5056 69.5555C84.5056 81.6548 74.6623 91.4981 62.563 91.4981C53.2031 91.4981 45.1948 85.6067 42.0473 77.338H28.603C32.1385 92.8293 46.0002 104.389 62.5627 104.389C81.8007 104.389 97.3962 88.7935 97.3962 69.5555C97.3964 51.8736 84.2216 37.2707 67.1533 35.0234Z"
              fill="#2D2C2C"/>
        <path d="M67.1533 35.0234L62.5627 41.5811V47.6126C74.6621 47.6126 84.5056 57.4561 84.5056 69.5555C84.5056 81.6548 74.6621 91.4981 62.563 91.4981V104.389C81.8009 104.389 97.3964 88.7935 97.3964 69.5555C97.3964 51.8736 84.2216 37.2707 67.1533 35.0234Z"
              fill="#2D2C2C"/>
        <path d="M56.6467 80.5586H15.8264C14.0467 80.5586 12.6038 79.1157 12.6038 77.3359C12.6038 75.5562 14.0467 74.1133 15.8264 74.1133H56.6467C58.4265 74.1133 59.8694 75.5562 59.8694 77.3359C59.8694 79.1157 58.4265 80.5586 56.6467 80.5586Z"
              fill="#16AF58"/>
        <path d="M62.5627 47.6953C66.7157 47.6953 70.0823 44.3287 70.0823 40.1758C70.0823 36.0229 66.7157 32.6562 62.5627 32.6562C58.4098 32.6562 55.0432 36.0229 55.0432 40.1758C55.0432 44.3287 58.4098 47.6953 62.5627 47.6953Z"
              fill="#16AF58"/>
        <path d="M62.563 50.918C56.6397 50.918 51.8208 46.099 51.8208 40.1758C51.8208 34.2525 56.6397 29.4336 62.563 29.4336C68.4862 29.4336 73.3052 34.2525 73.3052 40.1758C73.3052 46.099 68.4862 50.918 62.563 50.918ZM62.563 35.8789C60.1937 35.8789 58.2661 37.8065 58.2661 40.1758C58.2661 42.5451 60.1937 44.4727 62.563 44.4727C64.9323 44.4727 66.8599 42.5451 66.8599 40.1758C66.8599 37.8065 64.9323 35.8789 62.563 35.8789Z"
              fill="#F1F2F2"/>
        <path d="M84.1028 110.001H41.1426C40.6415 110.001 40.1473 109.884 39.6992 109.659C39.2511 109.435 38.8616 109.109 38.5615 108.708C38.2615 108.306 38.0592 107.84 37.9706 107.347C37.8821 106.854 37.9098 106.347 38.0514 105.866L39.3772 101.37C40.5009 97.5601 42.7758 94.2886 45.9566 91.9099C49.1376 89.5309 52.9182 88.2734 56.89 88.2734H68.3551C72.327 88.2734 76.1076 89.5309 79.2888 91.9099C82.4695 94.2886 84.7445 97.5601 85.8681 101.371L87.1939 105.867C87.3356 106.347 87.3632 106.854 87.2746 107.347C87.1861 107.841 86.9837 108.306 86.6836 108.708C86.3836 109.109 85.994 109.435 85.546 109.659C85.098 109.884 84.6038 110.001 84.1028 110.001Z"
              fill="#06B552"/>
        <path d="M85.8679 101.371C84.7443 97.5603 82.4693 94.2888 79.2885 91.9099C76.1074 89.5309 72.327 88.2734 68.3549 88.2734H62.5627V110.001H84.1025C85.1185 110.001 86.0752 109.521 86.6837 108.708C86.9837 108.306 87.186 107.84 87.2745 107.347C87.363 106.854 87.3354 106.347 87.1937 105.866L85.8679 101.371Z"
              fill="#0D9F4C"/>
    </g>
    <defs>
        <clipPath id="clip0_1211_61591">
            <rect width="110" height="110" fill="white"/>
        </clipPath>
    </defs>
</svg>
