<svg width="110" height="110" viewBox="0 0 110 110" fill="none" xmlns="http://www.w3.org/2000/svg">
    <g clip-path="url(#clip0_1715_54485)">
        <path d="M109.905 38.2131L59.2341 88.8843C58.9984 89.12 58.6787 89.2524 58.3453 89.2524C58.012 89.2524 57.6923 89.12 57.4566 88.8843L29.0883 60.516C28.8526 60.2803 28.7202 59.9606 28.7202 59.6273C28.7202 59.2939 28.8526 58.9742 29.0883 58.7385L79.7593 8.06733C79.995 7.83163 80.3147 7.69922 80.6481 7.69922C80.9814 7.69922 81.3011 7.83163 81.5368 8.06733L109.905 36.4356C110.022 36.5523 110.114 36.6908 110.178 36.8433C110.241 36.9958 110.273 37.1592 110.273 37.3243C110.273 37.4894 110.241 37.6528 110.178 37.8053C110.115 37.9578 110.022 38.0964 109.905 38.2131Z" fill="#19CE67"/>
        <path d="M109.907 36.4346L102.265 28.793L49.8164 81.2417L57.4581 88.8833C57.6938 89.119 58.0135 89.2515 58.3468 89.2515C58.6802 89.2515 58.9999 89.119 59.2356 88.8833L109.907 38.2121C110.142 37.9764 110.275 37.6567 110.275 37.3234C110.275 36.99 110.142 36.6703 109.907 36.4346Z" fill="#19CE67"/>
        <path d="M39.9773 62.9193C41.0828 60.8739 41.0828 58.3849 39.9773 56.3393C39.8289 56.0647 39.8718 55.7267 40.0925 55.506L76.525 19.0735C76.7458 18.8527 77.0837 18.8099 77.3583 18.9585C79.4033 20.064 81.8925 20.064 83.9383 18.9583C84.213 18.8099 84.5509 18.8527 84.7717 19.0733L98.9012 33.2028C99.1219 33.4236 99.1648 33.7615 99.0162 34.0361C97.9104 36.0818 97.9104 38.5705 99.0162 40.6161C99.1646 40.8908 99.1217 41.2287 98.9012 41.4494L62.4685 77.8821C62.2477 78.1029 61.9098 78.1458 61.6352 77.9974C59.5895 76.8918 57.1006 76.8918 55.0553 77.9974C54.7807 78.1458 54.4428 78.1029 54.222 77.8821L40.0925 63.7526C39.8718 63.5319 39.8289 63.1937 39.9773 62.9193Z" fill="#34E37F"/>
        <path d="M99.018 40.6155C97.9122 38.5698 97.9122 36.0811 99.018 34.0354C99.1664 33.7608 99.1235 33.4229 98.903 33.2021L90.7672 25.0664C89.3057 27.3363 89.3057 30.2794 90.7672 32.5493L53.5706 69.7458C51.3007 68.2844 48.3573 68.2846 46.0879 69.7458L54.2236 77.8815C54.4444 78.1023 54.7823 78.1449 55.0569 77.9965C57.1022 76.8912 59.5911 76.891 61.6368 77.9967C61.9114 78.1451 62.2493 78.1023 62.4701 77.8815L98.9028 41.4488C99.1235 41.2282 99.1664 40.8901 99.018 40.6155Z" fill="#2BDD77"/>
        <path d="M76.8044 55.7834C80.84 51.7476 80.8399 45.2046 76.8042 41.169C72.7685 37.1334 66.2254 37.1336 62.1899 41.1693C58.1543 45.205 58.1544 51.748 62.1901 55.7836C66.2258 59.8192 72.7689 59.8191 76.8044 55.7834Z" fill="#F3E8D7"/>
        <path d="M57.2434 73.0154L72.8345 57.4243C74.6312 55.6276 75.3952 53.4785 73.5985 51.6818C70.7667 48.1653 60.4295 50.9853 55.526 55.8888C53.3372 58.0775 51.1487 60.2664 48.9606 62.4557C48.2324 63.1842 47.2455 63.5934 46.2029 63.5934H46.1492C44.429 63.5934 42.4141 61.9276 41.9705 60.2656L41.9694 45.8588L44.5421 43.2861L47.3687 40.4595L58.5951 29.2331C53.9766 28.7155 49.3838 28.4355 47.6022 28.2221C45.6216 27.9847 43.9321 28.8723 42.395 30.1439L28.0229 41.4823C25.995 43.1605 24.532 45.4215 23.8321 47.959C22.263 53.6424 18.958 63.6957 16.8605 67.6935L6.38184 78.1722L24.5232 96.3136L29.5687 91.2681C30.5169 90.3198 31.6895 89.6267 32.9775 89.2532L43.5149 85.7051C46.8252 84.5693 49.7393 82.506 51.91 79.7608L57.2434 73.0154Z" fill="#FCD7C3"/>
        <path d="M51.9105 79.762L57.244 73.0168L72.835 57.4257C74.6317 55.629 75.3957 53.4799 73.599 51.6832C72.5581 50.3905 70.5029 49.9544 68.0762 50.1631C64.522 50.4687 61.2099 52.0935 58.6874 54.616L48.7653 64.5381L43.4319 71.2834C41.2613 74.0286 38.3472 76.092 35.0368 77.2276L24.4994 80.7758C23.2114 81.1493 22.0387 81.8424 21.0904 82.7907L16.0449 87.8361L24.5235 96.3148L29.569 91.2693C30.5172 90.321 31.6899 89.6279 32.9778 89.2544L43.5153 85.7063C46.8256 84.5705 49.7397 82.5072 51.9105 79.762Z" fill="#FFCDAC"/>
        <path d="M21.5806 102.117L0.583683 81.12C0.398636 80.935 0.251845 80.7153 0.151696 80.4736C0.0515467 80.2318 0 79.9727 0 79.7111C0 79.4494 0.0515467 79.1903 0.151696 78.9486C0.251845 78.7068 0.398636 78.4872 0.583683 78.3022L4.27873 74.6071C4.46373 74.4221 4.68338 74.2753 4.92512 74.1751C5.16686 74.075 5.42597 74.0234 5.68763 74.0234C5.9493 74.0234 6.2084 74.075 6.45015 74.1751C6.69189 74.2753 6.91153 74.4221 7.09654 74.6071L28.0936 95.6042C28.2787 95.7892 28.4255 96.0089 28.5256 96.2506C28.6258 96.4924 28.6773 96.7515 28.6773 97.0131C28.6773 97.2748 28.6258 97.5339 28.5256 97.7756C28.4255 98.0174 28.2787 98.237 28.0936 98.422L24.3986 102.117C24.2136 102.302 23.9939 102.449 23.7522 102.549C23.5104 102.649 23.2513 102.701 22.9896 102.701C22.7279 102.701 22.4688 102.649 22.2271 102.549C21.9853 102.449 21.7656 102.302 21.5806 102.117Z" fill="#082F5A"/>
        <path d="M28.0943 95.6059L20.9728 88.4844L14.46 94.9972L21.5815 102.119C21.7665 102.304 21.9861 102.451 22.2279 102.551C22.4696 102.651 22.7287 102.702 22.9904 102.702C23.252 102.702 23.5111 102.651 23.7529 102.551C23.9946 102.451 24.2143 102.304 24.3993 102.119L28.0941 98.4239C28.2792 98.2389 28.426 98.0193 28.5262 97.7775C28.6263 97.5357 28.6779 97.2766 28.6779 97.0149C28.6779 96.7533 28.6264 96.4941 28.5263 96.2524C28.4261 96.0106 28.2794 95.7909 28.0943 95.6059Z" fill="#0D253F"/>
        <path d="M72.2166 56.9386C70.1475 54.8694 66.7925 54.8694 64.7234 56.9386L62.3693 59.2927C61.304 60.3579 61.304 62.0849 62.3693 63.1501L64.738 65.5189L72.7673 57.4895L72.2166 56.9386Z" fill="#EFEFEF"/>
    </g>
    <defs>
        <clipPath id="clip0_1715_54485">
            <rect width="110" height="110" fill="white"/>
        </clipPath>
    </defs>
</svg>
