<svg width="24" height="24" viewBox="0 0 24 24" fill="none" xmlns="http://www.w3.org/2000/svg">
<path d="M11.5 2C8.91949 2 6.8125 4.10699 6.8125 6.6875C6.8125 9.26801 8.91949 11.375 11.5 11.375C14.0805 11.375 16.1875 9.26801 16.1875 6.6875C16.1875 4.10699 14.0805 2 11.5 2ZM11.5 3.40625C13.3205 3.40625 14.7812 4.86699 14.7812 6.6875C14.7812 8.50801 13.3205 9.96875 11.5 9.96875C9.67949 9.96875 8.21875 8.50801 8.21875 6.6875C8.21875 4.86699 9.67949 3.40625 11.5 3.40625ZM6.10938 13.25C4.95273 13.25 4 14.2027 4 15.3594V15.9215C4 17.3 4.87408 18.5366 6.20734 19.3868C7.54059 20.237 9.36477 20.75 11.5 20.75C13.6352 20.75 15.4594 20.237 16.7927 19.3868C18.1259 18.5366 19 17.3 19 15.9215V15.3594C19 14.2027 18.0473 13.25 16.8906 13.25H6.10938ZM6.10938 14.6562H16.8906C17.2874 14.6562 17.5938 14.9626 17.5938 15.3594V15.9215C17.5938 16.702 17.091 17.5287 16.0364 18.2012C14.9819 18.8737 13.4073 19.3438 11.5 19.3438C9.59273 19.3438 8.01812 18.8737 6.96356 18.2012C5.909 17.5287 5.40625 16.702 5.40625 15.9215V15.3594C5.40625 14.9626 5.71258 14.6562 6.10938 14.6562Z" fill="black"/>
</svg>
