<svg width="24" height="24" viewBox="0 0 24 24" fill="none" xmlns="http://www.w3.org/2000/svg">
<path d="M5.74979 3C4.2399 3 2.99979 4.24011 2.99979 5.75V17.1445C2.86769 18.9715 3.74431 20.9241 5.64627 20.9941C5.6806 20.9985 5.71519 21.0004 5.74979 21H18.2498C19.0807 21 19.8016 20.5301 20.2703 19.8857C20.739 19.2414 20.9998 18.4069 20.9998 17.5C20.9998 16.5931 20.739 15.7586 20.2703 15.1143C19.8016 14.4699 19.0807 14 18.2498 14H17.9998V5.75C17.9998 4.24011 16.7597 3 15.2498 3H5.74979ZM5.74979 4.5H15.2498C15.9489 4.5 16.4998 5.05089 16.4998 5.75V14H5.74979C5.71681 13.9998 5.68387 14.0017 5.65115 14.0059C5.21387 14.0212 4.82975 14.1339 4.49979 14.3242V5.75C4.49979 5.05089 5.05067 4.5 5.74979 4.5ZM7.24979 6C7.1504 5.99859 7.05173 6.01696 6.9595 6.05402C6.86728 6.09108 6.78334 6.1461 6.71256 6.21588C6.64178 6.28566 6.58558 6.36882 6.54722 6.46051C6.50886 6.5522 6.4891 6.65061 6.4891 6.75C6.4891 6.84939 6.50886 6.9478 6.54722 7.03949C6.58558 7.13118 6.64178 7.21434 6.71256 7.28412C6.78334 7.3539 6.86728 7.40892 6.9595 7.44598C7.05173 7.48304 7.1504 7.50141 7.24979 7.5H8.24979C8.34917 7.50141 8.44784 7.48304 8.54007 7.44598C8.63229 7.40892 8.71623 7.3539 8.78701 7.28412C8.85779 7.21434 8.91399 7.13118 8.95235 7.03949C8.99071 6.9478 9.01047 6.84939 9.01047 6.75C9.01047 6.65061 8.99071 6.5522 8.95235 6.46051C8.91399 6.36882 8.85779 6.28566 8.78701 6.21588C8.71623 6.1461 8.63229 6.09108 8.54007 6.05402C8.44784 6.01696 8.34917 5.99859 8.24979 6H7.24979ZM10.7498 6C10.6504 5.99859 10.5517 6.01696 10.4595 6.05402C10.3673 6.09108 10.2833 6.1461 10.2126 6.21588C10.1418 6.28566 10.0856 6.36882 10.0472 6.46051C10.0089 6.5522 9.9891 6.65061 9.9891 6.75C9.9891 6.84939 10.0089 6.9478 10.0472 7.03949C10.0856 7.13118 10.1418 7.21434 10.2126 7.28412C10.2833 7.3539 10.3673 7.40892 10.4595 7.44598C10.5517 7.48304 10.6504 7.50141 10.7498 7.5H13.7498C13.8492 7.50141 13.9478 7.48304 14.0401 7.44598C14.1323 7.40892 14.2162 7.3539 14.287 7.28412C14.3578 7.21434 14.414 7.13118 14.4524 7.03949C14.4907 6.9478 14.5105 6.84939 14.5105 6.75C14.5105 6.65061 14.4907 6.5522 14.4524 6.46051C14.414 6.36882 14.3578 6.28566 14.287 6.21588C14.2162 6.1461 14.1323 6.09108 14.0401 6.05402C13.9478 6.01696 13.8492 5.99859 13.7498 6H10.7498ZM7.24979 8.5C7.1504 8.49859 7.05173 8.51696 6.9595 8.55402C6.86728 8.59108 6.78334 8.6461 6.71256 8.71588C6.64178 8.78566 6.58558 8.86882 6.54722 8.96051C6.50886 9.0522 6.4891 9.15061 6.4891 9.25C6.4891 9.34939 6.50886 9.4478 6.54722 9.53949C6.58558 9.63118 6.64178 9.71434 6.71256 9.78412C6.78334 9.8539 6.86728 9.90892 6.9595 9.94598C7.05173 9.98304 7.1504 10.0014 7.24979 10H10.2498C10.3492 10.0014 10.4478 9.98304 10.5401 9.94598C10.6323 9.90892 10.7162 9.8539 10.787 9.78412C10.8578 9.71434 10.914 9.63118 10.9524 9.53949C10.9907 9.4478 11.0105 9.34939 11.0105 9.25C11.0105 9.15061 10.9907 9.0522 10.9524 8.96051C10.914 8.86882 10.8578 8.78566 10.787 8.71588C10.7162 8.6461 10.6323 8.59108 10.5401 8.55402C10.4478 8.51696 10.3492 8.49859 10.2498 8.5H7.24979ZM12.7498 8.5C12.6504 8.49859 12.5517 8.51696 12.4595 8.55402C12.3673 8.59108 12.2833 8.6461 12.2126 8.71588C12.1418 8.78566 12.0856 8.86882 12.0472 8.96051C12.0089 9.0522 11.9891 9.15061 11.9891 9.25C11.9891 9.34939 12.0089 9.4478 12.0472 9.53949C12.0856 9.63118 12.1418 9.71434 12.2126 9.78412C12.2833 9.8539 12.3673 9.90892 12.4595 9.94598C12.5517 9.98304 12.6504 10.0014 12.7498 10H13.7498C13.8492 10.0014 13.9478 9.98304 14.0401 9.94598C14.1323 9.90892 14.2162 9.8539 14.287 9.78412C14.3578 9.71434 14.414 9.63118 14.4524 9.53949C14.4907 9.4478 14.5105 9.34939 14.5105 9.25C14.5105 9.15061 14.4907 9.0522 14.4524 8.96051C14.414 8.86882 14.3578 8.78566 14.287 8.71588C14.2162 8.6461 14.1323 8.59108 14.0401 8.55402C13.9478 8.51696 13.8492 8.49859 13.7498 8.5H12.7498ZM7.24979 11C7.1504 10.9986 7.05173 11.017 6.9595 11.054C6.86728 11.0911 6.78334 11.1461 6.71256 11.2159C6.64178 11.2857 6.58558 11.3688 6.54722 11.4605C6.50886 11.5522 6.4891 11.6506 6.4891 11.75C6.4891 11.8494 6.50886 11.9478 6.54722 12.0395C6.58558 12.1312 6.64178 12.2143 6.71256 12.2841C6.78334 12.3539 6.86728 12.4089 6.9595 12.446C7.05173 12.483 7.1504 12.5014 7.24979 12.5H10.2498C10.3492 12.5014 10.4478 12.483 10.5401 12.446C10.6323 12.4089 10.7162 12.3539 10.787 12.2841C10.8578 12.2143 10.914 12.1312 10.9524 12.0395C10.9907 11.9478 11.0105 11.8494 11.0105 11.75C11.0105 11.6506 10.9907 11.5522 10.9524 11.4605C10.914 11.3688 10.8578 11.2857 10.787 11.2159C10.7162 11.1461 10.6323 11.0911 10.5401 11.054C10.4478 11.017 10.3492 10.9986 10.2498 11H7.24979ZM5.74979 15.5C7.3852 15.5 7.3852 19.5 5.74979 19.5C4.11437 19.5 4.11437 15.5 5.74979 15.5ZM8.0701 15.5H18.2498C18.5234 15.5 18.8022 15.6452 19.0574 15.9961C19.3126 16.347 19.4998 16.8879 19.4998 17.5C19.4998 18.1121 19.3126 18.653 19.0574 19.0039C18.8022 19.3548 18.5234 19.5 18.2498 19.5H8.0701C8.67098 18.3184 8.67098 16.6816 8.0701 15.5Z" fill="black"/>
</svg>
