<svg width="24" height="24" viewBox="0 0 24 24" fill="none" xmlns="http://www.w3.org/2000/svg">
<path d="M8.5 1C5.74746 1 3.5 3.24746 3.5 6C3.5 8.75254 5.74746 11 8.5 11C11.2525 11 13.5 8.75254 13.5 6C13.5 3.24746 11.2525 1 8.5 1ZM8.5 2.5C10.4419 2.5 12 4.05812 12 6C12 7.94188 10.4419 9.5 8.5 9.5C6.55812 9.5 5 7.94188 5 6C5 4.05812 6.55812 2.5 8.5 2.5ZM17.5 12C14.4625 12 12 14.4625 12 17.5C12 20.5375 14.4625 23 17.5 23C20.5375 23 23 20.5375 23 17.5C23 14.4625 20.5375 12 17.5 12ZM3.11133 13C2.08533 13 1.25 13.8923 1.25 14.9893V15.75C1.25 17.3905 2.0977 18.8162 3.6377 19.7637C4.9332 20.5612 6.66 21 8.5 21C9.595 21 10.7158 20.8379 11.7393 20.5049C11.5093 20.0644 11.332 19.5931 11.207 19.1006C10.3585 19.3676 9.4185 19.5 8.5 19.5C5.7305 19.5 2.75 18.3265 2.75 15.75V14.9893C2.75 14.7238 2.91583 14.5 3.11133 14.5H11.7373C12.0248 13.9485 12.3894 13.4445 12.8164 13H3.11133ZM17.5 13.5C17.776 13.5 18 13.724 18 14V17H21C21.276 17 21.5 17.224 21.5 17.5C21.5 17.776 21.276 18 21 18H18V21C18 21.276 17.776 21.5 17.5 21.5C17.224 21.5 17 21.276 17 21V18H14C13.724 18 13.5 17.776 13.5 17.5C13.5 17.224 13.724 17 14 17H17V14C17 13.724 17.224 13.5 17.5 13.5Z" fill="black"/>
</svg>
