<svg width="24" height="24" viewBox="0 0 24 24" fill="none" xmlns="http://www.w3.org/2000/svg">
<path d="M11.2383 0.489227C11.0395 0.492332 10.8502 0.574195 10.7117 0.716834C10.5733 0.859472 10.4971 1.05122 10.5 1.24997V2.24997C10.4986 2.34935 10.517 2.44803 10.554 2.54025C10.5911 2.63248 10.6461 2.71642 10.7159 2.7872C10.7857 2.85797 10.8688 2.91418 10.9605 2.95254C11.0522 2.9909 11.1506 3.01065 11.25 3.01065C11.3494 3.01065 11.4478 2.9909 11.5395 2.95254C11.6312 2.91418 11.7143 2.85797 11.7841 2.7872C11.8539 2.71642 11.9089 2.63248 11.946 2.54025C11.983 2.44803 12.0014 2.34935 12 2.24997V1.24997C12.0014 1.14959 11.9827 1.04994 11.9449 0.956924C11.9071 0.863912 11.8511 0.779431 11.78 0.708487C11.709 0.637544 11.6245 0.581583 11.5314 0.54392C11.4383 0.506257 11.3387 0.487659 11.2383 0.489227ZM8.24219 1.49216C8.09293 1.49219 7.94707 1.53676 7.82328 1.62016C7.69949 1.70355 7.6034 1.82199 7.5473 1.9603C7.49119 2.09862 7.47763 2.25053 7.50835 2.39659C7.53907 2.54266 7.61267 2.67624 7.71973 2.78024L8.21973 3.28024C8.28884 3.35222 8.37161 3.40969 8.46321 3.44927C8.5548 3.48886 8.65338 3.50978 8.75316 3.51079C8.85294 3.5118 8.95192 3.4929 9.0443 3.45518C9.13668 3.41747 9.22061 3.3617 9.29117 3.29114C9.36173 3.22058 9.4175 3.13665 9.45521 3.04427C9.49293 2.95189 9.51184 2.85291 9.51082 2.75313C9.50981 2.65335 9.48889 2.55477 9.4493 2.46318C9.40972 2.37158 9.35225 2.28881 9.28027 2.2197L8.78027 1.7197C8.71036 1.6477 8.62672 1.59047 8.53429 1.55139C8.44187 1.5123 8.34254 1.49216 8.24219 1.49216ZM14.2354 1.49313C14.0406 1.49881 13.8556 1.58007 13.7197 1.7197L13.2197 2.2197C13.1477 2.28881 13.0903 2.37158 13.0507 2.46318C13.0111 2.55477 12.9902 2.65335 12.9892 2.75313C12.9882 2.85291 13.0071 2.95189 13.0448 3.04427C13.0825 3.13665 13.1383 3.22058 13.2088 3.29114C13.2794 3.3617 13.3633 3.41747 13.4557 3.45518C13.5481 3.4929 13.6471 3.5118 13.7468 3.51079C13.8466 3.50978 13.9452 3.48886 14.0368 3.44927C14.1284 3.40969 14.2112 3.35222 14.2803 3.28024L14.7803 2.78024C14.8885 2.67487 14.9623 2.53928 14.9922 2.39123C15.0221 2.24317 15.0066 2.08955 14.9477 1.95047C14.8888 1.81138 14.7893 1.69332 14.6622 1.61172C14.5351 1.53012 14.3863 1.48879 14.2354 1.49313ZM6.75 3.99997C6.65062 3.99856 6.55194 4.01692 6.45972 4.05399C6.36749 4.09105 6.28355 4.14607 6.21277 4.21585C6.142 4.28563 6.08579 4.36879 6.04743 4.46048C6.00907 4.55217 5.98932 4.65058 5.98932 4.74997C5.98932 4.84936 6.00907 4.94777 6.04743 5.03946C6.08579 5.13115 6.142 5.21431 6.21277 5.28409C6.28355 5.35387 6.36749 5.40889 6.45972 5.44595C6.55194 5.48301 6.65062 5.50138 6.75 5.49997H7.75C7.84938 5.50138 7.94806 5.48301 8.04028 5.44595C8.13251 5.40889 8.21645 5.35387 8.28723 5.28409C8.358 5.21431 8.41421 5.13115 8.45257 5.03946C8.49093 4.94777 8.51068 4.84936 8.51068 4.74997C8.51068 4.65058 8.49093 4.55217 8.45257 4.46048C8.41421 4.36879 8.358 4.28563 8.28723 4.21585C8.21645 4.14607 8.13251 4.09105 8.04028 4.05399C7.94806 4.01692 7.84938 3.99856 7.75 3.99997H6.75ZM11.25 3.99997C10.0162 3.99997 9 5.01622 9 6.24997V6.99997H4.75C3.24011 6.99997 2 8.24008 2 9.74997V18.25C2 19.6892 3.12781 20.8807 4.54102 20.9892C4.6256 21.5518 4.85432 22.0976 5.25195 22.5449C5.76441 23.1214 6.5625 23.5 7.5 23.5C8.4375 23.5 9.23559 23.1214 9.74805 22.5449C10.1419 22.1018 10.3285 21.5569 10.415 21H13.585C13.6715 21.5569 13.8581 22.1018 14.252 22.5449C14.7644 23.1214 15.5625 23.5 16.5 23.5C17.4375 23.5 18.2356 23.1214 18.748 22.5449C19.1457 22.0976 19.3744 21.5518 19.459 20.9892C20.8722 20.8807 22 19.6892 22 18.25V15.3603C22 14.6154 21.7778 13.887 21.3623 13.2685L17.9668 8.21579C17.4564 7.45604 16.5994 6.99997 15.6846 6.99997H13.5V6.24997C13.5 5.01622 12.4838 3.99997 11.25 3.99997ZM14.75 3.99997C14.6506 3.99856 14.5519 4.01692 14.4597 4.05399C14.3675 4.09105 14.2836 4.14607 14.2128 4.21585C14.142 4.28563 14.0858 4.36879 14.0474 4.46048C14.0091 4.55217 13.9893 4.65058 13.9893 4.74997C13.9893 4.84936 14.0091 4.94777 14.0474 5.03946C14.0858 5.13115 14.142 5.21431 14.2128 5.28409C14.2836 5.35387 14.3675 5.40889 14.4597 5.44595C14.5519 5.48301 14.6506 5.50138 14.75 5.49997H15.75C15.8494 5.50138 15.9481 5.48301 16.0403 5.44595C16.1325 5.40889 16.2164 5.35387 16.2872 5.28409C16.358 5.21431 16.4142 5.13115 16.4526 5.03946C16.4909 4.94777 16.5107 4.84936 16.5107 4.74997C16.5107 4.65058 16.4909 4.55217 16.4526 4.46048C16.4142 4.36879 16.358 4.28563 16.2872 4.21585C16.2164 4.14607 16.1325 4.09105 16.0403 4.05399C15.9481 4.01692 15.8494 3.99856 15.75 3.99997H14.75ZM11.25 5.49997C11.6732 5.49997 12 5.82672 12 6.24997V6.99997H10.5V6.24997C10.5 5.82672 10.8268 5.49997 11.25 5.49997ZM4.75 8.49997H12V12.25C12 13.0049 12.2765 13.7466 12.7334 14.3613C13.1903 14.976 13.8819 15.5 14.75 15.5H20.5V18.25C20.5 18.9199 19.9924 19.4478 19.335 19.4912C19.2119 19.1173 19.0214 18.7626 18.748 18.455C18.2356 17.8785 17.4375 17.5 16.5 17.5C15.5625 17.5 14.7644 17.8785 14.252 18.455C13.9767 18.7647 13.7929 19.1232 13.6699 19.5H10.3301C10.2071 19.1232 10.0233 18.7647 9.74805 18.455C9.23559 17.8785 8.4375 17.5 7.5 17.5C6.5625 17.5 5.76441 17.8785 5.25195 18.455C4.97862 18.7626 4.78814 19.1173 4.66504 19.4912C4.00758 19.4478 3.5 18.9199 3.5 18.25V9.74997C3.5 9.05086 4.05089 8.49997 4.75 8.49997ZM13.5 8.49997H15.6846C16.1017 8.49997 16.4891 8.70646 16.7217 9.0527L20.0469 14H14.75C14.5136 14 14.2045 13.8259 13.9375 13.4668C13.6705 13.1076 13.5 12.5995 13.5 12.25V8.49997ZM7.73828 9.98923C7.53954 9.99233 7.35016 10.0742 7.21173 10.2168C7.0733 10.3595 6.99715 10.5512 7 10.75V12H5.75C5.65062 11.9986 5.55194 12.0169 5.45972 12.054C5.36749 12.091 5.28355 12.1461 5.21277 12.2158C5.142 12.2856 5.08579 12.3688 5.04743 12.4605C5.00907 12.5522 4.98932 12.6506 4.98932 12.75C4.98932 12.8494 5.00907 12.9478 5.04743 13.0395C5.08579 13.1312 5.142 13.2143 5.21277 13.2841C5.28355 13.3539 5.36749 13.4089 5.45972 13.446C5.55194 13.483 5.65062 13.5014 5.75 13.5H7V14.75C6.99859 14.8494 7.01696 14.948 7.05402 15.0403C7.09108 15.1325 7.1461 15.2164 7.21588 15.2872C7.28566 15.358 7.36882 15.4142 7.46051 15.4525C7.5522 15.4909 7.65061 15.5107 7.75 15.5107C7.84939 15.5107 7.9478 15.4909 8.03949 15.4525C8.13118 15.4142 8.21434 15.358 8.28412 15.2872C8.3539 15.2164 8.40892 15.1325 8.44598 15.0403C8.48304 14.948 8.50141 14.8494 8.5 14.75V13.5H9.75C9.84938 13.5014 9.94806 13.483 10.0403 13.446C10.1325 13.4089 10.2164 13.3539 10.2872 13.2841C10.358 13.2143 10.4142 13.1312 10.4526 13.0395C10.4909 12.9478 10.5107 12.8494 10.5107 12.75C10.5107 12.6506 10.4909 12.5522 10.4526 12.4605C10.4142 12.3688 10.358 12.2856 10.2872 12.2158C10.2164 12.1461 10.1325 12.091 10.0403 12.054C9.94806 12.0169 9.84938 11.9986 9.75 12H8.5V10.75C8.50144 10.6496 8.48271 10.5499 8.44493 10.4569C8.40715 10.3639 8.35108 10.2794 8.28004 10.2085C8.20901 10.1375 8.12446 10.0816 8.0314 10.0439C7.93834 10.0063 7.83866 9.98766 7.73828 9.98923ZM7.5 19C8.0625 19 8.38941 19.1839 8.62695 19.4511C8.8645 19.7184 9 20.1041 9 20.5C9 20.8958 8.8645 21.2816 8.62695 21.5488C8.38941 21.816 8.0625 22 7.5 22C6.9375 22 6.61059 21.816 6.37305 21.5488C6.1355 21.2816 6 20.8958 6 20.5C6 20.1041 6.1355 19.7184 6.37305 19.4511C6.61059 19.1839 6.9375 19 7.5 19ZM16.5 19C17.0625 19 17.3894 19.1839 17.627 19.4511C17.8645 19.7184 18 20.1041 18 20.5C18 20.8958 17.8645 21.2816 17.627 21.5488C17.3894 21.816 17.0625 22 16.5 22C15.9375 22 15.6106 21.816 15.373 21.5488C15.1355 21.2816 15 20.8958 15 20.5C15 20.1041 15.1355 19.7184 15.373 19.4511C15.6106 19.1839 15.9375 19 16.5 19Z" fill="black"/>
</svg>
