<svg width="24" height="24" viewBox="0 0 24 24" fill="none" xmlns="http://www.w3.org/2000/svg">
<path fill-rule="evenodd" clip-rule="evenodd" d="M18.9699 3.65902C18.761 3.45008 18.513 3.28435 18.24 3.17127C17.967 3.0582 17.6744 3 17.3789 3C17.0834 3 16.7909 3.0582 16.5179 3.17127C16.2449 3.28435 15.9969 3.45008 15.7879 3.65902L4.84793 14.599C4.1447 15.3024 3.74969 16.2563 3.74978 17.2509C3.74988 18.2455 4.14507 19.1993 4.84842 19.9025C5.55178 20.6057 6.50568 21.0008 7.50028 21.0007C8.49488 21.0006 9.4487 20.6054 10.1519 19.902L17.8449 12.209C17.9871 12.0765 18.1751 12.0044 18.3694 12.0078C18.5637 12.0113 18.7491 12.09 18.8865 12.2274C19.024 12.3648 19.1027 12.5502 19.1061 12.7445C19.1095 12.9388 19.0374 13.1268 18.9049 13.269L11.2119 20.962C10.7268 21.4599 10.1476 21.8564 9.50796 22.1287C8.86833 22.4009 8.181 22.5434 7.48586 22.5479C6.79072 22.5524 6.10161 22.4188 5.45851 22.1549C4.81542 21.8909 4.23114 21.5019 3.73959 21.0104C3.24805 20.5188 2.85901 19.9345 2.59506 19.2914C2.33112 18.6483 2.19752 17.9592 2.20201 17.2641C2.20651 16.5689 2.34901 15.8816 2.62126 15.242C2.8935 14.6024 3.29006 14.0232 3.78793 13.538L14.7269 2.59802C15.4303 1.8948 16.3842 1.49978 17.3788 1.49988C18.3734 1.49997 19.3272 1.89516 20.0304 2.59852C20.7336 3.30187 21.1287 4.25577 21.1286 5.25037C21.1285 6.24497 20.7333 7.1988 20.0299 7.90202L9.09693 18.835L9.08892 18.843L9.08192 18.85L9.07993 18.852L9.07692 18.854C8.64929 19.2532 8.08301 19.4701 7.49815 19.4587C6.91329 19.4474 6.35583 19.2088 5.94396 18.7934C5.53208 18.378 5.29817 17.8185 5.29182 17.2336C5.28546 16.6487 5.50717 16.0843 5.90992 15.66L13.7199 7.85002C13.8613 7.71333 14.0507 7.63765 14.2474 7.63926C14.444 7.64088 14.6322 7.71966 14.7713 7.85866C14.9104 7.99765 14.9894 8.18572 14.9912 8.38237C14.993 8.57902 14.9175 8.7685 14.7809 8.91002L6.97093 16.72C6.8293 16.8598 6.749 17.0501 6.74768 17.2491C6.74637 17.448 6.82416 17.6394 6.96393 17.781C7.10369 17.9226 7.294 18.0029 7.49298 18.0043C7.69195 18.0056 7.8833 17.9278 8.02492 17.788L18.9699 6.84002C19.1789 6.63109 19.3446 6.38305 19.4577 6.11006C19.5707 5.83708 19.6289 5.5445 19.6289 5.24902C19.6289 4.95354 19.5707 4.66096 19.4577 4.38797C19.3446 4.11499 19.1789 3.86795 18.9699 3.65902Z" fill="black"/>
</svg>
