<svg width="24" height="24" viewBox="0 0 24 24" fill="none" xmlns="http://www.w3.org/2000/svg">
<path d="M12 2C6.48603 2 2 6.48604 2 12C2 17.514 6.48603 22 12 22C17.514 22 22 17.514 22 12C22 6.48604 17.514 2 12 2ZM12 3.5C16.7033 3.5 20.5 7.2967 20.5 12C20.5 16.7033 16.7033 20.5 12 20.5C7.29669 20.5 3.5 16.7033 3.5 12C3.5 7.2967 7.29669 3.5 12 3.5ZM13.2354 6.99316C13.0406 6.99884 12.8556 7.0801 12.7197 7.21973L8.71973 11.2197C8.57913 11.3604 8.50014 11.5511 8.50014 11.75C8.50014 11.9489 8.57913 12.1396 8.71973 12.2803L12.7197 16.2803C12.7888 16.3523 12.8716 16.4097 12.9632 16.4493C13.0548 16.4889 13.1534 16.5098 13.2532 16.5108C13.3529 16.5118 13.4519 16.4929 13.5443 16.4552C13.6367 16.4175 13.7206 16.3617 13.7912 16.2912C13.8617 16.2206 13.9175 16.1367 13.9552 16.0443C13.9929 15.9519 14.0118 15.8529 14.0108 15.7532C14.0098 15.6534 13.9889 15.5548 13.9493 15.4632C13.9097 15.3716 13.8523 15.2888 13.7803 15.2197L10.3105 11.75L13.7803 8.28027C13.8885 8.1749 13.9623 8.03931 13.9922 7.89126C14.0221 7.7432 14.0066 7.58958 13.9477 7.4505C13.8888 7.31141 13.7893 7.19335 13.6622 7.11175C13.5351 7.03015 13.3863 6.98882 13.2354 6.99316Z" fill="black"/>
</svg>
