<svg width="24" height="24" viewBox="0 0 24 24" fill="none" xmlns="http://www.w3.org/2000/svg">
<path d="M15.7502 10.5V6C15.7502 5.00544 15.3551 4.05161 14.6519 3.34835C13.9486 2.64509 12.9948 2.25 12.0002 2.25C11.0057 2.25 10.0518 2.64509 9.34858 3.34835C8.64532 4.05161 8.25023 5.00544 8.25023 6V10.5M19.6062 8.507L20.8692 20.507C20.9392 21.172 20.4192 21.75 19.7502 21.75H4.25023C4.09244 21.7502 3.93637 21.7171 3.79218 21.6531C3.64798 21.589 3.51888 21.4953 3.41325 21.3781C3.30763 21.2608 3.22784 21.1227 3.17908 20.9726C3.13032 20.8226 3.11368 20.6639 3.13023 20.507L4.39423 8.507C4.42339 8.23056 4.55385 7.9747 4.76048 7.78876C4.96711 7.60281 5.23526 7.49995 5.51323 7.5H18.4872C19.0632 7.5 19.5462 7.935 19.6062 8.507ZM8.62523 10.5C8.62523 10.5995 8.58572 10.6948 8.51539 10.7652C8.44507 10.8355 8.34969 10.875 8.25023 10.875C8.15077 10.875 8.05539 10.8355 7.98506 10.7652C7.91474 10.6948 7.87523 10.5995 7.87523 10.5C7.87523 10.4005 7.91474 10.3052 7.98506 10.2348C8.05539 10.1645 8.15077 10.125 8.25023 10.125C8.34969 10.125 8.44507 10.1645 8.51539 10.2348C8.58572 10.3052 8.62523 10.4005 8.62523 10.5ZM16.1252 10.5C16.1252 10.5995 16.0857 10.6948 16.0154 10.7652C15.9451 10.8355 15.8497 10.875 15.7502 10.875C15.6508 10.875 15.5554 10.8355 15.4851 10.7652C15.4147 10.6948 15.3752 10.5995 15.3752 10.5C15.3752 10.4005 15.4147 10.3052 15.4851 10.2348C15.5554 10.1645 15.6508 10.125 15.7502 10.125C15.8497 10.125 15.9451 10.1645 16.0154 10.2348C16.0857 10.3052 16.1252 10.4005 16.1252 10.5Z" stroke="black" stroke-width="1.5" stroke-linecap="round" stroke-linejoin="round"/>
</svg>
