<svg width="24" height="24" viewBox="0 0 24 24" fill="none" xmlns="http://www.w3.org/2000/svg">
<path d="M12 1.99902C6.48615 1.99902 2 6.48517 2 11.999C2 13.6367 2.43135 15.1674 3.13086 16.5322L2.04688 20.4131C1.7944 21.3148 2.68596 22.2063 3.58789 21.9541L7.47168 20.8701C8.83537 21.5682 10.3639 21.999 12 21.999C17.5139 21.999 22 17.5129 22 11.999C22 6.48517 17.5139 1.99902 12 1.99902ZM12 3.49902C16.7031 3.49902 20.5 7.29588 20.5 11.999C20.5 16.7022 16.7031 20.499 12 20.499C10.4992 20.499 9.0953 20.1088 7.87109 19.4268C7.69853 19.3306 7.495 19.3064 7.30469 19.3594L3.61133 20.3896L4.64258 16.6982C4.69585 16.5076 4.67163 16.3037 4.5752 16.1309C3.89183 14.9058 3.5 13.5013 3.5 11.999C3.5 7.29588 7.29685 3.49902 12 3.49902ZM7.75 9.49902C7.65062 9.49762 7.55194 9.51598 7.45972 9.55304C7.36749 9.5901 7.28355 9.64512 7.21277 9.7149C7.142 9.78469 7.08579 9.86784 7.04743 9.95953C7.00907 10.0512 6.98932 10.1496 6.98932 10.249C6.98932 10.3484 7.00907 10.4468 7.04743 10.5385C7.08579 10.6302 7.142 10.7134 7.21277 10.7831C7.28355 10.8529 7.36749 10.9079 7.45972 10.945C7.55194 10.9821 7.65062 11.0004 7.75 10.999H16.25C16.3494 11.0004 16.4481 10.9821 16.5403 10.945C16.6325 10.9079 16.7164 10.8529 16.7872 10.7831C16.858 10.7134 16.9142 10.6302 16.9526 10.5385C16.9909 10.4468 17.0107 10.3484 17.0107 10.249C17.0107 10.1496 16.9909 10.0512 16.9526 9.95953C16.9142 9.86784 16.858 9.78469 16.7872 9.7149C16.7164 9.64512 16.6325 9.5901 16.5403 9.55304C16.4481 9.51598 16.3494 9.49762 16.25 9.49902H7.75ZM7.75 12.999C7.65062 12.9976 7.55194 13.016 7.45972 13.053C7.36749 13.0901 7.28355 13.1451 7.21277 13.2149C7.142 13.2847 7.08579 13.3678 7.04743 13.4595C7.00907 13.5512 6.98932 13.6496 6.98932 13.749C6.98932 13.8484 7.00907 13.9468 7.04743 14.0385C7.08579 14.1302 7.142 14.2134 7.21277 14.2831C7.28355 14.3529 7.36749 14.4079 7.45972 14.445C7.55194 14.4821 7.65062 14.5004 7.75 14.499H14.25C14.3494 14.5004 14.4481 14.4821 14.5403 14.445C14.6325 14.4079 14.7164 14.3529 14.7872 14.2831C14.858 14.2134 14.9142 14.1302 14.9526 14.0385C14.9909 13.9468 15.0107 13.8484 15.0107 13.749C15.0107 13.6496 14.9909 13.5512 14.9526 13.4595C14.9142 13.3678 14.858 13.2847 14.7872 13.2149C14.7164 13.1451 14.6325 13.0901 14.5403 13.053C14.4481 13.016 14.3494 12.9976 14.25 12.999H7.75Z" fill="black"/>
</svg>
