<svg width="24" height="24" viewBox="0 0 24 24" fill="none" xmlns="http://www.w3.org/2000/svg">
<path d="M5.25 3C3.46403 3 2 4.46403 2 6.25V14.25V17.2676C2 18.2434 3.19495 18.8526 3.98438 18.2793C3.9847 18.2793 3.98503 18.2793 3.98535 18.2793L6.14551 16.708C6.55748 18.0308 7.79717 19 9.25 19H15.5059L20.0146 22.2793C20.015 22.2793 20.0153 22.2793 20.0156 22.2793C20.805 22.8526 22 22.2434 22 21.2676V18.25V10.25C22 8.46403 20.536 7 18.75 7H18V6.25C18 4.46403 16.536 3 14.75 3H5.25ZM5.25 4.5H14.75C15.725 4.5 16.5 5.27497 16.5 6.25V11.75C16.5 12.725 15.725 13.5 14.75 13.5H8.25C8.09139 13.5 7.93685 13.5502 7.80859 13.6436L3.5 16.7773V14.25V6.25C3.5 5.27497 4.27497 4.5 5.25 4.5ZM18 8.5H18.75C19.725 8.5 20.5 9.27497 20.5 10.25V18.25V20.7773L16.1914 17.6436C16.0632 17.5502 15.9086 17.5 15.75 17.5H9.25C8.27497 17.5 7.5 16.725 7.5 15.75V15.7227L8.49414 15H14.75C16.536 15 18 13.536 18 11.75V8.5Z" fill="black"/>
</svg>
