<svg width="80" height="80" viewBox="0 0 80 80" fill="none" xmlns="http://www.w3.org/2000/svg">
    <path d="M33.3332 6.66663C18.6451 6.66663 6.6665 18.6452 6.6665 33.3333C6.6665 48.0214 18.6451 60 33.3332 60C40.0796 60 46.2388 57.4568 50.9439 53.3007L53.3332 55.6901V60L65.2863 71.9531C67.1263 73.7931 70.113 73.7931 71.953 71.9531C73.793 70.1131 73.793 67.1264 71.953 65.2864L59.9998 53.3333H55.6899L53.3006 50.944C57.4566 46.239 59.9998 40.0797 59.9998 33.3333C59.9998 18.6452 48.0213 6.66663 33.3332 6.66663ZM33.3332 13.3333C44.4184 13.3333 53.3332 22.2481 53.3332 33.3333C53.3332 44.4185 44.4184 53.3333 33.3332 53.3333C22.248 53.3333 13.3332 44.4185 13.3332 33.3333C13.3332 22.2481 22.248 13.3333 33.3332 13.3333ZM26.634 23.3007C25.9708 23.3009 25.3228 23.4988 24.7728 23.8692C24.2228 24.2396 23.7957 24.7656 23.5462 25.38C23.2967 25.9943 23.236 26.6692 23.372 27.3182C23.5081 27.9672 23.8345 28.5609 24.3097 29.0234L28.6196 33.3333L24.3097 37.6432C23.9898 37.9503 23.7344 38.3182 23.5585 38.7253C23.3825 39.1324 23.2896 39.5705 23.285 40.014C23.2805 40.4575 23.3646 40.8974 23.5322 41.308C23.6998 41.7186 23.9477 42.0916 24.2613 42.4052C24.5749 42.7188 24.9479 42.9666 25.3585 43.1343C25.7691 43.3019 26.209 43.3859 26.6525 43.3814C27.0959 43.3769 27.534 43.284 27.9411 43.108C28.3482 42.9321 28.7161 42.6766 29.0233 42.3567L33.3332 38.0468L37.6431 42.3567C37.9502 42.6766 38.3181 42.9321 38.7252 43.108C39.1323 43.284 39.5704 43.3769 40.0139 43.3814C40.4574 43.3859 40.8973 43.3019 41.3079 43.1343C41.7185 42.9667 42.0915 42.7188 42.4051 42.4052C42.7187 42.0916 42.9665 41.7186 43.1342 41.308C43.3018 40.8974 43.3858 40.4575 43.3813 40.014C43.3768 39.5705 43.2838 39.1324 43.1079 38.7253C42.9319 38.3182 42.6765 37.9503 42.3566 37.6432L38.0467 33.3333L42.3566 29.0234C42.8383 28.5552 43.1673 27.9524 43.3005 27.294C43.4337 26.6356 43.3649 25.9523 43.1031 25.3337C42.8413 24.7151 42.3987 24.19 41.8333 23.8272C41.2679 23.4644 40.6062 23.2809 39.9347 23.3007C39.0687 23.3265 38.2468 23.6885 37.6431 24.3099L33.3332 28.6198L29.0233 24.3099C28.7126 23.9905 28.3412 23.7367 27.9308 23.5634C27.5204 23.3901 27.0794 23.3008 26.634 23.3007Z"
          fill="#CDCDCD"/>
</svg>
