<svg width="24" height="24" viewBox="0 0 24 24" fill="none" xmlns="http://www.w3.org/2000/svg">
<path d="M10.25 2C9.1017 2 8.15285 2.88331 8.02539 4H6.25C5.01625 4 4 5.01625 4 6.25V19.75C4 20.9838 5.01625 22 6.25 22H17.75C18.9838 22 20 20.9838 20 19.75V6.25C20 5.01625 18.9838 4 17.75 4H15.9746C15.8471 2.88331 14.8983 2 13.75 2H10.25ZM10.25 3.5H13.75C14.1732 3.5 14.5 3.82675 14.5 4.25C14.5 4.67325 14.1732 5 13.75 5H10.25C9.82675 5 9.5 4.67325 9.5 4.25C9.5 3.82675 9.82675 3.5 10.25 3.5ZM6.25 5.5H8.38477C8.79062 6.10095 9.47736 6.5 10.25 6.5H13.75C14.5226 6.5 15.2094 6.10095 15.6152 5.5H17.75C18.1732 5.5 18.5 5.82675 18.5 6.25V19.75C18.5 20.1733 18.1732 20.5 17.75 20.5H6.25C5.82675 20.5 5.5 20.1733 5.5 19.75V6.25C5.5 5.82675 5.82675 5.5 6.25 5.5ZM8.25 10C8.05109 10 7.86032 10.079 7.71967 10.2197C7.57902 10.3603 7.5 10.5511 7.5 10.75C7.5 10.9489 7.57902 11.1397 7.71967 11.2803C7.86032 11.421 8.05109 11.5 8.25 11.5C8.44891 11.5 8.63968 11.421 8.78033 11.2803C8.92098 11.1397 9 10.9489 9 10.75C9 10.5511 8.92098 10.3603 8.78033 10.2197C8.63968 10.079 8.44891 10 8.25 10ZM11.25 10C11.1506 9.99859 11.0519 10.017 10.9597 10.054C10.8675 10.0911 10.7836 10.1461 10.7128 10.2159C10.642 10.2857 10.5858 10.3688 10.5474 10.4605C10.5091 10.5522 10.4893 10.6506 10.4893 10.75C10.4893 10.8494 10.5091 10.9478 10.5474 11.0395C10.5858 11.1312 10.642 11.2143 10.7128 11.2841C10.7836 11.3539 10.8675 11.4089 10.9597 11.446C11.0519 11.483 11.1506 11.5014 11.25 11.5H15.75C15.8494 11.5014 15.9481 11.483 16.0403 11.446C16.1325 11.4089 16.2164 11.3539 16.2872 11.2841C16.358 11.2143 16.4142 11.1312 16.4526 11.0395C16.4909 10.9478 16.5107 10.8494 16.5107 10.75C16.5107 10.6506 16.4909 10.5522 16.4526 10.4605C16.4142 10.3688 16.358 10.2857 16.2872 10.2159C16.2164 10.1461 16.1325 10.0911 16.0403 10.054C15.9481 10.017 15.8494 9.99859 15.75 10H11.25ZM8.25 13C8.05109 13 7.86032 13.079 7.71967 13.2197C7.57902 13.3603 7.5 13.5511 7.5 13.75C7.5 13.9489 7.57902 14.1397 7.71967 14.2803C7.86032 14.421 8.05109 14.5 8.25 14.5C8.44891 14.5 8.63968 14.421 8.78033 14.2803C8.92098 14.1397 9 13.9489 9 13.75C9 13.5511 8.92098 13.3603 8.78033 13.2197C8.63968 13.079 8.44891 13 8.25 13ZM11.25 13C11.1506 12.9986 11.0519 13.017 10.9597 13.054C10.8675 13.0911 10.7836 13.1461 10.7128 13.2159C10.642 13.2857 10.5858 13.3688 10.5474 13.4605C10.5091 13.5522 10.4893 13.6506 10.4893 13.75C10.4893 13.8494 10.5091 13.9478 10.5474 14.0395C10.5858 14.1312 10.642 14.2143 10.7128 14.2841C10.7836 14.3539 10.8675 14.4089 10.9597 14.446C11.0519 14.483 11.1506 14.5014 11.25 14.5H15.75C15.8494 14.5014 15.9481 14.483 16.0403 14.446C16.1325 14.4089 16.2164 14.3539 16.2872 14.2841C16.358 14.2143 16.4142 14.1312 16.4526 14.0395C16.4909 13.9478 16.5107 13.8494 16.5107 13.75C16.5107 13.6506 16.4909 13.5522 16.4526 13.4605C16.4142 13.3688 16.358 13.2857 16.2872 13.2159C16.2164 13.1461 16.1325 13.0911 16.0403 13.054C15.9481 13.017 15.8494 12.9986 15.75 13H11.25ZM8.25 16C8.05109 16 7.86032 16.079 7.71967 16.2197C7.57902 16.3603 7.5 16.5511 7.5 16.75C7.5 16.9489 7.57902 17.1397 7.71967 17.2803C7.86032 17.421 8.05109 17.5 8.25 17.5C8.44891 17.5 8.63968 17.421 8.78033 17.2803C8.92098 17.1397 9 16.9489 9 16.75C9 16.5511 8.92098 16.3603 8.78033 16.2197C8.63968 16.079 8.44891 16 8.25 16ZM11.25 16C11.1506 15.9986 11.0519 16.017 10.9597 16.054C10.8675 16.0911 10.7836 16.1461 10.7128 16.2159C10.642 16.2857 10.5858 16.3688 10.5474 16.4605C10.5091 16.5522 10.4893 16.6506 10.4893 16.75C10.4893 16.8494 10.5091 16.9478 10.5474 17.0395C10.5858 17.1312 10.642 17.2143 10.7128 17.2841C10.7836 17.3539 10.8675 17.4089 10.9597 17.446C11.0519 17.483 11.1506 17.5014 11.25 17.5H15.75C15.8494 17.5014 15.9481 17.483 16.0403 17.446C16.1325 17.4089 16.2164 17.3539 16.2872 17.2841C16.358 17.2143 16.4142 17.1312 16.4526 17.0395C16.4909 16.9478 16.5107 16.8494 16.5107 16.75C16.5107 16.6506 16.4909 16.5522 16.4526 16.4605C16.4142 16.3688 16.358 16.2857 16.2872 16.2159C16.2164 16.1461 16.1325 16.0911 16.0403 16.054C15.9481 16.017 15.8494 15.9986 15.75 16H11.25Z" fill="black"/>
</svg>
