<svg width="24" height="24" viewBox="0 0 24 24" fill="none" xmlns="http://www.w3.org/2000/svg">
<path d="M5.25 2.5C3.46403 2.5 2 3.96403 2 5.75V13.75V16.7256C2 17.7189 3.21605 18.3373 4.01953 17.7539L6.04688 16.2793C6.30081 17.82 7.63855 19 9.25 19H15.5059L19.9805 22.2539C20.203 22.4154 20.464 22.498 20.7275 22.498C20.9245 22.498 21.1227 22.4519 21.3057 22.3584C21.7342 22.1404 22 21.7061 22 21.2256V10.25C22 8.458 20.542 7 18.75 7H18V5.75C18 3.96403 16.536 2.5 14.75 2.5H5.25ZM5.25 4H14.75C15.725 4 16.5 4.77497 16.5 5.75V11.25C16.5 12.225 15.725 13 14.75 13H8.25C8.09139 13 7.93685 13.0502 7.80859 13.1436L3.5 16.2773V13.75V5.75C3.5 4.77497 4.27497 4 5.25 4ZM6.75 6C6.65062 5.99859 6.55194 6.01696 6.45972 6.05402C6.36749 6.09108 6.28355 6.1461 6.21277 6.21588C6.142 6.28566 6.08579 6.36882 6.04743 6.46051C6.00907 6.5522 5.98932 6.65061 5.98932 6.75C5.98932 6.84939 6.00907 6.9478 6.04743 7.03949C6.08579 7.13118 6.142 7.21434 6.21277 7.28412C6.28355 7.3539 6.36749 7.40892 6.45972 7.44598C6.55194 7.48304 6.65062 7.50141 6.75 7.5H13.25C13.3494 7.50141 13.4481 7.48304 13.5403 7.44598C13.6325 7.40892 13.7164 7.3539 13.7872 7.28412C13.858 7.21434 13.9142 7.13118 13.9526 7.03949C13.9909 6.9478 14.0107 6.84939 14.0107 6.75C14.0107 6.65061 13.9909 6.5522 13.9526 6.46051C13.9142 6.36882 13.858 6.28566 13.7872 6.21588C13.7164 6.1461 13.6325 6.09108 13.5403 6.05402C13.4481 6.01696 13.3494 5.99859 13.25 6H6.75ZM18 8.5H18.75C19.715 8.5 20.5 9.285 20.5 10.25V20.7773L16.1914 17.6436C16.0634 17.5506 15.9085 17.5 15.75 17.5H9.25C8.285 17.5 7.5 16.715 7.5 15.75V15.2227L8.49414 14.5H14.75C16.536 14.5 18 13.036 18 11.25V8.5ZM6.75 9.5C6.65062 9.49859 6.55194 9.51696 6.45972 9.55402C6.36749 9.59108 6.28355 9.6461 6.21277 9.71588C6.142 9.78566 6.08579 9.86882 6.04743 9.96051C6.00907 10.0522 5.98932 10.1506 5.98932 10.25C5.98932 10.3494 6.00907 10.4478 6.04743 10.5395C6.08579 10.6312 6.142 10.7143 6.21277 10.7841C6.28355 10.8539 6.36749 10.9089 6.45972 10.946C6.55194 10.983 6.65062 11.0014 6.75 11H11.75C11.8494 11.0014 11.9481 10.983 12.0403 10.946C12.1325 10.9089 12.2164 10.8539 12.2872 10.7841C12.358 10.7143 12.4142 10.6312 12.4526 10.5395C12.4909 10.4478 12.5107 10.3494 12.5107 10.25C12.5107 10.1506 12.4909 10.0522 12.4526 9.96051C12.4142 9.86882 12.358 9.78566 12.2872 9.71588C12.2164 9.6461 12.1325 9.59108 12.0403 9.55402C11.9481 9.51696 11.8494 9.49859 11.75 9.5H6.75Z" fill="black"/>
</svg>
