<svg width="24" height="24" viewBox="0 0 24 24" fill="none" xmlns="http://www.w3.org/2000/svg">
<path d="M6.25 2C5.01625 2 4 3.01625 4 4.25V19.75C4 20.9838 5.01625 22 6.25 22H17.75C18.9838 22 20 20.9838 20 19.75V9.25C20 9.0511 19.9209 8.86036 19.7803 8.71973L19.7725 8.71191L13.2803 2.21973C13.1396 2.07907 12.9489 2.00004 12.75 2H6.25ZM6.25 3.5H12V7.75C12 8.98375 13.0162 10 14.25 10H18.5V19.75C18.5 20.1733 18.1732 20.5 17.75 20.5H6.25C5.82675 20.5 5.5 20.1733 5.5 19.75V4.25C5.5 3.82675 5.82675 3.5 6.25 3.5ZM13.5 4.56055L17.4395 8.5H14.25C13.8268 8.5 13.5 8.17325 13.5 7.75V4.56055ZM8.75 12.5C8.65062 12.4986 8.55194 12.517 8.45972 12.554C8.36749 12.5911 8.28355 12.6461 8.21277 12.7159C8.142 12.7857 8.08579 12.8688 8.04743 12.9605C8.00907 13.0522 7.98932 13.1506 7.98932 13.25C7.98932 13.3494 8.00907 13.4478 8.04743 13.5395C8.08579 13.6312 8.142 13.7143 8.21277 13.7841C8.28355 13.8539 8.36749 13.9089 8.45972 13.946C8.55194 13.983 8.65062 14.0014 8.75 14H15.25C15.3494 14.0014 15.4481 13.983 15.5403 13.946C15.6325 13.9089 15.7164 13.8539 15.7872 13.7841C15.858 13.7143 15.9142 13.6312 15.9526 13.5395C15.9909 13.4478 16.0107 13.3494 16.0107 13.25C16.0107 13.1506 15.9909 13.0522 15.9526 12.9605C15.9142 12.8688 15.858 12.7857 15.7872 12.7159C15.7164 12.6461 15.6325 12.5911 15.5403 12.554C15.4481 12.517 15.3494 12.4986 15.25 12.5H8.75ZM8.75 16C8.65062 15.9986 8.55194 16.017 8.45972 16.054C8.36749 16.0911 8.28355 16.1461 8.21277 16.2159C8.142 16.2857 8.08579 16.3688 8.04743 16.4605C8.00907 16.5522 7.98932 16.6506 7.98932 16.75C7.98932 16.8494 8.00907 16.9478 8.04743 17.0395C8.08579 17.1312 8.142 17.2143 8.21277 17.2841C8.28355 17.3539 8.36749 17.4089 8.45972 17.446C8.55194 17.483 8.65062 17.5014 8.75 17.5H13.25C13.3494 17.5014 13.4481 17.483 13.5403 17.446C13.6325 17.4089 13.7164 17.3539 13.7872 17.2841C13.858 17.2143 13.9142 17.1312 13.9526 17.0395C13.9909 16.9478 14.0107 16.8494 14.0107 16.75C14.0107 16.6506 13.9909 16.5522 13.9526 16.4605C13.9142 16.3688 13.858 16.2857 13.7872 16.2159C13.7164 16.1461 13.6325 16.0911 13.5403 16.054C13.4481 16.017 13.3494 15.9986 13.25 16H8.75Z" fill="black"/>
</svg>
