

<svg width="12" height="12" viewBox="0 0 12 12" fill="none" xmlns="http://www.w3.org/2000/svg">
<path d="M9.75 5.18555V9.75C9.75 10.0484 9.63147 10.3345 9.42049 10.5455C9.20952 10.7565 8.92337 10.875 8.625 10.875H3.375C3.07663 10.875 2.79048 10.7565 2.5795 10.5455C2.36853 10.3345 2.25 10.0484 2.25 9.75V2.25C2.25 1.95163 2.36853 1.66548 2.5795 1.4545C2.79048 1.24353 3.07663 1.125 3.375 1.125H5.68945C5.8883 1.12503 6.07899 1.20402 6.21961 1.34461L9.53039 4.65539C9.67098 4.79601 9.74997 4.9867 9.75 5.18555Z" stroke="#929292" stroke-linejoin="round"/>
<path d="M6 1.3125V4.125C6 4.32391 6.07902 4.51468 6.21967 4.65533C6.36032 4.79598 6.55109 4.875 6.75 4.875H9.5625" stroke="#929292" stroke-linecap="round" stroke-linejoin="round"/>
</svg>
