<svg width="24" height="24" viewBox="0 0 24 24" fill="none" xmlns="http://www.w3.org/2000/svg">
<path d="M19.408 5.85032L19.408 5.85032C19.2187 5.85611 19.0407 5.9389 18.9107 6.07868C18.9105 6.07894 18.9103 6.0792 18.91 6.07946L9.14675 16.3348L5.09252 12.0762C5.0267 12.0045 4.94759 11.9468 4.85954 11.9069L4.79753 12.0435L4.85954 11.9069C4.77098 11.8667 4.67539 11.8453 4.57841 11.8443C4.48143 11.8432 4.38541 11.8625 4.29605 11.9009C4.20672 11.9392 4.12606 11.9956 4.0586 12.0665C3.99116 12.1373 3.93822 12.2212 3.90255 12.313C3.86688 12.4047 3.84908 12.5028 3.85004 12.6016C3.85099 12.7003 3.87069 12.798 3.90814 12.889C3.9454 12.9796 3.99958 13.0619 4.06789 13.1311L8.63443 17.9278L8.63446 17.9279C8.76903 18.0692 8.95313 18.15 9.14675 18.15C9.34036 18.15 9.52447 18.0692 9.65904 17.9279L9.65906 17.9278L19.9347 7.13431C19.9349 7.13406 19.9351 7.13382 19.9354 7.13357C20.0384 7.02787 20.1079 6.89291 20.136 6.74668C20.1642 6.60013 20.1496 6.44799 20.0939 6.30987C20.0383 6.1717 19.9437 6.05318 19.8214 5.97071C19.699 5.88816 19.5549 5.84587 19.408 5.85032Z" fill="black" stroke="black" stroke-width="0.3"/>
</svg>
