<svg width="24" height="24" viewBox="0 0 24 24" fill="none" xmlns="http://www.w3.org/2000/svg">
<path d="M17.9578 4.99121C17.6983 5.00456 17.4542 5.11839 17.2771 5.30859L9.38261 13.5615L7.00273 10.8418C6.91665 10.7417 6.8116 10.6596 6.69365 10.6003C6.5757 10.541 6.44717 10.5057 6.31549 10.4963C6.1838 10.4869 6.05156 10.5037 5.9264 10.5457C5.80124 10.5877 5.68562 10.654 5.58623 10.7409C5.48683 10.8278 5.40563 10.9335 5.34729 11.052C5.28895 11.1704 5.25464 11.2992 5.24633 11.431C5.23803 11.5627 5.25589 11.6948 5.29889 11.8196C5.34189 11.9444 5.40918 12.0595 5.49687 12.1582L7.99492 15.0127L7.01542 16.0371L2.2371 10.8242C2.14837 10.7274 2.04142 10.6489 1.92237 10.5934C1.80332 10.5379 1.6745 10.5064 1.54327 10.5006C1.41203 10.4949 1.28096 10.5151 1.15752 10.56C1.03409 10.605 0.920717 10.6738 0.82388 10.7625C0.727043 10.8513 0.648639 10.9583 0.593145 11.0773C0.537651 11.1964 0.506154 11.3252 0.500454 11.4564C0.494754 11.5877 0.514961 11.7188 0.559922 11.8422C0.604884 11.9656 0.673718 12.079 0.762494 12.1758L6.26249 18.1758C6.35497 18.2767 6.46717 18.3575 6.59215 18.4133C6.71713 18.4691 6.85223 18.4986 6.98909 18.5001C7.12595 18.5016 7.26165 18.4749 7.38779 18.4218C7.51394 18.3687 7.62784 18.2903 7.72245 18.1914L9.31718 16.5244L10.7469 18.1582C10.8382 18.2627 10.9504 18.3471 11.0761 18.4059C11.2019 18.4647 11.3385 18.4967 11.4773 18.4999C11.6162 18.503 11.7541 18.4772 11.8824 18.4241C12.0107 18.371 12.1265 18.2917 12.2225 18.1914L23.2225 6.6914C23.3638 6.54776 23.4584 6.36476 23.494 6.16639C23.5295 5.96803 23.5043 5.76355 23.4217 5.57976C23.339 5.39597 23.2028 5.24143 23.0308 5.13641C22.8588 5.03139 22.6591 4.98078 22.4578 4.99121C22.1983 5.00456 21.9542 5.11839 21.7771 5.30859L11.533 16.0186L10.7059 15.0732L18.7225 6.6914C18.8638 6.54776 18.9584 6.36476 18.994 6.16639C19.0295 5.96803 19.0043 5.76355 18.9217 5.57976C18.839 5.39597 18.7028 5.24143 18.5308 5.13641C18.3588 5.03139 18.1591 4.98078 17.9578 4.99121Z" fill="black"/>
</svg>
