<svg width="24" height="24" viewBox="0 0 24 24" fill="none" xmlns="http://www.w3.org/2000/svg">
<path d="M12 2C6.48603 2 2 6.48604 2 12C2 17.514 6.48603 22 12 22C17.514 22 22 17.514 22 12C22 6.48604 17.514 2 12 2ZM12 3.5C16.7033 3.5 20.5 7.2967 20.5 12C20.5 16.7033 16.7033 20.5 12 20.5C7.29669 20.5 3.5 16.7033 3.5 12C3.5 7.2967 7.29669 3.5 12 3.5ZM15.9932 9.48926C15.7951 9.49394 15.6069 9.57679 15.4697 9.71973L12 13.1895L8.53027 9.71973C8.46036 9.64773 8.37672 9.5905 8.28429 9.55142C8.19187 9.51233 8.09254 9.49219 7.99219 9.49219C7.84293 9.49222 7.69707 9.53679 7.57328 9.62019C7.44949 9.70358 7.3534 9.82202 7.2973 9.96033C7.24119 10.0986 7.22763 10.2506 7.25835 10.3966C7.28907 10.5427 7.36267 10.6763 7.46973 10.7803L11.4697 14.7803C11.6104 14.9209 11.8011 14.9999 12 14.9999C12.1989 14.9999 12.3896 14.9209 12.5303 14.7803L16.5303 10.7803C16.6393 10.6756 16.7142 10.5404 16.7451 10.3924C16.776 10.2444 16.7615 10.0906 16.7034 9.951C16.6453 9.81143 16.5465 9.69266 16.4197 9.61026C16.293 9.52787 16.1443 9.48569 15.9932 9.48926Z" fill="black"/>
</svg>
