<svg width="24" height="24" viewBox="0 0 24 24" fill="none" xmlns="http://www.w3.org/2000/svg">
<path d="M4.75008 1.99995C3.24019 1.99995 2.00008 3.24007 2.00008 4.74995V8.24995C1.99867 8.34934 2.01703 8.44801 2.05409 8.54024C2.09115 8.63246 2.14617 8.7164 2.21596 8.78718C2.28574 8.85796 2.36889 8.91416 2.46059 8.95252C2.55228 8.99088 2.65068 9.01063 2.75008 9.01063C2.84947 9.01063 2.94787 8.99088 3.03957 8.95252C3.13126 8.91416 3.21441 8.85796 3.2842 8.78718C3.35398 8.7164 3.409 8.63246 3.44606 8.54024C3.48312 8.44801 3.50148 8.34934 3.50008 8.24995V4.74995C3.50008 4.05084 4.05096 3.49995 4.75008 3.49995H8.25008C8.34946 3.50136 8.44813 3.483 8.54036 3.44594C8.63259 3.40888 8.71653 3.35386 8.7873 3.28407C8.85808 3.21429 8.91428 3.13114 8.95264 3.03944C8.991 2.94775 9.01076 2.84935 9.01076 2.74995C9.01076 2.65056 8.991 2.55216 8.95264 2.46046C8.91428 2.36877 8.85808 2.28562 8.7873 2.21583C8.71653 2.14605 8.63259 2.09103 8.54036 2.05397C8.44813 2.01691 8.34946 1.99855 8.25008 1.99995H4.75008ZM15.7501 1.99995C15.6507 1.99855 15.552 2.01691 15.4598 2.05397C15.3676 2.09103 15.2836 2.14605 15.2129 2.21583C15.1421 2.28562 15.0859 2.36877 15.0475 2.46046C15.0091 2.55216 14.9894 2.65056 14.9894 2.74995C14.9894 2.84935 15.0091 2.94775 15.0475 3.03944C15.0859 3.13114 15.1421 3.21429 15.2129 3.28407C15.2836 3.35386 15.3676 3.40888 15.4598 3.44594C15.552 3.483 15.6507 3.50136 15.7501 3.49995H19.2501C19.9492 3.49995 20.5001 4.05084 20.5001 4.74995V8.24995C20.4987 8.34934 20.517 8.44801 20.5541 8.54024C20.5912 8.63246 20.6462 8.7164 20.716 8.78718C20.7857 8.85796 20.8689 8.91416 20.9606 8.95252C21.0523 8.99088 21.1507 9.01063 21.2501 9.01063C21.3495 9.01063 21.4479 8.99088 21.5396 8.95252C21.6313 8.91416 21.7144 8.85796 21.7842 8.78718C21.854 8.7164 21.909 8.63246 21.9461 8.54024C21.9831 8.44801 22.0015 8.34934 22.0001 8.24995V4.74995C22.0001 3.24007 20.76 1.99995 19.2501 1.99995H15.7501ZM7.23836 6.98921C7.03962 6.99232 6.85023 7.07418 6.71181 7.21682C6.57338 7.35946 6.49723 7.55121 6.50008 7.74995V9.24995C6.49867 9.34934 6.51703 9.44801 6.55409 9.54024C6.59115 9.63246 6.64617 9.7164 6.71596 9.78718C6.78574 9.85796 6.8689 9.91416 6.96059 9.95252C7.05228 9.99088 7.15068 10.0106 7.25008 10.0106C7.34947 10.0106 7.44787 9.99088 7.53957 9.95252C7.63126 9.91416 7.71441 9.85796 7.7842 9.78718C7.85398 9.7164 7.909 9.63246 7.94606 9.54024C7.98312 9.44801 8.00148 9.34934 8.00008 9.24995V7.74995C8.00152 7.64957 7.98279 7.54992 7.94501 7.45691C7.90723 7.36389 7.85116 7.27941 7.78012 7.20847C7.70909 7.13753 7.62453 7.08157 7.53147 7.0439C7.43841 7.00624 7.33874 6.98764 7.23836 6.98921ZM12.2384 6.98921C12.0396 6.99232 11.8502 7.07418 11.7118 7.21682C11.5734 7.35946 11.4972 7.55121 11.5001 7.74995V11.75C11.5001 12.1732 11.1733 12.5 10.7501 12.5C10.6507 12.4985 10.552 12.5169 10.4598 12.554C10.3676 12.591 10.2836 12.6461 10.2129 12.7158C10.1421 12.7856 10.0859 12.8688 10.0475 12.9605C10.0091 13.0522 9.9894 13.1506 9.9894 13.25C9.9894 13.3493 10.0091 13.4478 10.0475 13.5394C10.0859 13.6311 10.1421 13.7143 10.2129 13.7841C10.2836 13.8539 10.3676 13.9089 10.4598 13.9459C10.552 13.983 10.6507 14.0014 10.7501 14C11.9838 14 13.0001 12.9837 13.0001 11.75V7.74995C13.0015 7.64957 12.9828 7.54992 12.945 7.45691C12.9072 7.36389 12.8512 7.27941 12.7801 7.20847C12.7091 7.13753 12.6245 7.08157 12.5315 7.0439C12.4384 7.00624 12.3387 6.98764 12.2384 6.98921ZM16.7384 6.98921C16.5396 6.99232 16.3502 7.07418 16.2118 7.21682C16.0734 7.35946 15.9972 7.55121 16.0001 7.74995V9.24995C15.9987 9.34934 16.017 9.44801 16.0541 9.54024C16.0912 9.63246 16.1462 9.7164 16.216 9.78718C16.2857 9.85796 16.3689 9.91416 16.4606 9.95252C16.5523 9.99088 16.6507 10.0106 16.7501 10.0106C16.8495 10.0106 16.9479 9.99088 17.0396 9.95252C17.1313 9.91416 17.2144 9.85796 17.2842 9.78718C17.354 9.7164 17.409 9.63246 17.4461 9.54024C17.4831 9.44801 17.5015 9.34934 17.5001 9.24995V7.74995C17.5015 7.64957 17.4828 7.54992 17.445 7.45691C17.4072 7.36389 17.3512 7.27941 17.2801 7.20847C17.2091 7.13753 17.1245 7.08157 17.0315 7.0439C16.9384 7.00624 16.8387 6.98764 16.7384 6.98921ZM2.73836 14.9892C2.53962 14.9923 2.35023 15.0742 2.21181 15.2168C2.07338 15.3595 1.99723 15.5512 2.00008 15.75V19.25C2.00008 20.7598 3.24019 22 4.75008 22H8.25008C8.34946 22.0014 8.44813 21.983 8.54036 21.9459C8.63259 21.9089 8.71653 21.8539 8.7873 21.7841C8.85808 21.7143 8.91428 21.6311 8.95264 21.5394C8.991 21.4478 9.01076 21.3493 9.01076 21.25C9.01076 21.1506 8.991 21.0522 8.95264 20.9605C8.91428 20.8688 8.85808 20.7856 8.7873 20.7158C8.71653 20.646 8.63259 20.591 8.54036 20.554C8.44813 20.5169 8.34946 20.4985 8.25008 20.5H4.75008C4.05096 20.5 3.50008 19.9491 3.50008 19.25V15.75C3.50152 15.6496 3.48279 15.5499 3.44501 15.4569C3.40723 15.3639 3.35116 15.2794 3.28012 15.2085C3.20909 15.1375 3.12453 15.0816 3.03147 15.0439C2.93841 15.0062 2.83874 14.9876 2.73836 14.9892ZM21.2384 14.9892C21.0396 14.9923 20.8502 15.0742 20.7118 15.2168C20.5734 15.3595 20.4972 15.5512 20.5001 15.75V19.25C20.5001 19.9491 19.9492 20.5 19.2501 20.5H15.7501C15.6507 20.4985 15.552 20.5169 15.4598 20.554C15.3676 20.591 15.2836 20.646 15.2129 20.7158C15.1421 20.7856 15.0859 20.8688 15.0475 20.9605C15.0091 21.0522 14.9894 21.1506 14.9894 21.25C14.9894 21.3493 15.0091 21.4478 15.0475 21.5394C15.0859 21.6311 15.1421 21.7143 15.2129 21.7841C15.2836 21.8539 15.3676 21.9089 15.4598 21.9459C15.552 21.983 15.6507 22.0014 15.7501 22H19.2501C20.76 22 22.0001 20.7598 22.0001 19.25V15.75C22.0015 15.6496 21.9828 15.5499 21.945 15.4569C21.9072 15.3639 21.8512 15.2794 21.7801 15.2085C21.7091 15.1375 21.6245 15.0816 21.5315 15.0439C21.4384 15.0062 21.3387 14.9876 21.2384 14.9892ZM14.7501 15.4921C14.5548 15.4942 14.3681 15.5723 14.2296 15.7099C14.2296 15.7099 13.4194 16.5 12.0001 16.5C10.5807 16.5 9.77059 15.7099 9.77059 15.7099C9.69987 15.6406 9.61611 15.5859 9.52416 15.5491C9.43221 15.5123 9.33388 15.4941 9.23484 15.4955C9.13581 15.4969 9.03803 15.5179 8.94715 15.5572C8.85627 15.5966 8.7741 15.6536 8.70536 15.7249C8.63663 15.7963 8.5827 15.8805 8.54669 15.9727C8.51067 16.065 8.49329 16.1635 8.49554 16.2625C8.49779 16.3615 8.51963 16.4591 8.5598 16.5497C8.59997 16.6402 8.65767 16.7219 8.72957 16.79C8.72957 16.79 9.99644 18 12.0001 18C14.0037 18 15.2706 16.79 15.2706 16.79C15.381 16.6867 15.4576 16.5525 15.4904 16.4049C15.5232 16.2573 15.5107 16.1033 15.4544 15.963C15.3981 15.8226 15.3008 15.7026 15.1751 15.6186C15.0494 15.5346 14.9013 15.4905 14.7501 15.4921Z" fill="black"/>
</svg>
