<svg width="24" height="24" viewBox="0 0 24 24" fill="none" xmlns="http://www.w3.org/2000/svg">
<path d="M13.4434 1.51172C13.2187 1.52464 12.9954 1.57907 12.7871 1.69238C12.3705 1.91902 12.118 2.32045 11.9668 2.74219C11.9665 2.74251 11.9661 2.74284 11.9658 2.74317C11.9284 2.84828 11.9479 2.79981 11.9404 2.8252C11.933 2.85058 11.9232 2.88407 11.9111 2.92578C11.8871 3.0092 11.8545 3.12411 11.8154 3.26074C11.7372 3.53402 11.635 3.89371 11.5332 4.25098C11.3297 4.96551 11.1279 5.67285 11.1279 5.67285C11.1279 5.6735 11.1279 5.67416 11.1279 5.67481C11.0707 5.87771 11.0231 5.98532 11.0029 6.0166C11.0026 6.01725 11.0023 6.0179 11.002 6.01856C10.264 7.16913 9.46913 8.3278 8.69727 9.5H5.25C4.01625 9.5 3 10.5163 3 11.75V19.75C3 20.9838 4.01625 22 5.25 22H7.25C7.87867 22 8.44641 21.7326 8.85645 21.3105C10.0104 21.5604 11.2984 21.8373 12.3477 22.0586C12.8975 22.1746 13.3808 22.275 13.7451 22.3486C14.109 22.4222 14.2445 22.4615 14.4844 22.4844C14.6384 22.4992 14.7914 22.5068 14.9424 22.5068C17.0833 22.5068 18.9756 21.0507 19.5234 18.9355C19.9423 17.3166 20.8 13.9608 20.8037 13.9463C20.8735 13.6892 20.9709 13.3437 20.9932 12.9297C20.9932 12.9294 20.9932 12.929 20.9932 12.9287C21.041 12.0344 20.7306 11.1641 20.1211 10.5195C20.1211 10.5192 20.1211 10.5189 20.1211 10.5186C19.5017 9.86411 18.6333 9.5019 17.7197 9.5C17.7191 9.5 17.7184 9.5 17.7178 9.5H15.7334C15.9092 8.87125 16.0827 8.26361 16.209 7.77051C16.209 7.77018 16.209 7.76986 16.209 7.76953C16.5109 6.58461 16.5815 5.52639 16.3984 4.51074C16.3984 4.51042 16.3984 4.51009 16.3984 4.50977C16.3065 4.00323 16.133 3.26415 15.6084 2.58399C15.2271 2.08994 14.7034 1.73024 14.1094 1.58106C14.1087 1.58106 14.1081 1.58106 14.1074 1.58106C13.8939 1.52783 13.668 1.4988 13.4434 1.51172ZM13.542 3.00488C13.5766 3.00447 13.6388 3.01005 13.7441 3.03613C14.0102 3.10295 14.2172 3.23604 14.4209 3.5C14.7193 3.88683 14.8458 4.3529 14.9229 4.77734C15.0626 5.55341 15.0198 6.36375 14.7559 7.39942C14.5756 8.1032 14.0283 10.0469 14.0283 10.0469C13.997 10.1584 13.9919 10.2756 14.0134 10.3894C14.0349 10.5031 14.0825 10.6104 14.1524 10.7027C14.2223 10.795 14.3126 10.8699 14.4163 10.9215C14.52 10.9731 14.6342 10.9999 14.75 11H17.7178C18.2458 11.0014 18.6969 11.1965 19.0312 11.5498C19.3588 11.8962 19.5222 12.342 19.4951 12.8486C19.4834 13.0657 19.4257 13.2988 19.3564 13.5537C19.3554 13.5573 19.3545 13.5609 19.3535 13.5645C19.3535 13.5645 18.4895 16.943 18.0713 18.5596C17.6901 20.0314 16.4095 21.0068 14.9424 21.0068C14.8384 21.0068 14.7338 21.0013 14.6289 20.9912C14.6286 20.9912 14.6283 20.9912 14.6279 20.9912C14.7424 21.0021 14.3988 20.951 14.042 20.8789C13.6852 20.8068 13.2048 20.7063 12.6572 20.5908C11.7006 20.3891 10.5413 20.1393 9.46777 19.9072C9.47187 19.8526 9.5 19.8056 9.5 19.75V11.0059C10.3854 9.62312 11.3527 8.24934 12.2637 6.8291L12.2646 6.82813C12.4289 6.57284 12.5026 6.32477 12.5713 6.08106C12.5718 6.07926 12.7725 5.37419 12.9756 4.66113C13.0773 4.30415 13.179 3.94599 13.2568 3.67383C13.2958 3.53775 13.3291 3.42316 13.3525 3.3418C13.3643 3.30112 13.3735 3.26887 13.3799 3.24707C13.458 3.03031 13.511 3.0059 13.5039 3.00977C13.5003 3.0117 13.5074 3.0053 13.542 3.00488ZM5.25 11H8V19.75C8 20.1733 7.67325 20.5 7.25 20.5H5.25C4.82675 20.5 4.5 20.1733 4.5 19.75V11.75C4.5 11.3268 4.82675 11 5.25 11Z" fill="black"/>
</svg>
