<svg width="24" height="24" viewBox="0 0 24 24" fill="none" xmlns="http://www.w3.org/2000/svg">
<path d="M14.4779 1C12.9047 1 11.5696 1.4968 10.67 2.49368C9.7704 3.49056 9.34885 4.91225 9.34885 6.60871V8.32123H7.67915C6.75439 8.32123 5.99093 9.10645 6.00008 10.05L6.01414 11.5198C6.01414 11.5201 6.01414 11.5204 6.01414 11.5207C6.02493 12.4512 6.78187 13.2169 7.69508 13.2161L9.34979 13.2151V21.2875C9.34979 22.2244 10.1102 23 11.0289 23H12.9478C13.8665 23 14.6269 22.2244 14.6269 21.2875V13.2142H16.112C16.9581 13.2142 17.6815 12.5567 17.7798 11.6994L17.9475 10.2316C18.062 9.22678 17.272 8.32123 16.2797 8.32123H14.6362L14.6569 6.71287C14.6569 6.70969 14.6569 6.7065 14.6569 6.70331C14.6569 6.36774 14.9069 6.11272 15.2359 6.11272H16.6311C17.3786 6.11272 18 5.47892 18 4.71652V2.4803C18 1.76318 17.453 1.15324 16.7538 1.08888C16.7532 1.08887 16.7526 1.08887 16.7519 1.08888C16.6155 1.0767 15.6717 1 14.4779 1ZM14.4779 2.46788C15.5706 2.46788 16.5521 2.54794 16.5608 2.54815V4.64485H15.2359C14.1296 4.64485 13.2176 5.57493 13.2176 6.70331L13.1877 9.04561C13.1864 9.14279 13.2041 9.23925 13.2397 9.3294C13.2754 9.41955 13.3282 9.50159 13.3951 9.57075C13.4621 9.63992 13.5418 9.69483 13.6297 9.73232C13.7176 9.7698 13.812 9.7891 13.9073 9.78911H16.2797C16.4359 9.78911 16.5357 9.90465 16.5177 10.0624L16.3509 11.5293C16.336 11.6595 16.2397 11.7463 16.112 11.7463H13.9073C13.7164 11.7463 13.5334 11.8236 13.3985 11.9613C13.2635 12.0989 13.1877 12.2856 13.1877 12.4802V21.2875C13.1877 21.4318 13.0893 21.5321 12.9478 21.5321H11.0289C10.8873 21.5321 10.789 21.4318 10.789 21.2875V12.4802C10.789 12.2856 10.7132 12.0989 10.5782 11.9613C10.4433 11.8236 10.2602 11.7463 10.0694 11.7463L7.69414 11.7482C7.69383 11.7482 7.69352 11.7482 7.69321 11.7482C7.55442 11.7483 7.45577 11.6476 7.45334 11.5045L7.43928 10.0357C7.43791 9.89103 7.53698 9.78911 7.67915 9.78911H10.0685C10.2593 9.78909 10.4423 9.71175 10.5773 9.57412C10.7122 9.43648 10.788 9.24981 10.7881 9.05517V6.60871C10.7881 5.15754 11.1401 4.1419 11.7297 3.48851C12.3193 2.83513 13.1885 2.46788 14.4779 2.46788Z" fill="black"/>
</svg>
