<svg width="24" height="24" viewBox="0 0 24 24" fill="none" xmlns="http://www.w3.org/2000/svg">
<path d="M12.25 2C10.3533 2 8.55254 2.42274 6.9355 3.16992C6.84337 3.20944 6.7601 3.26702 6.69061 3.33926C6.62111 3.4115 6.5668 3.49694 6.53089 3.59053C6.49497 3.68412 6.47818 3.78396 6.4815 3.88414C6.48483 3.98433 6.5082 4.08284 6.55024 4.17384C6.59228 4.26484 6.65214 4.34649 6.72627 4.41397C6.8004 4.48144 6.88731 4.53337 6.98185 4.56669C7.0764 4.60001 7.17666 4.61404 7.27672 4.60796C7.37678 4.60187 7.4746 4.57579 7.56441 4.53125C8.99237 3.87143 10.5756 3.5 12.25 3.5C13.9157 3.5 15.5008 3.87358 16.9335 4.53906C17.0229 4.58064 17.1195 4.60422 17.218 4.60845C17.3164 4.61267 17.4147 4.59746 17.5073 4.56369C17.5998 4.52992 17.6848 4.47824 17.7574 4.41161C17.83 4.34498 17.8887 4.26471 17.9303 4.17537C17.9719 4.08604 17.9954 3.98939 17.9996 3.89095C18.0038 3.79251 17.9886 3.69421 17.9548 3.60165C17.921 3.5091 17.8693 3.42411 17.8026 3.35154C17.736 3.27898 17.6557 3.22025 17.5664 3.17871C15.9441 2.4252 14.1402 2 12.25 2ZM4.74116 4.64453C4.57211 4.64843 4.40934 4.70935 4.27925 4.81738C3.4912 5.45228 2.7768 6.17685 2.1562 6.98145C2.09333 7.05916 2.04662 7.14866 2.01883 7.24468C1.99104 7.34071 1.98272 7.44132 1.99436 7.5406C2.00601 7.63989 2.03738 7.73584 2.08664 7.82283C2.1359 7.90981 2.20205 7.98607 2.2812 8.04713C2.36035 8.10819 2.45091 8.15281 2.54755 8.17836C2.6442 8.20392 2.74497 8.20991 2.84396 8.19596C2.94295 8.18202 3.03815 8.14843 3.12397 8.09717C3.20979 8.04591 3.2845 7.97801 3.3437 7.89746C3.89011 7.18906 4.52171 6.54846 5.22066 5.98535C5.34486 5.88826 5.43531 5.75451 5.47918 5.60309C5.52304 5.45166 5.51807 5.29027 5.46499 5.14183C5.4119 4.99339 5.3134 4.86545 5.18346 4.77618C5.05353 4.68691 4.89877 4.64084 4.74116 4.64453ZM12.7168 5.02441C12.5229 5.03085 12.3391 5.11212 12.2039 5.25116C12.0687 5.39021 11.9926 5.57622 11.9916 5.77017C11.9906 5.96411 12.0647 6.15091 12.1985 6.29135C12.3322 6.4318 12.5152 6.51498 12.7089 6.52344C16.8986 6.7551 20.2515 10.1066 20.4785 14.291C20.4838 14.3894 20.5085 14.4857 20.5511 14.5746C20.5938 14.6634 20.6534 14.743 20.7268 14.8087C20.8002 14.8745 20.8858 14.9252 20.9787 14.9578C21.0717 14.9905 21.1701 15.0046 21.2685 14.9992C21.3669 14.9938 21.4632 14.9691 21.5521 14.9264C21.6409 14.8838 21.7204 14.8241 21.7862 14.7507C21.8519 14.6774 21.9026 14.5917 21.9352 14.4988C21.9679 14.4058 21.9819 14.3074 21.9765 14.209C21.7085 9.26843 17.7343 5.2997 12.791 5.02637C12.7663 5.02449 12.7415 5.02384 12.7168 5.02441ZM9.74019 5.35742C9.67259 5.35946 9.60557 5.37063 9.54097 5.39062C5.47762 6.56877 2.49995 10.3196 2.49995 14.75C2.49995 15.1019 2.51828 15.8496 2.63863 16.8408C2.65053 16.9386 2.68158 17.0331 2.73002 17.1189C2.77845 17.2047 2.84331 17.2801 2.92089 17.3409C2.99847 17.4016 3.08726 17.4465 3.18218 17.4729C3.2771 17.4993 3.3763 17.5067 3.4741 17.4948C3.5719 17.4829 3.66639 17.4518 3.75218 17.4034C3.83797 17.3549 3.91337 17.29 3.97409 17.2124C4.0348 17.1348 4.07963 17.046 4.10602 16.9511C4.13241 16.8562 4.13984 16.757 4.12788 16.6592C4.01622 15.7394 3.99995 15.0481 3.99995 14.75C3.99995 10.9914 6.52429 7.82691 9.95894 6.83105C10.1362 6.78294 10.2897 6.67145 10.3902 6.51773C10.4908 6.364 10.5314 6.17872 10.5044 5.99703C10.4774 5.81533 10.3847 5.64985 10.2439 5.53196C10.103 5.41407 9.92379 5.35196 9.74019 5.35742ZM12.25 8C8.5347 8 5.49995 11.0347 5.49995 14.75C5.49995 15.4038 5.57164 17.5458 6.41695 19.9951C6.44678 20.0911 6.4956 20.1801 6.5605 20.2568C6.6254 20.3335 6.70506 20.3965 6.79474 20.4418C6.88443 20.4871 6.98232 20.514 7.08259 20.5208C7.18286 20.5276 7.28347 20.5141 7.37844 20.4813C7.47342 20.4484 7.56082 20.3968 7.63546 20.3295C7.7101 20.2622 7.77046 20.1806 7.81295 20.0895C7.85543 19.9985 7.87919 19.8998 7.88279 19.7993C7.8864 19.6989 7.86978 19.5988 7.83394 19.5049C7.06924 17.2892 6.99995 15.2852 6.99995 14.75C6.99995 11.8483 9.34821 9.5 12.25 9.5C14.0027 9.5 15.5501 10.3651 16.5068 11.6895C16.5645 11.7693 16.6374 11.837 16.7212 11.8886C16.8051 11.9403 16.8983 11.975 16.9956 11.9906C17.0928 12.0062 17.1922 12.0026 17.2881 11.9798C17.3839 11.957 17.4743 11.9156 17.5542 11.8579C17.634 11.8002 17.7017 11.7273 17.7533 11.6435C17.805 11.5596 17.8397 11.4664 17.8553 11.3691C17.8709 11.2719 17.8673 11.1725 17.8445 11.0766C17.8217 10.9808 17.7803 10.8904 17.7226 10.8105C16.4963 9.11287 14.4972 8 12.25 8ZM12.25 10.999C10.1888 10.999 8.49995 12.6879 8.49995 14.749C8.49995 15.2607 8.54709 18.7363 10.5947 21.6777C10.6502 21.7602 10.7216 21.8308 10.8047 21.8854C10.8878 21.94 10.9809 21.9776 11.0787 21.9959C11.1764 22.0142 11.2768 22.0129 11.374 21.992C11.4713 21.9712 11.5634 21.9312 11.645 21.8744C11.7266 21.8176 11.7962 21.7452 11.8496 21.6613C11.9029 21.5774 11.9391 21.4838 11.956 21.3858C11.9728 21.2878 11.97 21.1874 11.9477 21.0905C11.9254 20.9936 11.8841 20.9021 11.8261 20.8213C10.1007 18.3427 9.99995 15.0864 9.99995 14.749C9.99995 13.5011 11.0021 12.499 12.25 12.499C13.4947 12.499 14.4977 13.5012 14.5 14.7461V14.751V14.7568C14.5061 15.1321 14.5698 15.7767 14.7558 16.5078C14.9418 17.2389 15.2295 18.0479 15.8408 18.6592H15.8418L16.9716 19.7822C17.041 19.8539 17.124 19.911 17.2157 19.9503C17.3075 19.9895 17.4061 20.01 17.5059 20.0106C17.6056 20.0113 17.7045 19.992 17.7967 19.9539C17.8889 19.9159 17.9726 19.8598 18.0429 19.789C18.1132 19.7182 18.1687 19.6341 18.206 19.5416C18.2434 19.4491 18.262 19.3501 18.2606 19.2503C18.2592 19.1505 18.238 19.0521 18.1981 18.9606C18.1582 18.8692 18.1005 18.7866 18.0283 18.7178L16.9003 17.5967C16.6269 17.3224 16.3599 16.7309 16.2089 16.1377C16.0578 15.5437 16.0033 14.9397 16 14.7324V14.7432C15.9962 12.685 14.3082 10.999 12.25 10.999ZM18.2382 13.4893C18.0395 13.4924 17.8501 13.5742 17.7117 13.7169C17.5733 13.8595 17.4971 14.0513 17.5 14.25V14.7393C17.5 16.1497 18.3044 17.0098 18.7275 17.3408L18.6904 17.3096L19.2509 17.8096C19.3238 17.8785 19.4098 17.9321 19.5038 17.9671C19.5978 18.0022 19.6979 18.0181 19.7981 18.0138C19.8984 18.0095 19.9967 17.9852 20.0874 17.9422C20.178 17.8992 20.2591 17.8385 20.3259 17.7636C20.3927 17.6888 20.4438 17.6013 20.4761 17.5063C20.5085 17.4113 20.5214 17.3108 20.5143 17.2108C20.5071 17.1107 20.4799 17.0131 20.4344 16.9237C20.3888 16.8343 20.3257 16.755 20.249 16.6904L19.6709 16.1738L19.6513 16.1592C19.4494 16.0012 19 15.5968 19 14.7393V14.25C19.0014 14.1496 18.9827 14.05 18.9449 13.957C18.9071 13.8639 18.851 13.7795 18.78 13.7085C18.709 13.6376 18.6244 13.5816 18.5313 13.544C18.4383 13.5063 18.3386 13.4877 18.2382 13.4893ZM12.2382 13.9893C12.0395 13.9924 11.8501 14.0742 11.7117 14.2169C11.5733 14.3595 11.4971 14.5513 11.5 14.75C11.5 14.75 11.4103 18.4709 13.7197 20.7803L14.2197 21.2803C14.2888 21.3523 14.3716 21.4097 14.4632 21.4493C14.5548 21.4889 14.6533 21.5098 14.7531 21.5108C14.8529 21.5118 14.9519 21.4929 15.0443 21.4552C15.1366 21.4175 15.2206 21.3617 15.2911 21.2912C15.3617 21.2206 15.4174 21.1367 15.4552 21.0443C15.4929 20.9519 15.5118 20.8529 15.5108 20.7532C15.5098 20.6534 15.4888 20.5548 15.4493 20.4632C15.4097 20.3716 15.3522 20.2888 15.2802 20.2197L14.7802 19.7197C13.0896 18.0291 13 14.75 13 14.75C13.0014 14.6496 12.9827 14.55 12.9449 14.457C12.9071 14.3639 12.851 14.2795 12.78 14.2085C12.709 14.1376 12.6244 14.0816 12.5314 14.044C12.4383 14.0063 12.3386 13.9877 12.2382 13.9893Z" fill="black"/>
</svg>
