<svg width="24" height="24" viewBox="0 0 24 24" fill="none" xmlns="http://www.w3.org/2000/svg">
<path d="M17.7382 1.48923C17.5395 1.49233 17.3501 1.57419 17.2117 1.71683C17.0732 1.85947 16.9971 2.05122 16.9999 2.24997C16.9999 3.24997 16.6562 3.41403 16.0312 3.91403C15.4062 4.41403 14.4999 5.24997 14.4999 6.74997C14.4985 6.84935 14.5169 6.94803 14.554 7.04025C14.591 7.13248 14.646 7.21642 14.7158 7.2872C14.7856 7.35797 14.8688 7.41418 14.9605 7.45254C15.0521 7.4909 15.1505 7.51065 15.2499 7.51065C15.3493 7.51065 15.4477 7.4909 15.5394 7.45254C15.6311 7.41418 15.7143 7.35797 15.7841 7.2872C15.8538 7.21642 15.9089 7.13248 15.9459 7.04025C15.983 6.94803 16.0013 6.84935 15.9999 6.74997C15.9999 5.74997 16.3437 5.58591 16.9687 5.08591C17.5937 4.58591 18.4999 3.74997 18.4999 2.24997C18.5014 2.14959 18.4827 2.04994 18.4449 1.95692C18.4071 1.86391 18.351 1.77943 18.28 1.70849C18.209 1.63754 18.1244 1.58158 18.0313 1.54392C17.9383 1.50626 17.8386 1.48766 17.7382 1.48923ZM20.7382 2.48923C20.5395 2.49233 20.3501 2.57419 20.2117 2.71683C20.0732 2.85947 19.9971 3.05122 19.9999 3.24997C19.9999 3.62497 19.9274 3.78186 19.8251 3.92673C19.7229 4.0716 19.5497 4.21286 19.2997 4.40036C19.0497 4.58786 18.7229 4.8216 18.4501 5.20798C18.1774 5.59435 17.9999 6.12497 17.9999 6.74997C17.9985 6.84935 18.0169 6.94803 18.054 7.04025C18.091 7.13248 18.146 7.21642 18.2158 7.2872C18.2856 7.35797 18.3688 7.41418 18.4604 7.45254C18.5521 7.4909 18.6505 7.51065 18.7499 7.51065C18.8493 7.51065 18.9477 7.4909 19.0394 7.45254C19.1311 7.41418 19.2143 7.35797 19.2841 7.2872C19.3538 7.21642 19.4089 7.13248 19.4459 7.04025C19.483 6.94803 19.5013 6.84935 19.4999 6.74997C19.4999 6.37497 19.5725 6.21808 19.6747 6.07321C19.777 5.92834 19.9501 5.78708 20.2001 5.59958C20.4501 5.41208 20.777 5.17834 21.0497 4.79196C21.3225 4.40558 21.4999 3.87497 21.4999 3.24997C21.5014 3.14959 21.4827 3.04994 21.4449 2.95692C21.4071 2.86391 21.351 2.77943 21.28 2.70849C21.209 2.63754 21.1244 2.58158 21.0313 2.54392C20.9383 2.50626 20.8386 2.48766 20.7382 2.48923ZM7.99994 8.99997C6.83244 8.99997 5.76317 9.57345 5.11517 10.5215C3.36567 10.714 1.99994 12.2 1.99994 14H1.74994C1.33544 14 0.99994 14.336 0.99994 14.75V15.25C0.99994 17.1507 1.85527 18.8528 3.19818 20H1.74994C1.65056 19.9986 1.55188 20.0169 1.45966 20.054C1.36743 20.091 1.28349 20.1461 1.21271 20.2158C1.14194 20.2856 1.08573 20.3688 1.04737 20.4605C1.00901 20.5522 0.989258 20.6506 0.989258 20.75C0.989258 20.8494 1.00901 20.9478 1.04737 21.0395C1.08573 21.1312 1.14194 21.2143 1.21271 21.2841C1.28349 21.3539 1.36743 21.4089 1.45966 21.446C1.55188 21.483 1.65056 21.5014 1.74994 21.5H7.24994H13.3456H22.2499C22.3493 21.5014 22.448 21.483 22.5402 21.446C22.6324 21.4089 22.7164 21.3539 22.7872 21.2841C22.8579 21.2143 22.9141 21.1312 22.9525 21.0395C22.9909 20.9478 23.0106 20.8494 23.0106 20.75C23.0106 20.6506 22.9909 20.5522 22.9525 20.4605C22.9141 20.3688 22.8579 20.2856 22.7872 20.2158C22.7164 20.1461 22.6324 20.091 22.5402 20.054C22.448 20.0169 22.3493 19.9986 22.2499 20H22.2392C22.714 19.3716 22.9999 18.5935 22.9999 17.75V9.74997C22.9999 9.55106 22.9209 9.36031 22.7802 9.21966C22.6396 9.07901 22.4488 8.99999 22.2499 8.99997H13.2499C13.051 8.99999 12.8603 9.07901 12.7196 9.21966C12.579 9.36031 12.5 9.55106 12.4999 9.74997V17.75C12.4999 18.5935 12.7858 19.3716 13.2607 20H12.0683H7.24994C4.71494 20 2.63728 18.0035 2.50678 15.5H2.74994H11.4999V14H3.49994C3.49994 12.897 4.39662 11.9995 5.47162 11.999C5.48962 12 5.53322 12.0029 5.55072 12.0029C5.83222 12.0029 6.09069 11.8447 6.21869 11.5937C6.56319 10.9187 7.24594 10.5 7.99994 10.5C8.47044 10.5 8.9109 10.658 9.2724 10.957C9.5499 11.1865 9.94998 11.1865 10.2275 10.957C10.5895 10.658 11.0294 10.5 11.4999 10.5V9.72751C11.4999 9.47051 11.5581 9.22778 11.6581 9.00778C11.6051 9.00528 11.5534 8.99997 11.4999 8.99997C10.8834 8.99997 10.2789 9.16372 9.74994 9.46872C9.22094 9.16372 8.61644 8.99997 7.99994 8.99997ZM13.9999 10.5H21.4999V17.75C21.4999 19.0017 20.5017 20 19.2499 20H16.2499C14.9982 20 13.9999 19.0017 13.9999 17.75V10.5Z" fill="black"/>
</svg>
