<svg width="24" height="24" viewBox="0 0 24 24" fill="none" xmlns="http://www.w3.org/2000/svg">
<path d="M12 2C6.48615 2 2 6.48615 2 12C2 17.5139 6.48615 22 12 22C17.5139 22 22 17.5139 22 12C22 11.5297 21.9578 11.0804 21.8994 10.6494C21.8751 10.4696 21.7863 10.3047 21.6497 10.1853C21.513 10.0659 21.3377 10 21.1562 10H12.25C12.0511 10 11.8603 10.079 11.7197 10.2197C11.579 10.3603 11.5 10.5511 11.5 10.75V13.75C11.5 13.9489 11.579 14.1397 11.7197 14.2803C11.8603 14.421 12.0511 14.5 12.25 14.5H16.8203C15.9059 16.261 14.1288 17.5 12 17.5C8.95327 17.5 6.5 15.0467 6.5 12C6.5 8.95327 8.95327 6.5 12 6.5C13.3968 6.5 14.6581 7.02448 15.6309 7.88379C15.774 8.00994 15.9598 8.07683 16.1504 8.07085C16.3411 8.06486 16.5223 7.98645 16.6572 7.85156L18.7793 5.73047C18.8508 5.65904 18.9072 5.57388 18.9449 5.48012C18.9827 5.38637 19.0012 5.28594 18.9992 5.18487C18.9972 5.08381 18.9747 4.98419 18.9333 4.89201C18.8918 4.79983 18.8321 4.71698 18.7578 4.64844C16.982 3.00973 14.6076 2 12 2ZM12 3.5C13.9383 3.5 15.6912 4.17794 17.1172 5.27148L16.0049 6.38281C14.862 5.56376 13.5141 5 12 5C9.57224 5 7.432 6.24733 6.17578 8.13184L4.97461 7.21289C6.5032 4.97113 9.07505 3.5 12 3.5ZM4.24512 8.54395L5.48535 9.49219C5.18309 10.2734 5 11.1139 5 12C5 12.8861 5.18309 13.7266 5.48535 14.5078L4.24512 15.4561C3.77434 14.3988 3.5 13.2343 3.5 12C3.5 10.7657 3.77434 9.60116 4.24512 8.54395ZM13 11.5H20.4619C20.4736 11.6662 20.5 11.8348 20.5 12C20.5 14.1214 19.6997 16.0341 18.4199 17.5215L17.249 16.5068C17.8904 15.7605 18.434 14.9301 18.7168 13.96C18.7494 13.8482 18.7555 13.7304 18.7347 13.6159C18.7138 13.5014 18.6666 13.3933 18.5968 13.3001C18.527 13.207 18.4365 13.1314 18.3324 13.0793C18.2283 13.0272 18.1135 13.0001 17.9971 13H13V11.5ZM6.17578 15.8682C7.432 17.7527 9.57224 19 12 19C13.5781 19 15.0332 18.4719 16.2051 17.5869L17.3389 18.5703C15.877 19.759 14.0361 20.5 12 20.5C9.07505 20.5 6.5032 19.0289 4.97461 16.7871L6.17578 15.8682Z" fill="black"/>
</svg>
