<svg width="24" height="24" viewBox="0 0 24 24" fill="none" xmlns="http://www.w3.org/2000/svg">
<path d="M9.50021 3C7.85228 3 6.50021 4.35207 6.50021 6C6.50021 7.64793 7.85228 9 9.50021 9H17.0002C18.6481 9 20.0002 7.64793 20.0002 6C20.0002 4.35207 18.6481 3 17.0002 3H9.50021ZM9.50021 4.5H12.5002V7.5H9.50021C8.66315 7.5 8.00021 6.83707 8.00021 6C8.00021 5.16293 8.66315 4.5 9.50021 4.5ZM14.0002 4.5H17.0002C17.8373 4.5 18.5002 5.16293 18.5002 6C18.5002 6.83707 17.8373 7.5 17.0002 7.5H14.0002V4.5ZM20.8069 10.5098C20.2468 10.5146 19.7148 10.7366 19.2424 11.0879C18.7353 11.4646 17.2094 12.604 15.8889 13.5898C15.6025 12.6758 14.7532 12 13.7502 12H11.5539C10.1483 12 9.49298 11.8861 8.9299 11.7666C8.36682 11.6471 7.8236 11.5 6.9133 11.5C4.97091 11.5 3.50638 12.7465 2.54709 13.8955C1.5878 15.0445 1.0676 16.1924 1.0676 16.1924C1.02672 16.282 1.00391 16.3788 1.00046 16.4773C0.99701 16.5758 1.01299 16.674 1.04749 16.7662C1.08199 16.8585 1.13433 16.9431 1.20152 17.0152C1.26872 17.0872 1.34945 17.1453 1.4391 17.1862C1.52876 17.227 1.62559 17.2498 1.72405 17.2533C1.82252 17.2567 1.92069 17.2407 2.01297 17.2062C2.10525 17.1716 2.18982 17.1193 2.26186 17.0521C2.3339 16.9849 2.392 16.9041 2.43283 16.8145C2.43283 16.8145 2.88237 15.8349 3.69846 14.8574C4.51454 13.8799 5.63019 13 6.9133 13C7.67399 13 8.00358 13.1029 8.61838 13.2334C9.23317 13.3639 10.062 13.5 11.5539 13.5H13.7502C14.1735 13.5 14.5002 13.8268 14.5002 14.25C14.5002 14.4847 14.3973 14.6871 14.2356 14.8232L14.2151 14.8389C14.2006 14.8501 14.1866 14.8618 14.1731 14.874L14.1721 14.875C14.0529 14.9543 13.9084 15 13.7502 15H10.2502C10.1508 14.9986 10.0522 15.017 9.95993 15.054C9.8677 15.0911 9.78376 15.1461 9.71299 15.2159C9.64221 15.2857 9.58601 15.3688 9.54765 15.4605C9.50928 15.5522 9.48953 15.6506 9.48953 15.75C9.48953 15.8494 9.50928 15.9478 9.54765 16.0395C9.58601 16.1312 9.64221 16.2143 9.71299 16.2841C9.78376 16.3539 9.8677 16.4089 9.95993 16.446C10.0522 16.483 10.1508 16.5014 10.2502 16.5H13.7502C14.2205 16.5 14.6579 16.3507 15.0207 16.0996L15.0227 16.0986C15.054 16.0816 15.084 16.0623 15.1125 16.041C15.1125 16.041 19.3882 12.8482 20.1369 12.292V12.291C20.419 12.0813 20.6551 12.0112 20.8205 12.0098C20.9859 12.0083 21.1094 12.0485 21.2805 12.2197C21.5757 12.5147 21.5739 12.9676 21.2863 13.2666C18.6088 15.5181 16.9244 17.0184 15.8117 17.8975C14.6852 18.7875 14.2127 19 13.7502 19C11.9242 19 9.90055 18.5 7.75021 18.5C6.50021 18.5 5.6216 19.1718 5.1506 19.7998C4.6796 20.4278 4.52267 21.0684 4.52267 21.0684C4.4962 21.1648 4.48927 21.2655 4.50228 21.3646C4.51529 21.4637 4.54799 21.5593 4.59845 21.6456C4.64891 21.7319 4.71612 21.8072 4.79611 21.8672C4.87611 21.9271 4.96729 21.9705 5.06428 21.9947C5.16128 22.0189 5.26214 22.0235 5.36093 22.0082C5.45973 21.9929 5.55446 21.958 5.63956 21.9055C5.72467 21.853 5.79843 21.7841 5.8565 21.7027C5.91458 21.6213 5.9558 21.5292 5.97775 21.4316C5.97775 21.4316 6.07082 21.0722 6.34982 20.7002C6.62882 20.3282 7.00021 20 7.75021 20C9.65388 20 11.6683 20.5 13.7502 20.5C14.7012 20.5 15.5426 20.0222 16.7414 19.0752C17.9251 18.1401 19.5879 16.655 22.2492 14.417C22.2818 14.3941 22.3125 14.3686 22.341 14.3408C22.3445 14.3374 22.3454 14.3326 22.3488 14.3291L22.3508 14.3311L22.3772 14.3037C22.4503 14.2275 22.5066 14.1366 22.5422 14.0371C23.1655 13.1609 23.1247 11.9421 22.341 11.1592C21.9267 10.7445 21.367 10.5049 20.8069 10.5098Z" fill="black"/>
</svg>
