<svg width="24" height="24" viewBox="0 0 24 24" fill="none" xmlns="http://www.w3.org/2000/svg">
<path d="M17.7519 2.00292C16.5381 1.99468 15.318 2.45049 14.3778 3.36132C14.3719 3.36708 14.366 3.37294 14.3603 3.37889L13.4901 4.28026L12.6298 3.41991C10.7536 1.5437 7.75825 1.53966 5.87783 3.36132C5.87521 3.36422 5.8726 3.36715 5.87002 3.3701C4.02919 5.21093 4.02919 8.23924 5.87002 10.0801L5.86514 10.0762L7.27432 11.5088C5.43399 11.6002 4.02564 12.7868 3.08584 13.8887C2.10777 15.0354 1.57119 16.1807 1.57119 16.1807C1.52923 16.2698 1.50524 16.3663 1.50059 16.4647C1.49594 16.5631 1.51072 16.6615 1.54409 16.7542C1.57745 16.8469 1.62875 16.9321 1.69505 17.0049C1.76136 17.0778 1.84136 17.1369 1.9305 17.1788C2.01964 17.2208 2.11617 17.2447 2.21458 17.2494C2.31299 17.254 2.41134 17.2392 2.50403 17.2058C2.59671 17.1724 2.68191 17.1211 2.75476 17.0548C2.82762 16.9885 2.88669 16.9085 2.92861 16.8193C2.92861 16.8193 3.39203 15.8396 4.22646 14.8613C5.0609 13.883 6.20183 13 7.4999 13C8.5499 13 9.3749 13.5 11.4999 13.5H14.2499C14.7175 13.5 14.9999 13.7823 14.9999 14.25C14.9999 14.7176 14.7175 15 14.2499 15H10.7499C10.6505 14.9986 10.5518 15.0169 10.4596 15.054C10.3674 15.0911 10.2835 15.1461 10.2127 15.2159C10.1419 15.2857 10.0857 15.3688 10.0473 15.4605C10.009 15.5522 9.98922 15.6506 9.98922 15.75C9.98922 15.8494 10.009 15.9478 10.0473 16.0395C10.0857 16.1312 10.1419 16.2143 10.2127 16.2841C10.2835 16.3539 10.3674 16.4089 10.4596 16.446C10.5518 16.483 10.6505 16.5014 10.7499 16.5H14.2499C15.245 16.5 16.0903 15.832 16.3827 14.9277L19.2802 11.9805C19.7024 11.5582 20.2874 11.5691 20.6503 11.9599L20.6601 11.9707L20.6698 11.9805C21.092 12.4027 21.0802 12.9877 20.6894 13.3506L20.6767 13.3623L15.4198 18.7197C15.1961 18.9435 15.0332 19 14.7499 19C13.4166 19 10.3749 18.5 8.2499 18.5C6.69574 18.5 5.34379 19.5898 5.01748 21.0908C4.99227 21.1885 4.98704 21.2904 5.0021 21.3902C5.01717 21.4899 5.05222 21.5857 5.10516 21.6716C5.1581 21.7575 5.22784 21.8319 5.3102 21.8902C5.39256 21.9486 5.48585 21.9897 5.58448 22.0111C5.6831 22.0326 5.78504 22.0339 5.88419 22.015C5.98334 21.9961 6.07765 21.9574 6.16148 21.9012C6.24531 21.845 6.31694 21.7724 6.37207 21.6879C6.4272 21.6033 6.4647 21.5085 6.48232 21.4092C6.65602 20.6102 7.40407 20 8.2499 20C10.1249 20 13.0832 20.5 14.7499 20.5C15.3666 20.5 16.0041 20.2565 16.4804 19.7803L16.4823 19.7773L21.7353 14.4258L21.7099 14.4492C22.7158 13.5151 22.7057 11.9094 21.7372 10.9307C21.4863 10.6641 21.1863 10.4752 20.8651 10.3516L21.0878 10.123L21.08 10.1299C22.9199 8.28991 22.9202 5.26392 21.0819 3.42284C20.1675 2.48231 18.9629 2.01113 17.7519 2.00292ZM9.24795 3.48436C10.0779 3.48969 10.9083 3.81955 11.5692 4.48046L12.9696 5.87987C13.04 5.95039 13.1238 6.00618 13.216 6.04397C13.3082 6.08177 13.407 6.10081 13.5066 6.1C13.6063 6.09918 13.7048 6.07851 13.7963 6.03921C13.8879 5.99991 13.9707 5.94275 14.0399 5.87108L15.4218 4.43846L15.4237 4.43749C16.7433 3.16073 18.7426 3.16168 20.0116 4.47167C20.0142 4.47462 20.0168 4.47755 20.0194 4.48046C21.2786 5.73963 21.2786 7.81015 20.0194 9.06932C20.0171 9.07191 20.0149 9.07452 20.0126 9.07714L18.2196 10.9199L18.2177 10.9219L18.2128 10.9267L16.1356 13.0381C15.7329 12.4171 15.037 12 14.2499 12H11.4999C10.7272 12 10.1771 11.9104 9.67373 11.8105L6.93447 9.0244C6.93318 9.02277 6.93188 9.02114 6.93057 9.01952C5.67245 7.76141 5.67262 5.69404 6.92861 4.43456C7.58844 3.79825 8.41797 3.47904 9.24795 3.48436Z" fill="black"/>
</svg>
