<svg width="24" height="24" viewBox="0 0 24 24" fill="none" xmlns="http://www.w3.org/2000/svg">
<path d="M10.25 1.5C9.1017 1.5 8.15285 2.38331 8.02539 3.5H6.25C5.01625 3.5 4 4.51625 4 5.75V19.25C4 20.4838 5.01625 21.5 6.25 21.5H17.75C18.9838 21.5 20 20.4838 20 19.25V5.75C20 4.51625 18.9838 3.5 17.75 3.5H15.9746C15.8471 2.38331 14.8983 1.5 13.75 1.5H10.25ZM10.25 3H13.75C14.1732 3 14.5 3.32675 14.5 3.75C14.5 4.17325 14.1732 4.5 13.75 4.5H10.25C9.82675 4.5 9.5 4.17325 9.5 3.75C9.5 3.32675 9.82675 3 10.25 3ZM6.25 5H8.38477C8.79062 5.60095 9.47736 6 10.25 6H13.75C14.5226 6 15.2094 5.60095 15.6152 5H17.75C18.1732 5 18.5 5.32675 18.5 5.75V19.25C18.5 19.6733 18.1732 20 17.75 20H6.25C5.82675 20 5.5 19.6733 5.5 19.25V5.75C5.5 5.32675 5.82675 5 6.25 5ZM8.25 8C8.15062 7.99859 8.05194 8.01696 7.95972 8.05402C7.86749 8.09108 7.78355 8.1461 7.71277 8.21588C7.642 8.28566 7.58579 8.36882 7.54743 8.46051C7.50907 8.5522 7.48932 8.65061 7.48932 8.75C7.48932 8.84939 7.50907 8.9478 7.54743 9.03949C7.58579 9.13118 7.642 9.21434 7.71277 9.28412C7.78355 9.3539 7.86749 9.40892 7.95972 9.44598C8.05194 9.48304 8.15062 9.50141 8.25 9.5H15.75C15.8494 9.50141 15.9481 9.48304 16.0403 9.44598C16.1325 9.40892 16.2164 9.3539 16.2872 9.28412C16.358 9.21434 16.4142 9.13118 16.4526 9.03949C16.4909 8.9478 16.5107 8.84939 16.5107 8.75C16.5107 8.65061 16.4909 8.5522 16.4526 8.46051C16.4142 8.36882 16.358 8.28566 16.2872 8.21588C16.2164 8.1461 16.1325 8.09108 16.0403 8.05402C15.9481 8.01696 15.8494 7.99859 15.75 8H8.25ZM8.25 11C8.15062 10.9986 8.05194 11.017 7.95972 11.054C7.86749 11.0911 7.78355 11.1461 7.71277 11.2159C7.642 11.2857 7.58579 11.3688 7.54743 11.4605C7.50907 11.5522 7.48932 11.6506 7.48932 11.75C7.48932 11.8494 7.50907 11.9478 7.54743 12.0395C7.58579 12.1312 7.642 12.2143 7.71277 12.2841C7.78355 12.3539 7.86749 12.4089 7.95972 12.446C8.05194 12.483 8.15062 12.5014 8.25 12.5H12.25C12.3494 12.5014 12.4481 12.483 12.5403 12.446C12.6325 12.4089 12.7164 12.3539 12.7872 12.2841C12.858 12.2143 12.9142 12.1312 12.9526 12.0395C12.9909 11.9478 13.0107 11.8494 13.0107 11.75C13.0107 11.6506 12.9909 11.5522 12.9526 11.4605C12.9142 11.3688 12.858 11.2857 12.7872 11.2159C12.7164 11.1461 12.6325 11.0911 12.5403 11.054C12.4481 11.017 12.3494 10.9986 12.25 11H8.25ZM16.2354 12.9932C16.0406 12.9988 15.8556 13.0801 15.7197 13.2197L12.6943 16.2451L10.7188 14.6641C10.5857 14.5576 10.4204 14.4996 10.25 14.4996C10.0796 14.4996 9.91428 14.5576 9.78125 14.6641L7.28125 16.6641C7.2043 16.7256 7.14024 16.8017 7.0927 16.888C7.04517 16.9744 7.01511 17.0692 7.00422 17.1671C6.99334 17.2651 7.00186 17.3642 7.02928 17.4588C7.05671 17.5535 7.10251 17.6418 7.16406 17.7188C7.22562 17.7957 7.30173 17.8598 7.38805 17.9073C7.47436 17.9548 7.5692 17.9849 7.66714 17.9958C7.76507 18.0067 7.86419 17.9981 7.95884 17.9707C8.05349 17.9433 8.1418 17.8975 8.21875 17.8359L10.25 16.2109L12.2812 17.8359C12.4254 17.9512 12.6071 18.0093 12.7914 17.999C12.9757 17.9888 13.1498 17.9109 13.2803 17.7803L16.7803 14.2803C16.8885 14.1749 16.9623 14.0393 16.9922 13.8913C17.0221 13.7432 17.0066 13.5896 16.9477 13.4505C16.8888 13.3114 16.7893 13.1933 16.6622 13.1117C16.5351 13.0301 16.3863 12.9888 16.2354 12.9932Z" fill="black"/>
</svg>
