<svg width="24" height="24" viewBox="0 0 24 24" fill="none" xmlns="http://www.w3.org/2000/svg">
<path d="M10.25 1C8.74011 1 7.5 2.24011 7.5 3.75V5H4.25C2.74011 5 1.5 6.24011 1.5 7.75V20.25C1.5 21.7599 2.74011 23 4.25 23H10.25C10.4489 23 10.6397 22.921 10.7803 22.7803C10.921 22.6397 11 22.4489 11 22.25V18.5H13V22.25C13 22.4489 13.079 22.6397 13.2197 22.7803C13.3603 22.921 13.5511 23 13.75 23H19.75C21.2599 23 22.5 21.7599 22.5 20.25V7.75C22.5 6.24011 21.2599 5 19.75 5H16.5V3.75C16.5 2.24011 15.2599 1 13.75 1H10.25ZM10.25 2.5H13.75C14.4491 2.5 15 3.05089 15 3.75V7.25C15 7.94911 14.4491 8.5 13.75 8.5H10.25C9.55089 8.5 9 7.94911 9 7.25V3.75C9 3.05089 9.55089 2.5 10.25 2.5ZM11.9883 3.48926C11.7895 3.49236 11.6002 3.57423 11.4617 3.71686C11.3233 3.8595 11.2471 4.05125 11.25 4.25V4.75H10.75C10.6506 4.74859 10.5519 4.76696 10.4597 4.80402C10.3675 4.84108 10.2836 4.8961 10.2128 4.96588C10.142 5.03566 10.0858 5.11882 10.0474 5.21051C10.0091 5.3022 9.98932 5.40061 9.98932 5.5C9.98932 5.59939 10.0091 5.6978 10.0474 5.78949C10.0858 5.88118 10.142 5.96434 10.2128 6.03412C10.2836 6.1039 10.3675 6.15892 10.4597 6.19598C10.5519 6.23304 10.6506 6.25141 10.75 6.25H11.25V6.75C11.2486 6.84938 11.267 6.94806 11.304 7.04028C11.3411 7.13251 11.3961 7.21645 11.4659 7.28723C11.5357 7.358 11.6188 7.41421 11.7105 7.45257C11.8022 7.49093 11.9006 7.51068 12 7.51068C12.0994 7.51068 12.1978 7.49093 12.2895 7.45257C12.3812 7.41421 12.4643 7.358 12.5341 7.28723C12.6039 7.21645 12.6589 7.13251 12.696 7.04028C12.733 6.94806 12.7514 6.84938 12.75 6.75V6.25H13.25C13.3494 6.25141 13.4481 6.23304 13.5403 6.19598C13.6325 6.15892 13.7164 6.1039 13.7872 6.03412C13.858 5.96434 13.9142 5.88118 13.9526 5.78949C13.9909 5.6978 14.0107 5.59939 14.0107 5.5C14.0107 5.40061 13.9909 5.3022 13.9526 5.21051C13.9142 5.11882 13.858 5.03566 13.7872 4.96588C13.7164 4.8961 13.6325 4.84108 13.5403 4.80402C13.4481 4.76696 13.3494 4.74859 13.25 4.75H12.75V4.25C12.7514 4.14962 12.7327 4.04997 12.6949 3.95695C12.6571 3.86394 12.6011 3.77946 12.53 3.70852C12.459 3.63757 12.3745 3.58161 12.2814 3.54395C12.1883 3.50629 12.0887 3.48769 11.9883 3.48926ZM4.25 6.5H7.5V7.25C7.5 8.75989 8.74011 10 10.25 10H13.75C15.2599 10 16.5 8.75989 16.5 7.25V6.5H19.75C20.4491 6.5 21 7.05089 21 7.75V20.25C21 20.9491 20.4491 21.5 19.75 21.5H14.5V18.25C14.5 17.5682 13.9318 17 13.25 17H10.75C10.0682 17 9.5 17.5682 9.5 18.25V21.5H4.25C3.55089 21.5 3 20.9491 3 20.25V7.75C3 7.05089 3.55089 6.5 4.25 6.5ZM5.5 11C5.224 11 5 11.224 5 11.5V12.5C5 12.776 5.224 13 5.5 13H6.5C6.776 13 7 12.776 7 12.5V11.5C7 11.224 6.776 11 6.5 11H5.5ZM9.5 11C9.224 11 9 11.224 9 11.5V12.5C9 12.776 9.224 13 9.5 13H10.5C10.776 13 11 12.776 11 12.5V11.5C11 11.224 10.776 11 10.5 11H9.5ZM13.5 11C13.224 11 13 11.224 13 11.5V12.5C13 12.776 13.224 13 13.5 13H14.5C14.776 13 15 12.776 15 12.5V11.5C15 11.224 14.776 11 14.5 11H13.5ZM17.5 11C17.224 11 17 11.224 17 11.5V12.5C17 12.776 17.224 13 17.5 13H18.5C18.776 13 19 12.776 19 12.5V11.5C19 11.224 18.776 11 18.5 11H17.5ZM5.5 14C5.224 14 5 14.224 5 14.5V15.5C5 15.776 5.224 16 5.5 16H6.5C6.776 16 7 15.776 7 15.5V14.5C7 14.224 6.776 14 6.5 14H5.5ZM9.5 14C9.224 14 9 14.224 9 14.5V15.5C9 15.776 9.224 16 9.5 16H10.5C10.776 16 11 15.776 11 15.5V14.5C11 14.224 10.776 14 10.5 14H9.5ZM13.5 14C13.224 14 13 14.224 13 14.5V15.5C13 15.776 13.224 16 13.5 16H14.5C14.776 16 15 15.776 15 15.5V14.5C15 14.224 14.776 14 14.5 14H13.5ZM17.5 14C17.224 14 17 14.224 17 14.5V15.5C17 15.776 17.224 16 17.5 16H18.5C18.776 16 19 15.776 19 15.5V14.5C19 14.224 18.776 14 18.5 14H17.5ZM5.5 17C5.224 17 5 17.224 5 17.5V18.5C5 18.776 5.224 19 5.5 19H6.5C6.776 19 7 18.776 7 18.5V17.5C7 17.224 6.776 17 6.5 17H5.5ZM17.5 17C17.224 17 17 17.224 17 17.5V18.5C17 18.776 17.224 19 17.5 19H18.5C18.776 19 19 18.776 19 18.5V17.5C19 17.224 18.776 17 18.5 17H17.5Z" fill="black"/>
</svg>
