<svg width="24" height="24" viewBox="0 0 24 24" fill="none" xmlns="http://www.w3.org/2000/svg">
<path d="M17.7383 1.48923C17.5396 1.49233 17.3502 1.57419 17.2118 1.71683C17.0733 1.85947 16.9972 2.05122 17 2.24997V3.99997H15.25C15.1507 3.99856 15.052 4.01692 14.9598 4.05399C14.8675 4.09105 14.7836 4.14607 14.7128 4.21585C14.642 4.28563 14.5858 4.36879 14.5475 4.46048C14.5091 4.55217 14.4894 4.65058 14.4894 4.74997C14.4894 4.84936 14.5091 4.94777 14.5475 5.03946C14.5858 5.13115 14.642 5.21431 14.7128 5.28409C14.7836 5.35387 14.8675 5.40889 14.9598 5.44595C15.052 5.48301 15.1507 5.50138 15.25 5.49997H17V7.24997C16.9986 7.34935 17.017 7.44803 17.0541 7.54025C17.0911 7.63248 17.1461 7.71642 17.2159 7.7872C17.2857 7.85797 17.3689 7.91418 17.4606 7.95254C17.5522 7.9909 17.6507 8.01065 17.75 8.01065C17.8494 8.01065 17.9478 7.9909 18.0395 7.95254C18.1312 7.91418 18.2144 7.85797 18.2842 7.7872C18.354 7.71642 18.409 7.63248 18.446 7.54025C18.4831 7.44803 18.5015 7.34935 18.5 7.24997V5.49997H20.25C20.3494 5.50138 20.4481 5.48301 20.5403 5.44595C20.6326 5.40889 20.7165 5.35387 20.7873 5.28409C20.858 5.21431 20.9143 5.13115 20.9526 5.03946C20.991 4.94777 21.0107 4.84936 21.0107 4.74997C21.0107 4.65058 20.991 4.55217 20.9526 4.46048C20.9143 4.36879 20.858 4.28563 20.7873 4.21585C20.7165 4.14607 20.6326 4.09105 20.5403 4.05399C20.4481 4.01692 20.3494 3.99856 20.25 3.99997H18.5V2.24997C18.5015 2.14959 18.4828 2.04994 18.445 1.95692C18.4072 1.86391 18.3511 1.77943 18.2801 1.70849C18.2091 1.63754 18.1245 1.58158 18.0314 1.54392C17.9384 1.50626 17.8387 1.48766 17.7383 1.48923ZM6.7852 6.50681C6.636 6.5109 6.49142 6.55941 6.36995 6.64614C6.24848 6.73286 6.15564 6.85385 6.10331 6.99363C6.05099 7.13341 6.04155 7.28563 6.07622 7.4308C6.11088 7.57597 6.18806 7.7075 6.2979 7.80856L8.20415 9.61227C8.27508 9.68282 8.35941 9.73846 8.45218 9.77593C8.54494 9.81339 8.64426 9.83192 8.74429 9.83043C8.84432 9.82893 8.94304 9.80744 9.03464 9.76722C9.12624 9.72699 9.20887 9.66885 9.27767 9.59622C9.34646 9.52358 9.40003 9.43791 9.43522 9.34426C9.4704 9.25061 9.4865 9.15087 9.48256 9.05091C9.47863 8.95094 9.45473 8.85277 9.41228 8.76218C9.36983 8.67159 9.30969 8.59041 9.2354 8.52341L7.32915 6.71872C7.25725 6.64883 7.17206 6.59407 7.07864 6.55767C6.98521 6.52128 6.88543 6.50398 6.7852 6.50681ZM3.252 7.49411C2.45138 7.47785 1.66343 7.76451 1.08208 8.37888L0.910202 8.56052C0.909876 8.56052 0.90955 8.56052 0.909225 8.56052C0.41145 9.08719 0.509781 9.90231 0.998092 10.3642L6.1563 15.247C6.66682 15.7301 7.34383 16 8.04692 16H11.25H17.5H21.25C21.9318 16 22.5 15.4318 22.5 14.75V14.5C22.5 12.852 21.148 11.5 19.5 11.5H18V11.25C18 10.0162 16.9838 8.99997 15.75 8.99997H12.75C11.5163 8.99997 10.5 10.0162 10.5 11.25V11.5H8.74321L5.49809 8.42868C4.86561 7.83007 4.05262 7.51037 3.252 7.49411ZM3.24907 8.98727C3.6632 8.99951 4.10032 9.17065 4.46684 9.51755L7.78422 12.6572C7.78422 12.6575 7.78422 12.6578 7.78422 12.6582C8.01607 12.8775 8.32394 13 8.6436 13H10.5V14.5H8.04692C7.72745 14.5 7.4199 14.3776 7.18755 14.1582L7.18657 14.1572L2.17094 9.41013C2.44359 9.12199 2.83494 8.97503 3.24907 8.98727ZM12.75 10.5H15.75C16.1733 10.5 16.5 10.8267 16.5 11.25V14.5H12V11.25C12 10.8267 12.3268 10.5 12.75 10.5ZM18 13H19.5C20.3371 13 21 13.6629 21 14.5H18V13ZM9.25004 17.5C8.07373 17.5 7.10618 18.4266 7.01762 19.582C6.68275 19.6975 6.39957 19.9279 6.21824 20.2322C6.03691 20.5365 5.96913 20.8952 6.02692 21.2447C6.0847 21.5942 6.26431 21.9119 6.53394 22.1417C6.80356 22.3714 7.14581 22.4984 7.50005 22.5C7.80386 22.5 8.10053 22.4078 8.35077 22.2355C8.60102 22.0632 8.79305 21.819 8.90146 21.5352C9.00986 21.2514 9.02952 20.9413 8.95784 20.6461C8.88617 20.3508 8.72652 20.0843 8.50005 19.8818V19.75C8.50005 19.3267 8.8268 19 9.25004 19H19.25C19.6733 19 20 19.3267 20 19.75V19.8838C19.7743 20.0864 19.6153 20.3528 19.544 20.6477C19.4728 20.9426 19.4926 21.2521 19.6009 21.5355C19.7093 21.8189 19.901 22.0628 20.1508 22.235C20.4005 22.4072 20.6967 22.4996 21 22.5C21.3548 22.499 21.6977 22.3724 21.9679 22.1426C22.2381 21.9127 22.4182 21.5946 22.476 21.2446C22.5338 20.8946 22.4658 20.5354 22.2839 20.2308C22.102 19.9263 21.818 19.6961 21.4825 19.581C21.3934 18.4261 20.426 17.5 19.25 17.5H9.25004Z" fill="black"/>
</svg>
