<svg width="20" height="20" viewBox="0 0 20 20" fill="none" xmlns="http://www.w3.org/2000/svg">
    <path d="M5.6249 2.08398C4.9131 2.08398 4.3001 2.37341 3.90778 2.81478C3.51546 3.25614 3.33323 3.8201 3.33323 4.37565C3.33323 4.93121 3.51546 5.49516 3.90778 5.93652C4.03726 6.08219 4.19278 6.20895 4.36595 6.31657C3.80984 6.96222 3.59105 7.87653 3.87685 8.73844C3.88039 8.74858 3.88419 8.75862 3.88825 8.76856L4.89411 11.3532L4.88353 11.3231C5.02975 11.7641 5.25844 12.1609 5.54759 12.5007H2.91657V5.20898C2.91777 5.12533 2.90216 5.04229 2.87068 4.96478C2.83919 4.88727 2.79247 4.81687 2.73327 4.75775C2.67408 4.69863 2.60362 4.652 2.52607 4.62061C2.44852 4.58922 2.36545 4.57373 2.2818 4.57503C2.11618 4.57762 1.95836 4.64584 1.84301 4.7647C1.72765 4.88357 1.66419 5.04336 1.66657 5.20898V13.1257V16.0423V17.2923C1.6654 17.3751 1.6807 17.4574 1.71158 17.5342C1.74246 17.6111 1.78832 17.681 1.84647 17.74C1.90462 17.799 1.97392 17.8458 2.05033 17.8778C2.12674 17.9098 2.20874 17.9262 2.29157 17.9262C2.3744 17.9262 2.4564 17.9098 2.53281 17.8778C2.60922 17.8458 2.67852 17.799 2.73667 17.74C2.79482 17.681 2.84067 17.6111 2.87156 17.5342C2.90244 17.4574 2.91774 17.3751 2.91657 17.2923V16.6673H17.0832V17.2923C17.0821 17.3751 17.0974 17.4574 17.1282 17.5342C17.1591 17.6111 17.205 17.681 17.2631 17.74C17.3213 17.799 17.3906 17.8458 17.467 17.8778C17.5434 17.9098 17.6254 17.9262 17.7082 17.9262C17.7911 17.9262 17.8731 17.9098 17.9495 17.8778C18.0259 17.8458 18.0952 17.799 18.1533 17.74C18.2115 17.681 18.2573 17.6111 18.2882 17.5342C18.3191 17.4574 18.3344 17.3751 18.3332 17.2923V16.0423V13.959C18.3332 13.1611 17.6728 12.5007 16.8749 12.5007H16.739C16.9174 12.2029 17.0365 11.8641 17.0718 11.4948C17.2124 10.0212 16.0372 8.75065 14.5832 8.75065H9.26667L8.63353 7.2028L8.64899 7.24268C8.4417 6.61688 8.00626 6.10477 7.46003 5.79004C7.77037 5.37386 7.91657 4.87166 7.91657 4.37565C7.91657 3.8201 7.73435 3.25614 7.34202 2.81478C6.9497 2.37341 6.33671 2.08398 5.6249 2.08398ZM5.6249 3.33398C6.02421 3.33398 6.24455 3.46122 6.40778 3.64486C6.57101 3.82849 6.66657 4.09787 6.66657 4.37565C6.66657 4.65343 6.57101 4.92281 6.40778 5.10645C6.24455 5.29008 6.02421 5.41732 5.6249 5.41732C5.2256 5.41732 5.00526 5.29008 4.84202 5.10645C4.67879 4.92281 4.58323 4.65343 4.58323 4.37565C4.58323 4.09787 4.67879 3.82849 4.84202 3.64486C5.00526 3.46122 5.2256 3.33398 5.6249 3.33398ZM6.21084 6.70312C6.75472 6.69435 7.27608 7.07552 7.46165 7.63574C7.46635 7.64921 7.47151 7.66251 7.47712 7.67562L8.26813 9.61247C8.28546 9.65431 8.30729 9.69415 8.33323 9.73128V12.5007H8.24534C7.25522 12.5007 6.38188 11.8704 6.07005 10.93C6.06651 10.9199 6.06271 10.9098 6.05866 10.8999L5.06256 8.34131C4.8331 7.64172 5.23171 6.90211 5.97728 6.73161C6.05498 6.71384 6.13314 6.70438 6.21084 6.70312ZM9.58323 10.0007H14.5832C15.3217 10.0007 15.9003 10.6129 15.8275 11.376C15.7668 12.0106 15.1772 12.5007 14.5027 12.5007H9.58323V10.0007ZM2.91657 13.7507H8.24534H14.5027H16.8749C16.9978 13.7507 17.0832 13.836 17.0832 13.959V15.4173H2.91657V13.7507Z"
          fill="#0D253F"/>
</svg>
