<svg width="24" height="24" viewBox="0 0 24 24" fill="none" xmlns="http://www.w3.org/2000/svg">
<path d="M8.25 2.5C5.08319 2.5 2.5 5.08319 2.5 8.25V15.75C2.5 18.9164 5.0831 21.5 8.25 21.5H15.75C18.9165 21.5 21.5 18.9165 21.5 15.75V8.25C21.5 5.0831 18.9164 2.5 15.75 2.5H8.25ZM8.25 4H15.75C18.1056 4 20 5.8939 20 8.25V15.75C20 18.1055 18.1055 20 15.75 20H8.25C5.8939 20 4 18.1056 4 15.75V8.25C4 5.89381 5.89381 4 8.25 4ZM17 6C16.4475 6 16 6.4475 16 7C16 7.5525 16.4475 8 17 8C17.5525 8 18 7.5525 18 7C18 6.4475 17.5525 6 17 6ZM12 7C9.24759 7 7 9.24759 7 12C7 14.7524 9.24759 17 12 17C14.7524 17 17 14.7524 17 12C17 9.24759 14.7524 7 12 7ZM12 8.5C13.9416 8.5 15.5 10.0584 15.5 12C15.5 13.9416 13.9416 15.5 12 15.5C10.0584 15.5 8.5 13.9416 8.5 12C8.5 10.0584 10.0584 8.5 12 8.5Z" fill="black"/>
</svg>
