<svg xmlns="http://www.w3.org/2000/svg" viewBox="0 0 400 400">
    <g stroke-width="2" fill="none" stroke="#000">
        <path stroke-opacity=".682" vector-effect="non-scaling-stroke" d="M95.39 63.98 80 63.96"/>
        <path stroke-opacity=".875" vector-effect="non-scaling-stroke" d="M100.5 64.29q-.86 1.39-.3 3 .17.52.71.63 1.53.3 3.04-.3M111.5 69.29q-1.26-.45-2.65-.25-.6.08-.6.68v1.1q0 .63.59.86 1.42.56 2.87.07M112.5 72.29l-.47 1.78q-.15.53.15 1 1.22 1.88 3.53.43M116.5 76.54q-.62 1.11-.44 2.32.08.54.58.76 1.45.64 3.07.13"/>
        <path stroke-opacity=".682" vector-effect="non-scaling-stroke" d="m119.71 79.75.25.25"/>
        <path stroke-opacity=".875" vector-effect="non-scaling-stroke" d="M120.5 84.29q-.47 1.51-.18 2.98.13.64.76.51 1.46-.32 2.88.19"/>
        <path stroke-opacity=".573" vector-effect="non-scaling-stroke" d="m123.96 87.97 163.53.01"/>
        <path stroke-opacity=".875" vector-effect="non-scaling-stroke" d="M296 88.29q-1.12 1.97.29 3.43.36.38.89.35l5.82-.28"/>
        <path stroke-opacity=".682" vector-effect="non-scaling-stroke" d="m303 91.79.5-.08M312.29 96.5q-.47 1.34-.25 2.62.1.53.61.68 1.49.42 2.81-.3"/>
        <path stroke-opacity=".875" vector-effect="non-scaling-stroke" d="M339.29 121.5q-1.17-.69-2.63-.49-.46.07-.51.52l-.16 1.15q-.08.61.48.87 1.58.74 3.24.2"/>
        <path stroke-opacity=".682" vector-effect="non-scaling-stroke" d="m340.29 124.5-.15 2.39q-.03.53.44.77 1.56.8 2.88-.41M348.29 154.25v6M342.25 173.79q-.29-.71-.89-.97-.57-.25-.77.34-.29.88-.05 1.84"/>
        <path stroke-opacity=".875" vector-effect="non-scaling-stroke" d="M337.89 178.68q-.41-.62-.09-.98.25-.28-.08-.46l-.38-.2q-.54-.29-.59.32-.06.85.25 1.6"/>
        <path stroke-opacity=".573" vector-effect="non-scaling-stroke" d="m260.5 212.21-152.26-.12"/>
        <path stroke-opacity=".875" vector-effect="non-scaling-stroke" d="m108.24 212.09-2.74.23q-.61.05-.59.66l.18 6.03q.02.67.66.48l1.71-.49"/>
        <path stroke-opacity=".573" vector-effect="non-scaling-stroke" d="m107.46 219 .54.71"/>
        <path stroke-opacity=".875" vector-effect="non-scaling-stroke" d="M117 228.04q.31.77-.3 1.04-.45.2-.45.7v1.15q0 .69.68.62l2.65-.24q.15-.01.2.12.06.18.18.32"/>
        <path stroke-opacity=".682" vector-effect="non-scaling-stroke" d="M120.29 232.5q-.41 1.77 0 3.5"/>
        <path stroke-opacity=".875" vector-effect="non-scaling-stroke" d="m120.29 236-.03 3.02q0 .58.58.53l1.85-.18q.98-.1.5-.96-.84-1.52.02-2.66"/>
        <path stroke-opacity=".682" vector-effect="non-scaling-stroke" d="m123.21 235.75.25-.75M123.71 264.25l-2.73-.26q-.65-.06-.66.59l-.03 2.67M115.96 276q-1.1.3-2.76-.1a1.01 1.01 0 0 0-1.24 1l.04 2.81"/>
        <path stroke-opacity=".573" vector-effect="non-scaling-stroke" d="m112 279.71-4 .58"/>
        <path stroke-opacity=".875" vector-effect="non-scaling-stroke" d="m108 280.29-3.41-.02q-.58 0-.58.59l.08 6.21q.01.77.77.66 1.62-.23 3.1.24"/>
        <path stroke-opacity=".573" vector-effect="non-scaling-stroke" d="M107.96 287.97h168.3"/>
        <path stroke-opacity=".875" vector-effect="non-scaling-stroke" d="m276.26 287.97 2.7.04q.55.01.74-.51.61-1.67.26-3.5"/>
        <path stroke-opacity=".573" vector-effect="non-scaling-stroke" d="M279.96 284v-3.5"/>
        <path stroke-opacity=".875" vector-effect="non-scaling-stroke" d="m280.29 279.75 2.92.23q.69.05.7-.64l.05-3.09M284.25 275.71q1.95.93 3.22-.35.38-.37.4-.9l.13-2.42M288.29 271.5q1.77 1.23 3.12-.15.36-.36.35-.86l-.01-2.2"/>
        <path stroke-opacity=".682" vector-effect="non-scaling-stroke" d="M292.29 268q2.11.35 4-.5"/>
        <path stroke-opacity=".875" vector-effect="non-scaling-stroke" d="M296.29 267.5q1.71 1.17 3.27.04.44-.32.4-.87l-.21-2.63"/>
        <path stroke-opacity=".682" vector-effect="non-scaling-stroke" d="m304.75 263.71 14.75.25"/>
        <path stroke-opacity=".875" vector-effect="non-scaling-stroke" d="M324.5 264.29q-.83 1.57-.4 3.2.14.54.7.5l3.2-.28"/>
        <path stroke-opacity=".682" vector-effect="non-scaling-stroke" d="M328 267.71q1.74.69 3.5 0"/>
        <path stroke-opacity=".875" vector-effect="non-scaling-stroke" d="M340.5 276.29q-.76 1.49-.24 2.91.18.49.69.62 1.4.34 2.8-.11"/>
        <path stroke-opacity=".682" vector-effect="non-scaling-stroke" d="m344.5 280.54-.23 2.44q-.06.55.44.82 1.46.8 2.75-.55"/>
        <path stroke-opacity=".573" vector-effect="non-scaling-stroke" d="m253 312.29-134.75-.22"/>
        <path stroke-opacity=".682" vector-effect="non-scaling-stroke" d="M79.25 290.96q.26-1.8-.74-3.2-.31-.43-.82-.27l-.99.31q-.84.26-.76-.62l.25-2.53q.04-.49-.44-.58-1.78-.32-3.46.18"/>
        <path stroke-opacity=".573" vector-effect="non-scaling-stroke" d="M67.75 283.46q.68-1.45.4-2.94-.11-.55-.67-.54l-3.23.06"/>
        <path stroke-opacity=".682" vector-effect="non-scaling-stroke" d="M60.96 278.75q.56-.62 1.18-.27.45.25.91.01 1.01-.5.58-1.52-.22-.53-.8-.46l-2.04.24M59.96 275.75l-.35-2.44q-.07-.5-.5-.77-1.18-.74-2.82-.29"/>
        <path stroke-opacity=".875" vector-effect="non-scaling-stroke" d="m55.46 268-.01-2.71q0-.53-.51-.69l-.71-.23q-.41-.13-.68.21-1.31 1.66.17 2.5.22.12.04.29-.11.1-.22.22-.22.24-.42-.03-.43-.56-.58-1.31"/>
        <path stroke-opacity=".682" vector-effect="non-scaling-stroke" d="m51.75 259.46.21-19.71"/>
        <path stroke-opacity=".875" vector-effect="non-scaling-stroke" d="m52.29 236 2.6.01q.49 0 .6-.48.37-1.62.01-3.24"/>
        <path stroke-opacity=".682" vector-effect="non-scaling-stroke" d="m56.29 228 1.97.01q.51 0 .89-.34 1.32-1.19.6-3.13M60.54 223.25l1.97.12q.7.04.7-.67v-1.95M75.54 215.25q.77-1.11.73-2.49-.02-.51.49-.51h1.44q.44 0 .73-.33 1.45-1.64 1.03-3.92"/>
        <path stroke-opacity=".573" vector-effect="non-scaling-stroke" d="M80.54 203.75c2.77 2.24 3.86-1.55 3.46-3.5"/>
        <path stroke-opacity=".682" vector-effect="non-scaling-stroke" d="M84 200.25q1.54-.7 3.25-.29.65.16.67-.51l.08-3.16"/>
        <path stroke-opacity=".573" vector-effect="non-scaling-stroke" d="m88.29 196 3.09-.06q.63-.01.63-.65l-.01-3"/>
        <path stroke-opacity=".682" vector-effect="non-scaling-stroke" d="m96 191.96 4.02-.29"/>
        <path stroke-opacity=".875" vector-effect="non-scaling-stroke" d="M100.02 191.67h3.33q.79 0 .7-.78l-.23-2.04q-.03-.27.1-.51.08-.14.08-.3"/>
        <path stroke-opacity=".573" vector-effect="non-scaling-stroke" d="m108.25 187.96 184.44-.06"/>
        <path stroke-opacity=".875" vector-effect="non-scaling-stroke" d="M292.69 187.9q4.47-1.56 2.7-6.99-.15-.45-.58-.62-1.56-.61-3.1-.02"/>
        <path stroke-opacity=".573" vector-effect="non-scaling-stroke" d="m291.71 180.27-3.46-.27"/>
        <path stroke-opacity=".682" vector-effect="non-scaling-stroke" d="M288.25 180q-.68-1.62-.25-3.38.15-.61-.48-.61l-3.23-.01"/>
        <path stroke-opacity=".573" vector-effect="non-scaling-stroke" d="m284.29 176-.33-4"/>
        <path stroke-opacity=".875" vector-effect="non-scaling-stroke" d="m283.96 172 .03-2.86q.01-.7-.69-.83l-2.59-.48q-.4-.07-.55-.45-.2-.5-.2-1.13"/>
        <path stroke-opacity=".682" vector-effect="non-scaling-stroke" d="M279.96 166.25q.41-1.37-.46-2.29"/>
        <path stroke-opacity=".875" vector-effect="non-scaling-stroke" d="M279.5 163.96c.91-1.77.79-4.4-1.98-3.94q-.53.08-.62.62-.31 1.74.39 3.36"/>
        <path stroke-opacity=".682" vector-effect="non-scaling-stroke" d="m277.29 164-.75.25"/>
        <path stroke-opacity=".875" vector-effect="non-scaling-stroke" d="M276.26 138.95q2.87 2.53 3.74-.56.14-.51-.11-.99-.36-.67-.14-1.36"/>
        <path stroke-opacity=".682" vector-effect="non-scaling-stroke" d="M279.75 136.04q.58-1.76-.04-3.54"/>
        <path stroke-opacity=".875" vector-effect="non-scaling-stroke" d="M280.25 131.04q.87-.05 1.55.48.41.33.94.27 1.21-.15 1.28-1.5.03-.52-.18-.99-.27-.61-.09-1.26"/>
        <path stroke-opacity=".573" vector-effect="non-scaling-stroke" d="m283.75 128.04.25-3.75"/>
        <path stroke-opacity=".682" vector-effect="non-scaling-stroke" d="M284.54 123.75q1.46.49 2.93.16.57-.13.56-.72l-.03-2.9"/>
        <path stroke-opacity=".573" vector-effect="non-scaling-stroke" d="M292.54 118.5q3.12-1.68 1.94-5.12-.17-.49-.69-.5c-1.67-.05-2.58-.88-4.26-.88q-82.52-.03-165.03.05-.31 0-.53.21l-.26.24"/>
        <path stroke-opacity=".875" vector-effect="non-scaling-stroke" d="m123.71 112.5-2.88-.22q-.52-.04-.7.45-.6 1.62.16 3.27"/>
        <path stroke-opacity=".573" vector-effect="non-scaling-stroke" d="m120.29 116-.25 3.5"/>
        <path stroke-opacity=".875" vector-effect="non-scaling-stroke" d="M119.71 120.25q-1.53-.33-3.07.06-.48.12-.58.61-.27 1.38.19 2.79M109.96 131q.44-.65.22-1.27-.23-.6-.67-.14-.53.55.03 1.41M67 131.79q1.17-1.8.14-3.38-.29-.45-.82-.43l-1.97.1"/>
        <path stroke-opacity=".682" vector-effect="non-scaling-stroke" d="M55.96 120c-.24-1.89.75-6.13-3.5-3.68M51.96 108V92.25M52.29 83.75l3.21.54"/>
        <path stroke-opacity=".875" vector-effect="non-scaling-stroke" d="m55.5 84.29.17 3.04q.02.35.2.04c.78-1.36.31-4.76.42-6.45q.03-.49.51-.55l2.77-.33q.68-.09.68-.77v-2.65q0-.62.63-.62h1.84q.54 0 .87-.44.75-1.01.35-2.39a.78.78 0 0 1 .96-.97c2.56.74 3.94-2.08 2.6-3.99"/>
        <path stroke-opacity=".682" vector-effect="non-scaling-stroke" d="M68.5 67.71H72"/>
        <path stroke-opacity=".875" vector-effect="non-scaling-stroke" d="m78.25 64.04-1.37.45q-.44.15-.38.61.27 1.86-1.33 2.79-.41.24-.87.08-1.15-.4-2.3-.26"/>
        <path stroke-opacity=".573" vector-effect="non-scaling-stroke" d="M124.04 84.75q-.04.13-.08.25"/>
        <path stroke-opacity=".875" vector-effect="non-scaling-stroke" d="M123.96 85q-1.4.31-2.75-.13-.28-.09-.12-.33l.16-.25M76.02 93.78q-.8 2.27-3.17 2.32-.54.01-.68.53-.96 3.59-.03 7.21a.93.92-22.1 0 0 1.36.57q1.46-.83 2.46-.41M80 88.29c-2.63-1.07-5.35.8-3.5 3.67M345.5 134.54q0-.16.09-.27.26-.3-.03-.58l-.49-.5q-.72-.71-.72.3v1.59q0 .73.72.63l1.37-.19q.41-.06.29-.45l-.08-.26q-.08-.25-.33-.17l-.46.16q-.36.12-.36-.26M304 140.29q-1.69-.55-3.31.08-.44.17-.44.65l.04 2.98M300.54 156q-.43 1.42-.25 2.83.07.57.63.66l3.08.47"/>
        <path stroke-opacity=".682" vector-effect="non-scaling-stroke" d="M308 161.1q2.91 3.16 7.57 1.6.39-.14.59-.49.75-1.32 2.59-1.42M317.9 138.67q-4.17-3.38-9.65-2.13"/>
        <path stroke-opacity=".875" vector-effect="non-scaling-stroke" d="M308.25 136.54q-1.78-.83-3.58-.16-.47.18-.58.66-.35 1.5.2 2.96M78.5 241.29q-.54-.39-1.15-.53-.56-.12-.85.37-.66 1.12 0 2.41M76.29 256q-.24 1.48.32 2.8.21.49.74.43.87-.09 1.55.47"/>
        <path stroke-opacity=".682" vector-effect="non-scaling-stroke" d="M303.75 292q-1.64-.6-3.09.12-.47.23-.58.73-.32 1.47.21 2.9"/>
        <path stroke-opacity=".573" vector-effect="non-scaling-stroke" d="M300.29 295.75q-.71 4.25 0 8.5"/>
        <path stroke-opacity=".682" vector-effect="non-scaling-stroke" d="M300.29 304.25q-.43 1.87.41 3.4.29.53.87.41l1.68-.35M304.04 308.5q-.37 1.62.42 3"/>
        <path stroke-opacity=".875" vector-effect="non-scaling-stroke" d="m323.21 291.75.25-2.86q.06-.66-.59-.81-1.35-.31-2.58.67"/>
        <path stroke-opacity=".573" vector-effect="non-scaling-stroke" d="M320.29 288.75q-1.76-1.48-4.04-.54"/>
        <path stroke-opacity=".682" vector-effect="non-scaling-stroke" d="m308.25 288.04-3.57-.06q-.65-.01-.65.64l-.03 3.09"/>
    </g>
    <path fill="#000001" fill-opacity=".361" d="M95.39 63.98 80 63.96c1.23-.56-.25-2.4-.27-3.44q-.01-.6.58-.59l14.8.24q.75.02.66.76l-.38 3.05Z"/>
    <path fill-opacity=".749" d="m78.25 64.04-1.37.45q-.44.15-.38.61.27 1.86-1.33 2.79-.41.24-.87.08-1.15-.4-2.3-.26.18-1.78-.5-3.42l6.75-.25Z"/>
    <path d="m78.25 64.04 1.75-.08 15.39.02 5.11.31q-.86 1.39-.3 3 .17.52.71.63 1.53.3 3.04-.3l7.25.63q.48.04.56.51.05.26-.26.53-1.26-.45-2.65-.25-.6.08-.6.68v1.1q0 .63.59.86 1.42.56 2.87.07l.79.54-.47 1.78q-.15.53.15 1 1.22 1.88 3.53.43l.79 1.04q-.62 1.11-.44 2.32.08.54.58.76 1.45.64 3.07.13l.25.25.54 4.29q-.47 1.51-.18 2.98.13.64.76.51 1.46-.32 2.88.19l163.53.01 8.51.31q-1.12 1.97.29 3.43.36.38.89.35l5.82-.28.5-.08q1.84.55 3.89.27.66-.1.64.57l-.11 2.46a1.03 1.03 0 0 0 1.27 1.04q1.71-.41 3.1.45-.47 1.34-.25 2.62.1.53.61.68 1.49.42 2.81-.3 1.26 1.3.42 3.27-.27.64.32 1 1.3.77 2.84.04.68-.33.77.42l.78 6.75a1.09 1.06 11.4 0 0 .57.83q.83.43 1.26-.08.29-.35.64-.05.92.76.73 1.97-.08.52.15 1 .77 1.61 2.41.93.44-.18.86.06 1.98 1.19 4.26.52a.57.57 0 0 1 .59.92c-2.66 3.11 6.01 3.26 7.2 3.32q.54.03.49.58-.05.4-.46.52-1.17-.69-2.63-.49-.46.07-.51.52l-.16 1.15q-.08.61.48.87 1.58.74 3.24.2l.58.75-.15 2.39q-.03.53.44.77 1.56.8 2.88-.41l.27.55q.2.41.22.87l.15 3.01q.04.69.73.61l2.24-.24q.59-.06.61.53l.61 21.67v6q-.4 3.75-2.07 7.17-.22.45-.67.66c-1.19.56-1.67 4.21-3.3 5.71q-.29-.71-.89-.97-.57-.25-.77.34-.29.88-.05 1.84l-2.65 3.68q-.41-.62-.09-.98.25-.28-.08-.46l-.38-.2q-.54-.29-.59.32-.06.85.25 1.6-1.57 1.58-3.79 1.63-.54.01-.75.51l-.68 1.64q-.21.53-.77.65l-6.43 1.42q-.55.12-.77.63-.14.34-.1.76.06.53-.12 1.03-.53 1.49-1.89 1.45-.55-.02-.67.52c-.72 2.98-1.47 7.06-3.73 7.72q-.41.12-.51.53c-.42 1.87-3.22 4.09-4.57 5.46-1.11 1.14-3.02 1.62-3.94 3.33q-.24.45-.7.67c-9.23 4.39-14.36 5.58-24.58 5.44q-11.25-.15-22.5-.14l-152.26-.12-2.74.23q-.61.05-.59.66l.18 6.03q.02.67.66.48l1.71-.49.54.71 3.58.39q.52.05.6.57l.36 2.3q.09.6.69.54l1.17-.11q.56-.06.97.34l.51.52q.41.41.35.98-.15 1.53.77 2.8.31.77-.3 1.04-.45.2-.45.7v1.15q0 .69.68.62l2.65-.24q.15-.01.2.12.06.18.18.32l.33.75q-.41 1.77 0 3.5l-.03 3.02q0 .58.58.53l1.85-.18q.98-.1.5-.96-.84-1.52.02-2.66l.25-.75q1.23 14.61.25 29.25l-2.73-.26q-.65-.06-.66.59l-.03 2.67-.36 4.17q-.06.61-.66.6l-2.53-.03q-.7-.01-.72.7l-.06 3.31q-1.1.3-2.76-.1a1.01 1.01 0 0 0-1.24 1l.04 2.81-4 .58-3.41-.02q-.58 0-.58.59l.08 6.21q.01.77.77.66 1.62-.23 3.1.24h168.3l2.7.04q.55.01.74-.51.61-1.67.26-3.5v-3.5l.33-.75 2.92.23q.69.05.7-.64l.05-3.09.29-.54q1.95.93 3.22-.35.38-.37.4-.9l.13-2.42.29-.54q1.77 1.23 3.12-.15.36-.36.35-.86l-.01-2.2.54-.29q2.11.35 4-.5 1.71 1.17 3.27.04.44-.32.4-.87l-.21-2.63 5-.33 14.75.25 5 .33q-.83 1.57-.4 3.2.14.54.7.5l3.2-.28q1.74.69 3.5 0 1.72.85 3.05.52 1.55-.39 1.31 1.19c-.61 4.1 1.46 2.19 3.71 2.63q.59.12.48.71-.35 1.91.45 3.53-.76 1.49-.24 2.91.18.49.69.62 1.4.34 2.8-.11l.75.83-.23 2.44q-.06.55.44.82 1.46.8 2.75-.55c.87 8.36 2.52 25.17-1 34.81q-.46 1.25-.46-.08v-.48q0-.5-.5-.5h-.31q-.22 0-.28.22l-1.51 5.95q-.12.49-.63.5-3.23.09-2.96 3.52.05.65-.59.59-3.32-.29-3.56 2.72-.05.55-.57.72c-4.21 1.34-8.04 3.92-12.03 4.73-5.46 1.11-23.67 2.21-27.4-2.62q-.3-.39-.76-.55l-4.88-1.67q-.57-.2-.81-.75-.91-2.07-3.01-2.8-.49-.17-.79-.61c-2.87-4.3-5.94-7.19-6.94-12.81q-.1-.52-.59-.71c-6.28-2.48-18.01-1.28-24.88-1.14l-134.75-.22q-6.56.45-13.08-.34c-4.3-.52-8.15-2.92-12.41-4.37q-.47-.16-.54-.65l-.29-1.97q-.13-.89-.99-.61-1.66.52-2.67-.44-.38-.35-.43-.86l-.18-1.8q-.07-.77-.82-.58-2.21.55-3.14-1.47-.22-.47-.18-.99.07-.78-.24-1.48-.21-.47-.72-.4l-1.19.16q-.71.1-.76-.61-.18-2.53-1.36-4.7.26-1.8-.74-3.2-.31-.43-.82-.27l-.99.31q-.84.26-.76-.62l.25-2.53q.04-.49-.44-.58-1.78-.32-3.46.18l-4.54-.79q.68-1.45.4-2.94-.11-.55-.67-.54l-3.23.06-3.29-1.29q.56-.62 1.18-.27.45.25.91.01 1.01-.5.58-1.52-.22-.53-.8-.46l-2.04.24-.83-1-.35-2.44q-.07-.5-.5-.77-1.18-.74-2.82-.29l-.83-4.25-.01-2.71q0-.53-.51-.69l-.71-.23q-.41-.13-.68.21-1.31 1.66.17 2.5.22.12.04.29-.11.1-.22.22-.22.24-.42-.03-.43-.56-.58-1.31l-.79-6.79.21-19.71.33-3.75 2.6.01q.49 0 .6-.48.37-1.62.01-3.24l.79-4.29 1.97.01q.51 0 .89-.34 1.32-1.19.6-3.13l.79-1.29 1.97.12q.7.04.7-.67v-1.95c1.72-1.63 3.83-.72 4.87-1.7q.37-.36.09-.79l-.6-.89q-.51-.76.4-.91l7.57-1.21q.77-1.11.73-2.49-.02-.51.49-.51h1.44q.44 0 .73-.33 1.45-1.64 1.03-3.92l.58-4.25c2.77 2.24 3.86-1.55 3.46-3.5q1.54-.7 3.25-.29.65.16.67-.51l.08-3.16.29-.29 3.09-.06q.63-.01.63-.65l-.01-3 4-.33 4.02-.29h3.33q.79 0 .7-.78l-.23-2.04q-.03-.27.1-.51.08-.14.08-.3l4.25-.08 184.44-.06q4.47-1.56 2.7-6.99-.15-.45-.58-.62-1.56-.61-3.1-.02l-3.46-.27q-.68-1.62-.25-3.38.15-.61-.48-.61l-3.23-.01-.33-4 .03-2.86q.01-.7-.69-.83l-2.59-.48q-.4-.07-.55-.45-.2-.5-.2-1.13.41-1.37-.46-2.29c.91-1.77.79-4.4-1.98-3.94q-.53.08-.62.62-.31 1.74.39 3.36l-.75.25q-1.19-12.58-.28-25.3 2.87 2.53 3.74-.56.14-.51-.11-.99-.36-.67-.14-1.36.58-1.76-.04-3.54l.54-1.46q.87-.05 1.55.48.41.33.94.27 1.21-.15 1.28-1.5.03-.52-.18-.99-.27-.61-.09-1.26l.25-3.75.54-.54q1.46.49 2.93.16.57-.13.56-.72l-.03-2.9q2.76.1 4.54-1.79 3.12-1.68 1.94-5.12-.17-.49-.69-.5c-1.67-.05-2.58-.88-4.26-.88q-82.52-.03-165.03.05-.31 0-.53.21l-.26.24-2.88-.22q-.52-.04-.7.45-.6 1.62.16 3.27l-.25 3.5-.33.75q-1.53-.33-3.07.06-.48.12-.58.61-.27 1.38.19 2.79-1.07 1.41-.97 3.34.03.56-.54.48-3.57-.55-3.53 3 .01.54-.5.71-.46.16-.75-.24.44-.65.22-1.27-.23-.6-.67-.14-.53.55.03 1.41c-1.74 1.06-4.74 1.39-5.88 3.06q-.27.4-.74.54-15.47 4.75-30.25.25-1.26-.38-1.4-1.91-.05-.53-.58-.46-1.99.27-3.69-.69 1.17-1.8.14-3.38-.29-.45-.82-.43l-1.97.1-3.79-.24q-.62-.05-.59-.67l.13-2.83q.03-.74-.7-.62l-1.89.32q-.54.09-.99-.21c-1-.67 0-2.62-.56-3.83-.24-1.89.75-6.13-3.5-3.68l-.5-8.32V92.25l.33-8.5 3.21.54.17 3.04q.02.35.2.04c.78-1.36.31-4.76.42-6.45q.03-.49.51-.55l2.77-.33q.68-.09.68-.77v-2.65q0-.62.63-.62h1.84q.54 0 .87-.44.75-1.01.35-2.39a.78.78 0 0 1 .96-.97c2.56.74 3.94-2.08 2.6-3.99l1-.5H72q1.15-.14 2.3.26.46.16.87-.08 1.6-.93 1.33-2.79-.06-.46.38-.61l1.37-.45ZM76.5 91.96q-.81.62-.48 1.82-.8 2.27-3.17 2.32-.54.01-.68.53-.96 3.59-.03 7.21a.93.92-22.1 0 0 1.36.57q1.46-.83 2.46-.41l.66 3.59q.08.48.57.51l1.95.14q.61.04.61.65v2.38q0 .6.6.64 7.29.56 14.53-.49.59-.09.69-.68.44-2.44 2.54-3.49.42-.2.46-.66.13-1.22.53-2.37c1.24-3.58.88-7.07-.69-10.44-.84-1.8-2.63-2.08-2.88-4.72q-.05-.59-.63-.65-7.53-.88-14.9-.12c-2.63-1.07-5.35.8-3.5 3.67Zm269 42.58q0-.16.09-.27.26-.3-.03-.58l-.49-.5q-.72-.71-.72.3v1.59q0 .73.72.63l1.37-.19q.41-.06.29-.45l-.08-.26q-.08-.25-.33-.17l-.46.16q-.36.12-.36-.26ZM304.29 140l-.29.29q-1.69-.55-3.31.08-.44.17-.44.65l.04 2.98q-.46 6.02.25 12-.43 1.42-.25 2.83.07.57.63.66l3.08.47 4 1.14q2.91 3.16 7.57 1.6.39-.14.59-.49.75-1.32 2.59-1.42 1.74-1.28 3.73-1.69.46-.09.61-.54c2.27-6.74 2.93-16.82-5.19-19.89q-4.17-3.38-9.65-2.13-1.78-.83-3.58-.16-.47.18-.58.66-.35 1.5.2 2.96ZM78.5 241.29q-.54-.39-1.15-.53-.56-.12-.85.37-.66 1.12 0 2.41-1.07 6.21-.21 12.46-.24 1.48.32 2.8.21.49.74.43.87-.09 1.55.47 6.16 3.37 14.37 1.03 3.32-.95 3.94-3.52.11-.49.6-.63c3-.87 1.84-9.27 1.27-11.82q-.11-.51-.53-.8-.77-.54-.82-1.49-.03-.51-.41-.85c-5-4.53-13.91-6.56-18.82-.33ZM304 291.71l-.25.29q-1.64-.6-3.09.12-.47.23-.58.73-.32 1.47.21 2.9-.71 4.25 0 8.5-.43 1.87.41 3.4.29.53.87.41l1.68-.35.79.79q-.37 1.62.42 3c1.69.29 14.79 2.14 16.08-1.87q.15-.46.58-.67c4.67-2.24 3.22-13.27 2.09-17.21l.25-2.86q.06-.66-.59-.81-1.35-.31-2.58.67-1.76-1.48-4.04-.54l-8-.17-3.57-.06q-.65-.01-.65.64l-.03 3.09Z"/>
    <path fill="#000001" fill-opacity=".361" d="M71.5 64.29q.68 1.64.5 3.42h-3.5l-.23-2.69q-.05-.57.52-.69 1.32-.3 2.71-.04Z"/>
    <path fill-opacity=".749" d="m100.5 64.29 2.75-.08q.66-.02.67.65l.03 2.76q-1.51.6-3.04.3-.54-.11-.71-.63-.56-1.61.3-3ZM67.5 68.21c1.34 1.91-.04 4.73-2.6 3.99a.78.78 0 0 0-.96.97q.4 1.38-.35 2.39-.33.44-.87.44h-1.84q-.63 0-.63.62v2.65q0 .68-.68.77l-2.77.33q-.48.06-.51.55c-.11 1.69.36 5.09-.42 6.45q-.18.31-.2-.04l-.17-3.04q.88-2.02.5-4.25l.25-3.33q.04-.44.48-.45l2.84-.06q.7-.01.63-.7l-.27-2.76q-.06-.72.65-.72l3.01-.03q.65 0 .59-.65l-.25-2.72q-.05-.48.44-.47l3.13.06ZM111.5 69.29l.21 2.46q-1.45.49-2.87-.07-.59-.23-.59-.86v-1.1q0-.6.6-.68 1.39-.2 2.65.25ZM115.71 75.5q-2.31 1.45-3.53-.43-.3-.47-.15-1l.47-1.78 2.61-.17q.55-.04.67.5.31 1.38-.07 2.88ZM119.79 76.75q-.57 1.48-.08 3-1.62.51-3.07-.13-.5-.22-.58-.76-.18-1.21.44-2.32 1.77-.73 3.29.21Z"/>
    <path fill="#000001" fill-opacity=".361" d="m119.79 76.75.17 3.25-.25-.25q-.49-1.52.08-3ZM56 80.04q.38 2.23-.5 4.25l-3.21-.54.05-3.16q.01-.62.63-.61l3.03.06Z"/>
    <path d="M124.04 84.75q-.04.13-.08.25-1.4.31-2.75-.13-.28-.09-.12-.33l.16-.25q1.59-.64 2.79.46Z"/>
    <path fill-opacity=".749" d="M120.5 84.29h.75l-.16.25q-.16.24.12.33 1.35.44 2.75.13v2.97q-1.42-.51-2.88-.19-.63.13-.76-.51-.29-1.47.18-2.98Z"/>
    <path fill="#010000" fill-opacity=".141" d="m287.49 87.98-163.53-.01V85q.04-.12.08-.25.69.09 1.23-.27.35-.23.77-.23h161.42q.55 0 .66.54.26 1.32 1.7.41.83-.53.7.45-.07.6-.96.77-.4.07-.82.05-1.56-.07-1.25 1.51Z"/>
    <path fill-opacity=".749" d="m80 88.29.07 2.64q.02.54-.39.91-1.19 1.06-3.18.12c-1.85-2.87.87-4.74 3.5-3.67ZM296 88.29h3.75q.52 1.3.2 2.71-.15.65.52.68l2.53.11-5.82.28q-.53.03-.89-.35-1.41-1.46-.29-3.43Z"/>
    <path fill="#000001" fill-opacity=".361" d="m299.75 88.29 3.43.07q.61.01.56.62l-.24 2.73-.5.08-2.53-.11q-.67-.03-.52-.68.32-1.41-.2-2.71ZM51.96 92.25V108q-.94-1.12-2.06-.05a.82.81 67.8 0 1-1.37-.58l-.37-14.87q-.02-.82.7-.43 1.64.89 3.1.18Z"/>
    <path fill-opacity=".749" d="M76.02 93.78 75.96 104q-1-.42-2.46.41a.93.92-22.1 0 1-1.36-.57q-.93-3.62.03-7.21.14-.52.68-.53 2.37-.05 3.17-2.32Z"/>
    <path fill="#000001" fill-opacity=".361" d="m312.29 96.5 2.79.06q.59.01.54.59l-.16 2.35q-1.32.72-2.81.3-.51-.15-.61-.68-.22-1.28.25-2.62Z"/>
    <path fill-opacity=".749" d="M323.06 109.31q-.03.21-.13.38-.17.32-.4.04l-.46-.56q-.41-.51.22-.66c.42-.11 1.41.32.77.8Z"/>
    <path fill="#010000" fill-opacity=".141" d="M292.54 118.5q.36-1.72-.69-2.22-.47-.23-.92.02-1.04.59-1.04 1.8 0 .66-.66.65h-.27q-.46 0-.46-.46v-1.83q0-.68-.68-.68-68.66-.03-137.32-.21c-3.52-.01-6.73-1.86-10.23-.06q-.46.24-.99.24H124.6q-.69 0-.73.69l-.18 2.72q-.04.53-.58.51l-3.07-.17.25-3.5 3.24.01q.65 0 .56-.63l-.38-2.88.26-.24q.22-.21.53-.21 82.51-.08 165.03-.05c1.68 0 2.59.83 4.26.88q.52.01.69.5 1.18 3.44-1.94 5.12Z"/>
    <path fill-opacity=".749" d="m123.71 112.5.38 2.88q.09.63-.56.63l-3.24-.01q-.76-1.65-.16-3.27.18-.49.7-.45l2.88.22Z"/>
    <path fill="#000001" fill-opacity=".361" d="m55.96 120-2.93-.23q-.56-.04-.71-.57-.4-1.42.14-2.88c4.25-2.45 3.26 1.79 3.5 3.68Z"/>
    <path fill-opacity=".749" d="m119.71 120.25.09 2.83q.03.75-.72.72l-2.83-.09q-.46-1.41-.19-2.79.1-.49.58-.61 1.54-.39 3.07-.06Z"/>
    <path fill="#000001" fill-opacity=".361" d="m288 120.29.03 2.9q.01.59-.56.72-1.47.33-2.93-.16-.44-1.61-.2-3.23.09-.58.68-.52l2.98.29Z"/>
    <path fill-opacity=".749" d="m339.29 121.5.42 2.25q-1.66.54-3.24-.2-.56-.26-.48-.87l.16-1.15q.05-.45.51-.52 1.46-.2 2.63.49Z"/>
    <path fill="#010000" fill-opacity=".141" d="m284 124.29-.25 3.75-3.46-.04-.09-3.07q-.03-.76.73-.73l3.07.09Z"/>
    <path fill-opacity=".749" d="m343.46 125.5-2.21-.96 1.8-.21q.84-.1.51.68-.11.26-.1.49Z"/>
    <path fill="#000001" fill-opacity=".361" d="m340.29 124.5.96.04 2.21.96v1.75q-1.32 1.21-2.88.41-.47-.24-.44-.77l.15-2.39Z"/>
    <path fill-opacity=".749" d="m67 131.79-2.28-.05q-.54-.02-.62-.55-.22-1.39.25-3.11l1.97-.1q.53-.02.82.43 1.03 1.58-.14 3.38ZM280.29 128l3.46.04q-.18.65.09 1.26.21.47.18.99-.07 1.35-1.28 1.5-.53.06-.94-.27-.68-.53-1.55-.48-.49-1.52.04-3.04ZM109.96 131h-.42q-.56-.86-.03-1.41.44-.46.67.14.22.62-.22 1.27Z"/>
    <path fill="#000001" fill-opacity=".361" d="M279.71 132.5q.62 1.78.04 3.54-1.72-.54-3.46-.29l-.06-3.18q-.01-.56.54-.58 1.51-.07 2.94.51Z"/>
    <path fill-opacity=".749" d="m345.86 134.8.46-.16q.25-.08.33.17l.08.26q.12.39-.29.45l-1.37.19q-.72.1-.72-.63v-1.59q0-1.01.72-.3l.49.5q.29.28.03.58-.09.11-.09.27 0 .38.36.26ZM279.75 136.04q-.22.69.14 1.36.25.48.11.99-.87 3.09-3.74.56l.03-3.2q1.74-.25 3.46.29ZM308.25 136.54q-.47 1.57 0 3.17l-3.96.29q-.55-1.46-.2-2.96.11-.48.58-.66 1.8-.67 3.58.16Z"/>
    <path fill="#000001" fill-opacity=".361" d="M317.9 138.67q-4.66 1.11-9.65 1.04-.47-1.6 0-3.17 5.48-1.25 9.65 2.13Z"/>
    <path fill-opacity=".749" d="m304 140.29-.29 3.34q-.06.62-.68.57l-2.74-.2-.04-2.98q0-.48.44-.65 1.62-.63 3.31-.08Z"/>
    <path fill="#000001" fill-opacity=".361" d="M351.29 143.75q-.58.44-1.4.59-.59.1-.28.61c.27.43 1.72 2.99.44 3.06q-.45.03-.54.48-.11.5.34.55.52.07.44.59-.2 1.27.36 2.4.68 1.37.75-.16l.14-3.12.14 7.07q.01.57-.48.86-.83.51-.69 1.53.1.78-.53.31l-.71-.54q-.75-.56-.55.36.24 1.13-.43 1.91v-6q.54-.18.96-.87.23-.37.21-.81l-.33-8.17q-.02-.66.64-.65h.41q.27 0 .37-.25.65-1.55-.43-2.6-.41-.4.17-.4h.68q.5 0 .48.5l-.16 2.75Z"/>
    <path fill-opacity=".749" d="m351.29 143.75.25 5-.14 3.12q-.07 1.53-.75.16-.56-1.13-.36-2.4.08-.52-.44-.59-.45-.05-.34-.55.09-.45.54-.48c1.28-.07-.17-2.63-.44-3.06q-.31-.51.28-.61.82-.15 1.4-.59ZM300.54 156q1.81-.46 3.04.49.42.33.42.87v2.6l-3.08-.47q-.56-.09-.63-.66-.18-1.41.25-2.83ZM279.5 163.96l-2.21.04q-.7-1.62-.39-3.36.09-.54.62-.62c2.77-.46 2.89 2.17 1.98 3.94Z"/>
    <path fill="#000001" fill-opacity=".361" d="M318.75 160.79q-1.84.1-2.59 1.42-.2.35-.59.49-4.66 1.56-7.57-1.6l10.75-.31ZM277.29 164l2.21-.04q.87.92.46 2.29-.4 1.28.25 2.5-1.4-1.06-3.18-.72-.58.11-.7-.47-.34-1.65.21-3.31l.75-.25Z"/>
    <path fill-opacity=".749" d="M279.96 166.25q0 .63.2 1.13.15.38.55.45l2.59.48q.7.13.69.83l-.03 2.86-3.17.25q-1.21-1.47-.58-3.5-.65-1.22-.25-2.5Z"/>
    <path fill="#010000" fill-opacity=".141" d="m283.96 172 .33 4q-.04.13-.08.25-1.62-.5-3.36-.25-.59.09-.61-.51-.07-1.67.55-3.24l3.17-.25Z"/>
    <path fill="#000001" fill-opacity=".361" d="m342.25 173.79-1.71 1.21q-.24-.96.05-1.84.2-.59.77-.34.6.26.89.97ZM284.29 176l3.23.01q.63 0 .48.61-.43 1.76.25 3.38-1.32-.74-2.86-.13a1.02 1.02 0 0 1-1.39-1.03l.21-2.59q.04-.12.08-.25Z"/>
    <path fill-opacity=".749" d="m337.89 178.68-.89.28q-.31-.75-.25-1.6.05-.61.59-.32l.38.2q.33.18.08.46-.32.36.09.98Z"/>
    <path fill="#010000" fill-opacity=".141" d="m288.25 180 3.46.27q1.22 3.58.98 7.63l-184.44.06 3.26-.2q.54-.04.26-.5c-.87-1.47-4.03-.02-3.21-2.05a1.54 1.51 10.7 0 1 1.42-.95l177.25-.01q.51 0 .72-.48.77-1.78.3-3.77Z"/>
    <path fill-opacity=".749" d="M292.69 187.9q.24-4.05-.98-7.63 1.54-.59 3.1.02.43.17.58.62 1.77 5.43-2.7 6.99Z"/>
    <path fill="#000001" fill-opacity=".361" d="m103.25 188.04-3.4.4q-.45.05-.24.45.69 1.3.41 2.78l-4.02.29q.31-1.14-.34-2.5a1 .99-12.7 0 1 .9-1.42h6.69Z"/>
    <path fill-opacity=".749" d="M103.25 188.04h.75q0 .16-.08.3-.13.24-.1.51l.23 2.04q.09.78-.7.78h-3.33q.28-1.48-.41-2.78-.21-.4.24-.45l3.4-.4Z"/>
    <path fill="#010000" fill-opacity=".141" d="m92 192.29.01 3q0 .64-.63.65l-3.09.06-.06-3.19q-.01-.57.56-.56l3.21.04Z"/>
    <path fill="#000001" fill-opacity=".361" d="m88 196.29-.08 3.16q-.02.67-.67.51-1.71-.41-3.25.29l.32-3.39q.06-.62.69-.61l2.99.04Z"/>
    <path fill="#010000" fill-opacity=".141" d="M84 200.25c.4 1.95-.69 5.74-3.46 3.5q-.49-1.42-.23-2.87.1-.57.67-.58l3.02-.05Z"/>
    <path fill="#000001" fill-opacity=".361" d="M79.96 208q.42 2.28-1.03 3.92-.29.33-.73.33h-1.44q-.51 0-.49.51.04 1.38-.73 2.49l-.05-1.27q-.02-.48-.5-.48H73q-.5 0-.5-.5v-.29q0-.34.34-.38l3.07-.28q.66-.05.62-.71l-.18-2.75q-.04-.63.6-.63l3.01.04Z"/>
    <path fill="#010000" fill-opacity=".141" d="M260.5 212.21q-.24-.01-.41.14-.27.25.01.49l.56.45q.51.42.05.88l-1.3 1.3q-.4.4-.96.32l-4.36-.58q-.46-.06-.9.07c-3.47 1.07-6.33-.12-9.7.32q-2.09.27-4.22.13-.54-.04-.98-.36-1.01-.72-1.61.01-.32.39-.83.38l-12.96-.38q-.47-.01-.89-.21-.77-.35-1.52.24-.46.35-1.04.32c-2.7-.17-4.85-.45-7.81-.15q-3.08.32-6.08-.62-.44-.14-.74.22c-.77.91-4.53.28-5.82.32q-.54.02-.92-.37-.78-.81-1.53.17-.35.45-.9.42l-4.92-.3q-.35-.02-.43-.35c-.1-.4-.41-.41-.73-.25-3.35 1.64-7.01.63-9.64.73q-6.24.23-12.51-.15-.57-.03-1.06-.31-1.28-.72-2.48.29-.33.28-.76.28l-50.66.13q-.45 0-.73.35-.61.74-.45 1.72.1.59-.48.73l-.75.17q-.42.09-.64-.28l-.28-.48q-.2-.33-.47-.05-.73.73-.65 1.76l-.54-.71.78-6.91 152.26.12Z"/>
    <path fill-opacity=".749" d="m108.24 212.09-.78 6.91-1.71.49q-.64.19-.66-.48l-.18-6.03q-.02-.61.59-.66l2.74-.23Z"/>
    <path fill="#000001" fill-opacity=".361" d="M63.21 220.75v1.95q0 .71-.7.67l-1.97-.12q-.23-1.09 0-2.11.11-.47.59-.46l2.08.07ZM59.75 224.54q.72 1.94-.6 3.13-.38.34-.89.34l-1.97-.01-.1-3.14q-.03-.86.82-.73l2.74.41Z"/>
    <path fill-opacity=".749" d="M117 228.04q.98-.23 1.91.01.51.13.7.62.56 1.48.35 3.08-.12-.14-.18-.32-.05-.13-.2-.12l-2.65.24q-.68.07-.68-.62v-1.15q0-.5.45-.7.61-.27.3-1.04ZM55.5 232.29q.36 1.62-.01 3.24-.11.48-.6.48l-2.6-.01.08-3.46q.01-.62.64-.55l2.49.3Z"/>
    <path fill="#000001" fill-opacity=".361" d="m123.25 232.29-1.26.26q-.54.12-.04.37.72.36 1.51.08v2l-.25.75-2.92.25q-.41-1.73 0-3.5l2.96-.21Z"/>
    <path fill-opacity=".749" d="m123.25 232.29.21.71q-.79.28-1.51-.08-.5-.25.04-.37l1.26-.26ZM123.21 235.75q-.86 1.14-.02 2.66.48.86-.5.96l-1.85.18q-.58.05-.58-.53l.03-3.02 2.92-.25Z"/>
    <path fill="#000001" fill-opacity=".361" d="m51.96 239.75-.21 19.71-2.39.45q-.77.15-.79-.64l-.43-18.32a.89.89 0 0 1 .61-.87q1.25-.42 1.86.33.34.43.79.1.4-.29.56-.76Z"/>
    <path fill-opacity=".749" d="M78.5 241.29q.02 1.83-2 2.25-.66-1.29 0-2.41.29-.49.85-.37.61.14 1.15.53ZM76.29 256q3.4.06 2.61 3.7-.68-.56-1.55-.47-.53.06-.74-.43-.56-1.32-.32-2.8Z"/>
    <path fill="#000001" fill-opacity=".361" d="m319.5 263.96-14.75-.25 2.78-.49q.6-.11.02-.32-.74-.28-1.58-.12-.51.09-.81-.32l-.65-.91q-.45-.62.31-.78 7.33-1.46 14.78-.3.52.08.43.59l-.53 2.9ZM123.71 264.25l.04 2.76q0 .51-.49.65-1.53.46-2.97-.41l.03-2.67q.01-.65.66-.59l2.73.26ZM299.25 264.04l-3.07.28q-.57.06-.45.61l.56 2.57q-1.89.85-4 .5.26-1.45-.1-2.34-.68-1.65 1.11-1.65l5.95.03Z"/>
    <path fill-opacity=".749" d="M299.25 264.04h.5l.21 2.63q.04.55-.4.87-1.56 1.13-3.27-.04l-.56-2.57q-.12-.55.45-.61l3.07-.28ZM328 264.29v3.42l-3.2.28q-.56.04-.7-.5-.43-1.63.4-3.2 1.75-.36 3.5 0ZM55.46 268l-2.23.04q-.81.02-.76-.79l.07-1q.15.75.58 1.31.2.27.42.03.11-.12.22-.22.18-.17-.04-.29-1.48-.84-.17-2.5.27-.34.68-.21l.71.23q.51.16.51.69l.01 2.71Z"/>
    <path fill="#000001" fill-opacity=".361" d="m328 264.29 3.2.07q.61.02.55.63l-.25 2.72q-1.76.69-3.5 0v-3.42Z"/>
    <path fill-opacity=".749" d="m291.75 268.29.01 2.2q.01.5-.35.86-1.35 1.38-3.12.15l-.09-2.57q-.03-.76.72-.73l2.83.09ZM288 272.04l-.13 2.42q-.02.53-.4.9-1.27 1.28-3.22.35l-.05-2.96q-.01-.62.6-.63l3.2-.08Z"/>
    <path fill="#000001" fill-opacity=".361" d="M56.29 272.25q1.64-.45 2.82.29.43.27.5.77l.35 2.44-3.01-.02q-.57 0-.59-.57l-.07-2.91ZM115.96 276l-.29 3.39q-.05.55-.6.53l-2.82-.13q-.12-.04-.25-.08l-.04-2.81a1.01 1.01 0 0 1 1.24-1q1.66.4 2.76.1Z"/>
    <path fill-opacity=".749" d="M343.75 279.71q-1.4.45-2.8.11-.51-.13-.69-.62-.52-1.42.24-2.91 1.54-.69 2.97-.14.53.21.49.78l-.21 2.78ZM283.96 276.25l-.05 3.09q-.01.69-.7.64l-2.92-.23-.09-2.81q-.03-.74.71-.73l3.05.04Z"/>
    <path fill="#000001" fill-opacity=".361" d="m60.96 278.75-.17-2 2.04-.24q.58-.07.8.46.43 1.02-.58 1.52-.46.24-.91-.01-.62-.35-1.18.27Z"/>
    <path fill="#010000" fill-opacity=".141" d="M112 279.71q.13.04.25.08-.67 1.82-.11 3.75.13.46.61.46h162.5q1 0 1-1v-1.8q0-.67.67-.68l3.04-.02v3.5q-1.6.41-3.24.03-.69-.16-.65.56l.19 3.38h-168.3l.04-7.68 4-.58ZM64.25 280.04l3.23-.06q.56-.01.67.54.28 1.49-.4 2.94l-2.78.26q-.65.06-.66-.59l-.06-3.09Z"/>
    <path fill-opacity=".749" d="m108 280.29-.04 7.68q-1.48-.47-3.1-.24-.76.11-.77-.66l-.08-6.21q0-.59.58-.59l3.41.02Z"/>
    <path fill="#000001" fill-opacity=".361" d="M344.5 280.54h.5l2.54 1.11-.08 1.6q-1.29 1.35-2.75.55-.5-.27-.44-.82l.23-2.44Z"/>
    <path fill-opacity=".749" d="M345 280.54q2.24-.78 2.54 1.11l-2.54-1.11Z"/>
    <path fill="#000001" fill-opacity=".361" d="M79.25 290.96q-1.05-.13-1.94.46a.59.59 0 0 1-.89-.66q.55-1.79-.51-2.96-.28-.31-.69-.26l-2.35.26q-.56.07-.57-.5l-.01-3.05q1.68-.5 3.46-.18.48.09.44.58l-.25 2.53q-.08.88.76.62l.99-.31q.51-.16.82.27 1 1.4.74 3.2Z"/>
    <path fill-opacity=".749" d="M279.96 284q.35 1.83-.26 3.5-.19.52-.74.51l-2.7-.04-.19-3.38q-.04-.72.65-.56 1.64.38 3.24-.03Z"/>
    <path fill="#000001" fill-opacity=".361" d="M308.25 288.04q-.92 1.44-.44 3.14.19.67-.49.76-1.66.23-3.32-.23l.03-3.09q0-.65.65-.64l3.57.06Z"/>
    <path fill="#010000" fill-opacity=".141" d="m320.29 288.75-.08 2.5-3.23.49q-.71.11-.72-.61l-.01-2.92q2.28-.94 4.04.54Z"/>
    <path fill-opacity=".749" d="M323.21 291.75q-1.62.26-3-.5l.08-2.5q1.23-.98 2.58-.67.65.15.59.81l-.25 2.86Z"/>
    <path fill="#000001" fill-opacity=".361" d="m303.75 292-.06 3.37q-.01.64-.65.59l-2.75-.21q-.53-1.43-.21-2.9.11-.5.58-.73 1.45-.72 3.09-.12Z"/>
    <path fill="#010000" fill-opacity=".141" d="M303.75 292q.51 1.13.11 3.93-.37 2.59-.1 10.47.02.42-.38.56-.16.06-.34.04.73-1.16.38-2.54-.14-.54-.69-.63-1.19-.21-2.44.42-.71-4.25 0-8.5l2.75.21q.64.05.65-.59l.06-3.37Z"/>
    <path fill-opacity=".749" d="m351.06 295.29-.2-2.18q-.07-.78-.62-.23l-.31.32q-.08.07-.14-.01l-.27-.37q-.33-.45.23-.47l1.26-.05q.49-.02.49.46v13.88q0 .96-.96.89l-.64-.05q-.49-.04-.39-.52.03-.2.22-.3.31-.16.25.18-.06.36.41.45.51.1.57-.42l.23-2.27q.08-.72-.64-.82l-.29-.04q-.49-.06-.49-.55l-.08-6.58q0-.48.45-.62l.57-.18q.39-.12.35-.52Z"/>
    <path fill="#000001" fill-opacity=".361" d="m303.04 307 .21.71-1.68.35q-.58.12-.87-.41-.84-1.53-.41-3.4 1.25-.63 2.44-.42.55.09.69.63.35 1.38-.38 2.54ZM304.46 311.5q-.79-1.38-.42-3l2.51-.6q.84-.2.88.67l.09 1.78q.03.61-.58.65-1.34.08-2.07-.97-.49-.7-.57.15-.06.65.16 1.32Z"/>
    <path fill="#010000" fill-opacity=".141" d="m253 312.29-1.83.54q-.43.12-.11.43l.21.22q.17.17.01.34-1.8 1.93-3.03 1.93H119.7q-.66 0-.48-.63.55-1.98-.97-3.05l134.75.22Z"/>
</svg>
