<svg width="24" height="24" viewBox="0 0 24 24" fill="none" xmlns="http://www.w3.org/2000/svg">
<path fill-rule="evenodd" clip-rule="evenodd" d="M19.9022 4.09799C19.5539 3.74966 19.1405 3.47335 18.6855 3.28483C18.2304 3.09632 17.7427 2.99929 17.2502 2.99929C16.7576 2.99929 16.2699 3.09632 15.8149 3.28483C15.3598 3.47335 14.9464 3.74966 14.5982 4.09799L10.0982 8.59799C9.67363 9.02215 9.35709 9.54202 9.17515 10.1139C8.99321 10.6858 8.95117 11.293 9.05258 11.8845C9.15399 12.476 9.39587 13.0345 9.75792 13.5131C10.12 13.9917 10.5916 14.3765 11.1332 14.635C11.3065 14.7243 11.4382 14.8776 11.5004 15.0624C11.5626 15.2471 11.5504 15.4489 11.4664 15.6248C11.3824 15.8008 11.2332 15.9371 11.0504 16.0049C10.8676 16.0727 10.6656 16.0666 10.4872 15.988C9.72928 15.626 9.06931 15.0874 8.56268 14.4175C8.05605 13.7475 7.71755 12.9659 7.57559 12.138C7.43364 11.3102 7.49237 10.4604 7.74687 9.65995C8.00137 8.85952 8.44419 8.13183 9.03817 7.53799L13.5382 3.03799C14.0233 2.54012 14.6025 2.14356 15.2421 1.87132C15.8818 1.59908 16.5691 1.45657 17.2642 1.45208C17.9594 1.44758 18.6485 1.58118 19.2916 1.84513C19.9347 2.10907 20.519 2.49811 21.0105 2.98965C21.5021 3.4812 21.8911 4.06548 22.155 4.70857C22.419 5.35167 22.5526 6.04078 22.5481 6.73592C22.5436 7.43106 22.4011 8.11839 22.1288 8.75802C21.8566 9.39764 21.46 9.97684 20.9622 10.462L19.2052 12.219C19.1365 12.2927 19.0537 12.3518 18.9617 12.3928C18.8697 12.4338 18.7704 12.4558 18.6697 12.4576C18.569 12.4594 18.469 12.4408 18.3756 12.4031C18.2822 12.3654 18.1973 12.3092 18.1261 12.238C18.0549 12.1668 17.9988 12.082 17.961 11.9886C17.9233 11.8952 17.9048 11.7952 17.9066 11.6945C17.9084 11.5938 17.9304 11.4944 17.9714 11.4024C18.0124 11.3104 18.0715 11.2276 18.1452 11.159L19.9022 9.40199C20.2505 9.05375 20.5268 8.64031 20.7153 8.18528C20.9038 7.73024 21.0009 7.24253 21.0009 6.74999C21.0009 6.25745 20.9038 5.76973 20.7153 5.31469C20.5268 4.85966 20.2505 4.44622 19.9022 4.09799ZM12.5132 8.36499C12.599 8.18559 12.7526 8.04763 12.9401 7.98143C13.1276 7.91523 13.3337 7.92622 13.5132 8.01199C14.2711 8.37401 14.931 8.9126 15.4377 9.58251C15.9443 10.2524 16.2828 11.0341 16.4247 11.8619C16.5667 12.6898 16.508 13.5396 16.2535 14.34C15.999 15.1405 15.5561 15.8681 14.9622 16.462L10.4622 20.962C9.97702 21.4599 9.39783 21.8564 8.7582 22.1287C8.11857 22.4009 7.43124 22.5434 6.7361 22.5479C6.04097 22.5524 5.35185 22.4188 4.70876 22.1548C4.06566 21.8909 3.48139 21.5019 2.98984 21.0103C2.49829 20.5188 2.10925 19.9345 1.84531 19.2914C1.58136 18.6483 1.44776 17.9592 1.45226 17.2641C1.45675 16.5689 1.59926 15.8816 1.8715 15.242C2.14374 14.6023 2.5403 14.0231 3.03817 13.538L4.79517 11.781C4.86383 11.7073 4.94663 11.6482 5.03863 11.6072C5.13063 11.5662 5.22994 11.5442 5.33065 11.5424C5.43135 11.5406 5.53138 11.5591 5.62477 11.5969C5.71815 11.6346 5.80299 11.6907 5.87421 11.7619C5.94543 11.8332 6.00157 11.918 6.03929 12.0114C6.07701 12.1048 6.09554 12.2048 6.09376 12.3055C6.09198 12.4062 6.06994 12.5055 6.02895 12.5975C5.98796 12.6895 5.92886 12.7723 5.85517 12.841L4.09817 14.598C3.7499 14.9463 3.47364 15.3597 3.28516 15.8147C3.09668 16.2698 2.99967 16.7575 2.99967 17.25C2.99967 17.7425 3.09668 18.2302 3.28516 18.6852C3.47364 19.1403 3.7499 19.5537 4.09817 19.902C4.44643 20.2503 4.85989 20.5265 5.31492 20.715C5.76995 20.9035 6.25765 21.0005 6.75017 21.0005C7.24269 21.0005 7.73039 20.9035 8.18542 20.715C8.64045 20.5265 9.0539 20.2503 9.40217 19.902L13.9022 15.402C14.3267 14.9778 14.6432 14.458 14.8252 13.8861C15.0071 13.3142 15.0492 12.707 14.9478 12.1155C14.8464 11.524 14.6045 10.9655 14.2424 10.4869C13.8804 10.0083 13.4088 9.62352 12.8672 9.36499C12.7783 9.32258 12.6986 9.26307 12.6327 9.18986C12.5667 9.11666 12.5159 9.03118 12.483 8.93832C12.4501 8.84545 12.4359 8.74703 12.4411 8.64865C12.4462 8.55028 12.4707 8.45389 12.5132 8.36499Z" fill="black"/>
</svg>
