<svg width="24" height="24" viewBox="0 0 24 24" fill="none" xmlns="http://www.w3.org/2000/svg">
<path d="M6.25 2.5C5.01625 2.5 4 3.51625 4 4.75V13.5H3.75C3.55109 13.5 3.36034 13.579 3.21969 13.7197C3.07904 13.8603 3.00002 14.0511 3 14.25V18.25C3 20.036 4.46403 21.5 6.25 21.5H17.75C19.536 21.5 21 20.036 21 18.25V14.25C21 14.0511 20.921 13.8603 20.7803 13.7197C20.6397 13.579 20.4489 13.5 20.25 13.5H20V4.75C20 3.51625 18.9838 2.5 17.75 2.5H6.25ZM6.25 4H17.75C18.1732 4 18.5 4.32675 18.5 4.75V13.5H14.96C14.7611 13.5 14.5703 13.579 14.4297 13.7197C14.289 13.8603 14.21 14.0511 14.21 14.25C14.21 15.0534 13.9206 15.5698 13.5039 15.9375C13.0872 16.3052 12.5129 16.5 12 16.5C11.4871 16.5 10.9128 16.3052 10.4961 15.9375C10.0794 15.5698 9.79004 15.0534 9.79004 14.25C9.79002 14.0511 9.71099 13.8603 9.57035 13.7197C9.4297 13.579 9.23895 13.5 9.04004 13.5H5.5V4.75C5.5 4.32675 5.82675 4 6.25 4ZM8.25 6.5C8.15062 6.49859 8.05194 6.51696 7.95972 6.55402C7.86749 6.59108 7.78355 6.6461 7.71277 6.71588C7.642 6.78566 7.58579 6.86882 7.54743 6.96051C7.50907 7.0522 7.48932 7.15061 7.48932 7.25C7.48932 7.34939 7.50907 7.4478 7.54743 7.53949C7.58579 7.63118 7.642 7.71434 7.71277 7.78412C7.78355 7.8539 7.86749 7.90892 7.95972 7.94598C8.05194 7.98304 8.15062 8.00141 8.25 8H12.75C12.8494 8.00141 12.9481 7.98304 13.0403 7.94598C13.1325 7.90892 13.2164 7.8539 13.2872 7.78412C13.358 7.71434 13.4142 7.63118 13.4526 7.53949C13.4909 7.4478 13.5107 7.34939 13.5107 7.25C13.5107 7.15061 13.4909 7.0522 13.4526 6.96051C13.4142 6.86882 13.358 6.78566 13.2872 6.71588C13.2164 6.6461 13.1325 6.59108 13.0403 6.55402C12.9481 6.51696 12.8494 6.49859 12.75 6.5H8.25ZM15.75 6.5C15.5511 6.5 15.3603 6.57902 15.2197 6.71967C15.079 6.86032 15 7.05109 15 7.25C15 7.44891 15.079 7.63968 15.2197 7.78033C15.3603 7.92098 15.5511 8 15.75 8C15.9489 8 16.1397 7.92098 16.2803 7.78033C16.421 7.63968 16.5 7.44891 16.5 7.25C16.5 7.05109 16.421 6.86032 16.2803 6.71967C16.1397 6.57902 15.9489 6.5 15.75 6.5ZM8.25 10C8.15062 9.99859 8.05194 10.017 7.95972 10.054C7.86749 10.0911 7.78355 10.1461 7.71277 10.2159C7.642 10.2857 7.58579 10.3688 7.54743 10.4605C7.50907 10.5522 7.48932 10.6506 7.48932 10.75C7.48932 10.8494 7.50907 10.9478 7.54743 11.0395C7.58579 11.1312 7.642 11.2143 7.71277 11.2841C7.78355 11.3539 7.86749 11.4089 7.95972 11.446C8.05194 11.483 8.15062 11.5014 8.25 11.5H12.75C12.8494 11.5014 12.9481 11.483 13.0403 11.446C13.1325 11.4089 13.2164 11.3539 13.2872 11.2841C13.358 11.2143 13.4142 11.1312 13.4526 11.0395C13.4909 10.9478 13.5107 10.8494 13.5107 10.75C13.5107 10.6506 13.4909 10.5522 13.4526 10.4605C13.4142 10.3688 13.358 10.2857 13.2872 10.2159C13.2164 10.1461 13.1325 10.0911 13.0403 10.054C12.9481 10.017 12.8494 9.99859 12.75 10H8.25ZM15.75 10C15.5511 10 15.3603 10.079 15.2197 10.2197C15.079 10.3603 15 10.5511 15 10.75C15 10.9489 15.079 11.1397 15.2197 11.2803C15.3603 11.421 15.5511 11.5 15.75 11.5C15.9489 11.5 16.1397 11.421 16.2803 11.2803C16.421 11.1397 16.5 10.9489 16.5 10.75C16.5 10.5511 16.421 10.3603 16.2803 10.2197C16.1397 10.079 15.9489 10 15.75 10ZM4.5 15H4.62695C4.70747 15.0132 4.7896 15.0132 4.87012 15H8.44727C8.61281 15.8377 8.9535 16.5768 9.50391 17.0625C10.2204 17.6948 11.1264 18 12 18C12.8736 18 13.7796 17.6948 14.4961 17.0625C15.0465 16.5768 15.3872 15.8377 15.5527 15H19.127C19.2075 15.0132 19.2896 15.0132 19.3701 15H19.5V18.25C19.5 19.225 18.725 20 17.75 20H6.25C5.27497 20 4.5 19.225 4.5 18.25V15Z" fill="black"/>
</svg>
