<svg width="12" height="12" viewBox="0 0 12 12" fill="none" xmlns="http://www.w3.org/2000/svg">
    <g clip-path="url(#clip0_1309_676)">
        <path d="M7.6875 3V10.875M4.3125 1.125V9M7.34227 2.92125L4.65773 1.20375C4.55095 1.1504 4.43297 1.12332 4.31362 1.12475C4.19426 1.12618 4.07696 1.15607 3.97148 1.21195L1.32445 2.98804C1.26423 3.01995 1.21384 3.06766 1.1787 3.12605C1.14356 3.18444 1.12499 3.2513 1.125 3.31945V10.2523C1.12499 10.3169 1.14171 10.3805 1.17353 10.4368C1.20535 10.4931 1.25119 10.5402 1.3066 10.5736C1.36201 10.6069 1.4251 10.6254 1.48975 10.6272C1.55439 10.6289 1.6184 10.6139 1.67555 10.5837L3.9682 9.08859C4.07454 9.03225 4.19288 9.00233 4.31322 9.00135C4.43356 9.00037 4.55237 9.02836 4.65961 9.08297L7.28133 10.7939C7.38764 10.8481 7.50534 10.8761 7.62465 10.8756C7.74396 10.8752 7.86145 10.8463 7.96734 10.7913L10.6727 9.01148C10.7337 8.97985 10.7848 8.93208 10.8205 8.87339C10.8561 8.8147 10.875 8.74735 10.875 8.67867V1.74773C10.875 1.68306 10.8583 1.61949 10.8265 1.56318C10.7946 1.50688 10.7488 1.45977 10.6934 1.42642C10.638 1.39306 10.5749 1.37461 10.5103 1.37284C10.4456 1.37107 10.3816 1.38605 10.3245 1.41632L8.02758 2.91304C7.92222 2.96877 7.80509 2.99858 7.68591 3C7.56673 3.00143 7.44893 2.97443 7.34227 2.92125Z" stroke="black" stroke-linecap="round" stroke-linejoin="round"/>
    </g>
    <defs>
        <clipPath id="clip0_1309_676">
            <rect width="12" height="12" fill="white"/>
        </clipPath>
    </defs>
</svg>
