<svg width="21" height="21" viewBox="0 0 21 21" fill="none" xmlns="http://www.w3.org/2000/svg">
<path d="M14.322 6.32203C14.322 3.93886 12.3832 2 10 2C7.61684 2 5.67798 3.93886 5.67798 6.32203C5.67798 8.6081 7.46298 10.4801 9.71188 10.6294V18.7119C9.71188 18.8712 9.84096 19 10 19C10.1591 19 10.2881 18.8712 10.2881 18.7119V10.6294C12.537 10.4801 14.322 8.6081 14.322 6.32203ZM10 10.0678C7.93466 10.0678 6.25425 8.38739 6.25425 6.32203C6.25425 4.25668 7.93466 2.57627 10 2.57627C12.0654 2.57627 13.7458 4.25668 13.7458 6.32203C13.7458 8.38739 12.0654 10.0678 10 10.0678Z" fill="white" stroke="white" />
<path d="M8.5594 4.01562C7.92378 4.01562 7.40686 4.53254 7.40686 5.16817C7.40686 5.80379 7.92378 6.32071 8.5594 6.32071C9.19503 6.32071 9.71195 5.80379 9.71195 5.16817C9.71195 4.53254 9.19503 4.01562 8.5594 4.01562ZM8.5594 5.74444C8.24159 5.74444 7.98313 5.48598 7.98313 5.16817C7.98313 4.85035 8.24159 4.5919 8.5594 4.5919C8.87722 4.5919 9.13567 4.85035 9.13567 5.16817C9.13567 5.48598 8.87722 5.74444 8.5594 5.74444Z" fill="white" stroke="white" />
</svg>
