<svg width="24" height="24" viewBox="0 0 24 24" fill="none" xmlns="http://www.w3.org/2000/svg">
<path d="M6.25 2C5.01625 2 4 3.01625 4 4.25V19.75C4 20.9838 5.01625 22 6.25 22H17.75C18.9838 22 20 20.9838 20 19.75V9.25C20 9.0511 19.9209 8.86036 19.7803 8.71973L19.7725 8.71191L13.2803 2.21973C13.1396 2.07907 12.9489 2.00004 12.75 2H6.25ZM6.25 3.5H12V7.75C12 8.98375 13.0162 10 14.25 10H18.5V19.75C18.5 20.1733 18.1732 20.5 17.75 20.5H6.25C5.82675 20.5 5.5 20.1733 5.5 19.75V4.25C5.5 3.82675 5.82675 3.5 6.25 3.5ZM13.5 4.56055L17.4395 8.5H14.25C13.8268 8.5 13.5 8.17325 13.5 7.75V4.56055ZM11.9883 11.9893C11.7895 11.9924 11.6002 12.0742 11.4617 12.2169C11.3233 12.3595 11.2471 12.5513 11.25 12.75V14.5H9.5C9.40062 14.4986 9.30194 14.517 9.20972 14.554C9.11749 14.5911 9.03355 14.6461 8.96277 14.7159C8.892 14.7857 8.83579 14.8688 8.79743 14.9605C8.75907 15.0522 8.73932 15.1506 8.73932 15.25C8.73932 15.3494 8.75907 15.4478 8.79743 15.5395C8.83579 15.6312 8.892 15.7143 8.96277 15.7841C9.03355 15.8539 9.11749 15.9089 9.20972 15.946C9.30194 15.983 9.40062 16.0014 9.5 16H11.25V17.75C11.2486 17.8494 11.267 17.9481 11.304 18.0403C11.3411 18.1325 11.3961 18.2164 11.4659 18.2872C11.5357 18.358 11.6188 18.4142 11.7105 18.4526C11.8022 18.4909 11.9006 18.5107 12 18.5107C12.0994 18.5107 12.1978 18.4909 12.2895 18.4526C12.3812 18.4142 12.4643 18.358 12.5341 18.2872C12.6039 18.2164 12.6589 18.1325 12.696 18.0403C12.733 17.9481 12.7514 17.8494 12.75 17.75V16H14.5C14.5994 16.0014 14.6981 15.983 14.7903 15.946C14.8825 15.9089 14.9664 15.8539 15.0372 15.7841C15.108 15.7143 15.1642 15.6312 15.2026 15.5395C15.2409 15.4478 15.2607 15.3494 15.2607 15.25C15.2607 15.1506 15.2409 15.0522 15.2026 14.9605C15.1642 14.8688 15.108 14.7857 15.0372 14.7159C14.9664 14.6461 14.8825 14.5911 14.7903 14.554C14.6981 14.517 14.5994 14.4986 14.5 14.5H12.75V12.75C12.7514 12.6496 12.7327 12.55 12.6949 12.457C12.6571 12.3639 12.6011 12.2795 12.53 12.2085C12.459 12.1376 12.3745 12.0816 12.2814 12.044C12.1883 12.0063 12.0887 11.9877 11.9883 11.9893Z" fill="black"/>
</svg>
