<svg width="24" height="24" viewBox="0 0 24 24" fill="none" xmlns="http://www.w3.org/2000/svg">
<path d="M11.9999 2.5C10.0274 2.5 7.99666 2.87142 6.37883 3.69238C4.803 4.49203 3.56897 5.83172 3.50578 7.6084C3.37168 7.96087 1.45283 13.1183 2.18058 18.627C2.36018 19.9859 3.5365 21 4.90129 21H19.0976C20.4624 21 21.6396 19.9862 21.8193 18.627C22.547 13.1183 20.6282 7.96087 20.4941 7.6084C20.4309 5.83172 19.1968 4.49203 17.621 3.69238C16.0032 2.87142 13.9724 2.5 11.9999 2.5ZM11.9999 4C13.7774 4 15.6217 4.35964 16.9413 5.0293C17.9651 5.54879 18.6338 6.18603 18.8847 7H5.11515C5.36607 6.18603 6.03478 5.54879 7.05851 5.0293C8.37818 4.35964 10.2224 4 11.9999 4ZM4.8173 8.5H19.1825C19.4288 9.18533 20.9696 13.6037 20.332 18.4307C20.2506 19.0464 19.7258 19.5 19.0976 19.5H4.90129C4.27308 19.5 3.7493 19.0467 3.66789 18.4307C3.0302 13.6037 4.57102 9.18533 4.8173 8.5ZM11.9882 10.4893C11.7895 10.4924 11.6001 10.5742 11.4616 10.7169C11.3232 10.8595 11.2471 11.0513 11.2499 11.25V13.25H9.24992C9.15054 13.2486 9.05186 13.267 8.95964 13.304C8.86741 13.3411 8.78347 13.3961 8.71269 13.4659C8.64192 13.5357 8.58571 13.6188 8.54735 13.7105C8.50899 13.8022 8.48924 13.9006 8.48924 14C8.48924 14.0994 8.50899 14.1978 8.54735 14.2895C8.58571 14.3812 8.64192 14.4643 8.71269 14.5341C8.78347 14.6039 8.86741 14.6589 8.95964 14.696C9.05186 14.733 9.15054 14.7514 9.24992 14.75H11.2499V16.75C11.2485 16.8494 11.2669 16.9481 11.3039 17.0403C11.341 17.1325 11.396 17.2164 11.4658 17.2872C11.5356 17.358 11.6187 17.4142 11.7104 17.4526C11.8021 17.4909 11.9005 17.5107 11.9999 17.5107C12.0993 17.5107 12.1977 17.4909 12.2894 17.4526C12.3811 17.4142 12.4643 17.358 12.534 17.2872C12.6038 17.2164 12.6588 17.1325 12.6959 17.0403C12.733 16.9481 12.7513 16.8494 12.7499 16.75V14.75H14.7499C14.8493 14.7514 14.948 14.733 15.0402 14.696C15.1324 14.6589 15.2164 14.6039 15.2871 14.5341C15.3579 14.4643 15.4141 14.3812 15.4525 14.2895C15.4908 14.1978 15.5106 14.0994 15.5106 14C15.5106 13.9006 15.4908 13.8022 15.4525 13.7105C15.4141 13.6188 15.3579 13.5357 15.2871 13.4659C15.2164 13.3961 15.1324 13.3411 15.0402 13.304C14.948 13.267 14.8493 13.2486 14.7499 13.25H12.7499V11.25C12.7514 11.1496 12.7326 11.05 12.6949 10.957C12.6571 10.8639 12.601 10.7795 12.53 10.7085C12.4589 10.6376 12.3744 10.5816 12.2813 10.544C12.1883 10.5063 12.0886 10.4877 11.9882 10.4893Z" fill="black"/>
</svg>
