<svg width="20" height="20" viewBox="0 0 20 20" fill="none" xmlns="http://www.w3.org/2000/svg">
    <path
        d="M8.12484 0.416992C6.8666 0.416992 5.83317 1.45042 5.83317 2.70866V4.09049C5.25146 4.59606 3.74984 6.15459 3.74984 8.95866V10.5244C3.27474 10.9038 2.9165 11.4298 2.9165 12.0837C2.9165 13.0677 3.6267 13.8628 4.5498 14.0758C4.92336 15.5571 5.54435 16.8767 6.41911 17.8454C7.37835 18.9076 8.62771 19.5837 9.99984 19.5837C11.372 19.5837 12.6213 18.9076 13.5806 17.8454C14.4553 16.8767 15.0763 15.5571 15.4499 14.0758C16.373 13.8628 17.0832 13.0677 17.0832 12.0837C17.0832 11.4296 16.7236 10.9064 16.2498 10.5293V9.79199C16.2498 9.15545 16.1219 8.61891 15.9951 8.22786C16.5536 7.90715 16.835 7.20912 16.5428 6.59701C16.0374 5.53979 15.0243 4.81462 14.1665 4.24349V2.70866C14.1665 1.45042 13.1331 0.416992 11.8748 0.416992H8.12484ZM8.12484 1.66699H11.8748C12.4574 1.66699 12.9165 2.12606 12.9165 2.70866V4.53971C12.9166 4.67263 12.9591 4.80205 13.0378 4.90918L13.0695 4.95312C13.1136 5.01334 13.1682 5.06515 13.2306 5.10612C14.0885 5.66921 15.0874 6.45078 15.4149 7.13574C15.4235 7.15382 15.4221 7.15953 15.3905 7.16911C14.9295 7.30852 13.8147 7.50033 12.4998 7.50033C10.9113 7.50033 9.85468 7.20432 9.20475 6.92578C8.55482 6.64724 8.3584 6.43343 8.3584 6.43343C8.28421 6.35924 8.19253 6.30491 8.09182 6.27547C7.99112 6.24602 7.88461 6.2424 7.78214 6.26494C7.67966 6.28747 7.58451 6.33545 7.50545 6.40443C7.42639 6.47341 7.36597 6.56119 7.32975 6.65967C7.32975 6.65967 7.19047 7.09278 6.49316 7.62972C6.42808 7.67984 6.37351 7.74229 6.33256 7.81351C6.29161 7.88472 6.26509 7.9633 6.25451 8.04476C6.24393 8.12623 6.2495 8.20898 6.2709 8.28829C6.2923 8.3676 6.32911 8.44192 6.37923 8.507C6.42935 8.57208 6.4918 8.62666 6.56302 8.66761C6.63423 8.70855 6.71281 8.73508 6.79428 8.74566C6.87574 8.75624 6.95849 8.75067 7.0378 8.72927C7.11711 8.70787 7.19143 8.67105 7.25651 8.62093C7.66553 8.30598 7.91605 7.98465 8.11344 7.70866C8.32131 7.85261 8.32073 7.90736 8.71159 8.07487C9.51999 8.42133 10.755 8.75033 12.4998 8.75033C13.413 8.75033 14.1511 8.66578 14.785 8.55908C14.8871 8.84881 14.9998 9.25466 14.9998 9.79199V10.7832C14.9998 10.9014 15.0332 11.0172 15.0963 11.1172C15.1594 11.2172 15.2495 11.2972 15.3563 11.348C15.6426 11.4841 15.8332 11.7515 15.8332 12.0837C15.8332 12.5513 15.4675 12.917 14.9998 12.917C15.1101 12.917 15.1024 12.9146 14.9746 12.9146C14.8311 12.9145 14.692 12.9638 14.5805 13.0542C14.4691 13.1446 14.3922 13.2706 14.3626 13.411C14.0528 14.8873 13.4317 16.1446 12.6528 17.0072C11.874 17.8697 10.9656 18.3337 9.99984 18.3337C9.03405 18.3337 8.12572 17.8697 7.34684 17.0072C6.56796 16.1446 5.94684 14.8873 5.63704 13.411C5.60751 13.2706 5.53057 13.1446 5.41913 13.0542C5.3077 12.9638 5.16855 12.9145 5.02507 12.9146C4.89727 12.9146 4.88954 12.917 4.99984 12.917C4.53219 12.917 4.1665 12.5513 4.1665 12.0837C4.1665 11.7488 4.35879 11.476 4.64258 11.3415C4.74947 11.2908 4.83978 11.2108 4.90302 11.1108C4.96626 11.0109 4.99984 10.895 4.99984 10.7767V8.95866C4.99984 6.05978 6.80892 4.8929 6.80892 4.8929C6.89343 4.8356 6.96262 4.75846 7.01043 4.66823C7.05823 4.578 7.08321 4.47744 7.08317 4.37533V2.70866C7.08317 2.12606 7.54224 1.66699 8.12484 1.66699ZM9.99007 2.49137C9.82445 2.49396 9.66663 2.56218 9.55128 2.68105C9.43592 2.79991 9.37246 2.9597 9.37484 3.12533V3.75033H8.5415C8.45868 3.74915 8.37646 3.76446 8.2996 3.79534C8.22275 3.82622 8.1528 3.87207 8.09382 3.93023C8.03483 3.98838 7.988 4.05767 7.95603 4.13408C7.92406 4.2105 7.9076 4.2925 7.9076 4.37533C7.9076 4.45815 7.92406 4.54016 7.95603 4.61657C7.988 4.69298 8.03483 4.76227 8.09382 4.82043C8.1528 4.87858 8.22275 4.92443 8.2996 4.95531C8.37646 4.9862 8.45868 5.0015 8.5415 5.00033H9.37484V5.62533C9.37367 5.70815 9.38897 5.79037 9.41985 5.86723C9.45073 5.94408 9.49658 6.01403 9.55474 6.07301C9.61289 6.132 9.68219 6.17883 9.7586 6.2108C9.83501 6.24277 9.91701 6.25923 9.99984 6.25923C10.0827 6.25923 10.1647 6.24277 10.2411 6.2108C10.3175 6.17883 10.3868 6.132 10.4449 6.07301C10.5031 6.01403 10.5489 5.94408 10.5798 5.86723C10.6107 5.79037 10.626 5.70815 10.6248 5.62533V5.00033H11.4582C11.541 5.0015 11.6232 4.9862 11.7001 4.95531C11.7769 4.92443 11.8469 4.87858 11.9059 4.82043C11.9648 4.76227 12.0117 4.69298 12.0436 4.61657C12.0756 4.54016 12.0921 4.45815 12.0921 4.37533C12.0921 4.2925 12.0756 4.2105 12.0436 4.13408C12.0117 4.05767 11.9648 3.98838 11.9059 3.93023C11.8469 3.87207 11.7769 3.82622 11.7001 3.79534C11.6232 3.76446 11.541 3.74915 11.4582 3.75033H10.6248V3.12533C10.626 3.04167 10.6104 2.95863 10.5789 2.88112C10.5475 2.80361 10.5007 2.73321 10.4415 2.67409C10.3823 2.61497 10.3119 2.56834 10.2343 2.53695C10.1568 2.50556 10.0737 2.49007 9.99007 2.49137ZM7.9165 11.2503C7.69549 11.2503 7.48353 11.3381 7.32725 11.4944C7.17097 11.6507 7.08317 11.8626 7.08317 12.0837C7.08317 12.3047 7.17097 12.5166 7.32725 12.6729C7.48353 12.8292 7.69549 12.917 7.9165 12.917C8.13752 12.917 8.34948 12.8292 8.50576 12.6729C8.66204 12.5166 8.74984 12.3047 8.74984 12.0837C8.74984 11.8626 8.66204 11.6507 8.50576 11.4944C8.34948 11.3381 8.13752 11.2503 7.9165 11.2503ZM12.0832 11.2503C11.8622 11.2503 11.6502 11.3381 11.4939 11.4944C11.3376 11.6507 11.2498 11.8626 11.2498 12.0837C11.2498 12.3047 11.3376 12.5166 11.4939 12.6729C11.6502 12.8292 11.8622 12.917 12.0832 12.917C12.3042 12.917 12.5161 12.8292 12.6724 12.6729C12.8287 12.5166 12.9165 12.3047 12.9165 12.0837C12.9165 11.8626 12.8287 11.6507 12.6724 11.4944C12.5161 11.3381 12.3042 11.2503 12.0832 11.2503Z"
        fill="black" />
</svg>
    