<svg width="24" height="24" viewBox="0 0 24 24" fill="none" xmlns="http://www.w3.org/2000/svg">
<path d="M10 2.5C5.59072 2.5 2 6.08968 2 10.499C2 11.7833 2.33843 12.9825 2.87793 14.0586L2.04297 17.0508C1.81426 17.8708 2.62904 18.6864 3.44922 18.458L6.44336 17.623C6.75541 17.7794 7.07928 17.9161 7.41113 18.0352C8.85357 20.1272 11.2716 21.499 14 21.499C15.2832 21.499 16.4814 21.1616 17.5566 20.623L20.5508 21.458C21.371 21.6864 22.1857 20.8708 21.957 20.0508L21.1221 17.0586C21.6616 15.9825 22 14.7833 22 13.499C22 9.98034 19.7185 6.98664 16.5488 5.9209C15.1003 3.85642 12.7064 2.5 10 2.5ZM10 4C13.5987 4 16.5 6.90079 16.5 10.5C16.5 14.0987 13.5987 16.999 10 16.999C8.85157 16.999 7.77876 16.7005 6.84277 16.1787C6.67021 16.0825 6.46668 16.0583 6.27637 16.1113L3.6582 16.8418L4.38965 14.2256C4.44292 14.035 4.4187 13.831 4.32227 13.6582C3.79944 12.7212 3.5 11.6484 3.5 10.499C3.5 6.90037 6.40128 4 10 4ZM17.6367 8.11621C19.3621 9.28274 20.5 11.2527 20.5 13.499C20.5 14.6484 20.2006 15.7212 19.6777 16.6582C19.5813 16.831 19.5571 17.035 19.6104 17.2256L20.3418 19.8418L17.7236 19.1113C17.5333 19.0583 17.3298 19.0825 17.1572 19.1787C16.2212 19.7005 15.1484 19.999 14 19.999C12.4187 19.999 10.9809 19.4286 9.85645 18.4941C9.90442 18.4951 9.95178 18.499 10 18.499C14.4093 18.499 18 14.9093 18 10.5C18 9.67022 17.8725 8.86949 17.6367 8.11621ZM6.75 8.49902C6.65062 8.49762 6.55194 8.51598 6.45972 8.55304C6.36749 8.5901 6.28355 8.64512 6.21277 8.7149C6.142 8.78469 6.08579 8.86784 6.04743 8.95953C6.00907 9.05123 5.98932 9.14963 5.98932 9.24902C5.98932 9.34842 6.00907 9.44682 6.04743 9.53851C6.08579 9.63021 6.142 9.71336 6.21277 9.78314C6.28355 9.85293 6.36749 9.90795 6.45972 9.94501C6.55194 9.98207 6.65062 10.0004 6.75 9.99902H13.25C13.3494 10.0004 13.4481 9.98207 13.5403 9.94501C13.6325 9.90795 13.7164 9.85293 13.7872 9.78314C13.858 9.71336 13.9142 9.63021 13.9526 9.53851C13.9909 9.44682 14.0107 9.34842 14.0107 9.24902C14.0107 9.14963 13.9909 9.05123 13.9526 8.95953C13.9142 8.86784 13.858 8.78469 13.7872 8.7149C13.7164 8.64512 13.6325 8.5901 13.5403 8.55304C13.4481 8.51598 13.3494 8.49762 13.25 8.49902H6.75ZM6.75 11.499C6.65062 11.4976 6.55194 11.516 6.45972 11.553C6.36749 11.5901 6.28355 11.6451 6.21277 11.7149C6.142 11.7847 6.08579 11.8678 6.04743 11.9595C6.00907 12.0512 5.98932 12.1496 5.98932 12.249C5.98932 12.3484 6.00907 12.4468 6.04743 12.5385C6.08579 12.6302 6.142 12.7134 6.21277 12.7831C6.28355 12.8529 6.36749 12.9079 6.45972 12.945C6.55194 12.9821 6.65062 13.0004 6.75 12.999H11.25C11.3494 13.0004 11.4481 12.9821 11.5403 12.945C11.6325 12.9079 11.7164 12.8529 11.7872 12.7831C11.858 12.7134 11.9142 12.6302 11.9526 12.5385C11.9909 12.4468 12.0107 12.3484 12.0107 12.249C12.0107 12.1496 11.9909 12.0512 11.9526 11.9595C11.9142 11.8678 11.858 11.7847 11.7872 11.7149C11.7164 11.6451 11.6325 11.5901 11.5403 11.553C11.4481 11.516 11.3494 11.4976 11.25 11.499H6.75Z" fill="black"/>
</svg>
