<svg width="24" height="24" viewBox="0 0 24 24" fill="none" xmlns="http://www.w3.org/2000/svg">
<path d="M12.0001 1C9.52372 1 7.50008 3.02364 7.50008 5.5V13C7.50008 15.4764 9.52372 17.5 12.0001 17.5C14.4764 17.5 16.5001 15.4764 16.5001 13V5.5C16.5001 3.02364 14.4764 1 12.0001 1ZM12.0001 2.5C13.6657 2.5 15.0001 3.83436 15.0001 5.5V13C15.0001 14.6656 13.6657 16 12.0001 16C10.3344 16 9.00008 14.6656 9.00008 13V5.5C9.00008 3.83436 10.3344 2.5 12.0001 2.5ZM5.23836 10.4893C5.03962 10.4924 4.85023 10.5742 4.71181 10.7169C4.57338 10.8595 4.49723 11.0513 4.50008 11.25V13C4.50008 16.8803 7.4671 20.0841 11.2501 20.4619V22.75C11.2487 22.8494 11.267 22.9481 11.3041 23.0403C11.3412 23.1325 11.3962 23.2164 11.466 23.2872C11.5357 23.358 11.6189 23.4142 11.7106 23.4526C11.8023 23.4909 11.9007 23.5107 12.0001 23.5107C12.0995 23.5107 12.1979 23.4909 12.2896 23.4526C12.3813 23.4142 12.4644 23.358 12.5342 23.2872C12.604 23.2164 12.659 23.1325 12.6961 23.0403C12.7331 22.9481 12.7515 22.8494 12.7501 22.75V20.4619C16.5331 20.0841 19.5001 16.8803 19.5001 13V11.25C19.5015 11.1506 19.4831 11.0519 19.4461 10.9597C19.409 10.8675 19.354 10.7836 19.2842 10.7128C19.2144 10.642 19.1313 10.5858 19.0396 10.5474C18.9479 10.5091 18.8495 10.4893 18.7501 10.4893C18.6507 10.4893 18.5523 10.5091 18.4606 10.5474C18.3689 10.5858 18.2857 10.642 18.216 10.7128C18.1462 10.7836 18.0912 10.8675 18.0541 10.9597C18.017 11.0519 17.9987 11.1506 18.0001 11.25V13C18.0001 16.2927 15.3699 18.9474 12.0889 18.9951C12.0556 18.9909 12.022 18.989 11.9884 18.9893C11.9609 18.9897 11.9335 18.9917 11.9063 18.9951C8.62764 18.9448 6.00008 16.291 6.00008 13V11.25C6.00152 11.1496 5.98279 11.05 5.94501 10.957C5.90723 10.8639 5.85116 10.7795 5.78012 10.7085C5.70909 10.6376 5.62453 10.5816 5.53147 10.544C5.43841 10.5063 5.33874 10.4877 5.23836 10.4893Z" fill="black"/>
</svg>
