<svg width="24" height="24" viewBox="0 0 24 24" fill="none" xmlns="http://www.w3.org/2000/svg">
<path d="M12.0001 1C9.52012 1 7.50012 3.02 7.50012 5.5V13C7.50012 13.105 7.50488 13.2096 7.50988 13.3096L9.00012 11.8203V5.5C9.00012 5.39656 9.00549 5.29412 9.01574 5.19336C9.16957 3.68192 10.4486 2.5 12.0001 2.5C13.6551 2.5 15.0001 3.845 15.0001 5.5V5.82031L16.3751 4.44531C15.9001 2.47031 14.1151 1 12.0001 1ZM21.2355 1.99316C21.0407 1.99884 20.8558 2.0801 20.7198 2.21973L6.85754 16.082C6.56189 15.5899 6.33539 15.0525 6.19055 14.4805C6.15584 14.3476 6.1259 14.2132 6.1007 14.0771C6.07821 13.9526 6.05877 13.8273 6.04406 13.7002C6.0376 13.6454 6.03142 13.5904 6.02648 13.5352C6.01096 13.3587 6.00012 13.1807 6.00012 13V11.25C6.00156 11.1496 5.98283 11.05 5.94505 10.957C5.90727 10.8639 5.8512 10.7795 5.78016 10.7085C5.70913 10.6376 5.62457 10.5816 5.53151 10.544C5.43845 10.5063 5.33878 10.4877 5.2384 10.4893C5.03966 10.4924 4.85027 10.5742 4.71184 10.7169C4.57342 10.8595 4.49727 11.0513 4.50012 11.25V13C4.50012 13.2437 4.51233 13.4842 4.53527 13.7217C4.6044 14.4447 4.7756 15.1379 5.03527 15.7852L5.04113 15.7793C5.23878 16.2674 5.49029 16.7269 5.78234 17.1572L2.21984 20.7197C2.14786 20.7888 2.0904 20.8716 2.05081 20.9632C2.01122 21.0548 1.99031 21.1534 1.9893 21.2532C1.98828 21.3529 2.00719 21.4519 2.0449 21.5443C2.08262 21.6367 2.13839 21.7206 2.20895 21.7912C2.27951 21.8617 2.36344 21.9175 2.45582 21.9552C2.5482 21.9929 2.64718 22.0118 2.74696 22.0108C2.84674 22.0098 2.94531 21.9889 3.03691 21.9493C3.1285 21.9097 3.21128 21.8523 3.28039 21.7803L6.73352 18.3271C7.92051 19.5034 9.49793 20.2817 11.2501 20.457V22.75C11.2487 22.8494 11.2671 22.9481 11.3041 23.0403C11.3412 23.1325 11.3962 23.2164 11.466 23.2872C11.5358 23.358 11.6189 23.4142 11.7106 23.4526C11.8023 23.4909 11.9007 23.5107 12.0001 23.5107C12.0995 23.5107 12.1979 23.4909 12.2896 23.4526C12.3813 23.4142 12.4645 23.358 12.5342 23.2872C12.604 23.2164 12.659 23.1325 12.6961 23.0403C12.7332 22.9481 12.7515 22.8494 12.7501 22.75V20.4619C16.5343 20.0842 19.5001 16.8818 19.5001 13V11.25C19.5001 10.835 19.1651 10.5 18.7501 10.5C18.3351 10.5 18.0001 10.835 18.0001 11.25V13C18.0001 16.2794 15.3588 18.947 12.0909 18.9961C12.078 18.9945 12.0649 18.9931 12.0519 18.9922C12.0506 18.9919 12.0493 18.9915 12.048 18.9912C12.0434 18.9912 12.0389 18.9912 12.0343 18.9912C12.019 18.9901 12.0037 18.9894 11.9884 18.9893C11.9832 18.9895 11.978 18.9899 11.9728 18.9902C11.9676 18.9905 11.9624 18.9908 11.9571 18.9912C11.3695 18.9869 10.8041 18.8955 10.2687 18.7354C10.2258 18.7224 10.1823 18.7112 10.1398 18.6973C10.0013 18.6525 9.8663 18.6002 9.73254 18.5459C9.66493 18.5182 9.59771 18.4901 9.53137 18.46C9.42229 18.4109 9.31457 18.3589 9.2091 18.3037C9.11393 18.2534 9.02087 18.1997 8.92883 18.1445C8.85038 18.0979 8.77149 18.052 8.69543 18.002C8.54986 17.9054 8.40881 17.8029 8.27258 17.6943C8.25252 17.6785 8.2309 17.6646 8.21105 17.6484C8.06503 17.529 7.92708 17.4001 7.79309 17.2676L8.85656 16.2041C9.669 17.0014 10.775 17.5 12.0001 17.5C14.4801 17.5 16.5001 15.48 16.5001 13V8.56055L21.7804 3.28027C21.8886 3.1749 21.9625 3.03931 21.9923 2.89126C22.0222 2.7432 22.0067 2.58958 21.9478 2.4505C21.8889 2.31141 21.7894 2.19335 21.6623 2.11175C21.5352 2.03015 21.3864 1.98882 21.2355 1.99316ZM15.0001 10.0605V13C15.0001 14.655 13.6551 16 12.0001 16C11.1866 16 10.4498 15.6767 9.91027 15.1504L15.0001 10.0605Z" fill="black"/>
</svg>
