<svg width="24" height="24" viewBox="0 0 24 24" fill="none" xmlns="http://www.w3.org/2000/svg">
<path d="M12 2C6.48603 2 2 6.48604 2 12C2 17.514 6.48603 22 12 22C17.514 22 22 17.514 22 12C22 6.48604 17.514 2 12 2ZM12 3.5C16.7033 3.5 20.5 7.2967 20.5 12C20.5 16.7033 16.7033 20.5 12 20.5C7.29669 20.5 3.5 16.7033 3.5 12C3.5 7.2967 7.29669 3.5 12 3.5ZM9.99219 6.99219C9.84293 6.99222 9.69707 7.03679 9.57328 7.12019C9.44949 7.20358 9.3534 7.32202 9.2973 7.46033C9.24119 7.59865 9.22763 7.75056 9.25835 7.89662C9.28907 8.04269 9.36267 8.17627 9.46973 8.28027L12.9395 11.75L9.46973 15.2197C9.39775 15.2888 9.34028 15.3716 9.3007 15.4632C9.26111 15.5548 9.24019 15.6534 9.23918 15.7532C9.23817 15.8529 9.25707 15.9519 9.29479 16.0443C9.33251 16.1367 9.38828 16.2206 9.45883 16.2912C9.52939 16.3617 9.61332 16.4175 9.7057 16.4552C9.79808 16.4929 9.89706 16.5118 9.99684 16.5108C10.0966 16.5098 10.1952 16.4889 10.2868 16.4493C10.3784 16.4097 10.4612 16.3523 10.5303 16.2803L14.5303 12.2803C14.6709 12.1396 14.7499 11.9489 14.7499 11.75C14.7499 11.5511 14.6709 11.3604 14.5303 11.2197L10.5303 7.21973C10.4604 7.14773 10.3767 7.0905 10.2843 7.05142C10.1919 7.01233 10.0925 6.99219 9.99219 6.99219Z" fill="black"/>
</svg>
