<svg width="24" height="24" viewBox="0 0 24 24" fill="none" xmlns="http://www.w3.org/2000/svg">
<path d="M21.2355 1.99317C21.0407 1.99885 20.8558 2.0801 20.7198 2.21973L2.21984 20.7197C2.14786 20.7888 2.0904 20.8716 2.05081 20.9632C2.01122 21.0548 1.99031 21.1534 1.9893 21.2532C1.98828 21.3529 2.00719 21.4519 2.0449 21.5443C2.08262 21.6367 2.13839 21.7206 2.20895 21.7912C2.27951 21.8617 2.36344 21.9175 2.45582 21.9552C2.5482 21.9929 2.64718 22.0118 2.74696 22.0108C2.84674 22.0098 2.94531 21.9889 3.03691 21.9493C3.1285 21.9097 3.21128 21.8523 3.28039 21.7803L4.4132 20.6475C4.80938 20.8698 5.26417 21 5.75012 21H18.2501C19.7661 21 21.0001 19.7665 21.0001 18.25V5.75001C21.0001 5.26406 20.8699 4.80939 20.6476 4.41309L21.7804 3.28028C21.8886 3.1749 21.9625 3.03931 21.9923 2.89126C22.0222 2.74321 22.0067 2.58959 21.9478 2.4505C21.8889 2.31142 21.7894 2.19335 21.6623 2.11175C21.5352 2.03015 21.3864 1.98882 21.2355 1.99317ZM5.75012 3.00001C4.23412 3.00001 3.00012 4.23351 3.00012 5.75001V17.8281L4.50012 16.3281V5.75001C4.50012 5.06101 5.06062 4.50001 5.75012 4.50001H16.3282L17.8282 3.00001H5.75012ZM19.4835 5.57715C19.4915 5.63397 19.5001 5.69096 19.5001 5.75001V18.25C19.5001 18.3473 19.4861 18.4413 19.465 18.5322L13.5909 12.6592C13.3809 12.4492 13.1377 12.2915 12.878 12.1826L14.2833 10.7773C14.5759 10.919 14.9032 11 15.2501 11C16.4906 11 17.5001 9.99051 17.5001 8.75001C17.5001 8.40304 17.4191 8.07576 17.2775 7.78321L19.4835 5.57715ZM12.0001 13.4951C12.1904 13.4951 12.3806 13.5699 12.5304 13.7197L18.3048 19.4941C18.2863 19.495 18.2688 19.5 18.2501 19.5H5.75012C5.73107 19.5 5.71328 19.495 5.69445 19.4941L11.4698 13.7197C11.6196 13.5699 11.8099 13.4951 12.0001 13.4951Z" fill="black"/>
</svg>
