<svg width="12" height="13" viewBox="0 0 12 13" fill="none" xmlns="http://www.w3.org/2000/svg">
    <path d="M7.49999 9.5V9.875C7.49999 10.2728 7.34196 10.6544 7.06065 10.9357C6.77935 11.217 6.39782 11.375 5.99999 11.375C5.60217 11.375 5.22064 11.217 4.93933 10.9357C4.65803 10.6544 4.49999 10.2728 4.49999 9.875V9.5M10.0237 8.73664C9.42187 8 8.99695 7.625 8.99695 5.59414C8.99695 3.73438 8.04726 3.0718 7.26562 2.75C7.16179 2.70734 7.06406 2.60937 7.03242 2.50273C6.89531 2.03609 6.51093 1.625 5.99999 1.625C5.48906 1.625 5.10445 2.03633 4.96874 2.5032C4.9371 2.61102 4.83937 2.70734 4.73554 2.75C3.95296 3.07227 3.00421 3.7325 3.00421 5.59414C3.00304 7.625 2.57812 8 1.97624 8.73664C1.72687 9.0418 1.94531 9.5 2.38148 9.5H9.62085C10.0547 9.5 10.2717 9.04039 10.0237 8.73664Z" stroke="black" stroke-linecap="round" stroke-linejoin="round"/>
</svg>
