<svg width="24" height="24" viewBox="0 0 24 24" fill="none" xmlns="http://www.w3.org/2000/svg">
<path d="M16.2501 1.5C15.2926 1.5 14.5001 2.29252 14.5001 3.25V8.75C14.5001 9.70748 15.2926 10.5 16.2501 10.5H17.627C17.7075 10.5132 17.7897 10.5132 17.8702 10.5H19.2501C20.2076 10.5 21.0001 9.70748 21.0001 8.75V3.25C21.0001 2.29252 20.2076 1.5 19.2501 1.5H16.2501ZM16.2501 3H19.2501C19.3976 3 19.5001 3.10248 19.5001 3.25V8.75C19.5001 8.89752 19.3976 9 19.2501 9H18.5001V8.25C18.5015 8.15062 18.4831 8.05194 18.4461 7.95972C18.409 7.86749 18.354 7.78355 18.2842 7.71277C18.2144 7.642 18.1313 7.58579 18.0396 7.54743C17.9479 7.50907 17.8495 7.48932 17.7501 7.48932C17.6507 7.48932 17.5523 7.50907 17.4606 7.54743C17.3689 7.58579 17.2857 7.642 17.216 7.71277C17.1462 7.78355 17.0912 7.86749 17.0541 7.95972C17.017 8.05194 16.9987 8.15062 17.0001 8.25V9H16.2501C16.1026 9 16.0001 8.89752 16.0001 8.75V3.25C16.0001 3.10248 16.1026 3 16.2501 3ZM6.75008 3.5C5.89591 3.5 5.16032 3.84732 4.68953 4.37695C4.21874 4.90659 4.00008 5.58333 4.00008 6.25C4.00008 6.91667 4.21874 7.59341 4.68953 8.12305C4.84491 8.29784 5.03153 8.44995 5.23934 8.5791C4.572 9.35388 4.30945 10.4511 4.65242 11.4854C4.65667 11.4975 4.66123 11.5096 4.66609 11.5215L5.87312 14.623L5.86043 14.5869C6.03589 15.1161 6.31032 15.5923 6.6573 16H3.50008V7.25C3.50152 7.14962 3.48279 7.04997 3.44501 6.95695C3.40723 6.86394 3.35116 6.77946 3.28012 6.70852C3.20909 6.63758 3.12453 6.58161 3.03147 6.54395C2.93841 6.50629 2.83874 6.48769 2.73836 6.48926C2.53962 6.49236 2.35023 6.57423 2.21181 6.71686C2.07338 6.8595 1.99723 7.05125 2.00008 7.25V16.75V20.25V21.75C1.99867 21.8494 2.01703 21.9481 2.05409 22.0403C2.09115 22.1325 2.14617 22.2164 2.21596 22.2872C2.28574 22.358 2.36889 22.4142 2.46059 22.4526C2.55228 22.4909 2.65068 22.5107 2.75008 22.5107C2.84947 22.5107 2.94787 22.4909 3.03957 22.4526C3.13126 22.4142 3.21441 22.358 3.2842 22.2872C3.35398 22.2164 3.409 22.1325 3.44606 22.0403C3.48312 21.9481 3.50148 21.8494 3.50008 21.75V21H20.5001V21.75C20.4987 21.8494 20.517 21.9481 20.5541 22.0403C20.5912 22.1325 20.6462 22.2164 20.716 22.2872C20.7857 22.358 20.8689 22.4142 20.9606 22.4526C21.0523 22.4909 21.1507 22.5107 21.2501 22.5107C21.3495 22.5107 21.4479 22.4909 21.5396 22.4526C21.6313 22.4142 21.7144 22.358 21.7842 22.2872C21.854 22.2164 21.909 22.1325 21.9461 22.0403C21.9831 21.9481 22.0015 21.8494 22.0001 21.75V20.25V17.75C22.0001 16.9012 21.3759 16.1855 20.5675 16.0332C20.7928 15.668 20.9427 15.2498 20.9864 14.793C21.1551 13.0247 19.7449 11.5 18.0001 11.5H11.1202L10.3604 9.64258L10.379 9.69043C10.1302 8.93947 9.6077 8.32494 8.95223 7.94727C9.32464 7.44785 9.50008 6.84521 9.50008 6.25C9.50008 5.58333 9.28141 4.90659 8.81062 4.37695C8.33984 3.84732 7.60424 3.5 6.75008 3.5ZM6.75008 5C7.22924 5 7.49365 5.15268 7.68953 5.37305C7.88541 5.59341 8.00008 5.91667 8.00008 6.25C8.00008 6.58333 7.88541 6.90659 7.68953 7.12695C7.49365 7.34732 7.22924 7.5 6.75008 7.5C6.27091 7.5 6.0065 7.34732 5.81062 7.12695C5.61475 6.90659 5.50008 6.58333 5.50008 6.25C5.50008 5.91667 5.61475 5.59341 5.81062 5.37305C6.0065 5.15268 6.27091 5 6.75008 5ZM7.4532 9.04297C8.10586 9.03244 8.7315 9.48984 8.95418 10.1621C8.95982 10.1783 8.966 10.1942 8.97273 10.21L9.92195 12.5342C9.94275 12.5844 9.96895 12.6322 10.0001 12.6768V16H9.89461C8.70646 16 7.65845 15.2437 7.28426 14.1152C7.28001 14.1031 7.27545 14.091 7.27059 14.0791L6.07527 11.0088C5.79992 10.1693 6.27824 9.28176 7.17293 9.07715C7.26617 9.05582 7.35996 9.04447 7.4532 9.04297ZM11.5001 13H18.0001C18.8863 13 19.5806 13.7347 19.4932 14.6504C19.4203 15.412 18.7129 16 17.9034 16H11.5001V13ZM3.50008 17.5H9.89461H17.9034H20.2501C20.3976 17.5 20.5001 17.6025 20.5001 17.75V19.5H3.50008V17.5Z" fill="black"/>
</svg>
