<svg width="24" height="24" viewBox="0 0 24 24" fill="none" xmlns="http://www.w3.org/2000/svg">
<path d="M20.4943 2.75003C20.38 2.75097 20.2674 2.77803 20.1652 2.82913L2.16515 11.8291C2.04947 11.887 1.95071 11.9737 1.87846 12.081C1.8062 12.1883 1.76291 12.3124 1.75279 12.4413C1.74267 12.5703 1.76606 12.6996 1.82069 12.8169C1.87531 12.9341 1.95933 13.0352 2.06457 13.1104L5.36535 15.4688L6.7882 19.7373C6.8315 19.8672 6.90949 19.9827 7.01373 20.0714C7.11797 20.16 7.24448 20.2185 7.37958 20.2404C7.51467 20.2624 7.65318 20.2469 7.78012 20.1958C7.90706 20.1446 8.01759 20.0597 8.09973 19.9502L9.15637 18.541L14.0587 22.1065C14.1541 22.1759 14.2645 22.222 14.3809 22.2407C14.4974 22.2595 14.6167 22.2506 14.7291 22.2146C14.8414 22.1787 14.9437 22.1167 15.0276 22.0338C15.1116 21.9508 15.1747 21.8493 15.212 21.7373L21.212 3.73733C21.2498 3.62408 21.26 3.50345 21.2417 3.38547C21.2235 3.26749 21.1774 3.15557 21.1072 3.05901C21.037 2.96245 20.9447 2.88404 20.8381 2.8303C20.7315 2.77656 20.6136 2.74904 20.4943 2.75003ZM18.4493 7.2803L14.1124 20.2901L10.087 17.3633L18.4493 7.2803ZM14.6036 7.28714L5.97863 14.0635L3.94933 12.6133L14.6036 7.28714ZM15.4952 8.49319L8.42883 17.0147C8.42785 17.0156 8.42687 17.0166 8.4259 17.0176L8.42297 17.0215C8.41525 17.0308 8.40776 17.0402 8.40051 17.0498C8.39242 17.06 8.38461 17.0705 8.37707 17.0811L7.7589 17.9043L6.87902 15.2627L15.4952 8.49319Z" fill="black"/>
</svg>
