<svg width="24" height="24" viewBox="0 0 24 24" fill="none" xmlns="http://www.w3.org/2000/svg">
<path d="M17.0592 15.521C17.527 15.2015 18.0757 15.0211 18.6418 15.0004C19.2079 14.9798 19.7682 15.1199 20.258 15.4044C20.7479 15.689 21.1471 16.1064 21.4096 16.6084C21.672 17.1104 21.787 17.6764 21.7412 18.241C20.5414 18.6603 19.267 18.8235 18.0002 18.72C17.9963 17.5866 17.67 16.4768 17.0592 15.522C16.5171 14.6718 15.7693 13.972 14.8851 13.4875C14.0008 13.003 13.0086 12.7493 12.0002 12.75C10.9921 12.7495 10.0001 13.0032 9.11596 13.4877C8.23186 13.9723 7.48423 14.6719 6.94223 15.522M17.9992 18.719L18.0002 18.75C18.0002 18.975 17.9882 19.197 17.9632 19.416C16.1486 20.4571 14.0923 21.0033 12.0002 21C9.83023 21 7.79323 20.424 6.03723 19.416C6.01152 19.1846 5.99917 18.9519 6.00023 18.719M6.00023 18.719C4.73386 18.8263 3.46014 18.6637 2.26123 18.242C2.21558 17.6776 2.33062 17.1117 2.59306 16.6099C2.85549 16.1081 3.2546 15.6908 3.74423 15.4063C4.23386 15.1218 4.79403 14.9817 5.35995 15.0021C5.92587 15.0226 6.47444 15.2028 6.94223 15.522M6.00023 18.719C6.00382 17.5857 6.33185 16.4769 6.94223 15.522M15.0002 6.75C15.0002 7.54565 14.6842 8.30871 14.1215 8.87132C13.5589 9.43393 12.7959 9.75 12.0002 9.75C11.2046 9.75 10.4415 9.43393 9.87891 8.87132C9.3163 8.30871 9.00023 7.54565 9.00023 6.75C9.00023 5.95435 9.3163 5.19129 9.87891 4.62868C10.4415 4.06607 11.2046 3.75 12.0002 3.75C12.7959 3.75 13.5589 4.06607 14.1215 4.62868C14.6842 5.19129 15.0002 5.95435 15.0002 6.75ZM21.0002 9.75C21.0002 10.0455 20.942 10.3381 20.829 10.611C20.7159 10.884 20.5502 11.1321 20.3412 11.341C20.1323 11.5499 19.8842 11.7157 19.6113 11.8287C19.3383 11.9418 19.0457 12 18.7502 12C18.4548 12 18.1622 11.9418 17.8892 11.8287C17.6162 11.7157 17.3682 11.5499 17.1592 11.341C16.9503 11.1321 16.7846 10.884 16.6715 10.611C16.5584 10.3381 16.5002 10.0455 16.5002 9.75C16.5002 9.15326 16.7373 8.58097 17.1592 8.15901C17.5812 7.73705 18.1535 7.5 18.7502 7.5C19.347 7.5 19.9193 7.73705 20.3412 8.15901C20.7632 8.58097 21.0002 9.15326 21.0002 9.75ZM7.50023 9.75C7.50023 10.0455 7.44203 10.3381 7.32896 10.611C7.21589 10.884 7.05015 11.1321 6.84122 11.341C6.63229 11.5499 6.38425 11.7157 6.11127 11.8287C5.83828 11.9418 5.5457 12 5.25023 12C4.95476 12 4.66217 11.9418 4.38919 11.8287C4.11621 11.7157 3.86817 11.5499 3.65924 11.341C3.45031 11.1321 3.28457 10.884 3.1715 10.611C3.05843 10.3381 3.00023 10.0455 3.00023 9.75C3.00023 9.15326 3.23728 8.58097 3.65924 8.15901C4.0812 7.73705 4.65349 7.5 5.25023 7.5C5.84697 7.5 6.41926 7.73705 6.84122 8.15901C7.26318 8.58097 7.50023 9.15326 7.50023 9.75Z" stroke="black" stroke-width="1.5" stroke-linecap="round" stroke-linejoin="round"/>
</svg>
