<svg width="24" height="24" viewBox="0 0 24 24" fill="none" xmlns="http://www.w3.org/2000/svg">
<path d="M11.9756 2C11.8157 2.00546 11.6617 2.06192 11.5361 2.16113L4.42969 7.75976C3.52774 8.47058 3 9.55675 3 10.7051V18.75C3 20.2599 4.24011 21.5 5.75 21.5H18.25C19.7599 21.5 21 20.2599 21 18.75V10.7051C21 9.55675 20.4723 8.47058 19.5703 7.75976L12.4639 2.16113C12.3252 2.05157 12.1522 1.9945 11.9756 2ZM12 3.70507L18.6426 8.93847C19.1846 9.36566 19.5 10.0154 19.5 10.7051V18.75C19.5 19.4491 18.9491 20 18.25 20H5.75C5.05089 20 4.5 19.4491 4.5 18.75V10.7051C4.5 10.0154 4.81537 9.36566 5.35742 8.93847L12 3.70507ZM13.7246 9C12.9551 9 12.195 9.30622 11.6094 9.87109C11.5941 9.88576 11.5794 9.90108 11.5654 9.91699C11.619 9.8557 11.5161 9.96872 11.418 10.0684C11.3198 10.168 11.184 10.3042 11.0244 10.4648C10.7053 10.7861 10.2892 11.2046 9.87207 11.623C9.45494 12.0415 9.03667 12.4602 8.71387 12.7852C8.55246 12.9476 8.41513 13.0862 8.3125 13.1904C8.2248 13.2795 8.18675 13.3168 8.13184 13.377C8.13099 13.3778 8.13073 13.379 8.12988 13.3799C6.96561 14.5509 6.96197 16.4647 8.13477 17.6211C8.70891 18.1952 9.47736 18.5 10.2578 18.5C11.039 18.5 11.7954 18.187 12.374 17.6289C12.3773 17.6257 12.3806 17.6224 12.3838 17.6191C12.5205 17.4824 15.6996 14.2927 15.8682 14.123L15.8691 14.1221C17.0359 12.9503 17.0392 11.0326 15.8633 9.87597C15.8617 9.87434 15.86 9.87271 15.8584 9.87109C15.2729 9.30575 14.5055 9 13.7246 9ZM13.7246 10.5C14.1207 10.5 14.4985 10.6462 14.8135 10.9492C15.4018 11.5315 15.4048 12.4633 14.8057 13.0645H14.8047C14.7378 13.1318 13.9621 13.9103 13.1875 14.6875L11.0576 12.5576C11.4291 12.1851 11.8026 11.8106 12.0889 11.5225C12.2492 11.3611 12.3853 11.2237 12.4863 11.1211C12.5874 11.0185 12.6104 11.0003 12.6943 10.9043L12.6504 10.9512C12.9667 10.6461 13.3502 10.5 13.7246 10.5Z" fill="black"/>
</svg>
