<svg width="14" height="18" viewBox="0 0 14 18" fill="none" xmlns="http://www.w3.org/2000/svg">
<path d="M4.53706 0.00666808C4.23975 -0.0148796 3.93512 0.0153942 3.63639 0.103339L2.56724 0.418839C1.42797 0.754512 0.537799 1.65505 0.236633 2.79168C-0.432077 5.31944 0.332901 8.31141 2.32377 11.6793C4.31185 15.0425 6.57718 17.18 9.13565 17.8776C10.2878 18.1918 11.5304 17.8917 12.4031 17.0841L13.2164 16.3327C14.1265 15.4908 14.2622 14.0887 13.5269 13.0924L12.3519 11.5026C11.7221 10.6503 10.6118 10.2875 9.59083 10.593L7.75245 11.1414C7.67529 11.1639 7.49061 11.0592 7.32991 10.9208L7.32903 10.92C7.0428 10.672 6.64622 10.1708 6.22194 9.45407V9.45319C5.767 8.68344 5.57296 8.18002 5.49506 7.88273C5.41712 7.5853 5.43604 7.54912 5.44742 7.44859C5.45335 7.39842 5.47727 7.35194 5.518 7.31501L5.51888 7.31413L6.88972 6.06531C7.6751 5.35003 7.9122 4.20697 7.46929 3.24515L6.64272 1.44883V1.44795C6.25357 0.602877 5.42874 0.0712933 4.53706 0.00666808ZM4.43914 1.35303C4.85385 1.3839 5.23573 1.63172 5.41038 2.01128L6.23782 3.8076C6.43807 4.24245 6.33765 4.74007 5.97583 5.0696L4.60498 6.31753C4.32396 6.57281 4.14424 6.92085 4.10128 7.29655V7.29743C4.09009 7.39623 4.06364 7.76363 4.1842 8.22371C4.30477 8.68379 4.55368 9.29233 5.05399 10.1387H5.05487C5.5217 10.9275 5.9629 11.5267 6.44071 11.9403H6.4416C6.59677 12.0741 7.24711 12.6951 8.13177 12.4377L8.13442 12.4368L9.98073 11.8858C10.4602 11.7423 10.9728 11.9136 11.2607 12.3032L12.4357 13.893C12.7685 14.3446 12.7103 14.9585 12.2946 15.3431L11.4813 16.0954C10.9611 16.577 10.1887 16.7649 9.49291 16.5752C7.42462 16.0112 5.37795 14.1856 3.49172 10.9947C1.60288 7.7994 1.01211 5.15661 1.54661 3.13618C1.72329 2.46936 2.26464 1.91583 2.95185 1.71335L4.02012 1.39785C4.15928 1.35689 4.3009 1.34274 4.43914 1.35303Z" fill="black"/>
</svg>
