<svg width="22" height="17" viewBox="0 0 22 17" fill="none" xmlns="http://www.w3.org/2000/svg">
<path d="M9.75328 0.25C9.33727 0.25 9.00328 0.583984 9.00328 1V7C9.00328 7.41602 9.33727 7.75 9.75328 7.75H18.7533C19.1693 7.75 19.5033 7.41602 19.5033 7V1C19.5033 0.583984 19.1693 0.25 18.7533 0.25H9.75328ZM10.5033 1.75H18.0033V6.25H10.5033V1.75ZM6.00328 7.75C5.17711 7.75 4.29235 7.97266 4.29235 7.97266C4.26305 7.97852 4.23375 7.98438 4.21032 7.9961L0.507191 9.29102C0.114613 9.42578 -0.0904658 9.84766 0.0384412 10.2344L1.53844 14.7344C1.60875 14.9336 1.74938 15.0918 1.93688 15.1797C2.12438 15.2676 2.34118 15.2734 2.53453 15.1973L5.96813 13.8203L10.7377 16.1699L10.6498 16.123C11.7455 16.8496 13.1459 16.9551 14.3412 16.3867C14.3705 16.3691 14.4056 16.3516 14.4349 16.3281L20.6752 12.1211L21.2904 11.7051L20.4584 10.457L19.8314 10.8789L13.6791 15.0332C12.9642 15.3613 12.1381 15.3086 11.4818 14.875C11.4525 14.8574 11.4291 14.8398 11.3939 14.8281L6.33141 12.3262C6.14391 12.2324 5.92125 12.2266 5.72203 12.3027L2.71032 13.5098L1.7025 10.4629L4.65563 9.42578C4.69078 9.41992 5.48766 9.25 6.00328 9.25C6.69469 9.25 7.06969 9.27344 7.79039 9.83594C9.07946 10.8555 9.65368 11.459 10.5326 11.834C11.4115 12.2148 12.3666 12.25 14.2533 12.25H15.0033V10.75H14.2533C12.39 10.75 11.6576 10.6914 11.1302 10.457C10.6029 10.2285 10.0521 9.70703 8.71618 8.66406C7.74938 7.90234 6.81188 7.75 6.00328 7.75Z" fill="#19CE67"/>
</svg>
