<svg width="24" height="24" viewBox="0 0 24 24" fill="none" xmlns="http://www.w3.org/2000/svg">
<path d="M15.992 2.42871C14.544 2.42871 13.0963 2.97876 11.9959 4.0791L4.07892 11.9961C1.87844 14.1966 1.87884 17.7875 4.07892 19.9883C6.27953 22.1895 9.87103 22.1903 12.0721 19.9893L16.1971 15.8643C16.2612 15.8178 16.3176 15.7614 16.3641 15.6973L19.9891 12.0723C22.1898 9.87158 22.1898 6.27979 19.9891 4.0791C18.8887 2.97874 17.44 2.42871 15.992 2.42871ZM15.992 3.91895C17.053 3.91895 18.1139 4.32599 18.9276 5.13965C20.5549 6.76696 20.5549 9.38343 18.9276 11.0107L15.7498 14.1895L9.87873 8.31836L13.0565 5.13965C13.8701 4.32599 14.931 3.91895 15.992 3.91895ZM8.81818 9.37891L14.6893 15.25L11.0106 18.9277C9.38263 20.5557 6.76687 20.5565 5.13947 18.9287C5.13947 18.9284 5.13947 18.9281 5.13947 18.9277C3.51216 17.3004 3.51216 14.684 5.13947 13.0566L8.81818 9.37891ZM7.74982 12C7.55091 12 7.36015 12.079 7.21949 12.2197C7.07884 12.3603 6.99982 12.5511 6.99982 12.75C6.99982 12.9489 7.07884 13.1397 7.21949 13.2803C7.36015 13.421 7.55091 13.5 7.74982 13.5C7.94874 13.5 8.1395 13.421 8.28015 13.2803C8.4208 13.1397 8.49982 12.9489 8.49982 12.75C8.49982 12.5511 8.4208 12.3603 8.28015 12.2197C8.1395 12.079 7.94874 12 7.74982 12ZM10.2498 13C10.0509 13 9.86015 13.079 9.71949 13.2197C9.57884 13.3603 9.49982 13.5511 9.49982 13.75C9.49982 13.9489 9.57884 14.1397 9.71949 14.2803C9.86015 14.421 10.0509 14.5 10.2498 14.5C10.4487 14.5 10.6395 14.421 10.7802 14.2803C10.9208 14.1397 10.9998 13.9489 10.9998 13.75C10.9998 13.5511 10.9208 13.3603 10.7802 13.2197C10.6395 13.079 10.4487 13 10.2498 13ZM5.74982 14.5C5.55091 14.5 5.36015 14.579 5.21949 14.7197C5.07884 14.8603 4.99982 15.0511 4.99982 15.25C4.99982 15.4489 5.07884 15.6397 5.21949 15.7803C5.36015 15.921 5.55091 16 5.74982 16C5.94874 16 6.1395 15.921 6.28015 15.7803C6.42081 15.6397 6.49982 15.4489 6.49982 15.25C6.49982 15.0511 6.42081 14.8603 6.28015 14.7197C6.1395 14.579 5.94874 14.5 5.74982 14.5ZM8.24982 15C8.05091 15 7.86015 15.079 7.71949 15.2197C7.57884 15.3603 7.49982 15.5511 7.49982 15.75C7.49982 15.9489 7.57884 16.1397 7.71949 16.2803C7.86015 16.421 8.05091 16.5 8.24982 16.5C8.44874 16.5 8.6395 16.421 8.78015 16.2803C8.9208 16.1397 8.99982 15.9489 8.99982 15.75C8.99982 15.5511 8.9208 15.3603 8.78015 15.2197C8.6395 15.079 8.44874 15 8.24982 15ZM11.2498 15.5C11.0509 15.5 10.8601 15.579 10.7195 15.7197C10.5788 15.8603 10.4998 16.0511 10.4998 16.25C10.4998 16.4489 10.5788 16.6397 10.7195 16.7803C10.8601 16.921 11.0509 17 11.2498 17C11.4487 17 11.6395 16.921 11.7802 16.7803C11.9208 16.6397 11.9998 16.4489 11.9998 16.25C11.9998 16.0511 11.9208 15.8603 11.7802 15.7197C11.6395 15.579 11.4487 15.5 11.2498 15.5ZM6.74982 17C6.55091 17 6.36015 17.079 6.21949 17.2197C6.07884 17.3603 5.99982 17.5511 5.99982 17.75C5.99982 17.9489 6.07884 18.1397 6.21949 18.2803C6.36015 18.421 6.55091 18.5 6.74982 18.5C6.94874 18.5 7.1395 18.421 7.28015 18.2803C7.42081 18.1397 7.49982 17.9489 7.49982 17.75C7.49982 17.5511 7.42081 17.3603 7.28015 17.2197C7.1395 17.079 6.94874 17 6.74982 17ZM9.24982 17.5C9.05091 17.5 8.86015 17.579 8.71949 17.7197C8.57884 17.8603 8.49982 18.0511 8.49982 18.25C8.49982 18.4489 8.57884 18.6397 8.71949 18.7803C8.86015 18.921 9.05091 19 9.24982 19C9.44874 19 9.6395 18.921 9.78015 18.7803C9.9208 18.6397 9.99982 18.4489 9.99982 18.25C9.99982 18.0511 9.9208 17.8603 9.78015 17.7197C9.6395 17.579 9.44874 17.5 9.24982 17.5Z" fill="black"/>
</svg>
