<svg width="24" height="24" viewBox="0 0 24 24" fill="none" xmlns="http://www.w3.org/2000/svg">
<path d="M6.25 3C4.46403 3 3 4.46403 3 6.25V17.75C3 19.536 4.46403 21 6.25 21H17.75C19.536 21 21 19.536 21 17.75V6.25C21 4.46403 19.536 3 17.75 3H6.25ZM6.25 4.5H17.75C18.725 4.5 19.5 5.27497 19.5 6.25V7H4.5V6.25C4.5 5.27497 5.27497 4.5 6.25 4.5ZM4.5 8.5H19.5V17.75C19.5 18.725 18.725 19.5 17.75 19.5H6.25C5.27497 19.5 4.5 18.725 4.5 17.75V8.5ZM7.5 11C7.23478 11 6.98043 11.1054 6.79289 11.2929C6.60536 11.4804 6.5 11.7348 6.5 12C6.5 12.2652 6.60536 12.5196 6.79289 12.7071C6.98043 12.8946 7.23478 13 7.5 13C7.76522 13 8.01957 12.8946 8.20711 12.7071C8.39464 12.5196 8.5 12.2652 8.5 12C8.5 11.7348 8.39464 11.4804 8.20711 11.2929C8.01957 11.1054 7.76522 11 7.5 11ZM12 11C11.7348 11 11.4804 11.1054 11.2929 11.2929C11.1054 11.4804 11 11.7348 11 12C11 12.2652 11.1054 12.5196 11.2929 12.7071C11.4804 12.8946 11.7348 13 12 13C12.2652 13 12.5196 12.8946 12.7071 12.7071C12.8946 12.5196 13 12.2652 13 12C13 11.7348 12.8946 11.4804 12.7071 11.2929C12.5196 11.1054 12.2652 11 12 11ZM16.5 11C16.2348 11 15.9804 11.1054 15.7929 11.2929C15.6054 11.4804 15.5 11.7348 15.5 12C15.5 12.2652 15.6054 12.5196 15.7929 12.7071C15.9804 12.8946 16.2348 13 16.5 13C16.7652 13 17.0196 12.8946 17.2071 12.7071C17.3946 12.5196 17.5 12.2652 17.5 12C17.5 11.7348 17.3946 11.4804 17.2071 11.2929C17.0196 11.1054 16.7652 11 16.5 11ZM12 14.5C11.6022 14.5 11.2206 14.658 10.9393 14.9393C10.658 15.2206 10.5 15.6022 10.5 16C10.5 16.3978 10.658 16.7794 10.9393 17.0607C11.2206 17.342 11.6022 17.5 12 17.5C12.3978 17.5 12.7794 17.342 13.0607 17.0607C13.342 16.7794 13.5 16.3978 13.5 16C13.5 15.6022 13.342 15.2206 13.0607 14.9393C12.7794 14.658 12.3978 14.5 12 14.5ZM7.5 15C7.23478 15 6.98043 15.1054 6.79289 15.2929C6.60536 15.4804 6.5 15.7348 6.5 16C6.5 16.2652 6.60536 16.5196 6.79289 16.7071C6.98043 16.8946 7.23478 17 7.5 17C7.76522 17 8.01957 16.8946 8.20711 16.7071C8.39464 16.5196 8.5 16.2652 8.5 16C8.5 15.7348 8.39464 15.4804 8.20711 15.2929C8.01957 15.1054 7.76522 15 7.5 15Z" fill="black"/>
</svg>
