<svg width="24" height="24" viewBox="0 0 24 24" fill="none" xmlns="http://www.w3.org/2000/svg">
<path d="M6.75 2.5C5.24011 2.5 4 3.74011 4 5.25V16.25C4 17.7599 5.24011 19 6.75 19H14.75C16.2599 19 17.5 17.7599 17.5 16.25V5.25C17.5 3.74011 16.2599 2.5 14.75 2.5H6.75ZM6.75 4H14.75C15.4491 4 16 4.55089 16 5.25V16.25C16 16.9491 15.4491 17.5 14.75 17.5H6.75C6.05089 17.5 5.5 16.9491 5.5 16.25V5.25C5.5 4.55089 6.05089 4 6.75 4ZM18.5 5V16.75C18.5 18.545 17.045 20 15.25 20H6.5L6.90625 20.6094C7.27675 21.1659 7.90131 21.5 8.57031 21.5H15.25C17.8735 21.5 20 19.3735 20 16.75V7.07031C20 6.40181 19.6659 5.77725 19.1094 5.40625L18.5 5ZM10.75 5.5C9.24011 5.5 8 6.74011 8 8.25V8.47168C7.99859 8.57106 8.01696 8.66974 8.05402 8.76196C8.09108 8.85419 8.1461 8.93813 8.21588 9.00891C8.28566 9.07968 8.36882 9.13589 8.46051 9.17425C8.5522 9.21261 8.65061 9.23236 8.75 9.23236C8.84939 9.23236 8.9478 9.21261 9.03949 9.17425C9.13118 9.13589 9.21434 9.07968 9.28412 9.00891C9.3539 8.93813 9.40892 8.85419 9.44598 8.76196C9.48304 8.66974 9.50141 8.57106 9.5 8.47168V8.25C9.5 7.55089 10.0509 7 10.75 7C11.4491 7 12 7.55089 12 8.25C12 8.75885 11.9081 8.989 11.8047 9.15137C11.7012 9.31373 11.5467 9.44051 11.2949 9.63281C11.0432 9.82511 10.6955 10.0843 10.4258 10.5176C10.1561 10.9509 10 11.525 10 12.25C9.99859 12.3494 10.017 12.4481 10.054 12.5403C10.0911 12.6325 10.1461 12.7164 10.2159 12.7872C10.2857 12.858 10.3688 12.9142 10.4605 12.9526C10.5522 12.9909 10.6506 13.0107 10.75 13.0107C10.8494 13.0107 10.9478 12.9909 11.0395 12.9526C11.1312 12.9142 11.2143 12.858 11.2841 12.7872C11.3539 12.7164 11.4089 12.6325 11.446 12.5403C11.483 12.4481 11.5014 12.3494 11.5 12.25C11.5 11.725 11.5939 11.4797 11.6992 11.3105C11.8045 11.1414 11.9568 11.0148 12.2051 10.8252C12.4533 10.6356 12.7988 10.3842 13.0703 9.95801C13.3419 9.53182 13.5 8.9634 13.5 8.25C13.5 6.74011 12.2599 5.5 10.75 5.5ZM10.75 14C10.4848 14 10.2304 14.1054 10.0429 14.2929C9.85536 14.4804 9.75 14.7348 9.75 15C9.75 15.2652 9.85536 15.5196 10.0429 15.7071C10.2304 15.8946 10.4848 16 10.75 16C11.0152 16 11.2696 15.8946 11.4571 15.7071C11.6446 15.5196 11.75 15.2652 11.75 15C11.75 14.7348 11.6446 14.4804 11.4571 14.2929C11.2696 14.1054 11.0152 14 10.75 14Z" fill="black"/>
</svg>
