<svg width="24" height="24" viewBox="0 0 24 24" fill="none" xmlns="http://www.w3.org/2000/svg">
<path d="M5.23828 2.98926C5.03954 2.99236 4.85016 3.07423 4.71173 3.21686C4.5733 3.3595 4.49715 3.55125 4.5 3.75V7.25C4.49999 7.25195 4.49999 7.25391 4.5 7.25586C4.50049 7.27609 4.50179 7.29628 4.50391 7.31641C4.50418 7.32162 4.5045 7.32683 4.50488 7.33203C4.50642 7.34641 4.50838 7.36074 4.51074 7.375C4.51346 7.39138 4.51671 7.40766 4.52051 7.42383C4.52146 7.42709 4.52244 7.43035 4.52344 7.43359C4.52742 7.45035 4.53198 7.46696 4.53711 7.4834C4.54378 7.50323 4.55127 7.52278 4.55957 7.54199C4.56869 7.56328 4.57879 7.58414 4.58984 7.60449C4.59113 7.6071 4.59243 7.60971 4.59375 7.6123C4.60289 7.62895 4.61267 7.64523 4.62305 7.66113C4.62781 7.66838 4.63269 7.67554 4.6377 7.68262C4.64735 7.69597 4.65745 7.70899 4.66797 7.72168C4.67308 7.72795 4.67829 7.73413 4.68359 7.74023C4.69366 7.75195 4.70408 7.76335 4.71484 7.77441C4.72155 7.78138 4.72838 7.78822 4.73535 7.79492C4.74705 7.80605 4.7591 7.8168 4.77148 7.82715C4.77791 7.83247 4.78442 7.83767 4.79102 7.84277C4.80589 7.85441 4.8212 7.86549 4.83691 7.87598C4.84112 7.87862 4.84535 7.88123 4.84961 7.88379C4.86709 7.89461 4.88501 7.90471 4.90332 7.91406C4.90785 7.91639 4.91241 7.91867 4.91699 7.9209C4.93048 7.92749 4.94415 7.93368 4.95801 7.93945C4.96896 7.94427 4.98004 7.94883 4.99121 7.95312C5.00379 7.9577 5.01649 7.96193 5.0293 7.96582C5.04157 7.96972 5.05395 7.9733 5.06641 7.97656C5.07483 7.97866 5.0833 7.98062 5.0918 7.98242C5.10862 7.98593 5.12556 7.98886 5.14258 7.99121C5.15232 7.99271 5.16208 7.99401 5.17188 7.99512C5.18422 7.9964 5.19659 7.99738 5.20898 7.99805C5.21939 7.99892 5.22981 7.99957 5.24023 8C5.24349 8.00002 5.24674 8.00002 5.25 8H8.75C8.84938 8.00141 8.94806 7.98304 9.04028 7.94598C9.13251 7.90892 9.21645 7.8539 9.28723 7.78412C9.358 7.71434 9.41421 7.63118 9.45257 7.53949C9.49093 7.4478 9.51068 7.34939 9.51068 7.25C9.51068 7.15061 9.49093 7.0522 9.45257 6.96051C9.41421 6.86882 9.358 6.78566 9.28723 6.71588C9.21645 6.6461 9.13251 6.59108 9.04028 6.55402C8.94806 6.51696 8.84938 6.49859 8.75 6.5H6.9248C8.25978 5.26375 10.0329 4.5 12 4.5C16.1512 4.5 19.5 7.8488 19.5 12C19.5 16.1512 16.1512 19.5 12 19.5C7.8488 19.5 4.5 16.1512 4.5 12C4.5 11.6239 4.53739 11.2465 4.5957 10.8623C4.61403 10.7634 4.61228 10.6618 4.59055 10.5636C4.56883 10.4654 4.52758 10.3726 4.46926 10.2907C4.41094 10.2087 4.33673 10.1394 4.25105 10.0867C4.16538 10.034 4.06999 9.9991 3.97055 9.98404C3.87111 9.96897 3.76965 9.97406 3.67222 9.99899C3.57478 10.0239 3.48336 10.0682 3.40338 10.1292C3.32341 10.1902 3.25651 10.2666 3.20667 10.354C3.15683 10.4413 3.12507 10.5378 3.11328 10.6377C3.04759 11.0705 3 11.5241 3 12C3 16.9618 7.0382 21 12 21C16.9618 21 21 16.9618 21 12C21 7.0382 16.9618 3 12 3C9.69534 3 7.59206 3.87357 6 5.30273V3.75C6.00144 3.64962 5.98271 3.54997 5.94493 3.45695C5.90715 3.36394 5.85108 3.27946 5.78005 3.20852C5.70901 3.13757 5.62446 3.08161 5.5314 3.04395C5.43834 3.00629 5.33866 2.98769 5.23828 2.98926Z" fill="black"/>
</svg>
