<svg width="21" height="20" viewBox="0 0 21 20" fill="none" xmlns="http://www.w3.org/2000/svg">
<path d="M18.8332 6.45842C18.6674 6.45842 18.5084 6.39257 18.3912 6.27536C18.274 6.15815 18.2082 5.99918 18.2082 5.83342V3.33341C18.2077 3.05728 18.0978 2.79259 17.9026 2.59733C17.7073 2.40208 17.4426 2.29219 17.1665 2.29175H14.6665C14.5007 2.29175 14.3418 2.2259 14.2246 2.10869C14.1074 1.99148 14.0415 1.83251 14.0415 1.66675C14.0415 1.50099 14.1074 1.34202 14.2246 1.22481C14.3418 1.1076 14.5007 1.04175 14.6665 1.04175H17.1665C17.7742 1.04219 18.3568 1.28377 18.7865 1.71345C19.2161 2.14312 19.4577 2.72576 19.4582 3.33341V5.83342C19.4582 5.99918 19.3923 6.15815 19.2751 6.27536C19.1579 6.39257 18.9989 6.45842 18.8332 6.45842ZM2.1665 6.45842C2.00074 6.45842 1.84177 6.39257 1.72456 6.27536C1.60735 6.15815 1.5415 5.99918 1.5415 5.83342V3.33341C1.54195 2.72576 1.78353 2.14312 2.21321 1.71345C2.64288 1.28377 3.22552 1.04219 3.83317 1.04175H6.33317C6.49893 1.04175 6.6579 1.1076 6.77511 1.22481C6.89232 1.34202 6.95817 1.50099 6.95817 1.66675C6.95817 1.83251 6.89232 1.99148 6.77511 2.10869C6.6579 2.2259 6.49893 2.29175 6.33317 2.29175H3.83317C3.55704 2.29219 3.29234 2.40208 3.09709 2.59733C2.90183 2.79259 2.79194 3.05728 2.7915 3.33341V5.83342C2.7915 5.99918 2.72566 6.15815 2.60845 6.27536C2.49124 6.39257 2.33226 6.45842 2.1665 6.45842ZM6.33317 18.9584H3.83317C3.22552 18.958 2.64288 18.7164 2.21321 18.2867C1.78353 17.857 1.54195 17.2744 1.5415 16.6667V14.1667C1.5415 14.001 1.60735 13.842 1.72456 13.7248C1.84177 13.6076 2.00074 13.5417 2.1665 13.5417C2.33226 13.5417 2.49124 13.6076 2.60845 13.7248C2.72566 13.842 2.7915 14.001 2.7915 14.1667V16.6667C2.79194 16.9429 2.90183 17.2076 3.09709 17.4028C3.29234 17.5981 3.55704 17.708 3.83317 17.7084H6.33317C6.49893 17.7084 6.6579 17.7743 6.77511 17.8915C6.89232 18.0087 6.95817 18.1677 6.95817 18.3334C6.95817 18.4992 6.89232 18.6581 6.77511 18.7754C6.6579 18.8926 6.49893 18.9584 6.33317 18.9584ZM17.1665 18.9584H14.6665C14.5007 18.9584 14.3418 18.8926 14.2246 18.7754C14.1074 18.6581 14.0415 18.4992 14.0415 18.3334C14.0415 18.1677 14.1074 18.0087 14.2246 17.8915C14.3418 17.7743 14.5007 17.7084 14.6665 17.7084H17.1665C17.4426 17.708 17.7073 17.5981 17.9026 17.4028C18.0978 17.2076 18.2077 16.9429 18.2082 16.6667V14.1667C18.2082 14.001 18.274 13.842 18.3912 13.7248C18.5084 13.6076 18.6674 13.5417 18.8332 13.5417C18.9989 13.5417 19.1579 13.6076 19.2751 13.7248C19.3923 13.842 19.4582 14.001 19.4582 14.1667V16.6667C19.4577 17.2744 19.2161 17.857 18.7865 18.2867C18.3568 18.7164 17.7742 18.958 17.1665 18.9584ZM13.8332 15.6251H7.1665C6.55885 15.6246 5.97621 15.3831 5.54654 14.9534C5.11686 14.5237 4.87528 13.9411 4.87484 13.3334V6.66675C4.87528 6.0591 5.11686 5.47646 5.54654 5.04678C5.97621 4.61711 6.55885 4.37552 7.1665 4.37508H13.8332C14.4408 4.37552 15.0235 4.61711 15.4531 5.04678C15.8828 5.47646 16.1244 6.0591 16.1248 6.66675V13.3334C16.1244 13.9411 15.8828 14.5237 15.4531 14.9534C15.0235 15.3831 14.4408 15.6246 13.8332 15.6251ZM7.1665 5.62508C6.89037 5.62552 6.62568 5.73541 6.43042 5.93067C6.23517 6.12592 6.12528 6.39062 6.12484 6.66675V13.3334C6.12528 13.6095 6.23517 13.8742 6.43042 14.0695C6.62568 14.2648 6.89037 14.3746 7.1665 14.3751H13.8332C14.1093 14.3746 14.374 14.2648 14.5693 14.0695C14.7645 13.8742 14.8744 13.6095 14.8748 13.3334V6.66675C14.8744 6.39062 14.7645 6.12592 14.5693 5.93067C14.374 5.73541 14.1093 5.62552 13.8332 5.62508H7.1665Z" fill="black"/>
</svg>
