<svg width="24" height="24" viewBox="0 0 24 24" fill="none" xmlns="http://www.w3.org/2000/svg">
<path d="M3.13889 3.5C1.96864 3.5 1 4.45649 1 5.61207V17.681C1 18.8366 1.96864 19.7931 3.13889 19.7931H9.9005C10.3208 20.5123 11.0976 21 12 21C12.9024 21 13.6792 20.5123 14.0995 19.7931H20.8611C22.0314 19.7931 23 18.8366 23 17.681V5.61207C23 4.45649 22.0314 3.5 20.8611 3.5H14.4444C13.3797 3.5 12.467 4.02966 11.8496 4.80119C11.1213 4.01455 10.0992 3.5 8.94444 3.5H3.13889ZM3.13889 5.31034H8.94444C10.125 5.31034 11.0833 6.25666 11.0833 7.42241V17.9828H3.13889C2.95858 17.9828 2.83333 17.8591 2.83333 17.681V5.61207C2.83333 5.43402 2.95858 5.31034 3.13889 5.31034ZM14.4444 5.31034H20.8611C21.0414 5.31034 21.1667 5.43402 21.1667 5.61207V17.681C21.1667 17.8591 21.0414 17.9828 20.8611 17.9828H12.9167V7.42241V6.81896C12.9167 5.97521 13.59 5.31034 14.4444 5.31034Z" fill="black"/>
</svg>
