<svg width="24" height="24" viewBox="0 0 24 24" fill="none" xmlns="http://www.w3.org/2000/svg">
<path d="M7.75 2.5C5.96403 2.5 4.5 3.96403 4.5 5.75V17H2.75C2.0682 17 1.5 17.5682 1.5 18.25V19.25C1.5 20.4838 2.51625 21.5 3.75 21.5H17.25C18.4838 21.5 19.5 20.4838 19.5 19.25V7H21.25C21.9318 7 22.5 6.4318 22.5 5.75V4.75C22.5 3.55663 21.5469 2.57524 20.3682 2.51172C20.3291 2.5047 20.2896 2.50078 20.25 2.5H7.75ZM7.75 4H18.1533C18.0673 4.23724 18 4.4847 18 4.75V6.12695C17.9868 6.20747 17.9868 6.2896 18 6.37012V19.25C18 19.6733 17.6733 20 17.25 20C16.8268 20 16.5 19.6733 16.5 19.25V18.25C16.5 17.5682 15.9318 17 15.25 17H6V5.75C6 4.77497 6.77497 4 7.75 4ZM20.25 4C20.6733 4 21 4.32675 21 4.75V5.5H19.5V4.75C19.5 4.32675 19.8267 4 20.25 4ZM8.75 6.5C8.65062 6.49859 8.55194 6.51696 8.45972 6.55402C8.36749 6.59108 8.28355 6.6461 8.21277 6.71588C8.142 6.78566 8.08579 6.86882 8.04743 6.96051C8.00907 7.0522 7.98932 7.15061 7.98932 7.25C7.98932 7.34939 8.00907 7.4478 8.04743 7.53949C8.08579 7.63118 8.142 7.71434 8.21277 7.78412C8.28355 7.8539 8.36749 7.90892 8.45972 7.94598C8.55194 7.98304 8.65062 8.00141 8.75 8H15.25C15.3494 8.00141 15.4481 7.98304 15.5403 7.94598C15.6325 7.90892 15.7164 7.8539 15.7872 7.78412C15.858 7.71434 15.9142 7.63118 15.9526 7.53949C15.9909 7.4478 16.0107 7.34939 16.0107 7.25C16.0107 7.15061 15.9909 7.0522 15.9526 6.96051C15.9142 6.86882 15.858 6.78566 15.7872 6.71588C15.7164 6.6461 15.6325 6.59108 15.5403 6.55402C15.4481 6.51696 15.3494 6.49859 15.25 6.5H8.75ZM8.75 10C8.65062 9.99859 8.55194 10.017 8.45972 10.054C8.36749 10.0911 8.28355 10.1461 8.21277 10.2159C8.142 10.2857 8.08579 10.3688 8.04743 10.4605C8.00907 10.5522 7.98932 10.6506 7.98932 10.75C7.98932 10.8494 8.00907 10.9478 8.04743 11.0395C8.08579 11.1312 8.142 11.2143 8.21277 11.2841C8.28355 11.3539 8.36749 11.4089 8.45972 11.446C8.55194 11.483 8.65062 11.5014 8.75 11.5H15.25C15.3494 11.5014 15.4481 11.483 15.5403 11.446C15.6325 11.4089 15.7164 11.3539 15.7872 11.2841C15.858 11.2143 15.9142 11.1312 15.9526 11.0395C15.9909 10.9478 16.0107 10.8494 16.0107 10.75C16.0107 10.6506 15.9909 10.5522 15.9526 10.4605C15.9142 10.3688 15.858 10.2857 15.7872 10.2159C15.7164 10.1461 15.6325 10.0911 15.5403 10.054C15.4481 10.017 15.3494 9.99859 15.25 10H8.75ZM8.75 13.5C8.65062 13.4986 8.55194 13.517 8.45972 13.554C8.36749 13.5911 8.28355 13.6461 8.21277 13.7159C8.142 13.7857 8.08579 13.8688 8.04743 13.9605C8.00907 14.0522 7.98932 14.1506 7.98932 14.25C7.98932 14.3494 8.00907 14.4478 8.04743 14.5395C8.08579 14.6312 8.142 14.7143 8.21277 14.7841C8.28355 14.8539 8.36749 14.9089 8.45972 14.946C8.55194 14.983 8.65062 15.0014 8.75 15H14.25C14.3494 15.0014 14.4481 14.983 14.5403 14.946C14.6325 14.9089 14.7164 14.8539 14.7872 14.7841C14.858 14.7143 14.9142 14.6312 14.9526 14.5395C14.9909 14.4478 15.0107 14.3494 15.0107 14.25C15.0107 14.1506 14.9909 14.0522 14.9526 13.9605C14.9142 13.8688 14.858 13.7857 14.7872 13.7159C14.7164 13.6461 14.6325 13.5911 14.5403 13.554C14.4481 13.517 14.3494 13.4986 14.25 13.5H8.75ZM3 18.5H5.12695C5.20747 18.5132 5.2896 18.5132 5.37012 18.5H15V19.25C15 19.5153 15.0673 19.7628 15.1533 20H3.75C3.32675 20 3 19.6733 3 19.25V18.5Z" fill="black"/>
</svg>
