<svg width="24" height="24" viewBox="0 0 24 24" fill="none" xmlns="http://www.w3.org/2000/svg">
<path d="M12.0244 0.999999C11.831 0.993964 11.6428 1.06289 11.499 1.19238C11.499 1.19238 7.74508 4.5 3.25 4.5C3.05109 4.50002 2.86034 4.57904 2.71969 4.71969C2.57904 4.86034 2.50002 5.05109 2.5 5.25V11.3799C2.5 14.7189 4.04471 20.2132 11.709 23.4414C11.8011 23.4802 11.9 23.5002 12 23.5002C12.1 23.5002 12.1989 23.4802 12.291 23.4414C19.9553 20.2132 21.5 14.7189 21.5 11.3799V5.25C21.5 5.05109 21.421 4.86034 21.2803 4.71969C21.1397 4.57904 20.9489 4.50002 20.75 4.5C16.2549 4.5 12.501 1.19238 12.501 1.19238C12.3697 1.07414 12.201 1.00601 12.0244 0.999999ZM12 2.71387C13.0315 3.54318 16.0556 5.66859 20 5.9375V11.3799C20 14.251 18.8967 18.8828 12 21.9131C5.10328 18.8828 4 14.251 4 11.3799V5.9375C7.94437 5.66859 10.9685 3.54318 12 2.71387ZM12 8C11.4753 8 10.9639 8.16509 10.5382 8.47189C10.1126 8.77869 9.79422 9.21165 9.62829 9.70943C9.46237 10.2072 9.45727 10.7446 9.61372 11.2454C9.77017 11.7463 10.0802 12.1852 10.5 12.5V15C10.5 15.8285 11.1715 16.5 12 16.5C12.8285 16.5 13.5 15.8285 13.5 15V12.4961C13.9181 12.1808 14.2267 11.7421 14.3822 11.242C14.5376 10.7419 14.5321 10.2056 14.3663 9.70881C14.2006 9.21202 13.883 8.77982 13.4584 8.47322C13.0339 8.16661 12.5237 8.00109 12 8Z" fill="black"/>
</svg>
