<svg width="24" height="24" viewBox="0 0 24 24" fill="none" xmlns="http://www.w3.org/2000/svg">
<path d="M18 2.5C16.0759 2.5 14.5 4.07589 14.5 6C14.5 6.29288 14.5993 6.55473 14.668 6.82715L8.67285 9.82617C8.02956 9.03697 7.09075 8.5 6 8.5C4.07589 8.5 2.5 10.0759 2.5 12C2.5 13.9241 4.07589 15.5 6 15.5C7.09075 15.5 8.02956 14.963 8.67285 14.1738L14.668 17.1729C14.5993 17.4453 14.5 17.7071 14.5 18C14.5 19.9241 16.0759 21.5 18 21.5C19.9241 21.5 21.5 19.9241 21.5 18C21.5 16.0759 19.9241 14.5 18 14.5C16.9092 14.5 15.9704 15.037 15.3271 15.8262L9.33203 12.8271C9.40073 12.5547 9.5 12.2929 9.5 12C9.5 11.7071 9.40073 11.4453 9.33203 11.1729L15.3271 8.17383C15.9704 8.96303 16.9092 9.5 18 9.5C19.9241 9.5 21.5 7.92411 21.5 6C21.5 4.07589 19.9241 2.5 18 2.5ZM18 4C19.1135 4 20 4.88655 20 6C20 7.11345 19.1135 8 18 8C16.8865 8 16 7.11345 16 6C16 4.88655 16.8865 4 18 4ZM6 10C7.11345 10 8 10.8865 8 12C8 13.1135 7.11345 14 6 14C4.88655 14 4 13.1135 4 12C4 10.8865 4.88655 10 6 10ZM18 16C19.1135 16 20 16.8865 20 18C20 19.1135 19.1135 20 18 20C16.8865 20 16 19.1135 16 18C16 16.8865 16.8865 16 18 16Z" fill="black"/>
</svg>
