<svg width="24" height="24" viewBox="0 0 24 24" fill="none" xmlns="http://www.w3.org/2000/svg">
<path d="M12 2C6.48603 2 2 6.48604 2 12C2 17.514 6.48603 22 12 22C17.514 22 22 17.514 22 12C22 6.48604 17.514 2 12 2ZM12 3.5C16.7033 3.5 20.5 7.2967 20.5 12C20.5 16.7033 16.7033 20.5 12 20.5C7.29669 20.5 3.5 16.7033 3.5 12C3.5 7.2967 7.29669 3.5 12 3.5ZM11.9893 9C11.7941 9.00285 11.6077 9.08168 11.4697 9.21973L7.46973 13.2197C7.39775 13.2888 7.34028 13.3716 7.3007 13.4632C7.26111 13.5548 7.2402 13.6534 7.23918 13.7532C7.23817 13.8529 7.25707 13.9519 7.29479 14.0443C7.33251 14.1367 7.38828 14.2206 7.45883 14.2912C7.52939 14.3617 7.61332 14.4175 7.7057 14.4552C7.79808 14.4929 7.89706 14.5118 7.99684 14.5108C8.09662 14.5098 8.1952 14.4889 8.28679 14.4493C8.37839 14.4097 8.46116 14.3523 8.53027 14.2803L12 10.8105L15.4697 14.2803C15.5388 14.3523 15.6216 14.4097 15.7132 14.4493C15.8048 14.4889 15.9034 14.5098 16.0032 14.5108C16.1029 14.5118 16.2019 14.4929 16.2943 14.4552C16.3867 14.4175 16.4706 14.3617 16.5412 14.2912C16.6117 14.2206 16.6675 14.1367 16.7052 14.0443C16.7429 13.9519 16.7618 13.8529 16.7608 13.7532C16.7598 13.6534 16.7389 13.5548 16.6993 13.4632C16.6597 13.3716 16.6023 13.2888 16.5303 13.2197L12.5303 9.21973C12.4594 9.14879 12.375 9.0928 12.282 9.05505C12.1891 9.01731 12.0895 8.99859 11.9893 9Z" fill="black"/>
</svg>
