<svg width="24" height="24" viewBox="0 0 24 24" fill="none" xmlns="http://www.w3.org/2000/svg">
<path d="M11.4802 3.499C11.5224 3.39583 11.5945 3.30758 11.6871 3.24546C11.7797 3.18334 11.8886 3.15018 12.0002 3.15018C12.1117 3.15018 12.2206 3.18334 12.3132 3.24546C12.4058 3.30758 12.4779 3.39583 12.5202 3.499L14.6452 8.61C14.6849 8.70564 14.7503 8.78844 14.8341 8.84931C14.9179 8.91018 15.0169 8.94675 15.1202 8.955L20.6382 9.397C21.1372 9.437 21.3392 10.06 20.9592 10.385L16.7551 13.987C16.6766 14.0542 16.6181 14.1417 16.586 14.24C16.5539 14.3382 16.5494 14.4434 16.5732 14.544L17.8582 19.929C17.884 20.037 17.8772 20.1503 17.8387 20.2545C17.8002 20.3587 17.7317 20.4491 17.6418 20.5144C17.5519 20.5797 17.4447 20.6169 17.3337 20.6212C17.2227 20.6256 17.1129 20.597 17.0182 20.539L12.2932 17.654C12.2049 17.6002 12.1035 17.5717 12.0002 17.5717C11.8968 17.5717 11.7954 17.6002 11.7072 17.654L6.98215 20.54C6.88741 20.598 6.7776 20.6266 6.66661 20.6222C6.55561 20.6179 6.4484 20.5807 6.35852 20.5154C6.26864 20.4501 6.20011 20.3597 6.1616 20.2555C6.12309 20.1513 6.11632 20.038 6.14215 19.93L7.42715 14.544C7.45098 14.4434 7.4466 14.3382 7.41449 14.2399C7.38238 14.1416 7.32379 14.0541 7.24515 13.987L3.04115 10.385C2.95696 10.3126 2.89606 10.2169 2.8661 10.11C2.83614 10.0031 2.83846 9.88974 2.87277 9.78415C2.90707 9.67855 2.97184 9.58546 3.05892 9.51657C3.14599 9.44769 3.25149 9.40609 3.36215 9.397L8.88015 8.955C8.9834 8.94675 9.08237 8.91018 9.16618 8.84931C9.24998 8.78844 9.31537 8.70564 9.35515 8.61L11.4802 3.499Z" stroke="black" stroke-width="1.5" stroke-linecap="round" stroke-linejoin="round"/>
</svg>
