<svg width="24" height="24" viewBox="0 0 24 24" fill="none" xmlns="http://www.w3.org/2000/svg">
<path d="M22 8.27907C22 6.86512 20.8558 5.72093 19.4419 5.72093C18.0279 5.72093 16.8837 6.86512 16.8837 8.27907C16.8837 9.44186 17.6744 10.4186 18.7442 10.7256V15.7209C18.7442 18.4186 16.5581 20.6047 13.8605 20.6047C11.1628 20.6047 8.97674 18.4186 8.97674 15.7209V14.5209C12.1116 14.1767 14.5581 11.507 14.5581 8.27907V3.62791C14.5581 2.73488 13.8233 2 12.9302 2H12C11.6186 2 11.3023 2.31628 11.3023 2.69767C11.3023 3.07907 11.6186 3.39535 12 3.39535H12.9302C13.0605 3.39535 13.1628 3.49767 13.1628 3.62791V8.27907C13.1628 10.9767 10.9767 13.1628 8.27907 13.1628C5.5814 13.1628 3.39535 10.9767 3.39535 8.27907V3.62791C3.39535 3.49767 3.49767 3.39535 3.62791 3.39535H4.55814C4.93953 3.39535 5.25581 3.07907 5.25581 2.69767C5.25581 2.31628 4.93953 2 4.55814 2H3.62791C2.73488 2 2 2.73488 2 3.62791V8.27907C2 11.507 4.44651 14.1674 7.5814 14.5209V15.7209C7.5814 19.1814 10.4 22 13.8605 22C17.3209 22 20.1395 19.1814 20.1395 15.7209V10.7256C21.2093 10.4186 22 9.44186 22 8.27907ZM19.4419 9.44186C18.8 9.44186 18.2791 8.92093 18.2791 8.27907C18.2791 7.63721 18.8 7.11628 19.4419 7.11628C20.0837 7.11628 20.6047 7.63721 20.6047 8.27907C20.6047 8.92093 20.0837 9.44186 19.4419 9.44186Z" fill="black"/>
</svg>
