<svg width="24" height="24" viewBox="0 0 24 24" fill="none" xmlns="http://www.w3.org/2000/svg">
<path d="M2.75 3.5C1.79252 3.5 1 4.29252 1 5.25V18.75C1 19.7075 1.79252 20.5 2.75 20.5H10.2822C10.6261 21.0959 11.2617 21.5 12 21.5C12.7383 21.5 13.3739 21.0959 13.7178 20.5H21.25C22.2075 20.5 23 19.7075 23 18.75V5.25C23 4.29252 22.2075 3.5 21.25 3.5H14C13.2076 3.5 12.5035 3.85263 12 4.39551C11.4965 3.85263 10.7924 3.5 10 3.5H2.75ZM2.75 5H10C10.6991 5 11.25 5.55089 11.25 6.25V19H2.75C2.60248 19 2.5 18.8975 2.5 18.75V5.25C2.5 5.10248 2.60248 5 2.75 5ZM14 5H21.25C21.3975 5 21.5 5.10248 21.5 5.25V18.75C21.5 18.8975 21.3975 19 21.25 19H12.75V6.25C12.75 5.55089 13.3009 5 14 5ZM4.75 7.75C4.65062 7.74859 4.55194 7.76696 4.45972 7.80402C4.36749 7.84108 4.28355 7.8961 4.21277 7.96588C4.142 8.03566 4.08579 8.11882 4.04743 8.21051C4.00907 8.3022 3.98932 8.40061 3.98932 8.5C3.98932 8.59939 4.00907 8.6978 4.04743 8.78949C4.08579 8.88118 4.142 8.96434 4.21277 9.03412C4.28355 9.1039 4.36749 9.15892 4.45972 9.19598C4.55194 9.23304 4.65062 9.25141 4.75 9.25H9C9.09938 9.25141 9.19806 9.23304 9.29028 9.19598C9.38251 9.15892 9.46645 9.1039 9.53723 9.03412C9.608 8.96434 9.66421 8.88118 9.70257 8.78949C9.74093 8.6978 9.76068 8.59939 9.76068 8.5C9.76068 8.40061 9.74093 8.3022 9.70257 8.21051C9.66421 8.11882 9.608 8.03566 9.53723 7.96588C9.46645 7.8961 9.38251 7.84108 9.29028 7.80402C9.19806 7.76696 9.09938 7.74859 9 7.75H4.75ZM15 7.75C14.9006 7.74859 14.8019 7.76696 14.7097 7.80402C14.6175 7.84108 14.5336 7.8961 14.4628 7.96588C14.392 8.03566 14.3358 8.11882 14.2974 8.21051C14.2591 8.3022 14.2393 8.40061 14.2393 8.5C14.2393 8.59939 14.2591 8.6978 14.2974 8.78949C14.3358 8.88118 14.392 8.96434 14.4628 9.03412C14.5336 9.1039 14.6175 9.15892 14.7097 9.19598C14.8019 9.23304 14.9006 9.25141 15 9.25H19.25C19.3494 9.25141 19.4481 9.23304 19.5403 9.19598C19.6325 9.15892 19.7164 9.1039 19.7872 9.03412C19.858 8.96434 19.9142 8.88118 19.9526 8.78949C19.9909 8.6978 20.0107 8.59939 20.0107 8.5C20.0107 8.40061 19.9909 8.3022 19.9526 8.21051C19.9142 8.11882 19.858 8.03566 19.7872 7.96588C19.7164 7.8961 19.6325 7.84108 19.5403 7.80402C19.4481 7.76696 19.3494 7.74859 19.25 7.75H15ZM4.75 11.25C4.65062 11.2486 4.55194 11.267 4.45972 11.304C4.36749 11.3411 4.28355 11.3961 4.21277 11.4659C4.142 11.5357 4.08579 11.6188 4.04743 11.7105C4.00907 11.8022 3.98932 11.9006 3.98932 12C3.98932 12.0994 4.00907 12.1978 4.04743 12.2895C4.08579 12.3812 4.142 12.4643 4.21277 12.5341C4.28355 12.6039 4.36749 12.6589 4.45972 12.696C4.55194 12.733 4.65062 12.7514 4.75 12.75H9C9.09938 12.7514 9.19806 12.733 9.29028 12.696C9.38251 12.6589 9.46645 12.6039 9.53723 12.5341C9.608 12.4643 9.66421 12.3812 9.70257 12.2895C9.74093 12.1978 9.76068 12.0994 9.76068 12C9.76068 11.9006 9.74093 11.8022 9.70257 11.7105C9.66421 11.6188 9.608 11.5357 9.53723 11.4659C9.46645 11.3961 9.38251 11.3411 9.29028 11.304C9.19806 11.267 9.09938 11.2486 9 11.25H4.75ZM15 11.25C14.9006 11.2486 14.8019 11.267 14.7097 11.304C14.6175 11.3411 14.5336 11.3961 14.4628 11.4659C14.392 11.5357 14.3358 11.6188 14.2974 11.7105C14.2591 11.8022 14.2393 11.9006 14.2393 12C14.2393 12.0994 14.2591 12.1978 14.2974 12.2895C14.3358 12.3812 14.392 12.4643 14.4628 12.5341C14.5336 12.6039 14.6175 12.6589 14.7097 12.696C14.8019 12.733 14.9006 12.7514 15 12.75H19.25C19.3494 12.7514 19.4481 12.733 19.5403 12.696C19.6325 12.6589 19.7164 12.6039 19.7872 12.5341C19.858 12.4643 19.9142 12.3812 19.9526 12.2895C19.9909 12.1978 20.0107 12.0994 20.0107 12C20.0107 11.9006 19.9909 11.8022 19.9526 11.7105C19.9142 11.6188 19.858 11.5357 19.7872 11.4659C19.7164 11.3961 19.6325 11.3411 19.5403 11.304C19.4481 11.267 19.3494 11.2486 19.25 11.25H15ZM4.75 14.75C4.65062 14.7486 4.55194 14.767 4.45972 14.804C4.36749 14.8411 4.28355 14.8961 4.21277 14.9659C4.142 15.0357 4.08579 15.1188 4.04743 15.2105C4.00907 15.3022 3.98932 15.4006 3.98932 15.5C3.98932 15.5994 4.00907 15.6978 4.04743 15.7895C4.08579 15.8812 4.142 15.9643 4.21277 16.0341C4.28355 16.1039 4.36749 16.1589 4.45972 16.196C4.55194 16.233 4.65062 16.2514 4.75 16.25H9C9.09938 16.2514 9.19806 16.233 9.29028 16.196C9.38251 16.1589 9.46645 16.1039 9.53723 16.0341C9.608 15.9643 9.66421 15.8812 9.70257 15.7895C9.74093 15.6978 9.76068 15.5994 9.76068 15.5C9.76068 15.4006 9.74093 15.3022 9.70257 15.2105C9.66421 15.1188 9.608 15.0357 9.53723 14.9659C9.46645 14.8961 9.38251 14.8411 9.29028 14.804C9.19806 14.767 9.09938 14.7486 9 14.75H4.75ZM15 14.75C14.9006 14.7486 14.8019 14.767 14.7097 14.804C14.6175 14.8411 14.5336 14.8961 14.4628 14.9659C14.392 15.0357 14.3358 15.1188 14.2974 15.2105C14.2591 15.3022 14.2393 15.4006 14.2393 15.5C14.2393 15.5994 14.2591 15.6978 14.2974 15.7895C14.3358 15.8812 14.392 15.9643 14.4628 16.0341C14.5336 16.1039 14.6175 16.1589 14.7097 16.196C14.8019 16.233 14.9006 16.2514 15 16.25H18.25C18.3494 16.2514 18.4481 16.233 18.5403 16.196C18.6325 16.1589 18.7164 16.1039 18.7872 16.0341C18.858 15.9643 18.9142 15.8812 18.9526 15.7895C18.9909 15.6978 19.0107 15.5994 19.0107 15.5C19.0107 15.4006 18.9909 15.3022 18.9526 15.2105C18.9142 15.1188 18.858 15.0357 18.7872 14.9659C18.7164 14.8961 18.6325 14.8411 18.5403 14.804C18.4481 14.767 18.3494 14.7486 18.25 14.75H15Z" fill="black"/>
</svg>
