<svg width="24" height="24" viewBox="0 0 24 24" fill="none" xmlns="http://www.w3.org/2000/svg">
<path d="M17.7423 1.49219C17.593 1.49222 17.4471 1.53679 17.3234 1.62019C17.1996 1.70358 17.1035 1.82202 17.0474 1.96033C16.9913 2.09865 16.9777 2.25056 17.0084 2.39662C17.0391 2.54269 17.1127 2.67627 17.2198 2.78027L17.9395 3.5H5.25008C3.46411 3.5 2.00008 4.96403 2.00008 6.75V15.75C1.99867 15.8494 2.01703 15.9481 2.05409 16.0403C2.09115 16.1325 2.14617 16.2164 2.21595 16.2872C2.28574 16.358 2.36889 16.4142 2.46059 16.4526C2.55228 16.4909 2.65068 16.5107 2.75007 16.5107C2.84947 16.5107 2.94787 16.4909 3.03956 16.4526C3.13126 16.4142 3.21441 16.358 3.2842 16.2872C3.35398 16.2164 3.409 16.1325 3.44606 16.0403C3.48312 15.9481 3.50148 15.8494 3.50007 15.75V6.75C3.50007 5.77497 4.27504 5 5.25008 5H17.9395L17.2198 5.71973C17.1478 5.78884 17.0904 5.87161 17.0508 5.96321C17.0112 6.0548 16.9903 6.15338 16.9893 6.25316C16.9882 6.35294 17.0071 6.45192 17.0449 6.5443C17.0826 6.63668 17.1384 6.72061 17.2089 6.79117C17.2795 6.86172 17.3634 6.91749 17.4558 6.95521C17.5482 6.99293 17.6471 7.01183 17.7469 7.01082C17.8467 7.0098 17.9453 6.98889 18.0369 6.9493C18.1285 6.90972 18.2112 6.85225 18.2803 6.78027L20.2803 4.78027C20.4209 4.63962 20.4999 4.44888 20.4999 4.25C20.4999 4.05112 20.4209 3.86038 20.2803 3.71973L18.2803 1.71973C18.2104 1.64773 18.1268 1.5905 18.0344 1.55142C17.9419 1.51233 17.8426 1.49219 17.7423 1.49219ZM21.2384 7.48926C21.0396 7.49236 20.8502 7.57423 20.7118 7.71686C20.5734 7.8595 20.4972 8.05125 20.5001 8.25V17.25C20.5001 18.225 19.7251 19 18.7501 19H6.06062L6.78035 18.2803C6.88855 18.1749 6.96242 18.0393 6.99228 17.8913C7.02215 17.7432 7.00663 17.5896 6.94774 17.4505C6.88886 17.3114 6.78936 17.1933 6.66226 17.1117C6.53517 17.0301 6.3864 16.9888 6.23543 16.9932C6.04065 16.9988 5.85572 17.0801 5.7198 17.2197L3.7198 19.2197C3.5792 19.3604 3.50022 19.5511 3.50022 19.75C3.50022 19.9489 3.5792 20.1396 3.7198 20.2803L5.7198 22.2803C5.78891 22.3523 5.87169 22.4097 5.96328 22.4493C6.05488 22.4889 6.15345 22.5098 6.25323 22.5108C6.35301 22.5118 6.45199 22.4929 6.54437 22.4552C6.63675 22.4175 6.72068 22.3617 6.79124 22.2912C6.8618 22.2206 6.91757 22.1367 6.95529 22.0443C6.993 21.9519 7.01191 21.8529 7.01089 21.7532C7.00988 21.6534 6.98897 21.5548 6.94938 21.4632C6.90979 21.3716 6.85233 21.2888 6.78035 21.2197L6.06062 20.5H18.7501C20.536 20.5 22.0001 19.036 22.0001 17.25V8.25C22.0015 8.14962 21.9828 8.04997 21.945 7.95695C21.9072 7.86394 21.8512 7.77946 21.7801 7.70852C21.7091 7.63758 21.6245 7.58161 21.5315 7.54395C21.4384 7.50629 21.3387 7.48769 21.2384 7.48926ZM12.0001 8C9.79982 8 8.00007 9.79975 8.00007 12C8.00007 14.2003 9.79982 16 12.0001 16C14.2003 16 16.0001 14.2003 16.0001 12C16.0001 9.79975 14.2003 8 12.0001 8ZM12.0001 9.5C13.3897 9.5 14.5001 10.6104 14.5001 12C14.5001 13.3896 13.3897 14.5 12.0001 14.5C10.6105 14.5 9.50007 13.3896 9.50007 12C9.50007 10.6104 10.6105 9.5 12.0001 9.5Z" fill="black"/>
</svg>
