<svg width="24" height="24" viewBox="0 0 24 24" fill="none" xmlns="http://www.w3.org/2000/svg">
<path d="M8.75 2.5C6.1265 2.5 4 4.6265 4 7.25V16.9297C4 17.5982 4.33412 18.2227 4.89062 18.5938L5.5 19V7.25C5.5 5.455 6.955 4 8.75 4H17.5L17.0938 3.39062C16.7233 2.83412 16.0987 2.5 15.4297 2.5H8.75ZM9.25 5C7.74011 5 6.5 6.24011 6.5 7.75V18.75C6.5 20.2599 7.74011 21.5 9.25 21.5H17.25C18.7599 21.5 20 20.2599 20 18.75V7.75C20 6.24011 18.7599 5 17.25 5H9.25ZM9.25 6.5H17.25C17.9491 6.5 18.5 7.05089 18.5 7.75V18.75C18.5 19.4491 17.9491 20 17.25 20H9.25C8.55089 20 8 19.4491 8 18.75V7.75C8 7.05089 8.55089 6.5 9.25 6.5ZM10.75 9.5C10.6506 9.49859 10.5519 9.51696 10.4597 9.55402C10.3675 9.59108 10.2836 9.6461 10.2128 9.71588C10.142 9.78566 10.0858 9.86882 10.0474 9.96051C10.0091 10.0522 9.98932 10.1506 9.98932 10.25C9.98932 10.3494 10.0091 10.4478 10.0474 10.5395C10.0858 10.6312 10.142 10.7143 10.2128 10.7841C10.2836 10.8539 10.3675 10.9089 10.4597 10.946C10.5519 10.983 10.6506 11.0014 10.75 11H15.75C15.8494 11.0014 15.9481 10.983 16.0403 10.946C16.1325 10.9089 16.2164 10.8539 16.2872 10.7841C16.358 10.7143 16.4142 10.6312 16.4526 10.5395C16.4909 10.4478 16.5107 10.3494 16.5107 10.25C16.5107 10.1506 16.4909 10.0522 16.4526 9.96051C16.4142 9.86882 16.358 9.78566 16.2872 9.71588C16.2164 9.6461 16.1325 9.59108 16.0403 9.55402C15.9481 9.51696 15.8494 9.49859 15.75 9.5H10.75ZM10.75 12.5C10.6506 12.4986 10.5519 12.517 10.4597 12.554C10.3675 12.5911 10.2836 12.6461 10.2128 12.7159C10.142 12.7857 10.0858 12.8688 10.0474 12.9605C10.0091 13.0522 9.98932 13.1506 9.98932 13.25C9.98932 13.3494 10.0091 13.4478 10.0474 13.5395C10.0858 13.6312 10.142 13.7143 10.2128 13.7841C10.2836 13.8539 10.3675 13.9089 10.4597 13.946C10.5519 13.983 10.6506 14.0014 10.75 14H15.75C15.8494 14.0014 15.9481 13.983 16.0403 13.946C16.1325 13.9089 16.2164 13.8539 16.2872 13.7841C16.358 13.7143 16.4142 13.6312 16.4526 13.5395C16.4909 13.4478 16.5107 13.3494 16.5107 13.25C16.5107 13.1506 16.4909 13.0522 16.4526 12.9605C16.4142 12.8688 16.358 12.7857 16.2872 12.7159C16.2164 12.6461 16.1325 12.5911 16.0403 12.554C15.9481 12.517 15.8494 12.4986 15.75 12.5H10.75ZM10.75 15.5C10.6506 15.4986 10.5519 15.517 10.4597 15.554C10.3675 15.5911 10.2836 15.6461 10.2128 15.7159C10.142 15.7857 10.0858 15.8688 10.0474 15.9605C10.0091 16.0522 9.98932 16.1506 9.98932 16.25C9.98932 16.3494 10.0091 16.4478 10.0474 16.5395C10.0858 16.6312 10.142 16.7143 10.2128 16.7841C10.2836 16.8539 10.3675 16.9089 10.4597 16.946C10.5519 16.983 10.6506 17.0014 10.75 17H15.75C15.8494 17.0014 15.9481 16.983 16.0403 16.946C16.1325 16.9089 16.2164 16.8539 16.2872 16.7841C16.358 16.7143 16.4142 16.6312 16.4526 16.5395C16.4909 16.4478 16.5107 16.3494 16.5107 16.25C16.5107 16.1506 16.4909 16.0522 16.4526 15.9605C16.4142 15.8688 16.358 15.7857 16.2872 15.7159C16.2164 15.6461 16.1325 15.5911 16.0403 15.554C15.9481 15.517 15.8494 15.4986 15.75 15.5H10.75Z" fill="black"/>
</svg>
