<svg width="24" height="24" viewBox="0 0 24 24" fill="none" xmlns="http://www.w3.org/2000/svg">
<path d="M10.25 1.5C9.1017 1.5 8.15285 2.38331 8.02539 3.5H6.25C5.01625 3.5 4 4.51625 4 5.75V19.25C4 20.4838 5.01625 21.5 6.25 21.5H17.75C18.9838 21.5 20 20.4838 20 19.25V5.75C20 4.51625 18.9838 3.5 17.75 3.5H15.9746C15.8471 2.38331 14.8983 1.5 13.75 1.5H10.25ZM10.25 3H13.75C14.1732 3 14.5 3.32675 14.5 3.75C14.5 4.17325 14.1732 4.5 13.75 4.5H10.25C9.82675 4.5 9.5 4.17325 9.5 3.75C9.5 3.32675 9.82675 3 10.25 3ZM6.25 5H8.38477C8.79062 5.60095 9.47736 6 10.25 6H13.75C14.5226 6 15.2094 5.60095 15.6152 5H17.75C18.1732 5 18.5 5.32675 18.5 5.75V19.25C18.5 19.6733 18.1732 20 17.75 20H6.25C5.82675 20 5.5 19.6733 5.5 19.25V5.75C5.5 5.32675 5.82675 5 6.25 5ZM11.9883 7.98926C11.7895 7.99236 11.6002 8.07423 11.4617 8.21686C11.3233 8.3595 11.2471 8.55125 11.25 8.75V9.5H10.5C10.4006 9.49859 10.3019 9.51696 10.2097 9.55402C10.1175 9.59108 10.0336 9.6461 9.96277 9.71588C9.892 9.78566 9.83579 9.86882 9.79743 9.96051C9.75907 10.0522 9.73932 10.1506 9.73932 10.25C9.73932 10.3494 9.75907 10.4478 9.79743 10.5395C9.83579 10.6312 9.892 10.7143 9.96277 10.7841C10.0336 10.8539 10.1175 10.9089 10.2097 10.946C10.3019 10.983 10.4006 11.0014 10.5 11H11.25V11.75C11.2486 11.8494 11.267 11.9481 11.304 12.0403C11.3411 12.1325 11.3961 12.2164 11.4659 12.2872C11.5357 12.358 11.6188 12.4142 11.7105 12.4526C11.8022 12.4909 11.9006 12.5107 12 12.5107C12.0994 12.5107 12.1978 12.4909 12.2895 12.4526C12.3812 12.4142 12.4643 12.358 12.5341 12.2872C12.6039 12.2164 12.6589 12.1325 12.696 12.0403C12.733 11.9481 12.7514 11.8494 12.75 11.75V11H13.5C13.5994 11.0014 13.6981 10.983 13.7903 10.946C13.8825 10.9089 13.9664 10.8539 14.0372 10.7841C14.108 10.7143 14.1642 10.6312 14.2026 10.5395C14.2409 10.4478 14.2607 10.3494 14.2607 10.25C14.2607 10.1506 14.2409 10.0522 14.2026 9.96051C14.1642 9.86882 14.108 9.78566 14.0372 9.71588C13.9664 9.6461 13.8825 9.59108 13.7903 9.55402C13.6981 9.51696 13.5994 9.49859 13.5 9.5H12.75V8.75C12.7514 8.64962 12.7327 8.54997 12.6949 8.45695C12.6571 8.36394 12.6011 8.27946 12.53 8.20852C12.459 8.13758 12.3745 8.08161 12.2814 8.04395C12.1883 8.00629 12.0887 7.98769 11.9883 7.98926ZM8.75 13.5C8.65062 13.4986 8.55194 13.517 8.45972 13.554C8.36749 13.5911 8.28355 13.6461 8.21277 13.7159C8.142 13.7857 8.08579 13.8688 8.04743 13.9605C8.00907 14.0522 7.98932 14.1506 7.98932 14.25C7.98932 14.3494 8.00907 14.4478 8.04743 14.5395C8.08579 14.6312 8.142 14.7143 8.21277 14.7841C8.28355 14.8539 8.36749 14.9089 8.45972 14.946C8.55194 14.983 8.65062 15.0014 8.75 15H15.25C15.3494 15.0014 15.4481 14.983 15.5403 14.946C15.6325 14.9089 15.7164 14.8539 15.7872 14.7841C15.858 14.7143 15.9142 14.6312 15.9526 14.5395C15.9909 14.4478 16.0107 14.3494 16.0107 14.25C16.0107 14.1506 15.9909 14.0522 15.9526 13.9605C15.9142 13.8688 15.858 13.7857 15.7872 13.7159C15.7164 13.6461 15.6325 13.5911 15.5403 13.554C15.4481 13.517 15.3494 13.4986 15.25 13.5H8.75ZM8.75 16C8.65062 15.9986 8.55194 16.017 8.45972 16.054C8.36749 16.0911 8.28355 16.1461 8.21277 16.2159C8.142 16.2857 8.08579 16.3688 8.04743 16.4605C8.00907 16.5522 7.98932 16.6506 7.98932 16.75C7.98932 16.8494 8.00907 16.9478 8.04743 17.0395C8.08579 17.1312 8.142 17.2143 8.21277 17.2841C8.28355 17.3539 8.36749 17.4089 8.45972 17.446C8.55194 17.483 8.65062 17.5014 8.75 17.5H15.25C15.3494 17.5014 15.4481 17.483 15.5403 17.446C15.6325 17.4089 15.7164 17.3539 15.7872 17.2841C15.858 17.2143 15.9142 17.1312 15.9526 17.0395C15.9909 16.9478 16.0107 16.8494 16.0107 16.75C16.0107 16.6506 15.9909 16.5522 15.9526 16.4605C15.9142 16.3688 15.858 16.2857 15.7872 16.2159C15.7164 16.1461 15.6325 16.0911 15.5403 16.054C15.4481 16.017 15.3494 15.9986 15.25 16H8.75Z" fill="black"/>
</svg>
