<svg width="24" height="24" viewBox="0 0 24 24" fill="none" xmlns="http://www.w3.org/2000/svg">
<path d="M6.73937 2.50001C6.5442 2.50287 6.35783 2.58169 6.21984 2.71974L1.21984 7.71974C1.14786 7.78885 1.0904 7.87162 1.05081 7.96322C1.01122 8.05482 0.990311 8.15339 0.989297 8.25317C0.988282 8.35295 1.00719 8.45193 1.0449 8.54431C1.08262 8.63669 1.13839 8.72062 1.20895 8.79118C1.27951 8.86174 1.36344 8.91751 1.45582 8.95523C1.5482 8.99294 1.64718 9.01185 1.74696 9.01083C1.84674 9.00982 1.94531 8.9889 2.03691 8.94932C2.1285 8.90973 2.21128 8.85226 2.28039 8.78029L6.00012 5.06056V15.75C5.99871 15.8494 6.01707 15.9481 6.05413 16.0403C6.09119 16.1325 6.14621 16.2165 6.216 16.2872C6.28578 16.358 6.36893 16.4142 6.46063 16.4526C6.55232 16.4909 6.65072 16.5107 6.75012 16.5107C6.84951 16.5107 6.94791 16.4909 7.03961 16.4526C7.1313 16.4142 7.21445 16.358 7.28424 16.2872C7.35402 16.2165 7.40904 16.1325 7.4461 16.0403C7.48316 15.9481 7.50152 15.8494 7.50012 15.75V5.06056L11.2198 8.78029C11.289 8.85226 11.3717 8.90973 11.4633 8.94932C11.5549 8.9889 11.6535 9.00982 11.7533 9.01083C11.8531 9.01185 11.952 8.99294 12.0444 8.95522C12.1368 8.91751 12.2207 8.86174 12.2913 8.79118C12.3618 8.72062 12.4176 8.63669 12.4553 8.54431C12.493 8.45193 12.512 8.35295 12.5109 8.25317C12.5099 8.15339 12.489 8.05482 12.4494 7.96322C12.4098 7.87162 12.3524 7.78885 12.2804 7.71974L7.28039 2.71974C7.20948 2.6488 7.12507 2.59281 7.03214 2.55507C6.93922 2.51733 6.83966 2.49861 6.73937 2.50001ZM17.2501 2.50001C17.0512 2.50001 16.8604 2.57903 16.7198 2.71968C16.5791 2.86033 16.5001 3.0511 16.5001 3.25001C16.5001 3.44893 16.5791 3.63969 16.7198 3.78034C16.8604 3.921 17.0512 4.00001 17.2501 4.00001C17.449 4.00001 17.6398 3.921 17.7804 3.78034C17.9211 3.63969 18.0001 3.44893 18.0001 3.25001C18.0001 3.0511 17.9211 2.86033 17.7804 2.71968C17.6398 2.57903 17.449 2.50001 17.2501 2.50001ZM17.2501 5.00001C17.0512 5.00001 16.8604 5.07903 16.7198 5.21968C16.5791 5.36033 16.5001 5.5511 16.5001 5.75001C16.5001 5.94893 16.5791 6.13969 16.7198 6.28034C16.8604 6.421 17.0512 6.50001 17.2501 6.50001C17.449 6.50001 17.6398 6.421 17.7804 6.28034C17.9211 6.13969 18.0001 5.94893 18.0001 5.75001C18.0001 5.5511 17.9211 5.36033 17.7804 5.21968C17.6398 5.07903 17.449 5.00001 17.2501 5.00001ZM17.2384 7.48927C17.0397 7.49238 16.8503 7.57424 16.7118 7.71688C16.5734 7.85952 16.4973 8.05127 16.5001 8.25001V18.4395L12.7804 14.7197C12.7105 14.6477 12.6268 14.5905 12.5344 14.5514C12.442 14.5123 12.3427 14.4922 12.2423 14.4922C12.093 14.4922 11.9472 14.5368 11.8234 14.6202C11.6996 14.7036 11.6035 14.822 11.5474 14.9603C11.4913 15.0987 11.4777 15.2506 11.5085 15.3966C11.5392 15.5427 11.6128 15.6763 11.7198 15.7803L16.7198 20.7803C16.8605 20.9209 17.0512 20.9999 17.2501 20.9999C17.449 20.9999 17.6397 20.9209 17.7804 20.7803L22.7804 15.7803C22.8524 15.7112 22.9098 15.6284 22.9494 15.5368C22.989 15.4452 23.0099 15.3466 23.0109 15.2469C23.0119 15.1471 22.993 15.0481 22.9553 14.9557C22.9176 14.8633 22.8618 14.7794 22.7913 14.7088C22.7207 14.6383 22.6368 14.5825 22.5444 14.5448C22.452 14.5071 22.3531 14.4882 22.2533 14.4892C22.1535 14.4902 22.0549 14.5111 21.9633 14.5507C21.8717 14.5903 21.789 14.6478 21.7198 14.7197L18.0001 18.4395V8.25001C18.0016 8.14963 17.9828 8.04998 17.945 7.95697C17.9073 7.86396 17.8512 7.77947 17.7802 7.70853C17.7091 7.63759 17.6246 7.58163 17.5315 7.54396C17.4385 7.5063 17.3388 7.4877 17.2384 7.48927ZM6.75012 17.5C6.5512 17.5 6.36044 17.579 6.21979 17.7197C6.07913 17.8603 6.00012 18.0511 6.00012 18.25C6.00012 18.4489 6.07913 18.6397 6.21979 18.7803C6.36044 18.921 6.5512 19 6.75012 19C6.94903 19 7.13979 18.921 7.28045 18.7803C7.4211 18.6397 7.50012 18.4489 7.50012 18.25C7.50012 18.0511 7.4211 17.8603 7.28045 17.7197C7.13979 17.579 6.94903 17.5 6.75012 17.5ZM6.75012 20C6.5512 20 6.36044 20.079 6.21979 20.2197C6.07913 20.3603 6.00012 20.5511 6.00012 20.75C6.00012 20.9489 6.07913 21.1397 6.21979 21.2803C6.36044 21.421 6.5512 21.5 6.75012 21.5C6.94903 21.5 7.13979 21.421 7.28045 21.2803C7.4211 21.1397 7.50012 20.9489 7.50012 20.75C7.50012 20.5511 7.4211 20.3603 7.28045 20.2197C7.13979 20.079 6.94903 20 6.75012 20Z" fill="black"/>
</svg>
