<svg width="24" height="24" viewBox="0 0 24 24" fill="none" xmlns="http://www.w3.org/2000/svg">
<path d="M15.75 10.5L20.47 5.78C20.5749 5.67524 20.7085 5.60392 20.8539 5.57503C20.9993 5.54615 21.15 5.561 21.2869 5.61771C21.4239 5.67442 21.541 5.77045 21.6234 5.89367C21.7058 6.01688 21.7499 6.16176 21.75 6.31V17.69C21.7499 17.8382 21.7058 17.9831 21.6234 18.1063C21.541 18.2295 21.4239 18.3256 21.2869 18.3823C21.15 18.439 20.9993 18.4538 20.8539 18.425C20.7085 18.3961 20.5749 18.3248 20.47 18.22L15.75 13.5M12 18.75H4.5C3.90326 18.75 3.33097 18.5129 2.90901 18.091C2.48705 17.669 2.25 17.0967 2.25 16.5V9M15.091 18.091L16.5 19.5M15.091 18.091C15.498 17.684 15.75 17.121 15.75 16.5V7.5C15.75 6.90326 15.5129 6.33097 15.091 5.90901C14.669 5.48705 14.0967 5.25 13.5 5.25H4.5C3.879 5.25 3.316 5.502 2.909 5.909M15.091 18.091L2.909 5.909M2.909 5.909L1.5 4.5" stroke="black" stroke-width="1.5" stroke-linecap="round" stroke-linejoin="round"/>
</svg>
