<svg width="24" height="24" viewBox="0 0 24 24" fill="none" xmlns="http://www.w3.org/2000/svg">
<path d="M15.75 10.5L20.47 5.78C20.5749 5.67524 20.7085 5.60392 20.8539 5.57503C20.9993 5.54615 21.15 5.561 21.2869 5.61771C21.4239 5.67442 21.541 5.77045 21.6234 5.89367C21.7058 6.01688 21.7499 6.16176 21.75 6.31V17.69C21.7499 17.8382 21.7058 17.9831 21.6234 18.1063C21.541 18.2295 21.4239 18.3256 21.2869 18.3823C21.15 18.439 20.9993 18.4538 20.8539 18.425C20.7085 18.3961 20.5749 18.3248 20.47 18.22L15.75 13.5M4.5 18.75H13.5C14.0967 18.75 14.669 18.5129 15.091 18.091C15.5129 17.669 15.75 17.0967 15.75 16.5V7.5C15.75 6.90326 15.5129 6.33097 15.091 5.90901C14.669 5.48705 14.0967 5.25 13.5 5.25H4.5C3.90326 5.25 3.33097 5.48705 2.90901 5.90901C2.48705 6.33097 2.25 6.90326 2.25 7.5V16.5C2.25 17.0967 2.48705 17.669 2.90901 18.091C3.33097 18.5129 3.90326 18.75 4.5 18.75Z" stroke="black" stroke-width="1.5" stroke-linecap="round"/>
</svg>
