<svg width="24" height="24" viewBox="0 0 24 24" fill="none" xmlns="http://www.w3.org/2000/svg">
<path d="M12 1.99902C6.48615 1.99902 2 6.48517 2 11.999C2 13.6367 2.43135 15.1674 3.13086 16.5322L2.04688 20.4131C1.7944 21.3148 2.68596 22.2063 3.58789 21.9541L7.47168 20.8701C8.83537 21.5682 10.3639 21.999 12 21.999C17.5139 21.999 22 17.5129 22 11.999C22 6.48517 17.5139 1.99902 12 1.99902ZM12 3.49902C16.7031 3.49902 20.5 7.29588 20.5 11.999C20.5 16.7022 16.7031 20.499 12 20.499C10.4992 20.499 9.0953 20.1088 7.87109 19.4268C7.69853 19.3306 7.495 19.3064 7.30469 19.3594L3.61133 20.3896L4.64258 16.6982C4.69585 16.5076 4.67163 16.3037 4.5752 16.1309C3.89183 14.9058 3.5 13.5013 3.5 11.999C3.5 7.29588 7.29685 3.49902 12 3.49902ZM8.62012 7.5C8.46062 7.5 8.2029 7.55983 7.9834 7.79883C7.7644 8.03683 7.14746 8.61406 7.14746 9.78906C7.14746 10.9641 8.00257 12.0988 8.12207 12.2588C8.24107 12.4173 9.77367 14.9063 12.2012 15.8633C14.2182 16.6583 14.6284 16.5 15.0664 16.46C15.5044 16.421 16.4797 15.8832 16.6787 15.3252C16.8777 14.7672 16.8778 14.2899 16.8193 14.1914C16.7598 14.0919 16.6003 14.0316 16.3613 13.9121C16.1228 13.7926 14.9495 13.2152 14.7305 13.1357C14.5115 13.0562 14.3514 13.0159 14.1924 13.2549C14.0334 13.4939 13.576 14.0314 13.4365 14.1904C13.297 14.3504 13.1579 14.3705 12.9189 14.251C12.6794 14.1305 11.911 13.8789 10.998 13.0654C10.288 12.4329 9.8104 11.6511 9.6709 11.4121C9.5319 11.1741 9.65589 11.0433 9.77539 10.9248C9.88289 10.8178 10.0143 10.6463 10.1338 10.5068C10.2523 10.3673 10.2916 10.2684 10.3711 10.1094C10.4506 9.95087 10.4111 9.81091 10.3516 9.69141C10.2921 9.57191 9.82773 8.39047 9.61523 7.91797C9.43673 7.52097 9.24862 7.51236 9.07812 7.50586C8.93913 7.50036 8.77912 7.5 8.62012 7.5Z" fill="black"/>
</svg>
