<svg width="24" height="24" viewBox="0 0 24 25" fill="none" xmlns="http://www.w3.org/2000/svg">
    <mask id="path-1-inside-1_26_107328" fill="white">
        <path d="M18.2894 19.3489H18.1105L17.0684 16.8331C18.4343 15.864 19.4566 14.4857 19.9875 12.8973C20.5184 11.3089 20.5304 9.59287 20.0218 7.99721C19.5133 6.40155 18.5104 5.00897 17.1583 4.02078C15.8062 3.03259 14.1748 2.5 12.5001 2.5C10.8253 2.5 9.19396 3.03259 7.84183 4.02078C6.4897 5.00897 5.48686 6.40155 4.97828 7.99721C4.46971 9.59287 4.48175 11.3089 5.01266 12.8973C5.54358 14.4857 6.56586 15.864 7.93173 16.8331L6.88964 19.3489H6.71069C6.43178 19.3497 6.16453 19.4609 5.9673 19.6581C5.77008 19.8553 5.65891 20.1226 5.65808 20.4015V21.4541C5.65891 21.733 5.77008 22.0003 5.9673 22.1975C6.16453 22.3947 6.43178 22.5059 6.71069 22.5067H18.2894C18.5684 22.5059 18.8356 22.3947 19.0328 22.1975C19.23 22.0003 19.3412 21.733 19.342 21.4541V20.4015C19.3412 20.1226 19.23 19.8553 19.0328 19.6581C18.8356 19.4609 18.5684 19.3497 18.2894 19.3489ZM5.65808 10.4017C5.65633 9.23722 5.95181 8.09158 6.51655 7.07323C7.08128 6.05488 7.89658 5.19751 8.88525 4.58229C9.87393 3.96708 11.0033 3.61437 12.1663 3.55758C13.3294 3.50078 14.4877 3.74177 15.5317 4.25772C16.5756 4.77368 17.4705 5.54753 18.1318 6.50602C18.7931 7.4645 19.1988 8.5759 19.3105 9.73499C19.4222 10.8941 19.2362 12.0625 18.7702 13.1296C18.3042 14.1968 17.5735 15.1273 16.6474 15.8332L16.2316 14.8279C17.1391 14.0629 17.7895 13.0374 18.0947 11.8903C18.4 10.7433 18.3453 9.53014 17.938 8.41523C17.5308 7.30033 16.7907 6.33753 15.818 5.65728C14.8453 4.97703 13.687 4.61219 12.5001 4.61219C11.3131 4.61219 10.1548 4.97703 9.18214 5.65728C8.20945 6.33753 7.46936 7.30033 7.06211 8.41523C6.65487 9.53014 6.60016 10.7433 6.90539 11.8903C7.21062 13.0374 7.86104 14.0629 8.76855 14.8279L8.35277 15.8332C7.51319 15.1988 6.83267 14.3778 6.36499 13.4352C5.89731 12.4925 5.6553 11.454 5.65808 10.4017ZM15.7895 13.8069C15.6502 13.5708 15.4516 13.3751 15.2135 13.2394C14.9753 13.1037 14.7057 13.0326 14.4316 13.0332H10.5685C10.2944 13.0326 10.0249 13.1037 9.78668 13.2394C9.54849 13.3751 9.34992 13.5708 9.21065 13.8069C8.53139 13.1513 8.06351 12.3078 7.86704 11.3844C7.67056 10.4611 7.75446 9.50012 8.10796 8.6248C8.46146 7.74948 9.06844 6.99975 9.85101 6.47181C10.6336 5.94388 11.5561 5.66181 12.5001 5.66181C13.4441 5.66181 14.3665 5.94388 15.1491 6.47181C15.9317 6.99975 16.5387 7.74948 16.8922 8.6248C17.2457 9.50012 17.3296 10.4611 17.1331 11.3844C16.9366 12.3078 16.4687 13.1513 15.7895 13.8069ZM10.0843 14.4121C10.1238 14.316 10.1909 14.2337 10.277 14.1757C10.3632 14.1176 10.4646 14.0863 10.5685 14.0858H14.4316C14.5355 14.0863 14.6369 14.1176 14.7231 14.1757C14.8093 14.2337 14.8763 14.316 14.9158 14.4121L16.9737 19.3489H8.02646L10.0843 14.4121ZM18.2894 21.4541H6.71069V20.4015H18.2894V21.4541Z"/>
    </mask>
    <path d="M18.2894 19.3489L18.3133 11.3489L18.3014 11.3489H18.2894V19.3489ZM18.1105 19.3489L10.7195 22.4104L12.7651 27.3489H18.1105V19.3489ZM17.0684 16.8331L12.4391 10.3086L7.23586 14.0005L9.6774 19.8947L17.0684 16.8331ZM12.5001 2.5V-5.5V2.5ZM7.93173 16.8331L15.3227 19.8947L17.7643 14.0005L12.5611 10.3086L7.93173 16.8331ZM6.88964 19.3489V27.3489H12.235L14.2806 22.4104L6.88964 19.3489ZM6.71069 19.3489V11.3489H6.69875L6.6868 11.3489L6.71069 19.3489ZM5.65808 20.4015L-2.34188 20.3776L-2.34192 20.3896V20.4015H5.65808ZM5.65808 21.4541H-2.34192V21.4661L-2.34188 21.478L5.65808 21.4541ZM6.71069 22.5067L6.6868 30.5067L6.69875 30.5067H6.71069V22.5067ZM18.2894 22.5067V30.5067H18.3014L18.3133 30.5067L18.2894 22.5067ZM19.342 21.4541L27.342 21.478L27.342 21.4661V21.4541H19.342ZM19.342 20.4015H27.342V20.3896L27.342 20.3776L19.342 20.4015ZM5.65808 10.4017L13.6581 10.4228L13.6581 10.4063L13.6581 10.3897L5.65808 10.4017ZM16.6474 15.8332L9.25476 18.8908L13.2282 28.4975L21.4966 22.1959L16.6474 15.8332ZM16.2316 14.8279L11.0752 8.71139L6.60359 12.4811L8.83897 17.8856L16.2316 14.8279ZM12.5001 4.61219V12.6122V4.61219ZM8.76855 14.8279L16.1612 17.8856L18.3965 12.4811L13.9249 8.71139L8.76855 14.8279ZM8.35277 15.8332L3.52996 22.216L11.7889 28.4564L15.7454 18.8908L8.35277 15.8332ZM15.7895 13.8069L8.89877 17.8711L14.0496 26.6042L21.345 19.5633L15.7895 13.8069ZM14.4316 13.0332V21.0332H14.4401L14.4485 21.0332L14.4316 13.0332ZM10.5685 13.0332L10.5516 21.0332L10.5601 21.0332H10.5685V13.0332ZM9.21065 13.8069L3.65509 19.5633L10.9505 26.6042L16.1014 17.8711L9.21065 13.8069ZM10.0843 14.4121L17.4685 17.4902L17.4764 17.4711L17.4843 17.452L10.0843 14.4121ZM10.5685 14.0858V6.08583H10.5486L10.5286 6.08593L10.5685 14.0858ZM14.4316 14.0858L14.4715 6.08593L14.4516 6.08583H14.4316V14.0858ZM14.9158 14.4121L7.51588 17.452L7.52372 17.4711L7.53166 17.4902L14.9158 14.4121ZM16.9737 19.3489V27.3489H28.9756L24.3578 16.2709L16.9737 19.3489ZM8.02646 19.3489L0.642311 16.2709L-3.97551 27.3489H8.02646V19.3489ZM18.2894 21.4541V29.4541H26.2894V21.4541H18.2894ZM6.71069 21.4541H-1.28931V29.4541H6.71069V21.4541ZM6.71069 20.4015V12.4015H-1.28931V20.4015H6.71069ZM18.2894 20.4015H26.2894V12.4015H18.2894V20.4015ZM18.2894 11.3489H18.1105V27.3489H18.2894V11.3489ZM25.5015 16.2873L24.4594 13.7716L9.6774 19.8947L10.7195 22.4104L25.5015 16.2873ZM21.6977 23.3577C24.4477 21.4065 26.5059 18.6313 27.5748 15.4334L12.4001 10.3612C12.4072 10.34 12.4208 10.3216 12.4391 10.3086L21.6977 23.3577ZM27.5748 15.4334C28.6438 12.2355 28.668 8.78044 27.6441 5.56782L12.3996 10.4266C12.3929 10.4053 12.393 10.3824 12.4001 10.3612L27.5748 15.4334ZM27.6441 5.56782C26.6201 2.3552 24.601 -0.448561 21.8787 -2.43813L12.4379 10.4797C12.4198 10.4665 12.4064 10.4479 12.3996 10.4266L27.6441 5.56782ZM21.8787 -2.43813C19.1564 -4.42771 15.8719 -5.5 12.5001 -5.5V10.5C12.4777 10.5 12.4559 10.4929 12.4379 10.4797L21.8787 -2.43813ZM12.5001 -5.5C9.12821 -5.5 5.84372 -4.42771 3.1214 -2.43813L12.5623 10.4797C12.5442 10.4929 12.5224 10.5 12.5001 10.5V-5.5ZM3.1214 -2.43813C0.399089 -0.448558 -1.61998 2.3552 -2.64392 5.56782L12.6005 10.4266C12.5937 10.4479 12.5803 10.4665 12.5623 10.4797L3.1214 -2.43813ZM-2.64392 5.56782C-3.66787 8.78044 -3.64363 12.2355 -2.57471 15.4334L12.6 10.3612C12.6071 10.3824 12.6073 10.4053 12.6005 10.4266L-2.64392 5.56782ZM-2.57471 15.4334C-1.50579 18.6313 0.552426 21.4065 3.30239 23.3577L12.5611 10.3086C12.5793 10.3216 12.5929 10.34 12.6 10.3612L-2.57471 15.4334ZM0.540721 13.7716L-0.501365 16.2873L14.2806 22.4104L15.3227 19.8947L0.540721 13.7716ZM6.88964 11.3489H6.71069V27.3489H6.88964V11.3489ZM6.6868 11.3489C4.29444 11.3561 2.00211 12.3096 0.31045 14.0013L11.6242 25.315C10.3269 26.6122 8.56912 27.3434 6.73459 27.3489L6.6868 11.3489ZM0.31045 14.0013C-1.38121 15.6929 -2.33474 17.9853 -2.34188 20.3776L13.658 20.4254C13.6526 22.2599 12.9214 24.0178 11.6242 25.315L0.31045 14.0013ZM-2.34192 20.4015V21.4541H13.6581V20.4015H-2.34192ZM-2.34188 21.478C-2.33474 23.8704 -1.38121 26.1627 0.31045 27.8544L11.6242 16.5407C12.9214 17.8379 13.6526 19.5957 13.658 21.4302L-2.34188 21.478ZM0.31045 27.8544C2.00211 29.546 4.29444 30.4995 6.6868 30.5067L6.73459 14.5068C8.56912 14.5122 10.3269 15.2434 11.6242 16.5407L0.31045 27.8544ZM6.71069 30.5067H18.2894V14.5067H6.71069V30.5067ZM18.3133 30.5067C20.7057 30.4995 22.998 29.546 24.6897 27.8544L13.376 16.5407C14.6732 15.2434 16.431 14.5122 18.2655 14.5068L18.3133 30.5067ZM24.6897 27.8544C26.3813 26.1627 27.3349 23.8704 27.342 21.478L11.3421 21.4302C11.3476 19.5957 12.0788 17.8379 13.376 16.5407L24.6897 27.8544ZM27.342 21.4541V20.4015H11.342V21.4541H27.342ZM27.342 20.3776C27.3349 17.9852 26.3813 15.6929 24.6897 14.0013L13.376 25.315C12.0788 24.0178 11.3476 22.2599 11.3421 20.4254L27.342 20.3776ZM24.6897 14.0013C22.998 12.3096 20.7057 11.3561 18.3133 11.3489L18.2655 27.3489C16.431 27.3434 14.6732 26.6122 13.376 25.315L24.6897 14.0013ZM13.6581 10.3897C13.6584 10.5868 13.6084 10.7807 13.5128 10.953L-0.47968 3.19344C-1.70473 5.4025 -2.3457 7.88768 -2.34191 10.4137L13.6581 10.3897ZM13.5128 10.953C13.4172 11.1254 13.2792 11.2705 13.1119 11.3746L4.65864 -2.21004C2.51395 -0.87548 0.745368 0.984372 -0.47968 3.19344L13.5128 10.953ZM13.1119 11.3746C12.9445 11.4787 12.7534 11.5384 12.5565 11.5481L11.7761 -4.4329C9.25313 -4.3097 6.80332 -3.5446 4.65864 -2.21004L13.1119 11.3746ZM12.5565 11.5481C12.3597 11.5577 12.1636 11.5169 11.987 11.4296L19.0763 -2.9141C16.8118 -4.03335 14.2991 -4.55611 11.7761 -4.4329L12.5565 11.5481ZM11.987 11.4296C11.8103 11.3422 11.6588 11.2113 11.5469 11.049L24.7167 1.96301C23.2822 -0.116182 21.3409 -1.79486 19.0763 -2.9141L11.987 11.4296ZM11.5469 11.049C11.435 10.8868 11.3663 10.6987 11.3474 10.5025L27.2736 8.96746C27.0312 6.4531 26.1512 4.0422 24.7167 1.96301L11.5469 11.049ZM11.3474 10.5025C11.3285 10.3063 11.36 10.1086 11.4388 9.92797L26.1016 16.3313C27.1125 14.0164 27.5159 11.4818 27.2736 8.96746L11.3474 10.5025ZM11.4388 9.92797C11.5177 9.74736 11.6414 9.58986 11.7981 9.47039L21.4966 22.1959C23.5057 20.6648 25.0907 18.6462 26.1016 16.3313L11.4388 9.92797ZM24.04 12.7755L23.6242 11.7702L8.83897 17.8856L9.25476 18.8908L24.04 12.7755ZM21.3879 20.9444C23.5495 19.1222 25.0987 16.6796 25.8257 13.9476L10.3638 9.83309C10.4803 9.3951 10.7287 9.00352 11.0752 8.71139L21.3879 20.9444ZM25.8257 13.9476C26.5527 11.2155 26.4224 8.32598 25.4524 5.67044L10.4236 11.16C10.2681 10.7343 10.2472 10.2711 10.3638 9.83309L25.8257 13.9476ZM25.4524 5.67044C24.4824 3.0149 22.7196 0.721686 20.4028 -0.898569L11.2331 12.2131C10.8617 11.9534 10.5791 11.5857 10.4236 11.16L25.4524 5.67044ZM20.4028 -0.898569C18.086 -2.51883 15.3272 -3.38781 12.5001 -3.38781V12.6122C12.0468 12.6122 11.6046 12.4729 11.2331 12.2131L20.4028 -0.898569ZM12.5001 -3.38781C9.67292 -3.38781 6.91409 -2.51883 4.59729 -0.898569L13.767 12.2131C13.3956 12.4729 12.9533 12.6122 12.5001 12.6122V-3.38781ZM4.59729 -0.898569C2.2805 0.721687 0.517712 3.0149 -0.45228 5.67044L14.5765 11.16C14.421 11.5857 14.1384 11.9534 13.767 12.2131L4.59729 -0.898569ZM-0.45228 5.67044C-1.42227 8.32598 -1.55259 11.2155 -0.825573 13.9476L14.6364 9.83309C14.7529 10.2711 14.732 10.7343 14.5765 11.16L-0.45228 5.67044ZM-0.825573 13.9476C-0.0985584 16.6796 1.45065 19.1222 3.61219 20.9444L13.9249 8.71139C14.2714 9.00352 14.5198 9.3951 14.6364 9.83309L-0.825573 13.9476ZM1.37595 11.7702L0.960164 12.7755L15.7454 18.8908L16.1612 17.8856L1.37595 11.7702ZM13.1756 9.45033C13.3259 9.56391 13.4477 9.7109 13.5315 9.87969L-0.801505 16.9906C0.217589 19.0447 1.70048 20.8337 3.52996 22.216L13.1756 9.45033ZM13.5315 9.87969C13.6152 10.0485 13.6586 10.2344 13.6581 10.4228L-2.34189 10.3805C-2.34795 12.6735 -1.8206 14.9365 -0.801505 16.9906L13.5315 9.87969ZM22.6802 9.74265C21.8325 8.30535 20.6237 7.11461 19.1739 6.28852L11.253 20.1903C10.2795 19.6357 9.46796 18.8362 8.89877 17.8711L22.6802 9.74265ZM19.1739 6.28852C17.724 5.46243 16.0834 5.0297 14.4147 5.03323L14.4485 21.0332C13.3281 21.0356 12.2265 20.745 11.253 20.1903L19.1739 6.28852ZM14.4316 5.03321H10.5685V21.0332H14.4316V5.03321ZM10.5854 5.03323C8.91676 5.0297 7.27614 5.46243 5.82627 6.28852L13.7471 20.1903C12.7736 20.745 11.672 21.0356 10.5516 21.0332L10.5854 5.03323ZM5.82627 6.28852C4.3764 7.11461 3.16767 8.30535 2.31993 9.74265L16.1014 17.8711C15.5322 18.8362 14.7206 19.6357 13.7471 20.1903L5.82627 6.28852ZM14.7662 8.05051C15.2342 8.50214 15.5565 9.08329 15.6918 9.71939L0.0422263 13.0495C0.570533 15.5322 1.82863 17.8005 3.65509 19.5633L14.7662 8.05051ZM15.6918 9.71939C15.8272 10.3555 15.7694 11.0175 15.5259 11.6206L0.69004 5.62905C-0.260492 7.98271 -0.486081 10.5667 0.0422263 13.0495L15.6918 9.71939ZM15.5259 11.6206C15.2823 12.2236 14.8642 12.7401 14.325 13.1038L5.37698 -0.160153C3.27269 1.25943 1.64057 3.27539 0.69004 5.62905L15.5259 11.6206ZM14.325 13.1038C13.7859 13.4675 13.1504 13.6618 12.5001 13.6618V-2.33819C9.96171 -2.33819 7.48126 -1.57974 5.37698 -0.160153L14.325 13.1038ZM12.5001 13.6618C11.8497 13.6618 11.2142 13.4675 10.6751 13.1038L19.6232 -0.160153C17.5189 -1.57974 15.0384 -2.33819 12.5001 -2.33819V13.6618ZM10.6751 13.1038C10.136 12.7401 9.71779 12.2236 9.47426 11.6206L24.3101 5.62905C23.3596 3.27539 21.7274 1.25943 19.6232 -0.160153L10.6751 13.1038ZM9.47426 11.6206C9.23072 11.0175 9.17293 10.3555 9.30828 9.71939L24.9579 13.0495C25.4862 10.5667 25.2606 7.98272 24.3101 5.62905L9.47426 11.6206ZM9.30828 9.71939C9.44364 9.08329 9.76597 8.50214 10.2339 8.05051L21.345 19.5633C23.1715 17.8005 24.4296 15.5322 24.9579 13.0495L9.30828 9.71939ZM17.4843 17.452C16.9236 18.8169 15.9714 19.9852 14.7478 20.8098L5.80619 7.54155C4.41031 8.48225 3.32405 9.81511 2.68439 11.3722L17.4843 17.452ZM14.7478 20.8098C13.5243 21.6344 12.084 22.0784 10.6085 22.0857L10.5286 6.08593C8.84523 6.09433 7.20208 6.60084 5.80619 7.54155L14.7478 20.8098ZM10.5685 22.0858H14.4316V6.08583H10.5685V22.0858ZM14.3917 22.0857C12.9161 22.0784 11.4758 21.6344 10.2523 20.8098L19.1939 7.54155C17.798 6.60083 16.1549 6.09433 14.4715 6.08593L14.3917 22.0857ZM10.2523 20.8098C9.02874 19.9852 8.07658 18.8169 7.51588 17.452L22.3157 11.3722C21.6761 9.81511 20.5898 8.48225 19.1939 7.54155L10.2523 20.8098ZM7.53166 17.4902L9.58952 22.4269L24.3578 16.2709L22.3 11.3341L7.53166 17.4902ZM16.9737 11.3489H8.02646V27.3489H16.9737V11.3489ZM15.4106 22.4269L17.4685 17.4902L2.70017 11.3341L0.642311 16.2709L15.4106 22.4269ZM18.2894 13.4541H6.71069V29.4541H18.2894V13.4541ZM14.7107 21.4541V20.4015H-1.28931V21.4541H14.7107ZM6.71069 28.4015H18.2894V12.4015H6.71069V28.4015ZM10.2894 20.4015V21.4541H26.2894V20.4015H10.2894Z" fill="#19CE67" mask="url(#path-1-inside-1_26_107328)"/>
    <path d="M13.5529 16.1913H11.4477C11.3081 16.1913 11.1742 16.1358 11.0755 16.0371C10.9768 15.9384 10.9214 15.8046 10.9214 15.665C10.9214 15.5254 10.9768 15.3915 11.0755 15.2928C11.1742 15.1941 11.3081 15.1387 11.4477 15.1387H13.5529C13.6925 15.1387 13.8264 15.1941 13.9251 15.2928C14.0238 15.3915 14.0792 15.5254 14.0792 15.665C14.0792 15.8046 14.0238 15.9384 13.9251 16.0371C13.8264 16.1358 13.6925 16.1913 13.5529 16.1913Z" fill="#19CE67"/>
    <path d="M14.6054 18.2958H10.395C10.2554 18.2958 10.1215 18.2403 10.0228 18.1416C9.9241 18.0429 9.86865 17.9091 9.86865 17.7695C9.86865 17.6299 9.9241 17.496 10.0228 17.3973C10.1215 17.2986 10.2554 17.2432 10.395 17.2432H14.6054C14.745 17.2432 14.8789 17.2986 14.9776 17.3973C15.0763 17.496 15.1317 17.6299 15.1317 17.7695C15.1317 17.9091 15.0763 18.0429 14.9776 18.1416C14.8789 18.2403 14.745 18.2958 14.6054 18.2958Z" fill="#19CE67"/>
</svg>
