<svg width="24" height="24" viewBox="0 0 24 24" fill="none" xmlns="http://www.w3.org/2000/svg">
<path d="M3.375 3C2.339 3 1.5 3.84 1.5 4.875V5.625C1.5 6.661 2.34 7.5 3.375 7.5H20.625C21.66 7.5 22.5 6.66 22.5 5.625V4.875C22.5 3.839 21.66 3 20.625 3H3.375Z" fill="black"/>
<path fill-rule="evenodd" clip-rule="evenodd" d="M3.08691 9L3.62691 18.176C3.67179 18.9395 4.00661 19.6571 4.56293 20.182C5.11925 20.7069 5.85505 20.9995 6.61991 21H17.3769C18.1421 21 18.8784 20.7077 19.4352 20.1827C19.9919 19.6578 20.327 18.9399 20.3719 18.176L20.9129 9H3.08691ZM9.24991 12.75C9.24991 12.5511 9.32893 12.3603 9.46958 12.2197C9.61024 12.079 9.801 12 9.99991 12H13.9999C14.1988 12 14.3896 12.079 14.5302 12.2197C14.6709 12.3603 14.7499 12.5511 14.7499 12.75C14.7499 12.9489 14.6709 13.1397 14.5302 13.2803C14.3896 13.421 14.1988 13.5 13.9999 13.5H9.99991C9.801 13.5 9.61024 13.421 9.46958 13.2803C9.32893 13.1397 9.24991 12.9489 9.24991 12.75Z" fill="black"/>
</svg>
