<svg width="24" height="24" viewBox="0 0 24 24" fill="none" xmlns="http://www.w3.org/2000/svg">
<path fill-rule="evenodd" clip-rule="evenodd" d="M6.75 2.25C6.94891 2.25 7.13968 2.32902 7.28033 2.46967C7.42098 2.61032 7.5 2.80109 7.5 3V4.5H16.5V3C16.5 2.80109 16.579 2.61032 16.7197 2.46967C16.8603 2.32902 17.0511 2.25 17.25 2.25C17.4489 2.25 17.6397 2.32902 17.7803 2.46967C17.921 2.61032 18 2.80109 18 3V4.5H18.75C19.5456 4.5 20.3087 4.81607 20.8713 5.37868C21.4339 5.94129 21.75 6.70435 21.75 7.5V18.75C21.75 19.5456 21.4339 20.3087 20.8713 20.8713C20.3087 21.4339 19.5456 21.75 18.75 21.75H5.25C4.45435 21.75 3.69129 21.4339 3.12868 20.8713C2.56607 20.3087 2.25 19.5456 2.25 18.75V7.5C2.25 6.70435 2.56607 5.94129 3.12868 5.37868C3.69129 4.81607 4.45435 4.5 5.25 4.5H6V3C6 2.80109 6.07902 2.61032 6.21967 2.46967C6.36032 2.32902 6.55109 2.25 6.75 2.25ZM20.25 11.25C20.25 10.8522 20.092 10.4706 19.8107 10.1893C19.5294 9.90804 19.1478 9.75 18.75 9.75H5.25C4.85218 9.75 4.47064 9.90804 4.18934 10.1893C3.90804 10.4706 3.75 10.8522 3.75 11.25V18.75C3.75 19.1478 3.90804 19.5294 4.18934 19.8107C4.47064 20.092 4.85218 20.25 5.25 20.25H18.75C19.1478 20.25 19.5294 20.092 19.8107 19.8107C20.092 19.5294 20.25 19.1478 20.25 18.75V11.25Z" fill="black"/>
</svg>
