<svg width="24" height="24" viewBox="0 0 24 24" fill="none" xmlns="http://www.w3.org/2000/svg">
<path d="M22 12C22 17.514 17.514 22 12 22C10.4085 22 8.831 21.615 7.4175 20.8855L3.587 21.955C3.4765 21.985 3.364 22 3.252 22C2.9245 22 2.604 21.871 2.3665 21.634C2.048 21.315 1.9255 20.848 2.0465 20.4145L3.116 16.586C2.385 15.171 2 13.5925 2 12C2 6.4855 6.486 2 12 2C17.514 2 22 6.4855 22 12ZM17 10.2495C17 9.8355 16.6645 9.4995 16.25 9.4995H7.75C7.3355 9.4995 7 9.8355 7 10.2495C7 10.6635 7.3355 10.9995 7.75 10.9995H16.25C16.6645 10.9995 17 10.6635 17 10.2495ZM15 13.7495C15 13.3355 14.6645 12.9995 14.25 12.9995H7.75C7.3355 12.9995 7 13.3355 7 13.7495C7 14.1635 7.3355 14.4995 7.75 14.4995H14.25C14.6645 14.4995 15 14.1635 15 13.7495Z" fill="black"/>
</svg>
