<svg width="18" height="19" viewBox="0 0 18 19" fill="none" xmlns="http://www.w3.org/2000/svg">
    <path d="M9 1.50781C4.85775 1.50781 1.5 4.86556 1.5 9.00781C1.5 13.1501 4.85775 16.5078 9 16.5078C13.1423 16.5078 16.5 13.1501 16.5 9.00781C16.5 4.86556 13.1423 1.50781 9 1.50781ZM10.9395 12.0078L8.46975 9.53806C8.32875 9.39706 8.25 9.20656 8.25 9.00781V5.25781C8.25 4.84381 8.586 4.50781 9 4.50781C9.414 4.50781 9.75 4.84381 9.75 5.25781V8.69731L12 10.9473C12.2925 11.2398 12.2925 11.7153 12 12.0078C11.7075 12.3003 11.232 12.3003 10.9395 12.0078Z"
          fill="#19CE67"/>
</svg>
