<svg width="24" height="24" viewBox="0 0 24 24" fill="none" xmlns="http://www.w3.org/2000/svg">
<path d="M12.0001 8.00003C7.83714 7.99453 5.02507 8.87604 3.06557 10.6035C2.24107 11.3305 1.85445 12.4066 2.04995 13.4326L2.24721 14.4678C2.43221 15.4378 3.34031 16.0893 4.36831 15.9903L6.41421 15.793C7.30621 15.707 8.06611 15.0745 8.29311 14.2295L8.91421 12.0948C9.84871 11.7118 11.0001 11.5 12.0001 11.5C13.0001 11.5 14.0456 11.6859 14.9796 12.0684L15.6017 14.2032C15.8287 15.0482 16.5891 15.6806 17.4806 15.7666L19.5265 15.9639C20.5545 16.0629 21.4616 15.4124 21.6466 14.4424L21.8439 13.4073C22.0394 12.3813 21.6537 11.3042 20.8292 10.5772C18.8702 8.84917 16.1631 8.00553 12.0001 8.00003Z" fill="black"/>
</svg>
