<svg width="24" height="24" viewBox="0 0 24 24" fill="none" xmlns="http://www.w3.org/2000/svg">
<path d="M6.5 22.0001H5C3.8955 22.0001 3 21.1046 3 20.0001V11.5001C3 10.3956 3.8955 9.50005 5 9.50005H8.5V20.0001C8.5 21.1046 7.6045 22.0001 6.5 22.0001ZM20.3315 10.7846C19.854 10.2801 19.1945 10.0016 18.4735 10.0001H14.75C14.75 10.0001 15.295 7.81155 15.4825 7.07755C15.7655 5.96705 15.8225 5.03255 15.6605 4.13655C15.5765 3.67105 15.427 3.06855 15.015 2.53505C14.7225 2.15605 14.3565 1.90955 13.9265 1.80155C13.2865 1.64205 12.9025 1.84655 12.6725 2.48805C12.6535 2.54005 11.8495 5.37105 11.8495 5.37105C11.7865 5.59455 11.726 5.77255 11.6335 5.91605C11.0395 6.84205 10.3215 7.74255 9.4995 8.66055V20.7391C11.7295 21.3761 15.0825 21.9596 15.311 21.9811C15.441 21.9941 15.57 22.0001 15.698 22.0001C17.502 22.0001 19.0885 20.7846 19.553 18.9911C19.972 17.3721 20.8355 13.5001 20.8355 13.5001C20.9045 13.2446 20.983 12.9551 21 12.6391C21.0375 11.9386 20.8 11.2806 20.3315 10.7846Z" fill="black"/>
</svg>
