<svg width="22" height="22" viewBox="0 0 22 22" fill="none" xmlns="http://www.w3.org/2000/svg">
    <path
        d="M10 0V2.05859C5.80572 2.51486 2.51486 5.80572 2.05859 10H0V12H2.05859C2.51486 16.1943 5.80572 19.4851 10 19.9414V22H12V19.9414C16.1943 19.4851 19.4851 16.1943 19.9414 12H22V10H19.9414C19.4851 5.80572 16.1943 2.51486 12 2.05859V0H10ZM11 4C14.9 4 18 7.1 18 11C18 14.9 14.9 18 11 18C7.1 18 4 14.9 4 11C4 7.1 7.1 4 11 4ZM11 8C10.2044 8 9.44129 8.31607 8.87868 8.87868C8.31607 9.44129 8 10.2044 8 11C8 11.7956 8.31607 12.5587 8.87868 13.1213C9.44129 13.6839 10.2044 14 11 14C11.7956 14 12.5587 13.6839 13.1213 13.1213C13.6839 12.5587 14 11.7956 14 11C14 10.2044 13.6839 9.44129 13.1213 8.87868C12.5587 8.31607 11.7956 8 11 8Z"
        fill="black" />
</svg>