<svg width="24" height="24" viewBox="0 0 24 24" fill="none" xmlns="http://www.w3.org/2000/svg">
<path d="M11.6999 2.80505C11.7946 2.76375 11.8967 2.74243 11.9999 2.74243C12.1032 2.74243 12.2053 2.76375 12.2999 2.80505C15.998 4.42145 19.5255 6.40294 22.8299 8.72005C22.9464 8.80171 23.0372 8.91481 23.0918 9.04614C23.1464 9.17748 23.1626 9.32163 23.1384 9.46179C23.1141 9.60195 23.0506 9.73233 22.9551 9.83773C22.8596 9.94312 22.736 10.0192 22.5989 10.057C19.1683 11.0045 15.8488 12.316 12.6969 13.969L12.6939 13.971L12.3539 14.151C12.2452 14.2092 12.1238 14.2396 12.0004 14.2396C11.8771 14.2396 11.7557 14.2092 11.6469 14.151C10.2956 13.4289 8.91183 12.7692 7.49994 12.174V11.95C7.49994 11.819 7.56694 11.702 7.67194 11.639C9.18131 10.7244 10.7341 9.88337 12.3249 9.11905C12.5042 9.03285 12.6419 8.87896 12.7078 8.69124C12.7736 8.50352 12.7621 8.29733 12.6759 8.11805C12.5897 7.93876 12.4359 7.80106 12.2481 7.73523C12.0604 7.66941 11.8542 7.68085 11.6749 7.76705C10.0407 8.55234 8.44552 9.41635 6.89494 10.356C6.67434 10.4899 6.48403 10.6682 6.33614 10.8796C6.18824 11.091 6.08601 11.3309 6.03594 11.584C4.51715 10.9996 2.97063 10.49 1.40194 10.057C1.26483 10.0192 1.14132 9.94312 1.04581 9.83773C0.9503 9.73233 0.886728 9.60195 0.862512 9.46179C0.838297 9.32163 0.854435 9.17748 0.909045 9.04614C0.963655 8.91481 1.05449 8.80171 1.17094 8.72005C4.47509 6.40301 8.00223 4.42152 11.6999 2.80505Z" fill="black"/>
<path d="M13.0598 15.4729C15.516 14.1607 18.0809 13.0626 20.7258 12.1909C20.8598 13.6049 20.9458 15.0339 20.9808 16.4759C20.9844 16.6268 20.9425 16.7753 20.8604 16.902C20.7784 17.0287 20.66 17.1276 20.5208 17.1859C17.6861 18.3699 14.9719 19.8239 12.4158 21.5279C12.2926 21.6101 12.1478 21.6539 11.9998 21.6539C11.8517 21.6539 11.707 21.6101 11.5838 21.5279C9.02798 19.824 6.31413 18.37 3.47977 17.1859C3.34037 17.1278 3.22178 17.0289 3.13952 16.9022C3.05726 16.7755 3.01518 16.6269 3.01877 16.4759C3.05377 15.0339 3.13977 13.6059 3.27377 12.1899C4.19212 12.4926 5.10119 12.8228 5.99977 13.1799V14.4499C5.7837 14.5744 5.60208 14.7508 5.47133 14.9632C5.34058 15.1755 5.26483 15.4171 5.25094 15.666C5.23704 15.915 5.28543 16.1635 5.39173 16.3891C5.49804 16.6147 5.6589 16.8102 5.85977 16.9579C5.76977 17.3379 5.63777 17.7109 5.46277 18.0679C5.91477 18.2809 6.36377 18.5019 6.80877 18.7289C7.05967 18.2184 7.24481 17.6781 7.35977 17.1209C7.61265 17.0085 7.8295 16.8283 7.98632 16.6003C8.14313 16.3722 8.2338 16.1052 8.24829 15.8289C8.26278 15.5525 8.20053 15.2775 8.06843 15.0343C7.93632 14.7911 7.73951 14.5892 7.49977 14.4509V13.8059C8.66789 14.3166 9.81544 14.873 10.9398 15.4739C11.2659 15.6481 11.63 15.7393 11.9998 15.7393C12.3695 15.7393 12.7336 15.6481 13.0598 15.4739V15.4729Z" fill="black"/>
<path d="M4.46183 19.462C4.88183 19.043 5.21483 18.572 5.46183 18.068C5.91483 18.281 6.36383 18.502 6.80883 18.729C6.48161 19.3936 6.04713 19.9997 5.52283 20.523C5.45417 20.5967 5.37137 20.6558 5.27937 20.6968C5.18737 20.7378 5.08805 20.7598 4.98735 20.7616C4.88665 20.7634 4.78662 20.7448 4.69323 20.7071C4.59984 20.6694 4.51501 20.6132 4.44379 20.542C4.37257 20.4708 4.31643 20.386 4.27871 20.2926C4.24099 20.1992 4.22246 20.0992 4.22424 19.9985C4.22601 19.8978 4.24806 19.7985 4.28905 19.7065C4.33004 19.6145 4.38914 19.5317 4.46283 19.463L4.46183 19.462Z" fill="black"/>
</svg>
