<svg width="25" height="25" viewBox="0 0 25 25" fill="none" xmlns="http://www.w3.org/2000/svg">
    <path d="M23.9286 6.25L18.75 1.07143C18.0357 0.357143 17.1429 0 16.1607 0H8.75C7.85714 0 6.96429 0.357143 6.25 1.07143L1.07143 6.25C0.357143 6.96429 0 7.85714 0 8.83928V16.25C0 17.2321 0.357143 18.125 1.07143 18.75L6.25 23.9286C6.96429 24.5536 7.85714 25 8.75 25H16.1607C17.1429 25 18.0357 24.6429 18.6607 23.9286L23.9286 18.6607C24.5536 17.9464 25 17.0536 25 16.1607V8.75C25 7.85714 24.6429 6.96429 23.9286 6.25Z" fill="#FFC107"/>
    <path d="M12.3215 20.2663C10.268 20.3556 10.6251 16.7842 12.5894 17.2306C14.643 17.1413 14.3751 20.7127 12.3215 20.2663ZM12.5001 15.3556C11.9644 15.3556 11.6965 15.0877 11.6965 14.4627L11.0715 6.24846C10.9822 5.44489 11.6072 4.7306 12.4108 4.64132C13.2144 4.55203 13.9287 5.17703 14.018 5.9806V6.24846L13.393 14.4627C13.3037 15.0877 13.0358 15.3556 12.5001 15.3556Z" fill="#EEEEEE"/>
</svg>
