<svg width="110" height="110" viewBox="0 0 110 110" fill="none" xmlns="http://www.w3.org/2000/svg">
    <path d="M13.2904 12.5586C8.64436 12.5586 4.87793 16.325 4.87793 20.971C4.87793 25.617 8.64436 29.3834 13.2904 29.3834V39.2783C8.64436 39.2783 4.87793 43.0447 4.87793 47.6907C4.87793 52.3367 8.64436 56.1031 13.2904 56.1031C8.64436 56.1031 4.87793 59.8695 4.87793 64.5155C4.87793 69.1615 8.64436 72.928 13.2904 72.928V12.5586Z" fill="#FFCBBE"/>
    <path d="M103.755 84.4317C102.533 87.8228 100.747 91.0278 98.5223 93.945H98.5197C89.0623 106.343 71.6662 113.578 55.8548 108.202C43.2306 103.909 35.916 87.889 35.916 87.889C35.916 87.889 33.9517 78.5667 26.1885 74.6406C24.1172 73.5909 21.6358 72.9285 18.6675 72.9285L77.8907 34.4726C79.1213 29.5069 84.1428 26.4853 89.1059 27.716C94.0716 28.9492 97.0957 33.9733 95.8625 38.9338C94.4867 44.4828 95.3504 50.2382 98.3032 55.1401C98.3032 55.1401 108.787 70.4776 103.755 84.4317Z" fill="#FFDDCE"/>
    <path d="M98.5202 93.9459C89.0628 106.343 71.6667 113.579 55.8552 108.203C43.231 103.91 35.9164 87.8898 35.9164 87.8898C35.9164 87.8898 33.9521 78.5676 26.189 74.6415L28.1788 70.1523L73.5902 70.4912C69.1852 82.3535 78.0361 98.4223 98.5202 93.9459Z" fill="#FFCBBE"/>
    <path d="M71.0755 94.8468C55.2319 96.5237 39.3882 96.5237 23.5446 94.8468C17.8615 94.2452 13.4345 89.6467 13.0703 83.9435C11.543 60.0159 11.543 36.0885 13.0703 12.161C13.4342 6.45772 17.8615 1.8592 23.5446 1.25764C39.3882 -0.419214 55.2319 -0.419214 71.0755 1.25764C76.7586 1.8592 81.1857 6.45772 81.5498 12.161C83.0771 36.0885 83.0771 60.0159 81.5498 83.9435C81.1859 89.6467 76.7588 94.2452 71.0755 94.8468Z" fill="#223E5C"/>
    <path d="M22.2238 94.639C17.1752 93.5302 13.3795 89.2075 13.0452 83.9445C11.5181 60.0167 11.5181 36.091 13.0452 12.1632C13.3795 6.9 17.1752 2.57756 22.2238 1.46875C19.6762 3.57766 17.9985 6.68516 17.775 10.1886C16.1637 35.431 16.1637 60.6758 17.775 85.9185C17.9985 89.4221 19.6762 92.5296 22.2238 94.639Z" fill="#0D253F"/>
    <path d="M75.6703 77.7819C75.3687 82.5059 71.7024 86.3153 66.9958 86.8142C53.8718 88.2025 40.7479 88.2025 27.6259 86.8142C22.9174 86.3153 19.251 82.5059 18.9494 77.7819C17.6848 57.9635 17.6848 38.1433 18.9494 18.3248C19.251 13.6008 22.9174 9.79141 27.6259 9.29254C29.1611 9.13012 30.6947 8.98703 32.23 8.86328C32.7617 10.9419 34.5389 12.5219 36.7393 12.7558C43.7858 13.5003 50.8339 13.5003 57.8804 12.7558C60.081 12.5219 61.858 10.9421 62.3897 8.86328C63.925 8.98703 65.4605 9.13012 66.9958 9.29254C71.7024 9.79141 75.3687 13.6008 75.6703 18.3248C76.9368 38.1433 76.9368 57.9637 75.6703 77.7819Z" fill="#19CE67"/>
    <path d="M54.4479 8.23383H40.1726C39.2558 8.23383 38.5127 7.49068 38.5127 6.57395C38.5127 5.65721 39.2558 4.91406 40.1726 4.91406H54.4479C55.3646 4.91406 56.108 5.65721 56.108 6.57395C56.108 7.49068 55.3648 8.23383 54.4479 8.23383Z" fill="#0D253F"/>
    <path d="M85.1982 69.6436C76.4919 58.9786 75.3201 44.8234 77.8907 34.472C79.1207 29.5078 84.1431 26.4839 89.1073 27.7167C94.0714 28.9494 97.0954 33.9716 95.8626 38.9332C94.4861 44.4835 95.3513 50.2381 98.3032 55.1389L85.1982 69.6436Z" fill="#FFDDCE"/>
    <path d="M85.1977 69.6444C76.492 58.9794 75.3201 44.824 77.8907 34.4726C79.1213 29.5069 84.1428 26.4853 89.1059 27.716C89.3683 27.7821 89.6256 27.856 89.8779 27.9426C87.0041 28.926 84.6754 31.3032 83.8906 34.4726C81.9027 42.4755 82.1521 52.7526 86.3923 61.9335C87.5803 64.5058 87.0967 67.5418 85.1977 69.6444Z" fill="#FFCBBE"/>
    <path d="M41.0763 64.4341L32.5154 50.113C31.6904 48.7331 32.1405 46.9456 33.5204 46.1208L37.839 43.5392C39.219 42.7142 41.0065 43.1643 41.8312 44.5443L46.1754 51.8114L55.0983 33.8102C55.8122 32.3697 57.5589 31.7808 58.9994 32.495L63.5073 34.7296C64.9478 35.4435 65.5367 37.1902 64.8225 38.6307L52.2499 63.9949C51.7768 64.9493 50.8203 65.5691 49.756 65.611L43.6888 65.8495C42.6251 65.8911 41.6229 65.3484 41.0763 64.4341Z" fill="#F1F4F6"/>
</svg>
