<svg width="24" height="24" viewBox="0 0 24 24" fill="none" xmlns="http://www.w3.org/2000/svg">
<path d="M19.2491 18.0001H4.75107C4.14857 18.0001 3.59607 17.6966 3.27357 17.1876C2.95107 16.6786 2.91107 16.0501 3.16757 15.5051L4.50007 12.8241V9.69056C4.50007 5.57106 7.63557 2.19706 11.6386 2.00856C13.7141 1.91456 15.6786 2.64406 17.1761 4.07256C18.6751 5.50206 19.5001 7.42956 19.5001 9.50006V12.8241L20.8251 15.4906C21.0886 16.0501 21.0491 16.6791 20.7266 17.1881C20.4041 17.6971 19.8516 18.0001 19.2491 18.0001ZM11.6741 2.75806H11.6791H11.6741ZM9.04507 19.0001C9.28407 20.4166 10.5161 21.5001 12.0001 21.5001C13.4841 21.5001 14.7156 20.4166 14.9551 19.0001H9.04507Z" fill="black"/>
</svg>
