<svg width="24" height="24" viewBox="0 0 24 24" fill="none" xmlns="http://www.w3.org/2000/svg">
<path d="M3.47779 2.4043C3.21306 2.3274 2.92747 2.40193 2.73407 2.5984C2.54068 2.79487 2.47066 3.0816 2.55174 3.3451L4.98402 11.25H13.4998C13.914 11.25 14.2498 11.5858 14.2498 12C14.2498 12.4142 13.914 12.75 13.4998 12.75H4.98403L2.55183 20.6546C2.47076 20.9181 2.54077 21.2049 2.73417 21.4013C2.92756 21.5978 3.21315 21.6723 3.47789 21.5954C10.1765 19.6494 16.3972 16.5814 21.923 12.6087C22.119 12.4678 22.2352 12.2412 22.2352 11.9998C22.2352 11.7583 22.119 11.5317 21.923 11.3908C16.3971 7.41817 10.1764 4.35021 3.47779 2.4043Z" fill="#0F172A"/>
</svg>
