<svg width="24" height="24" viewBox="0 0 24 24" fill="none" xmlns="http://www.w3.org/2000/svg">
<path d="M21.7308 2.26906C21.2385 1.77687 20.5709 1.50037 19.8748 1.50037C19.1786 1.50037 18.511 1.77687 18.0188 2.26906L16.8618 3.42606L20.5738 7.13806L21.7308 5.98106C22.223 5.48879 22.4995 4.82117 22.4995 4.12506C22.4995 3.42894 22.223 2.76133 21.7308 2.26906ZM19.5128 8.19906L15.8008 4.48706L3.65077 16.6371C3.03362 17.2539 2.57994 18.0148 2.33077 18.8511L1.53077 21.5361C1.49214 21.6656 1.48926 21.8032 1.52243 21.9343C1.5556 22.0654 1.62358 22.185 1.71918 22.2806C1.81478 22.3762 1.93445 22.4442 2.06553 22.4774C2.1966 22.5106 2.3342 22.5077 2.46377 22.4691L5.14877 21.6691C5.98499 21.4199 6.74593 20.9662 7.36277 20.3491L19.5128 8.19906Z" fill="black"/>
</svg>
