<svg width="24" height="24" viewBox="0 0 24 24" fill="none" xmlns="http://www.w3.org/2000/svg">
<path fill-rule="evenodd" clip-rule="evenodd" d="M1.5 6C1.5 5.40326 1.73705 4.83097 2.15901 4.40901C2.58097 3.98705 3.15326 3.75 3.75 3.75H20.25C20.8467 3.75 21.419 3.98705 21.841 4.40901C22.2629 4.83097 22.5 5.40326 22.5 6V18C22.5 18.5967 22.2629 19.169 21.841 19.591C21.419 20.0129 20.8467 20.25 20.25 20.25H3.75C3.15326 20.25 2.58097 20.0129 2.15901 19.591C1.73705 19.169 1.5 18.5967 1.5 18V6ZM3 16.06V18C3 18.414 3.336 18.75 3.75 18.75H20.25C20.4489 18.75 20.6397 18.671 20.7803 18.5303C20.921 18.3897 21 18.1989 21 18V16.06L18.31 13.371C18.0287 13.0901 17.6475 12.9323 17.25 12.9323C16.8525 12.9323 16.4713 13.0901 16.19 13.371L15.31 14.25L16.28 15.22C16.3537 15.2887 16.4128 15.3715 16.4538 15.4635C16.4948 15.5555 16.5168 15.6548 16.5186 15.7555C16.5204 15.8562 16.5018 15.9562 16.4641 16.0496C16.4264 16.143 16.3703 16.2278 16.299 16.299C16.2278 16.3703 16.143 16.4264 16.0496 16.4641C15.9562 16.5018 15.8562 16.5204 15.7555 16.5186C15.6548 16.5168 15.5555 16.4948 15.4635 16.4538C15.3715 16.4128 15.2887 16.3537 15.22 16.28L10.06 11.121C9.77875 10.8401 9.3975 10.6823 9 10.6823C8.6025 10.6823 8.22125 10.8401 7.94 11.121L3 16.061V16.06ZM13.125 8.25C13.125 7.95163 13.2435 7.66548 13.4545 7.4545C13.6655 7.24353 13.9516 7.125 14.25 7.125C14.5484 7.125 14.8345 7.24353 15.0455 7.4545C15.2565 7.66548 15.375 7.95163 15.375 8.25C15.375 8.54837 15.2565 8.83452 15.0455 9.0455C14.8345 9.25647 14.5484 9.375 14.25 9.375C13.9516 9.375 13.6655 9.25647 13.4545 9.0455C13.2435 8.83452 13.125 8.54837 13.125 8.25Z" fill="black"/>
</svg>
