<svg width="24" height="24" viewBox="0 0 24 24" fill="none" xmlns="http://www.w3.org/2000/svg">
<path d="M5.25 3.5C3.46403 3.5 2 4.96403 2 6.75V15.25C2 17.036 3.46403 18.5 5.25 18.5H6V21.25C6 22.233 7.21365 22.8395 8 22.25L13 18.5H18.75C20.536 18.5 22 17.036 22 15.25V6.75C22 4.96403 20.536 3.5 18.75 3.5H5.25ZM8.5 10C9.0525 10 9.5 10.4475 9.5 11C9.5 11.5525 9.0525 12 8.5 12C7.9475 12 7.5 11.5525 7.5 11C7.5 10.4475 7.9475 10 8.5 10ZM12 10C12.5525 10 13 10.4475 13 11C13 11.5525 12.5525 12 12 12C11.4475 12 11 11.5525 11 11C11 10.4475 11.4475 10 12 10ZM15.5 10C16.0525 10 16.5 10.4475 16.5 11C16.5 11.5525 16.0525 12 15.5 12C14.9475 12 14.5 11.5525 14.5 11C14.5 10.4475 14.9475 10 15.5 10Z" fill="black"/>
</svg>
