<svg width="37" height="37" viewBox="0 0 37 37" fill="none" xmlns="http://www.w3.org/2000/svg">
    <path fill-rule="evenodd" clip-rule="evenodd"
          d="M11.5621 9.25C11.5621 7.41006 12.293 5.64548 13.5941 4.34445C14.8951 3.04341 16.6597 2.3125 18.4996 2.3125C20.3396 2.3125 22.1041 3.04341 23.4052 4.34445C24.7062 5.64548 25.4371 7.41006 25.4371 9.25C25.4371 11.0899 24.7062 12.8545 23.4052 14.1556C22.1041 15.4566 20.3396 16.1875 18.4996 16.1875C16.6597 16.1875 14.8951 15.4566 13.5941 14.1556C12.293 12.8545 11.5621 11.0899 11.5621 9.25ZM5.78241 30.9952C5.8344 27.6567 7.19711 24.4725 9.57639 22.13C11.9557 19.7875 15.1607 18.4745 18.4996 18.4745C21.8385 18.4745 25.0436 19.7875 27.4228 22.13C29.8021 24.4725 31.1648 27.6567 31.2168 30.9952C31.2208 31.22 31.1592 31.441 31.0396 31.6313C30.9199 31.8216 30.7474 31.9729 30.5431 32.0667C26.7648 33.799 22.6562 34.6931 18.4996 34.6875C14.2045 34.6875 10.1237 33.7502 6.45612 32.0667C6.25183 31.9729 6.0793 31.8216 5.95964 31.6313C5.83999 31.441 5.7784 31.22 5.78241 30.9952Z"
          fill="#CDCDCD"/>
</svg>
