<svg width="24" height="24" viewBox="0 0 24 24" fill="none" xmlns="http://www.w3.org/2000/svg">
<path d="M12 2C6.485 2 2 6.485 2 12C2 13.595 2.385 15.17 3.115 16.585L2.045 20.415C1.925 20.85 2.05 21.315 2.365 21.635C2.605 21.87 2.925 22 3.25 22C3.365 22 3.475 21.985 3.585 21.955L7.415 20.885C8.83 21.615 10.41 22 12 22C17.515 22 22 17.515 22 12C22 6.485 17.515 2 12 2ZM17.18 15.685C16.96 16.3 15.88 16.895 15.395 16.94C14.91 16.985 14.455 17.16 12.225 16.28C9.535 15.22 7.835 12.465 7.705 12.285C7.57 12.11 6.625 10.855 6.625 9.55C6.625 8.25 7.31 7.61 7.55 7.345C7.795 7.08 8.08 7.015 8.255 7.015C8.435 7.015 8.61 7.015 8.765 7.02C8.95 7.03 9.16 7.04 9.36 7.48C9.595 8 10.11 9.31 10.175 9.445C10.24 9.575 10.285 9.73 10.195 9.905C10.11 10.08 10.065 10.19 9.93 10.345C9.8 10.5 9.655 10.69 9.535 10.81C9.405 10.94 9.265 11.085 9.42 11.35C9.575 11.615 10.105 12.48 10.89 13.18C11.9 14.08 12.75 14.36 13.015 14.495C13.28 14.625 13.435 14.605 13.59 14.425C13.745 14.25 14.25 13.655 14.43 13.39C14.605 13.125 14.78 13.17 15.025 13.26C15.265 13.345 16.565 13.985 16.83 14.12C17.095 14.25 17.27 14.315 17.335 14.425C17.4 14.535 17.4 15.065 17.18 15.685Z" fill="black"/>
</svg>
