<svg width="32" height="32" viewBox="0 0 32 32" fill="none" xmlns="http://www.w3.org/2000/svg">
    <g clip-path="url(#clip0_670_34070)">
        <g filter="url(#filter0_d_670_34070)">
            <path fill-rule="evenodd" clip-rule="evenodd" d="M16 3C8.82 3 3 8.82 3 16C3 23.18 8.82 29 16 29C23.18 29 29 23.18 29 16C29 8.82 23.18 3 16 3ZM13.7067 12.2933C13.6151 12.1951 13.5047 12.1163 13.3821 12.0616C13.2594 12.007 13.127 11.9776 12.9927 11.9752C12.8584 11.9728 12.7251 11.9975 12.6005 12.0478C12.476 12.0981 12.3629 12.173 12.268 12.268C12.173 12.3629 12.0981 12.476 12.0478 12.6005C11.9975 12.7251 11.9728 12.8584 11.9752 12.9927C11.9776 13.127 12.007 13.2594 12.0616 13.3821C12.1163 13.5047 12.1951 13.6151 12.2933 13.7067L14.5867 16L12.2933 18.2933C12.1951 18.3849 12.1163 18.4953 12.0616 18.6179C12.007 18.7406 11.9776 18.873 11.9752 19.0073C11.9728 19.1416 11.9975 19.2749 12.0478 19.3995C12.0981 19.524 12.173 19.6371 12.268 19.7321C12.3629 19.827 12.476 19.9019 12.6005 19.9522C12.7251 20.0025 12.8584 20.0272 12.9927 20.0248C13.127 20.0224 13.2594 19.993 13.3821 19.9384C13.5047 19.8837 13.6151 19.8049 13.7067 19.7067L16 17.4133L18.2933 19.7067C18.3849 19.8049 18.4953 19.8837 18.6179 19.9384C18.7406 19.993 18.873 20.0224 19.0073 20.0248C19.1416 20.0272 19.2749 20.0025 19.3995 19.9522C19.524 19.9019 19.6371 19.827 19.7321 19.7321C19.827 19.6371 19.9019 19.524 19.9522 19.3995C20.0025 19.2749 20.0272 19.1416 20.0248 19.0073C20.0224 18.873 19.993 18.7406 19.9384 18.6179C19.8837 18.4953 19.8049 18.3849 19.7067 18.2933L17.4133 16L19.7067 13.7067C19.8049 13.6151 19.8837 13.5047 19.9384 13.3821C19.993 13.2594 20.0224 13.127 20.0248 12.9927C20.0272 12.8584 20.0025 12.7251 19.9522 12.6005C19.9019 12.476 19.827 12.3629 19.7321 12.268C19.6371 12.173 19.524 12.0981 19.3995 12.0478C19.2749 11.9975 19.1416 11.9728 19.0073 11.9752C18.873 11.9776 18.7406 12.007 18.6179 12.0616C18.4953 12.1163 18.3849 12.1951 18.2933 12.2933L16 14.5867L13.7067 12.2933Z" fill="white"/>
        </g>
    </g>
    <defs>
        <filter id="filter0_d_670_34070" x="-1" y="1" width="34" height="34" filterUnits="userSpaceOnUse" color-interpolation-filters="sRGB">
            <feFlood flood-opacity="0" result="BackgroundImageFix"/>
            <feColorMatrix in="SourceAlpha" type="matrix" values="0 0 0 0 0 0 0 0 0 0 0 0 0 0 0 0 0 0 127 0" result="hardAlpha"/>
            <feOffset dy="2"/>
            <feGaussianBlur stdDeviation="2"/>
            <feComposite in2="hardAlpha" operator="out"/>
            <feColorMatrix type="matrix" values="0 0 0 0 0 0 0 0 0 0 0 0 0 0 0 0 0 0 0.25 0"/>
            <feBlend mode="normal" in2="BackgroundImageFix" result="effect1_dropShadow_670_34070"/>
            <feBlend mode="normal" in="SourceGraphic" in2="effect1_dropShadow_670_34070" result="shape"/>
        </filter>
        <clipPath id="clip0_670_34070">
            <rect width="32" height="32" fill="white"/>
        </clipPath>
    </defs>
</svg>
