<svg width="14" height="14" viewBox="0 0 14 14" fill="none" xmlns="http://www.w3.org/2000/svg">
    <path d="M9.36333 6.5141L7.33634 8.95016C7.29528 8.99951 7.24387 9.03922 7.18574 9.06647C7.12762 9.09373 7.06421 9.10785 7.00001 9.10785C6.93582 9.10785 6.87241 9.09373 6.81428 9.06647C6.75616 9.03922 6.70474 8.99951 6.66368 8.95016L4.63669 6.5141C4.58357 6.45022 4.54974 6.37253 4.53915 6.29012C4.52856 6.20771 4.54166 6.12399 4.57691 6.04875C4.61217 5.97351 4.66811 5.90987 4.73821 5.86527C4.80831 5.82066 4.88966 5.79694 4.97275 5.79688H9.02728C9.11036 5.79694 9.19171 5.82066 9.26181 5.86527C9.33191 5.90987 9.38786 5.97351 9.42311 6.04875C9.45836 6.12399 9.47146 6.20771 9.46088 6.29012C9.45029 6.37253 9.41646 6.45022 9.36333 6.5141Z" fill="#EBEBEB"/>
    <path d="M12.25 7C12.25 4.10156 9.89844 1.75 7 1.75C4.10156 1.75 1.75 4.10156 1.75 7C1.75 9.89844 4.10156 12.25 7 12.25C9.89844 12.25 12.25 9.89844 12.25 7Z" stroke="#EBEBEB" stroke-miterlimit="10"/>
</svg>
