<svg width="12" height="12" viewBox="0 0 12 12" fill="none" xmlns="http://www.w3.org/2000/svg">
    <g clip-path="url(#clip0_1309_737)">
        <path d="M1.875 4.96875V10.5C1.875 10.5995 1.91451 10.6948 1.98484 10.7652C2.05516 10.8355 2.15054 10.875 2.25 10.875H4.5V7.6875C4.5 7.53832 4.55926 7.39524 4.66475 7.28975C4.77024 7.18426 4.91332 7.125 5.0625 7.125H6.9375C7.08668 7.125 7.22976 7.18426 7.33525 7.28975C7.44074 7.39524 7.5 7.53832 7.5 7.6875V10.875H9.75C9.84946 10.875 9.94484 10.8355 10.0152 10.7652C10.0855 10.6948 10.125 10.5995 10.125 10.5V4.96875" stroke="black" stroke-linecap="round" stroke-linejoin="round"/>
        <path d="M11.25 6.00002L6.25523 1.21877C6.13805 1.09502 5.86406 1.09361 5.74477 1.21877L0.75 6.00002M9.375 4.19533V1.50002H8.25V3.11721" stroke="black" stroke-linecap="round" stroke-linejoin="round"/>
    </g>
    <defs>
        <clipPath id="clip0_1309_737">
            <rect width="12" height="12" fill="white"/>
        </clipPath>
    </defs>
</svg>
