<svg width="24" height="24" viewBox="0 0 24 24" fill="none" xmlns="http://www.w3.org/2000/svg">
    <path d="M9 10.2187V9.93747C9 9.24184 9.46875 8.67184 10.1363 8.50356L18.3202 6.31543C18.4589 6.27832 18.6042 6.27356 18.745 6.30151C18.8859 6.32947 19.0184 6.3894 19.1324 6.47668C19.2464 6.56396 19.3388 6.67626 19.4026 6.80491C19.4663 6.93357 19.4996 7.07514 19.5 7.21872V8.24997" stroke="black" stroke-linecap="round" stroke-linejoin="round"/>
    <path d="M19.5 13.8722V17.6222C19.5 18.2743 19.0814 18.8218 18.4688 19.0285L17.4375 19.4035C16.2234 19.8122 15 18.915 15 17.6222C14.9972 17.2901 15.1002 16.9658 15.294 16.6961C15.4878 16.4264 15.7625 16.2254 16.0781 16.1222L18.4688 15.2714C19.0814 15.0652 19.5 14.5243 19.5 13.8722ZM19.5 13.8722V2.71879C19.4997 2.64702 19.4829 2.57629 19.4509 2.51204C19.4189 2.4478 19.3726 2.39175 19.3155 2.34823C19.2585 2.30471 19.1922 2.27487 19.1217 2.26102C19.0513 2.24716 18.9787 2.24966 18.9094 2.26832L9.5625 4.78129C9.39948 4.82733 9.25611 4.92569 9.15447 5.0612C9.05283 5.19672 8.99856 5.3619 9 5.53129V16.125M9 16.125C9 16.7771 8.58141 17.325 7.96875 17.5313L5.53125 18.375C4.88062 18.5944 4.5 19.1822 4.5 19.875C4.5 21.1679 5.74313 22.0571 6.9375 21.6563L7.96875 21.2813C8.58141 21.075 9 20.5275 9 19.875V16.125Z" stroke="black" stroke-linecap="round" stroke-linejoin="round"/>
</svg>
