<svg width="14" height="14" viewBox="0 0 14 14" fill="none" xmlns="http://www.w3.org/2000/svg">
    <path d="M9.20828 4.40234L4.10785 6.65409C3.82156 6.78534 3.91781 7.21929 4.23281 7.21929H6.67187C6.70088 7.21929 6.7287 7.23081 6.74921 7.25132C6.76972 7.27184 6.78125 7.29966 6.78125 7.32866V9.76718C6.78125 10.0822 7.21875 10.1773 7.34945 9.89187L9.59765 4.79171C9.62282 4.73722 9.63067 4.67631 9.62013 4.61722C9.6096 4.55813 9.58119 4.50368 9.53875 4.46124C9.49631 4.4188 9.44187 4.39039 9.38277 4.37986C9.32368 4.36932 9.26277 4.37717 9.20828 4.40234Z" fill="#EBEBEB"/>
    <path d="M12.25 7C12.25 4.10156 9.89844 1.75 7 1.75C4.10156 1.75 1.75 4.10156 1.75 7C1.75 9.89844 4.10156 12.25 7 12.25C9.89844 12.25 12.25 9.89844 12.25 7Z" stroke="#EBEBEB" stroke-miterlimit="10"/>
</svg>
