<svg width="12" height="13" viewBox="0 0 12 13" fill="none" xmlns="http://www.w3.org/2000/svg">
    <path d="M10.5 6.5C10.5 4.01562 8.48438 2 6 2C3.51562 2 1.5 4.01562 1.5 6.5C1.5 8.98438 3.51562 11 6 11C8.48438 11 10.5 8.98438 10.5 6.5Z" stroke="#EBEBEB" stroke-miterlimit="10"/>
    <path d="M8.55937 7.83594C8.17664 7.38266 7.90641 7.19211 7.90641 5.94219C7.90641 4.79703 7.30219 4.38992 6.80484 4.19211C6.77054 4.1778 6.7396 4.15648 6.71402 4.12952C6.68843 4.10256 6.66875 4.07055 6.65625 4.03555C6.5693 3.74844 6.32531 3.5 6 3.5C5.67469 3.5 5.43023 3.74844 5.34375 4.03578C5.33132 4.07079 5.3117 4.10281 5.28615 4.12977C5.2606 4.15674 5.22968 4.17805 5.19539 4.19234C4.69758 4.39062 4.09383 4.79703 4.09383 5.94242C4.09383 7.19234 3.82336 7.38289 3.44063 7.83617C3.28195 8.02367 3.42539 8.37523 3.70289 8.37523H8.29687C8.57273 8.375 8.71734 8.02344 8.55937 7.83594ZM5.16188 8.75C5.14869 8.74993 5.13564 8.75264 5.12357 8.75795C5.1115 8.76327 5.10069 8.77107 5.09185 8.78084C5.083 8.79062 5.07631 8.80215 5.07222 8.81469C5.06814 8.82722 5.06674 8.84048 5.06813 8.85359C5.12086 9.29234 5.51039 9.5 6 9.5C6.48445 9.5 6.87047 9.28555 6.92953 8.855C6.93113 8.84178 6.92989 8.82837 6.9259 8.81566C6.92191 8.80295 6.91526 8.79124 6.90639 8.78131C6.89752 8.77137 6.88664 8.76344 6.87446 8.75804C6.86228 8.75265 6.8491 8.7499 6.83578 8.75H5.16188Z" fill="#EBEBEB"/>
</svg>
