<svg width="24" height="24" viewBox="0 0 24 24" fill="none" xmlns="http://www.w3.org/2000/svg">
<g clip-path="url(#clip0_905_2597)">
<path d="M16.25 22C15.361 22 14.7495 21.7115 14.21 21.457C13.69 21.212 13.2405 21 12.5 21C11.7595 21 11.31 21.212 10.79 21.457C10.2505 21.7115 9.639 22 8.75 22C6.587 22 3 17.0355 3 11.75C3 8.24499 5.416 5.49999 8.5 5.49999C9.5135 5.49999 10.1295 5.79049 10.673 6.04649C11.189 6.29 11.635 6.49999 12.5 6.49999C13.365 6.49999 13.811 6.29 14.327 6.04649C14.8705 5.79049 15.4865 5.49999 16.5 5.49999C17.832 5.49999 19.0165 5.99099 20.021 6.96049C20.19 7.12349 20.273 7.35699 20.2445 7.59049C20.216 7.82399 20.08 8.03049 19.877 8.14849C18.719 8.82199 18 10.2495 18 11.875C18 13.7055 19.002 15.2795 20.493 15.7905C20.6885 15.8575 20.8475 16.002 20.9325 16.19C21.018 16.3775 21.0225 16.5925 20.944 16.784C19.7305 19.7575 17.712 22 16.25 22ZM12.75 4.99999C12.571 4.99999 12.396 4.93599 12.258 4.81599C12.0765 4.65799 11.981 4.42199 12.003 4.18149C12.009 4.11999 12.1545 2.65899 13.2995 1.49049C14.3765 0.390495 15.425 0.0634948 15.5405 0.0294948C15.785 -0.0415052 16.049 0.0164948 16.241 0.183495C16.4335 0.349995 16.528 0.602995 16.4925 0.855495C16.4755 0.975995 16.298 2.07349 15.3765 3.30499C14.39 4.62299 12.981 4.96599 12.9215 4.97999C12.8645 4.99349 12.807 4.99999 12.75 4.99999Z" fill="black"/>
</g>
<defs>
<clipPath id="clip0_905_2597">
<rect width="24" height="24" fill="white"/>
</clipPath>
</defs>
</svg>
