<svg width="24" height="24" viewBox="0 0 24 24" fill="none" xmlns="http://www.w3.org/2000/svg">
<path d="M12 9C11.0054 9 10.0516 9.39509 9.34835 10.0983C8.64509 10.8016 8.25 11.7554 8.25 12.75C8.25 13.7446 8.64509 14.6984 9.34835 15.4017C10.0516 16.1049 11.0054 16.5 12 16.5C12.9946 16.5 13.9484 16.1049 14.6517 15.4017C15.3549 14.6984 15.75 13.7446 15.75 12.75C15.75 11.7554 15.3549 10.8016 14.6517 10.0983C13.9484 9.39509 12.9946 9 12 9Z" fill="black"/>
<path fill-rule="evenodd" clip-rule="evenodd" d="M9.344 3.07103C11.1134 2.976 12.8866 2.976 14.656 3.07103C15.623 3.12303 16.486 3.65603 16.988 4.46103L17.809 5.77803C18.049 6.16103 18.454 6.42103 18.919 6.48803C19.305 6.54203 19.689 6.60103 20.071 6.66503C21.503 6.90403 22.5 8.15803 22.5 9.57403V18C22.5 18.7957 22.1839 19.5587 21.6213 20.1214C21.0587 20.684 20.2956 21 19.5 21H4.5C3.70435 21 2.94129 20.684 2.37868 20.1214C1.81607 19.5587 1.5 18.7957 1.5 18V9.57403C1.5 8.15803 2.497 6.90403 3.929 6.66503C4.311 6.60103 4.695 6.54203 5.08 6.48703C5.30561 6.45684 5.52189 6.37763 5.71364 6.25498C5.9054 6.13233 6.06799 5.9692 6.19 5.77703L7.012 4.46203C7.2605 4.06009 7.60216 3.72391 8.00808 3.48196C8.414 3.24001 8.87223 3.0984 9.344 3.07103ZM6.75 12.75C6.75 11.3576 7.30312 10.0223 8.28769 9.03772C9.27225 8.05316 10.6076 7.50003 12 7.50003C13.3924 7.50003 14.7277 8.05316 15.7123 9.03772C16.6969 10.0223 17.25 11.3576 17.25 12.75C17.25 14.1424 16.6969 15.4778 15.7123 16.4623C14.7277 17.4469 13.3924 18 12 18C10.6076 18 9.27225 17.4469 8.28769 16.4623C7.30312 15.4778 6.75 14.1424 6.75 12.75ZM18.75 11.25C18.9489 11.25 19.1397 11.171 19.2803 11.0304C19.421 10.8897 19.5 10.6989 19.5 10.5C19.5 10.3011 19.421 10.1104 19.2803 9.9697C19.1397 9.82905 18.9489 9.75003 18.75 9.75003C18.5511 9.75003 18.3603 9.82905 18.2197 9.9697C18.079 10.1104 18 10.3011 18 10.5C18 10.6989 18.079 10.8897 18.2197 11.0304C18.3603 11.171 18.5511 11.25 18.75 11.25Z" fill="black"/>
</svg>
