<svg width="24" height="24" viewBox="0 0 24 24" fill="none" xmlns="http://www.w3.org/2000/svg">
<path d="M5.25 3C3.458 3 2 4.458 2 6.25V17.2676C2 17.7401 2.26112 18.1683 2.68262 18.3828C2.86262 18.4748 3.05798 18.5186 3.25098 18.5186C3.50998 18.5186 3.76685 18.4383 3.98535 18.2793L8.49316 15H14.75C16.542 15 18 13.542 18 11.75V6.25C18 4.458 16.542 3 14.75 3H5.25ZM19 7.00977V11.75C19 14.095 17.095 16 14.75 16H8.82031L6.59473 17.6152C7.17973 18.4502 8.155 19 9.25 19H15.5049L20.0146 22.2803C20.2346 22.4403 20.49 22.5195 20.75 22.5195C20.94 22.5195 21.1354 22.4749 21.3154 22.3799C21.7404 22.1699 22 21.7395 22 21.2695V10.25C22 8.545 20.675 7.13977 19 7.00977Z" fill="black"/>
</svg>
