<svg width="24" height="24" viewBox="0 0 24 24" fill="none" xmlns="http://www.w3.org/2000/svg">
<path d="M8.90245 1.99514C8.58644 1.98498 8.25866 2.03047 7.92686 2.16799C7.04203 2.53435 6.64251 3.33895 6.33213 4.00979C6.02176 4.68063 5.75336 5.29155 5.52256 5.52248H5.52159C5.26692 5.77745 4.65503 6.05177 3.98936 6.36233C3.32369 6.67289 2.52926 7.05569 2.16807 7.92776C1.80703 8.79989 2.09859 9.63296 2.34971 10.3233C2.60083 11.0136 2.83912 11.6396 2.83897 12C2.83883 12.3267 2.59782 12.9487 2.34288 13.6426C2.08793 14.3365 1.80134 15.1885 2.16807 16.0733C2.53443 16.9581 3.33903 17.3576 4.00987 17.668C4.68071 17.9784 5.29065 18.2468 5.52159 18.4776V18.4785H5.52256C5.77753 18.7332 6.05087 19.3451 6.36143 20.0108C6.67199 20.6764 7.05479 21.4709 7.92686 21.8321C8.799 22.1931 9.63206 21.9015 10.3224 21.6504C11.0127 21.3993 11.6397 21.161 12.0001 21.1612C12.3267 21.1613 12.9488 21.4023 13.6427 21.6572C14.3366 21.9122 15.1876 22.1988 16.0724 21.8321C16.9572 21.4657 17.3567 20.6611 17.6671 19.9903C17.9775 19.3194 18.2468 18.7095 18.4776 18.4785V18.4776C18.7323 18.2226 19.3442 17.9493 20.0099 17.6387C20.6755 17.3281 21.4709 16.9453 21.8321 16.0733C22.1932 15.2011 21.9016 14.3681 21.6505 13.6778C21.3994 12.9875 21.1601 12.3604 21.1603 12C21.1604 11.6734 21.4024 11.0513 21.6573 10.3574C21.9123 9.66355 22.1989 8.81254 21.8321 7.92776C21.4658 7.04293 20.6612 6.64341 19.9903 6.33303C19.3195 6.02265 18.7086 5.75328 18.4776 5.52248C18.2227 5.26782 17.9484 4.65593 17.6378 3.99026C17.3272 3.32458 16.9444 2.52918 16.0724 2.16799C15.2002 1.80694 14.3672 2.09851 13.6769 2.34963C12.9866 2.60075 12.3605 2.84001 12.0001 2.83987C11.6735 2.83973 11.0514 2.59774 10.3575 2.3428C10.0106 2.21532 9.62422 2.08015 9.21397 2.02248C9.11141 2.00807 9.00778 1.99853 8.90245 1.99514ZM9.2501 7.50002C10.2166 7.50002 11.0001 8.28352 11.0001 9.25002C11.0001 10.2165 10.2166 11 9.2501 11C8.2836 11 7.5001 10.2165 7.5001 9.25002C7.5001 8.28352 8.2836 7.50002 9.2501 7.50002ZM15.7501 7.50002C15.942 7.50002 16.1339 7.57325 16.2804 7.71975C16.5734 8.01275 16.5734 8.4873 16.2804 8.7803L8.78038 16.2803C8.63388 16.4268 8.4421 16.5 8.2501 16.5C8.0581 16.5 7.86583 16.4268 7.71983 16.2803C7.42683 15.9873 7.42683 15.5127 7.71983 15.2197L15.2198 7.71975C15.3663 7.57325 15.5582 7.50002 15.7501 7.50002ZM14.7501 13C15.7166 13 16.5001 13.7835 16.5001 14.75C16.5001 15.7165 15.7166 16.5 14.7501 16.5C13.7836 16.5 13.0001 15.7165 13.0001 14.75C13.0001 13.7835 13.7836 13 14.7501 13Z" fill="black"/>
</svg>
