<svg width="24" height="24" viewBox="0 0 24 24" fill="none" xmlns="http://www.w3.org/2000/svg">
<path d="M11.25 4H4.25C3.0095 4 2 5.0095 2 6.25V17.75C2 18.9905 3.0095 20 4.25 20H11.25V4ZM19.75 4H12.75V20H19.75C20.9905 20 22 18.9905 22 17.75V6.25C22 5.0095 20.9905 4 19.75 4ZM18.25 16H15.25C14.8355 16 14.5 15.6645 14.5 15.25C14.5 14.8355 14.8355 14.5 15.25 14.5H18.25C18.6645 14.5 19 14.8355 19 15.25C19 15.6645 18.6645 16 18.25 16ZM19.75 13H15.25C14.8355 13 14.5 12.6645 14.5 12.25C14.5 11.8355 14.8355 11.5 15.25 11.5H19.75C20.1645 11.5 20.5 11.8355 20.5 12.25C20.5 12.6645 20.1645 13 19.75 13ZM19.75 10H15.25C14.8355 10 14.5 9.6645 14.5 9.25C14.5 8.8355 14.8355 8.5 15.25 8.5H19.75C20.1645 8.5 20.5 8.8355 20.5 9.25C20.5 9.6645 20.1645 10 19.75 10Z" fill="black"/>
</svg>
