<svg width="20" height="19" viewBox="0 0 20 19" fill="none" xmlns="http://www.w3.org/2000/svg">
<path d="M19.301 16.1759L11.2597 1.14658C10.979 0.621812 10.4863 0.308594 9.94153 0.308594C9.39673 0.308594 8.90403 0.621812 8.62432 1.14555L0.582075 16.1759C0.296876 16.7089 0.289563 17.3754 0.561964 17.9166C0.833452 18.4578 1.34626 18.7936 1.90021 18.7936H17.9838C18.5368 18.7936 19.0505 18.4578 19.322 17.9166C19.5944 17.3754 19.5862 16.7089 19.301 16.1759ZM10.3986 15.7128H9.48448C9.23219 15.7128 9.02744 15.4827 9.02744 15.1993V14.1724C9.02744 13.8889 9.23219 13.6589 9.48448 13.6589H10.3986C10.6509 13.6589 10.8556 13.8889 10.8556 14.1724V15.1993C10.8556 15.4827 10.6509 15.7128 10.3986 15.7128ZM9.94153 11.605C9.43695 11.605 9.02744 11.1449 9.02744 10.5781V7.49722C9.02744 6.93034 9.43695 6.47027 9.94153 6.47027C10.4461 6.47027 10.8556 6.93034 10.8556 7.49722V10.5781C10.8556 11.1449 10.4461 11.605 9.94153 11.605Z" fill="black"/>
</svg>
