<svg width="24" height="24" viewBox="0 0 24 24" fill="none" xmlns="http://www.w3.org/2000/svg">
<path d="M10.2498 23C9.56082 23 8.99982 22.4395 8.99982 21.75V13L6.77482 13.0015C6.09132 13.0015 5.53032 12.4465 5.52432 11.7635L5.50982 10.262C5.50682 9.92554 5.63482 9.60904 5.87182 9.37054C6.10782 9.13154 6.42332 9.00004 6.75982 9.00004H8.99982V6.75004C8.99982 3.37704 10.7208 1.51904 13.8453 1.51904C15.0813 1.51904 16.1603 1.60654 16.1703 1.60754C16.6528 1.65054 17.0158 2.04754 17.0158 2.53104V4.81604C17.0158 5.32704 16.5998 5.74304 16.0888 5.74304H14.6348C14.0263 5.74304 13.5308 6.23804 13.5308 6.84704L13.5028 9.00004H15.7218C16.0783 9.00004 16.4183 9.15304 16.6553 9.41904C16.8923 9.68504 17.0048 10.0405 16.9633 10.3945L16.7888 11.8945C16.7158 12.525 16.1818 13 15.5478 13H13.4998V21.75C13.4998 22.4395 12.9388 23 12.2498 23H10.2498Z" fill="black"/>
</svg>
