<svg width="21" height="20" viewBox="0 0 21 20" fill="none" xmlns="http://www.w3.org/2000/svg">
    <path d="M11.1668 1.33203C11.0462 1.3322 10.9278 1.36512 10.8244 1.42726C10.721 1.4894 10.6364 1.57845 10.5796 1.6849H10.5783L5.92855 10.3216L5.92985 10.3229C5.86731 10.4262 5.834 10.5446 5.8335 10.6654C5.8335 10.8422 5.90373 11.0117 6.02876 11.1368C6.15378 11.2618 6.32335 11.332 6.50016 11.332H9.16683V17.9987C9.16683 18.1755 9.23707 18.3451 9.36209 18.4701C9.48712 18.5951 9.65669 18.6654 9.8335 18.6654C9.95646 18.6653 10.077 18.6312 10.1818 18.5668C10.2866 18.5025 10.3715 18.4104 10.4272 18.3008H10.4285L15.1043 9.61458L15.1017 9.61068C15.1416 9.52523 15.1668 9.43246 15.1668 9.33203C15.1668 8.96403 14.8682 8.66536 14.5002 8.66536H11.8335V1.9987C11.8335 1.82189 11.7633 1.65232 11.6382 1.52729C11.5132 1.40227 11.3436 1.33203 11.1668 1.33203Z" fill="white"/>
</svg>
