<svg width="28" height="28" viewBox="0 0 28 28" fill="none" xmlns="http://www.w3.org/2000/svg">
<g clip-path="url(#clip0_905_2945)">
<path d="M13.4168 12.5423V15.459C13.4168 15.942 13.8082 16.334 14.2918 16.334H20.5971C20.306 17.16 19.8644 17.9078 19.3108 18.5536L22.8301 21.6038C24.5929 19.5592 25.6668 16.9057 25.6668 14.0007C25.6668 13.5177 25.6295 13.016 25.549 12.4245C25.4901 11.9911 25.1197 11.6673 24.6822 11.6673H14.2918C13.8082 11.6673 13.4168 12.0593 13.4168 12.5423ZM7.35716 16.1946C7.1285 15.5039 7.00016 14.7672 7.00016 14.0007C7.00016 13.2341 7.1285 12.4974 7.35716 11.8067L3.53225 8.8819C2.77216 10.4295 2.3335 12.1626 2.3335 14.0007C2.3335 15.8387 2.77216 17.5718 3.53283 19.1194L7.35716 16.1946ZM18.0047 19.7377C16.862 20.5363 15.4772 21.0007 14.0002 21.0007C11.5432 21.0007 9.38191 19.7255 8.13241 17.8052L4.42125 20.6431C6.53058 23.6752 10.0347 25.6673 14.0002 25.6673C16.8982 25.6673 19.5465 24.5986 21.5887 22.844L18.0047 19.7377ZM21.8839 5.4239C19.7244 3.43123 16.9244 2.33398 14.0002 2.33398C10.0347 2.33398 6.53058 4.32607 4.42125 7.35882L8.13241 10.1967C9.38191 8.27582 11.5432 7.00065 14.0002 7.00065C15.7175 7.00065 17.3695 7.63123 18.6517 8.77573C18.9976 9.0849 19.5255 9.06973 19.8533 8.74132L21.9096 6.68565C22.0782 6.51765 22.1703 6.28723 22.1657 6.04923C22.161 5.81123 22.0589 5.58548 21.8839 5.4239Z" fill="#EA4335"/>
<path d="M7.35692 16.1935C7.12825 15.5029 6.99992 14.7661 6.99992 13.9996C6.99992 13.2331 7.12825 12.4964 7.35692 11.8057L3.532 8.88086C2.77192 10.4284 2.33325 12.1615 2.33325 13.9996C2.33325 15.8377 2.77192 17.5708 3.53259 19.1184L7.35692 16.1935Z" fill="#FBBC05"/>
<path d="M13.4165 12.541V15.4577C13.4165 15.9407 13.8079 16.3327 14.2915 16.3327H20.5968C20.3057 17.1587 19.8641 17.9065 19.3105 18.5523L22.8298 21.6025C24.5926 19.5579 25.6665 16.9043 25.6665 13.9993C25.6665 13.5163 25.6292 13.0147 25.5487 12.4232C25.4898 11.9898 25.1193 11.666 24.6818 11.666H14.2915C13.8079 11.666 13.4165 12.058 13.4165 12.541Z" fill="#4285F4"/>
<path d="M13.4167 12.541V15.4577C13.4167 15.9407 13.8081 16.3327 14.2917 16.3327H20.597C20.3059 17.1587 19.8643 17.9065 19.3107 18.5523L22.83 21.6025C24.5928 19.5579 25.6667 16.9043 25.6667 13.9993C25.6667 13.5163 25.6294 13.0147 25.5489 12.4232C25.49 11.9898 25.1196 11.666 24.6821 11.666H14.2917C13.8081 11.666 13.4167 12.058 13.4167 12.541ZM18.0046 19.7364C16.8619 20.535 15.4771 20.9993 14.0001 20.9993C11.5431 20.9993 9.38181 19.7242 8.13231 17.8038L4.42114 20.6418C6.53048 23.6739 10.0346 25.666 14.0001 25.666C16.8981 25.666 19.5464 24.5973 21.5886 22.8427L18.0046 19.7364Z" fill="#34A853"/>
<path d="M13.4165 12.541V15.4577C13.4165 15.9407 13.8079 16.3327 14.2915 16.3327H20.5968C20.3057 17.1587 19.8641 17.9065 19.3105 18.5523L22.8298 21.6025C24.5926 19.5579 25.6665 16.9043 25.6665 13.9993C25.6665 13.5163 25.6292 13.0147 25.5487 12.4232C25.4898 11.9898 25.1193 11.666 24.6818 11.666H14.2915C13.8079 11.666 13.4165 12.058 13.4165 12.541Z" fill="#4285F4"/>
</g>
<defs>
<clipPath id="clip0_905_2945">
<rect width="28" height="28" fill="white"/>
</clipPath>
</defs>
</svg>
