<svg width="24" height="24" viewBox="0 0 24 24" fill="none" xmlns="http://www.w3.org/2000/svg">
<path d="M11.5 10.75V13.25C11.5 13.664 11.8355 14 12.25 14H17.6545C17.405 14.708 17.0265 15.349 16.552 15.9025L19.5685 18.517C21.0795 16.7645 22 14.49 22 12C22 11.586 21.968 11.156 21.899 10.649C21.8485 10.2775 21.531 10 21.156 10H12.25C11.8355 10 11.5 10.336 11.5 10.75ZM6.306 13.8805C6.11 13.2885 6 12.657 6 12C6 11.343 6.11 10.7115 6.306 10.1195L3.0275 7.6125C2.376 8.939 2 10.4245 2 12C2 13.5755 2.376 15.061 3.028 16.3875L6.306 13.8805ZM15.4325 16.9175C14.453 17.602 13.266 18 12 18C9.894 18 8.0415 16.907 6.9705 15.261L3.7895 17.6935C5.5975 20.2925 8.601 22 12 22C14.484 22 16.754 21.084 18.5045 19.58L15.4325 16.9175ZM18.7575 4.6485C16.9065 2.9405 14.5065 2 12 2C8.601 2 5.5975 3.7075 3.7895 6.307L6.9705 8.7395C8.0415 7.093 9.894 6 12 6C13.472 6 14.888 6.5405 15.987 7.5215C16.2835 7.7865 16.736 7.7735 17.017 7.492L18.7795 5.73C18.924 5.586 19.003 5.3885 18.999 5.1845C18.995 4.9805 18.9075 4.787 18.7575 4.6485Z" fill="black"/>
</svg>
