<svg width="24" height="24" viewBox="0 0 24 24" fill="none" xmlns="http://www.w3.org/2000/svg">
<path d="M11.645 20.9099L11.638 20.9069L11.616 20.8949C11.4873 20.8241 11.3596 20.7515 11.233 20.6769C9.71081 19.7724 8.28827 18.7099 6.989 17.5069C4.688 15.3599 2.25 12.1739 2.25 8.24995C2.25 5.32195 4.714 2.99995 7.688 2.99995C8.51475 2.9959 9.33178 3.17829 10.0783 3.53355C10.8249 3.88882 11.4817 4.40782 12 5.05195C12.5184 4.40768 13.1754 3.88861 13.9221 3.53334C14.6689 3.17807 15.4861 2.99575 16.313 2.99995C19.286 2.99995 21.75 5.32195 21.75 8.24995C21.75 12.1749 19.312 15.3609 17.011 17.5059C15.7117 18.7089 14.2892 19.7715 12.767 20.6759C12.6404 20.7508 12.5127 20.8238 12.384 20.8949L12.362 20.9069L12.355 20.9109L12.352 20.9119C12.2436 20.9694 12.1227 20.9994 12 20.9994C11.8773 20.9994 11.7564 20.9694 11.648 20.9119L11.645 20.9099Z" fill="black"/>
</svg>
