<svg width="17" height="17" viewBox="0 0 17 17" fill="none" xmlns="http://www.w3.org/2000/svg">
<path d="M15.3591 7.44057C14.9957 7.44057 14.5969 7.67964 13.749 8.11951C13.0467 8.4843 12.3972 8.83103 11.9846 9.08391C12.0203 9.23903 12.0416 9.39982 12.0416 9.56557C12.0416 10.7375 11.0882 11.6906 9.9166 11.6906H7.26035C6.9671 11.6906 6.7291 11.4529 6.7291 11.1593C6.7291 10.8657 6.9671 10.6281 7.26035 10.6281H9.9166C10.5024 10.6281 10.9791 10.1514 10.9791 9.56557C10.9791 9.24789 10.836 8.96561 10.6143 8.77047C10.3625 8.60401 10.0636 8.50307 9.73952 8.50307H8.18366H7.96868C7.95841 8.50307 7.94885 8.50059 7.93858 8.49989C7.005 8.48536 6.55662 8.38903 6.16243 8.30226C5.80402 8.22328 5.46543 8.14891 4.897 8.14891C2.30025 8.14891 0.817704 11.3368 0.756079 11.4724C0.676037 11.6481 0.697641 11.8528 0.812037 12.0079L3.2912 15.3704C3.39214 15.5074 3.55116 15.5846 3.71762 15.5846C3.75127 15.5846 3.78456 15.5814 3.8182 15.5751C4.01866 15.5368 4.18087 15.3852 4.23293 15.188C4.26091 15.0835 4.5315 14.1697 5.48952 14.1697C6.18085 14.1697 6.89591 14.259 7.5876 14.3451C8.29204 14.4332 9.02091 14.5239 9.73952 14.5239C10.7181 14.5239 11.4225 13.7734 13.4583 11.6906C16.0444 9.04459 16.2916 8.81332 16.2916 8.2888C16.2916 7.83476 15.8932 7.44057 15.3591 7.44057ZM6.37493 2.48047H8.8541V6.02214H6.37493C5.39743 6.02214 4.6041 5.2288 4.6041 4.2513C4.6041 3.2738 5.39743 2.48047 6.37493 2.48047ZM14.1666 4.2513C14.1666 5.2288 13.3733 6.02214 12.3958 6.02214H9.9166V2.48047H12.3958C13.3733 2.48047 14.1666 3.2738 14.1666 4.2513Z" fill="#19CE67"/>
</svg>
