<svg width="24" height="24" viewBox="0 0 24 24" fill="none" xmlns="http://www.w3.org/2000/svg">
<path d="M6.25 2.5C5.0095 2.5 4 3.5095 4 4.75V13.5H7.78125C8.66875 13.5 9.41553 14.1644 9.51953 15.0459C9.66703 16.3019 10.734 17.25 12 17.25C13.266 17.25 14.333 16.3019 14.4805 15.0459C14.5845 14.1644 15.3307 13.5 16.2188 13.5H20V4.75C20 3.5095 18.9905 2.5 17.75 2.5H6.25ZM8.25 6.5H12.75C13.164 6.5 13.5 6.836 13.5 7.25C13.5 7.664 13.164 8 12.75 8H8.25C7.836 8 7.5 7.664 7.5 7.25C7.5 6.836 7.836 6.5 8.25 6.5ZM15.75 6.5C16.164 6.5 16.5 6.836 16.5 7.25C16.5 7.664 16.164 8 15.75 8C15.336 8 15 7.664 15 7.25C15 6.836 15.336 6.5 15.75 6.5ZM8.25 10H12.75C13.164 10 13.5 10.336 13.5 10.75C13.5 11.164 13.164 11.5 12.75 11.5H8.25C7.836 11.5 7.5 11.164 7.5 10.75C7.5 10.336 7.836 10 8.25 10ZM15.75 10C16.164 10 16.5 10.336 16.5 10.75C16.5 11.164 16.164 11.5 15.75 11.5C15.336 11.5 15 11.164 15 10.75C15 10.336 15.336 10 15.75 10ZM3.75 14.5C3.336 14.5 3 14.836 3 15.25V18.25C3 20.042 4.458 21.5 6.25 21.5H17.75C19.542 21.5 21 20.042 21 18.25V15.25C21 14.836 20.664 14.5 20.25 14.5H16.2188C15.8383 14.5 15.5181 14.7841 15.4736 15.1621C15.2666 16.9226 13.7735 18.25 12 18.25C10.2265 18.25 8.73384 16.9226 8.52734 15.1621C8.48284 14.7841 8.16175 14.5 7.78125 14.5H3.75Z" fill="black"/>
</svg>
