<svg width="24" height="24" viewBox="0 0 24 24" fill="none" xmlns="http://www.w3.org/2000/svg">
<path d="M9.69423 2.50098C9.38678 2.50275 9.07505 2.52248 8.76064 2.56153C5.34844 2.98514 2.58717 5.68373 2.08583 9.08595C1.84085 10.7493 2.17911 12.3176 2.85732 13.6777L2.02138 17.0703C1.99044 17.1956 1.99236 17.3268 2.02697 17.4512C2.06157 17.5756 2.12769 17.6889 2.21892 17.7802C2.31015 17.8716 2.42341 17.9378 2.54773 17.9725C2.67206 18.0073 2.80325 18.0093 2.92861 17.9785L6.32412 17.1436C7.68439 17.8212 9.25316 18.1586 10.9159 17.9131C14.3171 17.4112 17.0148 14.6509 17.4384 11.2393C17.9856 6.83778 14.7828 3.01668 10.6034 2.54884C10.3049 2.51542 10.0017 2.49922 9.69423 2.50098ZM18.495 7.25489C18.95 8.57489 19.0997 9.99981 18.9247 11.4248C18.4197 15.5148 15.2147 18.7945 11.1347 19.3945C10.6747 19.4645 10.2099 19.5 9.7499 19.5C9.5049 19.5 9.25466 19.4899 9.00966 19.4649C10.1147 20.4849 11.5299 21.18 13.0849 21.415C14.7049 21.65 16.3149 21.3952 17.7499 20.6602L21.0702 21.4805C21.1302 21.4955 21.1899 21.5 21.2499 21.5C21.4449 21.5 21.6402 21.4253 21.7802 21.2803C21.9652 21.0953 22.0404 20.8253 21.9804 20.5703L21.1601 17.25C21.8951 15.815 22.1549 14.21 21.9149 12.585C21.5849 10.355 20.3 8.43989 18.495 7.25489ZM6.7499 7.99903H13.2499C13.6644 7.99903 13.9999 8.33503 13.9999 8.74903C13.9999 9.16303 13.6644 9.49903 13.2499 9.49903H6.7499C6.3354 9.49903 5.9999 9.16303 5.9999 8.74903C5.9999 8.33503 6.3354 7.99903 6.7499 7.99903ZM6.7499 11.499H11.2499C11.6644 11.499 11.9999 11.835 11.9999 12.249C11.9999 12.663 11.6644 12.999 11.2499 12.999H6.7499C6.3354 12.999 5.9999 12.663 5.9999 12.249C5.9999 11.835 6.3354 11.499 6.7499 11.499Z" fill="black"/>
</svg>
