<svg width="25" height="25" viewBox="0 0 25 25" fill="none" xmlns="http://www.w3.org/2000/svg">
    <path fill-rule="evenodd" clip-rule="evenodd" d="M2.1241 20.3042C1.93371 20.3355 1.74332 20.2573 1.64081 20.0855L0.0591345 17.3042C-0.0580264 17.0854 0.00055403 16.7885 0.220231 16.6479L1.91906 15.5542C2.02158 15.476 2.13874 15.4604 2.2559 15.4917C2.37306 15.5229 2.47558 15.601 2.53416 15.7104L4.11583 18.4761C4.17441 18.5854 4.18906 18.7261 4.15977 18.8511C4.13048 18.9761 4.05725 19.0698 3.95473 19.148L2.2559 20.2417C2.21197 20.273 2.16803 20.2886 2.1241 20.3042Z" fill="#1F8F0F"/>
    <path fill-rule="evenodd" clip-rule="evenodd" d="M1.01099 16.1323L1.91898 15.5542C2.0215 15.476 2.13866 15.4604 2.25582 15.4917C2.37298 15.5229 2.4755 15.601 2.53408 15.7104L4.11575 18.4761C4.17433 18.5854 4.18898 18.7261 4.15969 18.8511C4.1304 18.9761 4.05717 19.0698 3.95465 19.148L3.0613 19.7261L1.01099 16.1323Z" fill="#057C38"/>
    <path fill-rule="evenodd" clip-rule="evenodd" d="M21.7192 15.4924H21.6753L8.43612 17.0549C8.26038 17.0706 8.08464 16.9768 7.99676 16.8206L5.71213 12.8049C5.62426 12.633 5.62426 12.4299 5.72677 12.2736L13.1226 0.476566C13.2104 0.335939 13.3569 0.257812 13.518 0.257812C13.6644 0.257812 13.8109 0.351564 13.8841 0.492191L21.9682 14.6955C22.0121 14.758 22.0561 14.8362 22.0707 14.9143C22.1147 15.1799 21.9682 15.4299 21.7192 15.4768V15.4924Z" fill="#1F8F0F"/>
    <path fill-rule="evenodd" clip-rule="evenodd" d="M9.78347 16.8985L8.43612 17.0548C8.26038 17.0704 8.08464 16.9766 7.99676 16.8204L5.71213 12.8047C5.62426 12.6328 5.62426 12.4297 5.72677 12.2735L6.47367 11.0859C6.50296 11.1328 6.5469 11.1797 6.57619 11.2266L9.6956 16.7266C9.72489 16.7735 9.75418 16.836 9.78347 16.8985Z" fill="#057C38"/>
    <path fill-rule="evenodd" clip-rule="evenodd" d="M8.90454 24.9923C8.7288 25.0235 8.52377 24.9454 8.4359 24.7579L5.43365 19.4922C5.30184 19.2578 5.37507 18.9766 5.5801 18.836L7.24964 17.7422C7.35216 17.6797 7.48397 17.6641 7.58648 17.6953C7.70364 17.7266 7.80616 17.8047 7.86474 17.9141L10.867 23.1798C10.9402 23.2891 10.9549 23.4298 10.9256 23.5391C10.8963 23.6642 10.8231 23.7735 10.7205 23.836L9.05099 24.9298C9.00706 24.961 8.94848 24.9767 8.90454 24.9923Z" fill="#0D253F"/>
    <path fill-rule="evenodd" clip-rule="evenodd" d="M5.97552 20.4454L5.43365 19.4922C5.30184 19.2578 5.37507 18.9766 5.5801 18.836L7.24964 17.7422C7.35216 17.6797 7.48397 17.6641 7.58648 17.6953C7.70364 17.7266 7.80616 17.8047 7.86474 17.9141L8.42125 18.8672L5.97552 20.4454Z" fill="#07121E"/>
    <path fill-rule="evenodd" clip-rule="evenodd" d="M4.5846 20.5702C4.52602 20.5858 4.4528 20.5702 4.39422 20.5545C4.27706 20.5233 4.17454 20.4452 4.11596 20.3358L0.996552 14.8513C0.923326 14.742 0.908681 14.6013 0.937972 14.4763C0.967262 14.367 1.04049 14.2576 1.143 14.1795L5.44867 11.3982C5.6537 11.2575 5.93196 11.3357 6.06376 11.57L9.18317 17.0545C9.31498 17.2889 9.24175 17.5858 9.03672 17.7264L4.73106 20.5077C4.68712 20.5389 4.64319 20.5545 4.5846 20.5702Z" fill="#70E75F"/>
    <path fill-rule="evenodd" clip-rule="evenodd" d="M21.2361 14.5862C21.2215 14.6018 21.2068 14.6018 21.1922 14.6018L18.5707 15.7268L11.7021 3.02348L13.401 0.304691C13.4889 0.164064 13.6353 0.0859375 13.7818 0.0859375C13.9429 0.0859375 14.0747 0.179689 14.1625 0.320316L21.4851 13.8049C21.529 13.8674 21.573 13.9455 21.5876 14.0236C21.6315 14.2893 21.4851 14.5393 21.2361 14.5862Z" fill="#057C38"/>
    <path fill-rule="evenodd" clip-rule="evenodd" d="M21.3093 16.3064C20.4745 16.822 19.4055 16.5251 18.9075 15.6189L11.995 2.85306C11.5117 1.9468 11.8046 0.806158 12.6394 0.290525C13.4888 -0.240733 14.5579 0.0717718 15.0412 0.978035L21.9537 13.7439C22.4516 14.6345 22.1587 15.7908 21.3093 16.3064Z" fill="#70E75F"/>
    <path fill-rule="evenodd" clip-rule="evenodd" d="M18.3952 4.08651C18.3513 4.08651 18.3074 4.07089 18.2634 4.05526C18.117 3.97713 18.0584 3.78963 18.1316 3.649L19.7133 0.180203C19.7865 0.0239506 19.9623 -0.0385504 20.1087 0.0239506C20.2552 0.102077 20.3137 0.28958 20.2405 0.445832L18.6442 3.91463C18.6003 4.02401 18.4977 4.08651 18.3952 4.08651ZM24.7073 9.33659H24.6926L21.0753 9.08659C20.9142 9.07096 20.797 8.93033 20.8117 8.75846C20.8263 8.58658 20.9435 8.46158 21.1192 8.46158L24.7219 8.7272C24.883 8.7272 25.0002 8.88346 25.0002 9.05533C24.9855 9.21159 24.8537 9.33659 24.7073 9.33659ZM19.5376 6.83655C19.435 6.83655 19.3472 6.77405 19.2886 6.6803C19.2154 6.52405 19.2593 6.33654 19.3911 6.25842L22.2469 4.49277C22.3787 4.41464 22.5544 4.46152 22.6423 4.60214C22.7155 4.7584 22.6716 4.9459 22.5398 5.02402L19.684 6.78968C19.6401 6.82093 19.5815 6.83655 19.5376 6.83655Z" fill="#CCCCCC"/>
</svg>
