<svg width="24" height="24" viewBox="0 0 24 24" fill="none" xmlns="http://www.w3.org/2000/svg">
<path fill-rule="evenodd" clip-rule="evenodd" d="M8.25 6.75C8.25 5.75544 8.64509 4.80161 9.34835 4.09835C10.0516 3.39509 11.0054 3 12 3C12.9946 3 13.9484 3.39509 14.6517 4.09835C15.3549 4.80161 15.75 5.75544 15.75 6.75C15.75 7.74456 15.3549 8.69839 14.6517 9.40165C13.9484 10.1049 12.9946 10.5 12 10.5C11.0054 10.5 10.0516 10.1049 9.34835 9.40165C8.64509 8.69839 8.25 7.74456 8.25 6.75ZM15.75 9.75C15.75 8.95435 16.0661 8.19129 16.6287 7.62868C17.1913 7.06607 17.9544 6.75 18.75 6.75C19.5456 6.75 20.3087 7.06607 20.8713 7.62868C21.4339 8.19129 21.75 8.95435 21.75 9.75C21.75 10.5456 21.4339 11.3087 20.8713 11.8713C20.3087 12.4339 19.5456 12.75 18.75 12.75C17.9544 12.75 17.1913 12.4339 16.6287 11.8713C16.0661 11.3087 15.75 10.5456 15.75 9.75ZM2.25 9.75C2.25 8.95435 2.56607 8.19129 3.12868 7.62868C3.69129 7.06607 4.45435 6.75 5.25 6.75C6.04565 6.75 6.80871 7.06607 7.37132 7.62868C7.93393 8.19129 8.25 8.95435 8.25 9.75C8.25 10.5456 7.93393 11.3087 7.37132 11.8713C6.80871 12.4339 6.04565 12.75 5.25 12.75C4.45435 12.75 3.69129 12.4339 3.12868 11.8713C2.56607 11.3087 2.25 10.5456 2.25 9.75ZM6.31 15.117C6.91995 14.161 7.76108 13.3743 8.75562 12.8294C9.75016 12.2846 10.866 11.9994 12 12C12.9498 11.9991 13.8891 12.1989 14.7564 12.5862C15.6237 12.9734 16.3994 13.5395 17.0327 14.2474C17.6661 14.9552 18.1428 15.7888 18.4317 16.6936C18.7205 17.5985 18.815 18.5541 18.709 19.498C18.696 19.6153 18.6556 19.7278 18.591 19.8265C18.5263 19.9252 18.4393 20.0073 18.337 20.066C16.4086 21.1725 14.2233 21.7532 12 21.75C9.695 21.75 7.53 21.138 5.663 20.066C5.56069 20.0073 5.47368 19.9252 5.40904 19.8265C5.34441 19.7278 5.30396 19.6153 5.291 19.498C5.12305 17.9646 5.48246 16.4198 6.31 15.118V15.117Z" fill="black"/>
<path d="M5.08208 14.254C4.09584 15.7764 3.63633 17.5803 3.77408 19.389C3.17359 19.298 2.58299 19.1507 2.01008 18.949L1.89508 18.909C1.79248 18.8726 1.70263 18.8072 1.63643 18.7208C1.57023 18.6344 1.53051 18.5306 1.52208 18.422L1.51208 18.301C1.47169 17.799 1.53284 17.294 1.69188 16.8161C1.85093 16.3382 2.10462 15.8972 2.4378 15.5195C2.77099 15.1418 3.17685 14.8351 3.63116 14.6177C4.08547 14.4003 4.57893 14.2766 5.08208 14.254ZM20.2261 19.389C20.3638 17.5803 19.9043 15.7764 18.9181 14.254C19.4212 14.2766 19.9147 14.4003 20.369 14.6177C20.8233 14.8351 21.2292 15.1418 21.5624 15.5195C21.8955 15.8972 22.1492 16.3382 22.3083 16.8161C22.4673 17.294 22.5285 17.799 22.4881 18.301L22.4781 18.422C22.4695 18.5304 22.4297 18.634 22.3635 18.7202C22.2973 18.8064 22.2075 18.8717 22.1051 18.908L21.9901 18.948C21.4231 19.148 20.8341 19.297 20.2261 19.389Z" fill="black"/>
</svg>
