<svg width="24" height="24" viewBox="0 0 24 24" fill="none" xmlns="http://www.w3.org/2000/svg">
<path d="M11.458 3.31245L12.3175 5.33995C12.692 6.22345 12.4845 7.26245 11.8035 7.90845L10.1975 9.43245C10.0165 9.60445 9.92252 9.85395 9.96302 10.0999C10.118 11.0404 10.4615 11.9679 10.9935 12.8829C11.5245 13.7959 12.171 14.5729 12.9335 15.2134C13.1355 15.3829 13.416 15.4269 13.666 15.3434L15.5395 14.7184C16.402 14.4309 17.341 14.7614 17.87 15.5384L19.1025 17.3489C19.7175 18.2524 19.607 19.4984 18.844 20.2644L18.026 21.0854C17.212 21.9024 16.0495 22.1989 14.974 21.8634C12.435 21.0714 10.101 18.7204 7.97102 14.8099C5.83802 10.8939 5.08552 7.57095 5.71302 4.84195C5.97702 3.69345 6.79452 2.77895 7.86202 2.43795L8.93852 2.09395C9.94852 1.77245 11.026 2.29345 11.458 3.31245Z" fill="black"/>
</svg>
