<svg width="24" height="24" viewBox="0 0 24 24" fill="none" xmlns="http://www.w3.org/2000/svg">
<path d="M11.4998 1C9.19241 1 7.2796 2.75704 7.02906 5H5.99976C4.84426 5 3.88248 5.8661 3.76148 7.0166L2.51148 19.0166C2.44598 19.6486 2.65138 20.2828 3.07788 20.7568C3.50389 21.2293 4.11326 21.5 4.74976 21.5H19.2498C19.8863 21.5 20.4951 21.2289 20.9216 20.7559C21.3476 20.2829 21.5535 19.6486 21.488 19.0166L20.238 7.0166C20.117 5.8666 19.1553 5 17.9998 5H16.9763C16.9918 5.165 16.9998 5.332 16.9998 5.5V8.5C16.9998 8.776 16.7758 9 16.4998 9C16.2238 9 15.9998 8.776 15.9998 8.5V8.25V5.5C15.9998 3.02364 13.9761 1 11.4998 1ZM11.4998 2.5C12.9946 2.5 14.2197 3.57554 14.4558 5H9.56617C9.52417 5.16 9.49976 5.327 9.49976 5.5V8.5C9.49976 8.776 9.27576 9 8.99976 9C8.72376 9 8.49976 8.776 8.49976 8.5V8.25V5.5C8.49976 3.83436 9.83412 2.5 11.4998 2.5Z" fill="black"/>
</svg>
