<svg xmlns="http://www.w3.org/2000/svg" version="1.0" viewBox="0 0 68 68">
    <path fill="#003" d="M27 20.5c0 1.2 1.4 1.5 7 1.5s7-.3 7-1.5-1.4-1.5-7-1.5-7 .3-7 1.5z" />
    <path fill="#CCC"
        d="M31.8 22.7c1.2.2 3.2.2 4.5 0 1.2-.2.2-.4-2.3-.4s-3.5.2-2.2.4zm.7 2.4c-.4.6-.5 1.2-.2 1.5.2.3.7-.2 1-1.1.7-1.7.1-2-.8-.4z" />
    <path fill="#366" d="M30.8 23.7c.7.3 1.6.2 1.9-.1.4-.3-.2-.6-1.3-.5-1.1 0-1.4.3-.6.6z" />
    <path fill="#9CC" d="M30 27.4c0 .2.9.6 2 .9 1.1.3 1.8.1 1.4-.4-.5-.9-3.4-1.3-3.4-.5z" />
    <path fill="#FFF"
        d="M33.6 24.5c-.3.8-.3 2.2 0 3 .4 1 0 1.5-1.4 1.5-1.5 0-3.5 2.2-7.1 8.1C18.1 48.5 18.4 49 34 49c15.6 0 15.9-.5 9-11.8-3.2-5.1-5-9.2-5-11.1 0-2.4-.4-3.1-1.9-3.1-1 0-2.1.7-2.5 1.5zM42.8 40c1.8 3.3 3 6.4 2.7 7-.8 1.3-22.2 1.3-23 0-.4-.6.5-3.1 2-5.5 1.8-3.1 3.3-4.5 4.8-4.5 1.2 0 3.1-.7 4.1-1.5 3.8-2.9 5.9-1.9 9.4 4.5z" />
    <path fill="#999" d="M30.8 24.7c.7.3 1.6.2 1.9-.1.4-.3-.2-.6-1.3-.5-1.1 0-1.4.3-.6.6z" />
    <path fill="#CFC"
        d="M28.8 37.7c.7.3 1.6.2 1.9-.1.4-.3-.2-.6-1.3-.5-1.1 0-1.4.3-.6.6zm-6.1 9.5c.2.5 5.3.8 11.3.8 6 0 11.1-.3 11.3-.8.3-.4-4.8-.7-11.3-.7-6.5 0-11.6.3-11.3.7z" />
    <path fill="#336" d="M30.8 28.7c.7.3 1.6.2 1.9-.1.4-.3-.2-.6-1.3-.5-1.1 0-1.4.3-.6.6z" />
    <path fill="#0C6"
        d="M33.6 36.5c-1.1.8-2.9 1.5-4.1 1.5-1.4 0-2.8 1.3-4.3 3.9C24 44 23 46 23 46.4c0 .3 5 .6 11 .6 6.1 0 11-.3 11-.8 0-.4-1.4-3.1-3-6-3.2-5.5-5-6.3-8.4-3.7z" />
</svg>