<svg width="35" height="34" viewBox="0 0 35 34" fill="none" xmlns="http://www.w3.org/2000/svg">
<g clip-path="url(#clip0_2823_92773)">
<path d="M25.9648 5.31333V20.1883C25.9648 20.7519 25.7369 21.2924 25.3311 21.6909C24.9253 22.0894 24.375 22.3133 23.8011 22.3133H2.16374C1.58988 22.3133 1.03952 22.0894 0.633744 21.6909C0.227965 21.2924 0 20.7519 0 20.1883V5.31333C0 4.74974 0.227965 4.20924 0.633744 3.81073C1.03952 3.41221 1.58988 3.18833 2.16374 3.18833C2.33307 3.18802 2.50028 3.15123 2.65356 3.08055C2.80684 3.00987 2.94246 2.90702 3.05087 2.77927L4.5763 0.978328C4.67782 0.85801 4.80511 0.761164 4.9491 0.694689C5.09309 0.628215 5.25024 0.59375 5.40934 0.59375C5.56845 0.59375 5.7256 0.628215 5.86959 0.694689C6.01358 0.761164 6.14086 0.85801 6.24238 0.978328L7.76782 2.77927C7.87622 2.90702 8.01185 3.00987 8.16513 3.08055C8.31841 3.15123 8.48561 3.18802 8.65495 3.18833H23.8011C24.375 3.18833 24.9253 3.41221 25.3311 3.81073C25.7369 4.20924 25.9648 4.74974 25.9648 5.31333Z" fill="#0D253F"/>
<path d="M23.26 9.5625H18.9325C18.6338 9.5625 18.3916 9.80035 18.3916 10.0938V11.1562C18.3916 11.4497 18.6338 11.6875 18.9325 11.6875H23.26C23.5588 11.6875 23.8009 11.4497 23.8009 11.1562V10.0938C23.8009 9.80035 23.5588 9.5625 23.26 9.5625Z" fill="white"/>
<path d="M15.6874 9.5625H2.705C2.40625 9.5625 2.16406 9.80035 2.16406 10.0938V11.1562C2.16406 11.4497 2.40625 11.6875 2.705 11.6875H15.6874C15.9862 11.6875 16.2284 11.4497 16.2284 11.1562V10.0938C16.2284 9.80035 15.9862 9.5625 15.6874 9.5625Z" fill="white"/>
<path d="M15.6874 18.0625H2.705C2.40625 18.0625 2.16406 18.3003 2.16406 18.5938V19.6562C2.16406 19.9497 2.40625 20.1875 2.705 20.1875H15.6874C15.9862 20.1875 16.2284 19.9497 16.2284 19.6562V18.5938C16.2284 18.3003 15.9862 18.0625 15.6874 18.0625Z" fill="white"/>
<path d="M25.965 10.625V20.1875C25.965 20.7511 25.7371 21.2916 25.3313 21.6901C24.9255 22.0886 24.3751 22.3125 23.8013 22.3125H7.57325V20.1875H15.6873C15.8307 20.1875 15.9683 20.1315 16.0698 20.0319C16.1712 19.9323 16.2282 19.7971 16.2282 19.6562V18.5938C16.2282 18.4529 16.1712 18.3177 16.0698 18.2181C15.9683 18.1185 15.8307 18.0625 15.6873 18.0625H7.57325V13.8125C7.57144 13.0269 7.86855 12.2691 8.40629 11.6875H15.6873C15.8307 11.6875 15.9683 11.6315 16.0698 11.5319C16.1712 11.4323 16.2282 11.2971 16.2282 11.1562V10.625H18.3919V11.1562C18.3919 11.2971 18.4489 11.4323 18.5504 11.5319C18.6518 11.6315 18.7894 11.6875 18.9329 11.6875H23.2603C23.4038 11.6875 23.5414 11.6315 23.6428 11.5319C23.7443 11.4323 23.8013 11.2971 23.8013 11.1562V10.625H25.965Z" fill="#19692C"/>
<path d="M10.8188 10.625H16.2282V11.1562C16.2282 11.2971 16.1712 11.4323 16.0697 11.5319C15.9683 11.6315 15.8307 11.6875 15.6872 11.6875H8.40625C8.70994 11.354 9.08171 11.0871 9.49737 10.904C9.91303 10.721 10.3633 10.6259 10.8188 10.625Z" fill="#F3F3F3"/>
<path d="M16.2282 18.5938V19.6562C16.2282 19.7971 16.1712 19.9323 16.0698 20.0319C15.9683 20.1315 15.8307 20.1875 15.6873 20.1875H7.57324V18.0625H15.6873C15.8307 18.0625 15.9683 18.1185 16.0698 18.2181C16.1712 18.3177 16.2282 18.4529 16.2282 18.5938Z" fill="#F3F3F3"/>
<path d="M23.8009 10.625V11.1562C23.8009 11.2971 23.744 11.4323 23.6425 11.5319C23.5411 11.6315 23.4035 11.6875 23.26 11.6875H18.9325C18.7891 11.6875 18.6515 11.6315 18.55 11.5319C18.4486 11.4323 18.3916 11.2971 18.3916 11.1562V10.625H23.8009Z" fill="#F3F3F3"/>
<path d="M8.6543 13.8125V28.6875C8.6543 29.2511 8.88226 29.7916 9.28804 30.1901C9.69382 30.5886 10.2442 30.8125 10.818 30.8125H25.9642C26.1335 30.8128 26.3007 30.8496 26.454 30.9203C26.6073 30.991 26.7429 31.0938 26.8513 31.2216L28.3768 33.0225C28.4783 33.1428 28.6056 33.2397 28.7496 33.3061C28.8935 33.3726 29.0507 33.4071 29.2098 33.4071C29.3689 33.4071 29.5261 33.3726 29.67 33.3061C29.814 33.2397 29.9413 33.1428 30.0428 33.0225L31.5683 31.2216C31.6767 31.0938 31.8123 30.991 31.9656 30.9203C32.1189 30.8496 32.2861 30.8128 32.4554 30.8125C33.0293 30.8125 33.5796 30.5886 33.9854 30.1901C34.3912 29.7916 34.6191 29.2511 34.6191 28.6875V13.8125C34.6191 13.2489 34.3912 12.7084 33.9854 12.3099C33.5796 11.9114 33.0293 11.6875 32.4554 11.6875H10.818C10.2442 11.6875 9.69382 11.9114 9.28804 12.3099C8.88226 12.7084 8.6543 13.2489 8.6543 13.8125Z" fill="#19CE67"/>
<path d="M7.03247 5.3125H2.705C2.40625 5.3125 2.16406 5.55035 2.16406 5.84375V6.90625C2.16406 7.19965 2.40625 7.4375 2.705 7.4375H7.03247C7.33122 7.4375 7.57341 7.19965 7.57341 6.90625V5.84375C7.57341 5.55035 7.33122 5.3125 7.03247 5.3125Z" fill="white"/>
<path d="M7.03247 13.8125H2.705C2.40625 13.8125 2.16406 14.0503 2.16406 14.3438V15.4062C2.16406 15.6997 2.40625 15.9375 2.705 15.9375H7.03247C7.33122 15.9375 7.57341 15.6997 7.57341 15.4062V14.3438C7.57341 14.0503 7.33122 13.8125 7.03247 13.8125Z" fill="white"/>
<path d="M23.2607 5.3125H10.2782C9.97949 5.3125 9.7373 5.55035 9.7373 5.84375V6.90625C9.7373 7.19965 9.97949 7.4375 10.2782 7.4375H23.2607C23.5594 7.4375 23.8016 7.19965 23.8016 6.90625V5.84375C23.8016 5.55035 23.5594 5.3125 23.2607 5.3125Z" fill="white"/>
<path d="M26.5062 19.125H23.8015V16.4688C23.8015 16.187 23.6875 15.9167 23.4846 15.7174C23.2818 15.5182 23.0066 15.4062 22.7196 15.4062H20.5559C20.269 15.4062 19.9938 15.5182 19.7909 15.7174C19.588 15.9167 19.474 16.187 19.474 16.4688V19.125H16.7694C16.4824 19.125 16.2073 19.2369 16.0044 19.4362C15.8015 19.6355 15.6875 19.9057 15.6875 20.1875V22.3125C15.6875 22.5943 15.8015 22.8645 16.0044 23.0638C16.2073 23.2631 16.4824 23.375 16.7694 23.375H19.474V26.0312C19.474 26.313 19.588 26.5833 19.7909 26.7826C19.9938 26.9818 20.269 27.0938 20.5559 27.0938H22.7196C23.0066 27.0938 23.2818 26.9818 23.4846 26.7826C23.6875 26.5833 23.8015 26.313 23.8015 26.0312V23.375H26.5062C26.7931 23.375 27.0683 23.2631 27.2712 23.0638C27.4741 22.8645 27.5881 22.5943 27.5881 22.3125V20.1875C27.5881 19.9057 27.4741 19.6355 27.2712 19.4362C27.0683 19.2369 26.7931 19.125 26.5062 19.125Z" fill="white"/>
</g>
<defs>
<clipPath id="clip0_2823_92773">
<rect width="34.6198" height="34" fill="white"/>
</clipPath>
</defs>
</svg>
