<svg width="88" height="88" viewBox="0 0 88 88" fill="none" xmlns="http://www.w3.org/2000/svg">
    <path d="M51.3337 32.084C49.8303 32.084 48.5837 30.8373 48.5837 29.334V4.58398H25.667C18.077 4.58398 11.917 10.744 11.917 18.334V69.6673C11.917 77.2573 18.077 83.4173 25.667 83.4173H62.3337C69.9237 83.4173 76.0837 77.2573 76.0837 69.6673V32.084H51.3337ZM29.3337 26.584H36.667C38.1703 26.584 39.417 27.8307 39.417 29.334C39.417 30.8373 38.1703 32.084 36.667 32.084H29.3337C27.8303 32.084 26.5837 30.8373 26.5837 29.334C26.5837 27.8307 27.8303 26.584 29.3337 26.584ZM58.667 61.4173H29.3337C27.8303 61.4173 26.5837 60.1707 26.5837 58.6673C26.5837 57.164 27.8303 55.9173 29.3337 55.9173H58.667C60.1703 55.9173 61.417 57.164 61.417 58.6673C61.417 60.1707 60.1703 61.4173 58.667 61.4173ZM58.667 46.7507H29.3337C27.8303 46.7507 26.5837 45.504 26.5837 44.0007C26.5837 42.4973 27.8303 41.2507 29.3337 41.2507H58.667C60.1703 41.2507 61.417 42.4973 61.417 44.0007C61.417 45.504 60.1703 46.7507 58.667 46.7507Z"
          fill="#19CE67"/>
    <path d="M74.4697 26.5839H54.083V6.19727L74.4697 26.5839Z" fill="#0D253F"/>
</svg>
