<svg width="34" height="34" viewBox="0 0 34 34" fill="none" xmlns="http://www.w3.org/2000/svg">
<g clip-path="url(#clip0_2823_92939)">
<path d="M29.6734 12.0091V32.2423H4.32715V12.0091L17.0003 7.61719L29.6734 12.0091Z" fill="white"/>
<path d="M29.6731 12.0091V32.2423H17V7.61719L29.6731 12.0091Z" fill="#E0EFFF"/>
<path d="M22.4246 20.5122C22.4246 21.9817 21.7804 23.3689 20.6569 24.3165L16.9994 27.4022L13.3419 24.3165C12.2183 23.3689 11.5742 21.9817 11.5742 20.5122C11.5742 18.7738 12.9879 17.3594 14.7264 17.3594C15.6182 17.3594 16.4257 17.7326 16.9994 18.3302C17.5731 17.7326 18.3806 17.3594 19.2724 17.3594C21.0108 17.3594 22.4246 18.7738 22.4246 20.5122Z" fill="#FE4E28"/>
<path d="M33.3605 17.5633C32.2509 19.1364 30.0682 19.5136 28.4945 18.404L17 10.2955L5.50555 18.404C4.90991 18.8243 4.214 19.0435 3.50017 19.0435C3.30029 19.0435 3.09909 19.0262 2.89855 18.9917C1.97886 18.833 1.17671 18.3256 0.639502 17.5633C0.101634 16.801 -0.106873 15.8754 0.0518311 14.9563C0.210536 14.0373 0.717859 13.2352 1.48017 12.6973L17 1.75L32.5198 12.6973C33.2822 13.2352 33.7895 14.0373 33.9482 14.9563C34.1069 15.8754 33.8984 16.801 33.3605 17.5633Z" fill="#0D253F"/>
<path d="M2.10938 30.2539H31.89V32.246H2.10938V30.2539Z" fill="#19CE67"/>
<path d="M20.6575 24.3165L17 27.4022V18.3302C17.5737 17.7326 18.3812 17.3594 19.273 17.3594C21.0114 17.3594 22.4252 18.7738 22.4252 20.5122C22.4251 21.9817 21.7811 23.3689 20.6575 24.3165Z" fill="#CE0102"/>
<path d="M17 30.2539H31.8903V32.246H17V30.2539Z" fill="#29B549"/>
<path d="M33.3605 17.5633C32.2509 19.1364 30.0682 19.5136 28.4944 18.404L17 10.2955V1.75L32.5198 12.6973C33.2821 13.2352 33.7895 14.0373 33.9482 14.9563C34.1069 15.8754 33.8984 16.801 33.3605 17.5633Z" fill="#0D253F"/>
</g>
<defs>
<clipPath id="clip0_2823_92939">
<rect width="34" height="34" fill="white"/>
</clipPath>
</defs>
</svg>
