<svg width="110" height="110" viewBox="0 0 110 110" fill="none" xmlns="http://www.w3.org/2000/svg">
    <g clip-path="url(#clip0_1747_65999)">
        <path d="M10.1675 105.383C7.77407 105.383 5.83398 103.443 5.83398 101.05V85.9585C5.83398 83.5651 7.77407 81.625 10.1675 81.625C12.5609 81.625 14.5009 83.5653 14.5009 85.9585V101.05C14.5012 103.443 12.5611 105.383 10.1675 105.383Z" fill="#0D253F"/>
        <path d="M99.8315 105.383C97.4381 105.383 95.498 103.443 95.498 101.05V85.9585C95.498 83.5651 97.4381 81.625 99.8315 81.625C102.225 81.625 104.165 83.5653 104.165 85.9585V101.05C104.165 103.443 102.225 105.383 99.8315 105.383Z" fill="#0D253F"/>
        <path d="M54.4099 109.755C51.5278 109.755 49.1914 107.418 49.1914 104.536V62.824C49.1914 59.9419 51.5278 57.6055 54.4099 57.6055C57.292 57.6055 59.6284 59.9419 59.6284 62.824V104.536C59.6284 107.418 57.292 109.755 54.4099 109.755Z" fill="#FFBDA9"/>
        <path d="M67.0994 109.755C64.2173 109.755 61.8809 107.418 61.8809 104.536V62.824C61.8809 59.9419 64.2173 57.6055 67.0994 57.6055C69.9815 57.6055 72.3179 59.9419 72.3179 62.824V104.536C72.3181 107.418 69.9815 109.755 67.0994 109.755Z" fill="#FFBDA9"/>
        <path d="M93.5408 52.3678L82.3667 41.3851C80.6187 36.5088 79.2663 32.6806 78.3439 29.9966C76.3264 24.1255 72.9433 21.1484 68.2888 21.1484H51.9148L43.5011 70.113C43.3639 70.8211 43.5506 71.5531 44.0093 72.1096C44.468 72.6662 45.1517 72.9909 45.873 72.9909H75.6371C76.3588 72.9909 77.0425 72.6682 77.5016 72.1113C77.9605 71.5544 78.1461 70.8215 78.0089 70.113L71.832 37.7296C72.5973 39.8964 73.4931 42.4098 74.516 45.2591C74.7369 45.8748 75.094 46.4328 75.5605 46.8913L87.4437 58.571C88.2906 59.4034 89.3913 59.8183 90.4919 59.8183C91.6173 59.8183 92.7425 59.384 93.5936 58.518C95.2774 56.8049 95.2537 54.0516 93.5408 52.3678Z" fill="#FFBDA9"/>
        <path d="M71.8322 37.7294C72.2868 39.0163 72.7884 40.4285 73.3343 41.9578C73.3531 41.934 73.3695 41.9096 73.3925 41.8866L81.1872 38.0854C80.4741 36.0685 78.8266 31.4008 78.3439 29.9966C76.3264 24.1255 72.9433 21.1484 68.2888 21.1484H64.9019C64.9785 23.2376 63.0386 25.0118 61.0126 25.0118C58.8412 25.0118 57.2321 23.2443 57.1253 21.1484H51.9148L43.5011 70.113C43.3639 70.8211 43.5506 71.5531 44.0093 72.1096C44.4679 72.6662 45.1517 72.9909 45.873 72.9909H75.6371C76.3588 72.9909 77.0425 72.6682 77.5016 72.1113C77.9605 71.5544 78.1461 70.8215 78.0089 70.113L71.8322 37.7294Z" fill="#19CE67"/>
        <path d="M62.1902 18.166C67.1032 17.3696 70.4404 12.7411 69.644 7.8281C68.8475 2.91505 64.2191 -0.422119 59.306 0.374322C54.393 1.17076 51.0558 5.79922 51.8522 10.7123C52.6487 15.6253 57.2771 18.9625 62.1902 18.166Z" fill="#FFBDA9"/>
        <path d="M100.595 81.6263H44.9792C42.4276 81.6263 40.3594 79.5578 40.3594 77.0065C40.3594 74.4552 42.4276 72.3867 44.9792 72.3867H100.595C103.146 72.3867 105.214 74.4552 105.214 77.0065C105.214 79.5578 103.146 81.6263 100.595 81.6263Z" fill="#19692C"/>
        <path d="M44.9813 78.2374C43.6812 78.2374 42.389 77.6918 41.4753 76.6283C39.8124 74.693 40.0334 71.7764 41.9685 70.1135L68.1933 47.5807C69.0313 46.8608 70.0993 46.4648 71.204 46.4648H92.209C94.7605 46.4648 96.8288 48.5333 96.8288 51.0846C96.8288 53.636 94.7605 55.7044 92.209 55.7044H72.916L47.9898 77.1215C47.1184 77.8706 46.0469 78.2374 44.9813 78.2374Z" fill="#19692C"/>
        <path d="M47.8578 59.875L26.9535 59.8899C24.0907 59.8918 21.7715 62.2142 21.7734 65.0771L21.7812 76.2693C21.7831 79.1322 24.1056 81.6274 26.9684 81.6255H57.9671V69.9772C57.9673 64.3951 53.4399 59.8711 47.8578 59.875Z" fill="#19CE67"/>
        <path d="M17.6525 72.1172C19.7816 67.5677 17.8195 62.1537 13.27 60.0245C8.72053 57.8954 3.30648 59.8575 1.17736 64.407C-0.951748 68.9565 1.01034 74.3705 5.55981 76.4996C10.1093 78.6287 15.5233 76.6667 17.6525 72.1172Z" fill="#FFBDA9"/>
        <path d="M105.667 90.2922H4.33348C1.94009 90.2922 0 88.3519 0 85.9585C0 83.5651 1.94009 81.625 4.33348 81.625H105.667C108.06 81.625 110 83.5653 110 85.9585C110 88.3519 108.06 90.2922 105.667 90.2922Z" fill="#0D253F"/>
        <path d="M66.6667 81.6273H46.4774C46.0079 81.6273 45.5417 81.5471 45.0992 81.39L39.8705 79.5341L38.8379 74.82L42.6743 71.7852L47.1873 73.3869H66.6671C68.9427 73.3869 70.7874 75.2317 70.7874 77.5072C70.787 79.7826 68.9422 81.6273 66.6667 81.6273Z" fill="#FFBDA9"/>
        <path d="M42.6728 71.7846L31.5933 67.8518C29.4486 67.0906 27.0932 68.2119 26.3322 70.3563C25.571 72.5007 26.6923 74.8561 28.8367 75.6173L39.8693 79.5333L42.6728 71.7846Z" fill="#28A745"/>
        <path d="M66.3702 47.8029L52.5883 42.0472L52.3292 38.3897L47.2665 35.6914L43.6895 39.5125L44.1018 45.3347C44.2178 46.9735 45.2476 48.407 46.7638 49.0403L63.0185 55.8286C63.5663 56.0573 64.1339 56.1657 64.6925 56.1657C66.3944 56.1657 68.0104 55.1602 68.7071 53.4916C69.6327 51.2755 68.5865 48.7285 66.3702 47.8029Z" fill="#FFBDA9"/>
        <path d="M43.6907 39.513L52.3305 38.3902L51.8595 31.7415C51.8122 31.0728 52.1339 30.62 52.3303 30.4096C52.5264 30.199 52.9555 29.846 53.6257 29.846H54.0078V21.1484H53.6257C52.9905 21.1484 51.9154 21.1484 51.9154 21.1484C49.7183 21.553 47.5068 22.8279 45.9669 24.4808C43.994 26.5985 42.9796 29.4689 43.1841 32.3559L43.6907 39.513Z" fill="#19CE67"/>
    </g>
    <defs>
        <clipPath id="clip0_1747_65999">
            <rect width="110" height="110" fill="white"/>
        </clipPath>
    </defs>
</svg>
