<svg width="35" height="34" viewBox="0 0 35 34" fill="none" xmlns="http://www.w3.org/2000/svg">
<path d="M22.3463 2.83398H27.5993C28.8516 2.83398 29.8659 3.84832 29.8659 5.10065V31.1673C29.8659 32.4197 28.8516 33.434 27.5993 33.434H8.33258C7.08025 33.434 6.06592 32.4197 6.06592 31.1673V5.10065C6.06592 3.84832 7.08025 2.83398 8.33258 2.83398H22.3463Z" fill="#0D253F"/>
<path d="M22.3462 5.09961H27.0325C27.3442 5.09961 27.5992 5.35461 27.5992 5.66628V30.5996C27.5992 30.9113 27.3442 31.1663 27.0325 31.1663H8.89919C8.58752 31.1663 8.33252 30.9113 8.33252 30.5996V5.66628C8.33252 5.35461 8.58752 5.09961 8.89919 5.09961H22.3462Z" fill="white"/>
<path d="M22.499 3.39974V4.53307C22.499 5.15641 21.989 5.66641 21.3657 5.66641H14.5657C13.9424 5.66641 13.4324 5.15641 13.4324 4.53307V3.39974C13.4324 2.77641 13.9424 2.26641 14.5657 2.26641H15.699V1.69974C15.699 1.07641 16.209 0.566406 16.8324 0.566406H19.099C19.7224 0.566406 20.2324 1.07641 20.2324 1.69974V2.26641H21.3657C21.989 2.26641 22.499 2.77641 22.499 3.39974Z" fill="#19CE67"/>
<path d="M20.7992 10.7667V11.9C20.7992 12.2128 20.5454 12.4667 20.2326 12.4667H19.0992V13.6C19.0992 13.9128 18.8454 14.1667 18.5326 14.1667H17.3992C17.0864 14.1667 16.8326 13.9128 16.8326 13.6V12.4667H15.6992C15.3864 12.4667 15.1326 12.2128 15.1326 11.9V10.7667C15.1326 10.4539 15.3864 10.2 15.6992 10.2H16.8326V9.06667C16.8326 8.75387 17.0864 8.5 17.3992 8.5H18.5326C18.8454 8.5 19.0992 8.75387 19.0992 9.06667V10.2H20.2326C20.5454 10.2 20.7992 10.4539 20.7992 10.7667Z" fill="#F9415B"/>
<path d="M11.7326 19.2664C11.583 19.2664 11.4385 19.2075 11.332 19.1004L10.7653 18.5337C10.5437 18.3122 10.5437 17.954 10.7653 17.7325C10.9869 17.5109 11.345 17.5109 11.5666 17.7325L11.6714 17.8373L12.9798 16.0937C13.168 15.8438 13.5227 15.7928 13.7732 15.9803C14.0236 16.1679 14.0741 16.5232 13.8865 16.7731L12.1865 19.0398C12.0879 19.1712 11.9372 19.2534 11.7734 19.2647C11.7604 19.2659 11.7462 19.2664 11.7326 19.2664Z" fill="#19CE67"/>
<path d="M24.7659 18.1333H15.6992C15.3864 18.1333 15.1326 17.88 15.1326 17.5667C15.1326 17.2533 15.3864 17 15.6992 17H24.7659C25.0793 17 25.3326 17.2533 25.3326 17.5667C25.3326 17.88 25.0793 18.1333 24.7659 18.1333Z" fill="#19CE67"/>
<path d="M11.7326 23.7998C11.583 23.7998 11.4385 23.7409 11.332 23.6338L10.7653 23.0671C10.5437 22.8455 10.5437 22.4874 10.7653 22.2658C10.9869 22.0443 11.345 22.0443 11.5666 22.2658L11.6714 22.3707L12.9798 20.627C13.168 20.3766 13.5227 20.3261 13.7732 20.5137C14.0236 20.7013 14.0741 21.0566 13.8865 21.3065L12.1865 23.5731C12.0879 23.7046 11.9372 23.7868 11.7734 23.7981C11.7604 23.7992 11.7462 23.7998 11.7326 23.7998Z" fill="#19CE67"/>
<path d="M24.7659 22.6665H15.6992C15.3864 22.6665 15.1326 22.4132 15.1326 22.0999C15.1326 21.7865 15.3864 21.5332 15.6992 21.5332H24.7659C25.0793 21.5332 25.3326 21.7865 25.3326 22.0999C25.3326 22.4132 25.0793 22.6665 24.7659 22.6665Z" fill="#19CE67"/>
<path d="M11.7326 28.333C11.583 28.333 11.4385 28.2741 11.332 28.167L10.7653 27.6003C10.5437 27.3787 10.5437 27.0206 10.7653 26.799C10.9869 26.5775 11.345 26.5775 11.5666 26.799L11.6714 26.9039L12.9798 25.1602C13.168 24.9098 13.5227 24.8593 13.7732 25.0469C14.0236 25.2345 14.0741 25.5898 13.8865 25.8397L12.1865 28.1063C12.0879 28.2378 11.9372 28.32 11.7734 28.3313C11.7604 28.3324 11.7462 28.333 11.7326 28.333Z" fill="#19CE67"/>
<path d="M24.7659 27.1997H15.6992C15.3864 27.1997 15.1326 26.9464 15.1326 26.6331C15.1326 26.3197 15.3864 26.0664 15.6992 26.0664H24.7659C25.0793 26.0664 25.3326 26.3197 25.3326 26.6331C25.3326 26.9464 25.0793 27.1997 24.7659 27.1997Z" fill="#19CE67"/>
</svg>
