<svg width="110" height="110" viewBox="0 0 110 110" fill="none" xmlns="http://www.w3.org/2000/svg">
    <g clip-path="url(#clip0_1747_65920)">
        <path d="M94.9342 98.9828C94.9342 105.056 89.9928 110 83.9148 110H60.5205C56.0634 96.6285 58.5046 103.948 54.5693 92.1465C84.7987 87.7155 82.7687 87.9634 83.9299 87.9634C89.9971 87.9634 94.9342 92.9049 94.9342 98.9828Z" fill="#0D253F"/>
        <path d="M58.9045 101.244L55.0004 92.084C25.2379 87.7216 27.2235 87.9633 26.0717 87.9633C20.0045 87.9633 15.0674 92.9048 15.0674 98.9827C15.0674 105.056 20.0088 110 26.0867 110H55.0004L58.9045 101.244Z" fill="#0D2D50"/>
        <path d="M69.0272 101.492C69.0272 103.769 68.1398 105.905 66.5328 107.512C64.9322 109.114 62.7967 110.002 60.5193 110.002H55V92.0859L61.7504 93.0742C65.899 93.6801 69.0272 97.3002 69.0272 101.492Z" fill="#0D253F"/>
        <path d="M56.8874 73.1399L55.0045 72.5781L55.0002 72.5803L30.7529 79.8141C33.3551 90.7421 43.23 98.9975 55.0002 98.9975L58.4512 93.8032L56.8874 73.1399Z" fill="#FFB69E"/>
        <path d="M79.258 79.8141C76.667 90.8119 66.7906 98.9975 55 98.9975V72.5803L55.0043 72.5781L79.258 79.8141Z" fill="#FFBDA9"/>
        <path d="M65.8902 34.0187L64.1199 47.6656H44.9945L44.1094 34.0187C46.9818 33.0992 51.109 32.9251 54.9998 33.0454C60.6996 33.2173 65.8902 34.0187 65.8902 34.0187Z" fill="#FFB69E"/>
        <path d="M65.8908 34.0162L64.1205 47.6631H55.0004V33.043C60.7002 33.2148 65.8908 34.0162 65.8908 34.0162ZM71.2056 36.4023L73.0752 36.4182C75.0539 37.4365 77.1102 38.9183 78.6162 40.6456C83.4545 46.1951 83.9744 51.9701 87.9662 58.0351C91.6701 63.664 96.3924 63.9863 101.978 67.7546C104.851 69.6925 105.601 73.5919 103.615 76.4322C102.281 78.3443 100.032 79.2574 97.7395 78.9738C95.8811 78.7439 93.969 78.0607 92.2008 77.4591C87.3346 75.8027 76.6575 70.3383 71.5936 66.8643C71.5936 66.8643 71.0688 42.544 71.0748 41.8997C71.0804 41.2556 71.2056 36.4023 71.2056 36.4023ZM38.9262 41.8999C38.9322 42.5442 38.4072 66.8645 38.4072 66.8645C33.3433 70.3386 22.6662 75.8029 17.8 77.4593C16.0318 78.0609 14.1197 78.7441 12.2613 78.974C9.96893 79.2576 7.71952 78.3445 6.38534 76.4324C4.40018 73.5921 5.14998 69.6927 8.02245 67.7548C13.6084 63.9865 18.3306 63.6642 22.0346 58.0353C26.0264 51.9703 26.5463 46.1953 31.3846 40.6459C32.8906 38.9185 34.9469 37.4367 36.9256 36.4184L38.7952 36.4025C38.7952 36.4023 38.9204 41.2556 38.9262 41.8999Z" fill="#FFBDA9"/>
        <path d="M56.8238 3.96494L55.0004 0C47.3928 0 41.2031 6.18965 41.2031 13.7973V22.2471C41.2031 29.8568 47.3928 36.0443 55.0004 36.0443L56.8238 31.5795V3.96494Z" fill="#FFB69E"/>
        <path d="M55 36.0443V0C62.6076 0 68.7973 6.18965 68.7973 13.7973V22.2471C68.7973 29.8568 62.6076 36.0443 55 36.0443Z" fill="#FFB69E"/>
        <path d="M61.8988 63.7637L55.0002 45.8922C52.2738 45.8922 49.5475 44.4914 48.0951 41.6941L44.1098 34.0156C41.5789 34.5205 39.1383 35.2853 36.9254 36.4176C37.0565 39.1311 37.3658 46.1264 37.5076 54.3613C37.5291 55.5344 37.1231 56.6773 36.3453 57.5561C32.4244 61.9775 30.0526 67.8019 30.0783 74.1828C30.0869 76.1185 30.319 78.0027 30.7529 79.8139H55.0002L61.8988 63.7637Z" fill="#19CE67"/>
        <path d="M79.9219 74.0775C79.9219 76.0519 79.692 77.9726 79.258 79.8139H55V45.8922C57.7264 45.8922 60.4527 44.4914 61.9051 41.6941L65.8904 34.0156C68.4213 34.5205 70.8619 35.2853 73.0748 36.4176C72.9438 39.1332 72.6344 46.1264 72.4926 54.3613C72.4711 55.5602 72.9158 56.716 73.7086 57.6162C77.5758 62.0055 79.9219 67.7676 79.9219 74.0775Z" fill="#2CC56F"/>
    </g>
    <defs>
        <clipPath id="clip0_1747_65920">
            <rect width="110" height="110" fill="white"/>
        </clipPath>
    </defs>
</svg>
