<svg width="96" height="110" viewBox="0 0 96 110" fill="none" xmlns="http://www.w3.org/2000/svg">
<path d="M24.7973 50.4959C19.3885 50.4959 14.0945 48.6562 8.9498 44.9745L10.2865 43.1096C19.8455 49.9447 29.5745 49.9355 40.0292 43.082L41.2901 45.0021C35.7045 48.6654 30.1923 50.4959 24.7973 50.4959Z" fill="#BEFBD9"/>
<path d="M49.0072 17.6036C46.8483 32.4405 42.783 46.5884 36.9264 59.7027C35.8941 62.0268 34.2099 64.0016 32.0778 65.3876C29.9458 66.7737 27.4574 67.5115 24.9144 67.5117C19.7468 67.5117 15.0385 64.457 12.9255 59.7027C7.04583 46.5884 3.00358 32.4405 0.844647 17.6266C0.270463 13.6991 1.41883 9.72578 4.01414 6.71706C5.89753 4.54726 8.42386 3.03468 11.2259 2.3992C12.2135 2.16952 13.2011 2.05469 14.2346 2.05469C14.6915 2.05469 15.1296 2.23617 15.4526 2.55921C15.7757 2.88225 15.9572 3.32039 15.9572 3.77724C15.9572 4.23409 15.7757 4.67223 15.4526 4.99527C15.1296 5.31831 14.6915 5.49979 14.2346 5.49979C13.224 5.49979 12.2365 5.66056 11.2948 5.95914C9.50334 6.48739 7.87266 7.52092 6.60945 8.99083C4.6802 11.2187 3.8304 14.1815 4.24381 17.1213C6.35681 31.6366 10.3302 45.486 16.049 58.3017C16.8145 60.0145 18.0583 61.4697 19.6311 62.4923C21.2038 63.515 23.0384 64.0617 24.9144 64.0665C28.75 64.0665 32.2181 61.8157 33.7798 58.3017C39.4987 45.486 43.4721 31.6137 45.5851 17.1213C46.0214 14.1815 45.1487 11.2187 43.2194 8.96786C41.9769 7.53325 40.3518 6.48176 38.5341 5.93617C37.5924 5.63759 36.6048 5.49979 35.6172 5.49979C34.6756 5.49979 33.8947 4.7189 33.8947 3.77724C33.8947 2.83558 34.6756 2.05469 35.6172 2.05469C36.6278 2.05469 37.6383 2.16952 38.603 2.3992C41.382 3.01932 43.9314 4.51219 45.8147 6.71706C47.0995 8.1947 48.0499 9.93244 48.6009 11.8114C49.1519 13.6903 49.2905 15.6661 49.0072 17.6036Z" fill="#BEFBD9"/>
<path d="M83.6654 44.453V58.3482C83.6654 67.3974 76.3158 74.7469 67.2667 74.7469C60.744 74.7469 55.4385 80.0524 55.4385 86.5751V93.6031C55.4385 102.629 48.089 110.002 39.0398 110.002C29.9907 110.002 22.6182 102.629 22.6182 93.6031V66.5016C22.6182 65.2384 23.6517 64.2049 24.9149 64.2049C26.1781 64.2049 27.2116 65.2384 27.2116 66.5016V93.6031C27.2116 100.103 32.5171 105.408 39.0398 105.408C45.5396 105.408 50.845 100.103 50.845 93.6031V86.5751C50.845 77.526 58.2176 70.1535 67.2667 70.1535C73.7665 70.1535 79.0719 64.871 79.0719 58.3482V44.453C79.0719 43.1668 80.1055 42.1562 81.3687 42.1562C82.6319 42.1562 83.6654 43.1668 83.6654 44.453Z" fill="#0D253F"/>
<path d="M27.2116 66.4999V72.5403C25.6861 72.7263 24.1437 72.7263 22.6182 72.5403V66.4999C22.6182 65.2367 23.6517 64.2031 24.9149 64.2031C26.1781 64.2031 27.2116 65.2367 27.2116 66.4999Z" fill="#1B1B1B"/>
<path d="M24.9193 70.3818C21.8248 70.3771 18.7977 69.4776 16.2028 67.7918C13.6078 66.106 11.5557 63.7057 10.2937 60.8802C7.75524 55.1921 5.55722 49.358 3.71126 43.409C3.36108 42.2487 3.48364 40.9971 4.05222 39.9267C4.62081 38.8564 5.58935 38.0542 6.74681 37.6949C7.90427 37.3355 9.15684 37.4481 10.2316 38.0082C11.3064 38.5683 12.1163 39.5305 12.4848 40.685C14.2229 46.286 16.292 51.7787 18.6814 57.1343C19.7838 59.5987 22.2321 61.1949 24.9193 61.1949C27.6065 61.1949 30.0548 59.5987 31.1572 57.1343C33.4494 51.9999 35.4462 46.7387 37.138 41.3764C37.5134 40.2252 38.3283 39.2688 39.4053 38.7153C40.4822 38.1618 41.7342 38.0559 42.8888 38.4207C44.0434 38.7855 45.0073 39.5915 45.5708 40.6633C46.1343 41.735 46.2518 42.986 45.8977 44.1439C44.1 49.8397 41.9789 55.4283 39.5449 60.8825C38.2826 63.7076 36.2304 66.1074 33.6354 67.7928C31.0405 69.4782 28.0135 70.3773 24.9193 70.3818Z" fill="#0D253F"/>
<path d="M45.9072 44.1519C44.0927 49.8478 41.9568 55.4748 39.5452 60.8721C38.287 63.7019 36.2354 66.1061 33.6387 67.7937C31.0421 69.4814 28.0119 70.3799 24.915 70.3806C22.4981 70.3757 20.1134 69.8259 17.9384 68.7721C15.7633 67.7184 13.8538 66.1878 12.3519 64.2943C13.8435 65.84 15.631 67.0697 17.6078 67.9102C19.5846 68.7506 21.7104 69.1846 23.8585 69.1863C30.1745 69.1863 35.9164 65.4656 38.4887 59.6778C40.9003 54.2805 43.0592 48.6535 44.8507 42.9576C45.2641 41.6255 45.0574 40.2474 44.3683 39.168C45.8153 40.3163 46.4813 42.2686 45.9072 44.1519Z" fill="#2D2C2C"/>
<path d="M15.9582 3.77724C15.9582 4.74187 15.1773 5.49979 14.2357 5.49979C13.2251 5.49979 12.2375 5.66056 11.2959 5.95914C11.23 5.67301 11.1992 5.37994 11.204 5.08638V2.62887C11.204 2.55997 11.204 2.4681 11.227 2.3992C12.2146 2.16952 13.2022 2.05469 14.2357 2.05469C15.1773 2.05469 15.9582 2.83558 15.9582 3.77724Z" fill="#D7F9E6"/>
<path d="M18.8591 7.6707L15.2647 7.13556C14.7714 7.06228 14.321 6.81411 13.9955 6.43633C13.67 6.05855 13.4911 5.57635 13.4916 5.07768V2.61558C13.4916 1.58435 14.2472 0.709293 15.2647 0.557708L18.8591 0.0225686C19.1548 -0.0213639 19.4564 -0.000997725 19.7436 0.0822778C20.0307 0.165553 20.2964 0.309778 20.5227 0.505114C20.749 0.700449 20.9305 0.942298 21.0548 1.21416C21.1791 1.48602 21.2433 1.78151 21.2431 2.08044V5.61282C21.2433 5.91176 21.1791 6.20724 21.0548 6.47911C20.9305 6.75097 20.749 6.99282 20.5227 7.18815C20.2964 7.38349 20.0307 7.52771 19.7436 7.61099C19.4564 7.69426 19.1548 7.71463 18.8591 7.6707Z" fill="#19CE67"/>
<path d="M20.7568 0.767142C20.3464 0.532803 19.869 0.443787 19.4017 0.5145L15.7959 1.04275C14.7853 1.20352 14.0274 2.07628 14.0274 3.10981V5.56732C14.0274 6.04963 14.1881 6.50898 14.4867 6.85349C14.1852 6.66708 13.9363 6.40683 13.7635 6.09737C13.5907 5.7879 13.4997 5.43945 13.4991 5.085V2.60453C13.4991 1.59397 14.257 0.721207 15.2676 0.560435L18.8505 0.032186C19.6084 -0.0826508 20.3204 0.215925 20.7568 0.767142Z" fill="#10B959"/>
<path d="M38.6266 2.62887V5.08638C38.6266 5.38495 38.6036 5.66056 38.5347 5.93617C37.5931 5.6376 36.6055 5.49979 35.6179 5.49979C34.6762 5.49979 33.8953 4.7189 33.8953 3.77724C33.8953 2.83558 34.6762 2.05469 35.6179 2.05469C36.6284 2.05469 37.639 2.16952 38.6036 2.3992C38.6266 2.4681 38.6266 2.55997 38.6266 2.62887Z" fill="#D7F9E6"/>
<path d="M30.9535 7.67104L34.5456 7.1359C35.0388 7.06262 35.4893 6.81445 35.8148 6.43667C36.1403 6.05889 36.3191 5.57669 36.3187 5.07803V2.61593C36.3191 2.11726 36.1403 1.63506 35.8148 1.25728C35.4893 0.879503 35.0388 0.631334 34.5456 0.558051L30.9535 0.0229112C30.6576 -0.021385 30.3557 -0.00129206 30.0683 0.081817C29.7809 0.164926 29.5149 0.309093 29.2883 0.504467C29.0617 0.699842 28.88 0.941819 28.7556 1.21387C28.6311 1.48592 28.5669 1.78162 28.5672 2.08079V5.61317C28.5672 6.88326 29.6972 7.85708 30.9535 7.67104Z" fill="#19CE67"/>
<path d="M36.3288 2.60395V5.08443C36.3288 6.11796 35.5709 6.99072 34.5374 7.12852L30.9545 7.67974C30.1736 7.79458 29.4386 7.45007 29.0022 6.87588C29.3927 7.10556 29.852 7.19743 30.3343 7.12852L33.9173 6.60028C34.9508 6.4395 35.6857 5.56674 35.6857 4.53321V2.0757C35.6857 1.59339 35.525 1.15701 35.2494 0.8125C35.8924 1.15701 36.3288 1.84603 36.3288 2.60395Z" fill="#10B959"/>
<path d="M81.3903 48.9449C89.2053 48.9449 95.5405 42.6096 95.5405 34.7947C95.5405 26.9798 89.2053 20.6445 81.3903 20.6445C73.5754 20.6445 67.2401 26.9798 67.2401 34.7947C67.2401 42.6096 73.5754 48.9449 81.3903 48.9449Z" fill="#BEFBD9"/>
<path d="M81.3936 42.9872C79.2209 42.9847 77.138 42.1206 75.6017 40.5843C74.0654 39.048 73.2013 36.965 73.1988 34.7924C73.1988 30.2724 76.8736 26.5977 81.3936 26.5977C85.9136 26.5977 89.586 30.2724 89.586 34.7924C89.586 39.3101 85.9113 42.9872 81.3936 42.9872Z" fill="#19CE67"/>
<path opacity="0.4" d="M7.13864 46.6943C6.94085 46.6941 6.74808 46.632 6.58742 46.5167C6.42676 46.4013 6.30627 46.2385 6.24291 46.0512C5.96655 45.2312 5.70164 44.4073 5.44824 43.5799C5.37317 43.3393 5.39622 43.0787 5.51237 42.8551C5.62852 42.6314 5.82836 42.4626 6.06836 42.3856C6.18612 42.3479 6.31019 42.3338 6.43341 42.3442C6.55663 42.3547 6.67657 42.3894 6.78631 42.4464C6.89605 42.5034 6.99342 42.5816 7.07281 42.6764C7.1522 42.7712 7.21204 42.8808 7.24888 42.9988C7.55664 43.9887 7.70822 44.4733 8.03436 45.4448C8.08249 45.5872 8.09605 45.7389 8.07391 45.8875C8.05177 46.0361 7.99456 46.1773 7.90703 46.2994C7.8195 46.4214 7.70415 46.521 7.57053 46.5896C7.43691 46.6583 7.28887 46.6942 7.13864 46.6943ZM10.4666 55.5803C10.28 55.5806 10.0975 55.5255 9.94213 55.4221C9.78679 55.3187 9.66559 55.1716 9.59385 54.9993C8.77789 53.0465 8.01055 51.0737 7.29252 49.0829C7.22144 48.8501 7.24256 48.5989 7.35149 48.3813C7.46043 48.1637 7.64885 47.9962 7.87778 47.9136C8.1067 47.831 8.35862 47.8396 8.58142 47.9375C8.80422 48.0354 8.98085 48.2153 9.07478 48.4398C9.78218 50.4081 10.5447 52.3672 11.3394 54.2712C11.3996 54.4149 11.4234 54.5712 11.4086 54.7263C11.3937 54.8814 11.3407 55.0304 11.2543 55.16C11.1679 55.2896 11.0508 55.3958 10.9133 55.4692C10.7759 55.5425 10.6224 55.5807 10.4666 55.5803ZM77.4141 25.3094C77.1411 25.3093 76.877 25.2119 76.6692 25.0347C76.4614 24.8575 76.3236 24.6121 76.2805 24.3424C76.2373 24.0728 76.2917 23.7966 76.4338 23.5634C76.5759 23.3302 76.7964 23.1553 77.0558 23.07C78.2303 22.682 79.4593 22.4843 80.6962 22.4844C81.0007 22.4844 81.2928 22.6054 81.5082 22.8207C81.7236 23.0361 81.8445 23.3282 81.8445 23.6327C81.8445 23.9373 81.7236 24.2294 81.5082 24.4448C81.2928 24.6601 81.0007 24.7811 80.6962 24.7811C79.7017 24.7811 78.7187 24.9396 77.7747 25.2496C77.6586 25.2893 77.5368 25.3094 77.4141 25.3094ZM70.2322 35.245C69.9277 35.245 69.6356 35.1241 69.4202 34.9087C69.2049 34.6933 69.0839 34.4012 69.0839 34.0967C69.0839 30.6653 70.5974 27.427 73.2295 25.2083C73.4642 25.0243 73.7611 24.9386 74.0578 24.9693C74.3544 24.9999 74.6276 25.1446 74.8197 25.3727C75.0117 25.6008 75.1077 25.8946 75.0875 26.1921C75.0672 26.4896 74.9322 26.7677 74.7109 26.9676C73.6685 27.8403 72.8302 28.931 72.2548 30.1627C71.6794 31.3944 71.381 32.7372 71.3806 34.0967C71.3806 34.4012 71.2596 34.6933 71.0443 34.9087C70.8289 35.1241 70.5368 35.245 70.2322 35.245Z" fill="white"/>
</svg>
