<svg width="35" height="34" viewBox="0 0 35 34" fill="none" xmlns="http://www.w3.org/2000/svg">
<path d="M27.1106 3H7.88938C6.57188 3 5.5 4.22226 5.5 5.72461V31.2754C5.5 32.7777 6.57188 34 7.88938 34H27.1106C28.4281 34 29.5 32.7777 29.5 31.2754V5.72461C29.5 4.22226 28.4281 3 27.1106 3Z" fill="#0D253F"/>
<path d="M29.5 5.72461V31.2754C29.5 32.7776 28.5173 34 27.3097 34H18.5V3H27.3097C28.5173 3 29.5 4.22244 29.5 5.72461Z" fill="#00244C"/>
<path d="M21.3908 24.1108L21.4998 23.9823C22.3413 22.9908 22.342 21.3843 21.5 20.3924C20.6608 19.4025 19.295 19.4027 18.4557 20.3924L18.1972 20.6972V18.1538H21.108C21.5043 18.1538 21.8255 17.775 21.8255 17.3077C21.8255 16.8404 21.5043 16.4615 21.108 16.4615H18.1972V14.7721H21.7825C22.1787 14.7721 22.5 14.3932 22.5 13.9259C22.5 13.4586 22.1787 13.0797 21.7825 13.0797H18.1972V11.3839H20.3928C20.7891 11.3839 21.1104 11.0051 21.1104 10.5378C21.1104 10.0705 20.7891 9.69163 20.3928 9.69163H18.1972V8.84615C18.1972 8.37885 17.8759 8 17.4797 8C17.0834 8 16.7621 8.37885 16.7621 8.84615V9.69163H14.6119C14.2157 9.69163 13.8944 10.0705 13.8944 10.5378C13.8944 11.0051 14.2157 11.3839 14.6119 11.3839H16.7621V13.0797H13.2175C12.8213 13.0797 12.5 13.4586 12.5 13.9259C12.5 14.3932 12.8213 14.7721 13.2175 14.7721H16.7621V16.4615H13.9123C13.5161 16.4615 13.1948 16.8404 13.1948 17.3077C13.1948 17.775 13.5161 18.1538 13.9123 18.1538H16.7621V20.7029L16.5304 20.4296C15.6912 19.4399 14.3257 19.4399 13.4865 20.4296C12.6451 21.4217 12.6449 23.0274 13.4865 24.0197L13.5864 24.1376L12.7102 25.1709C12.5756 25.3296 12.5 25.5448 12.5 25.7692V28.811C12.5 29.2783 12.8213 29.6571 13.2175 29.6571C13.6138 29.6571 13.9351 29.2783 13.9351 28.811V26.1197L14.6012 25.3341L15.4774 26.3675C15.612 26.5262 15.7945 26.6153 15.9848 26.6153H18.9697C19.16 26.6153 19.3425 26.5262 19.477 26.3675L20.376 25.3073L21.0648 26.1196V29.1538C21.0648 29.6211 21.3861 30 21.7824 30C22.1786 30 22.4999 29.6211 22.4999 29.1538V25.7692C22.4999 25.5448 22.4243 25.3296 22.2897 25.1709L21.3908 24.1108ZM18.6726 24.9231H16.282L14.5012 22.8231C14.2212 22.4929 14.22 21.9579 14.5012 21.6262C14.781 21.2965 15.2359 21.2965 15.5157 21.6262L16.9699 23.3411C17.2501 23.6714 17.7044 23.6714 17.9846 23.3411L19.4704 21.589C19.7501 21.259 20.2054 21.259 20.4856 21.5892C20.7653 21.9189 20.7664 22.4539 20.4856 22.785L18.6726 24.9231Z" fill="white"/>
<path d="M21.3952 24.1108L21.5038 23.9822C22.3418 22.991 22.3428 21.3845 21.5043 20.3922C20.6682 19.4028 19.308 19.4028 18.4719 20.3922L18.2146 20.6974V18.1538H21.1136C21.5081 18.1538 21.8283 17.7748 21.8283 17.3077C21.8283 16.8406 21.5081 16.4615 21.1136 16.4615H18.2146V14.7721H21.7854C22.1798 14.7721 22.5 14.393 22.5 13.9259C22.5 13.4588 22.1798 13.0797 21.7854 13.0797H18.2146V11.3841H20.4014C20.7959 11.3841 21.116 11.005 21.116 10.5379C21.116 10.0703 20.7959 9.69174 20.4014 9.69174H18.2146V8.84615C18.2146 8.37908 17.8945 8 17.5 8V23.589C17.682 23.5884 17.864 23.5055 18.0031 23.3413L19.4828 21.5892C19.7611 21.2592 20.2146 21.2592 20.4938 21.5892C20.7725 21.9192 20.7735 22.454 20.4938 22.7851H20.4933L18.6882 24.9231H17.5V26.6154H18.984C19.1737 26.6154 19.3552 26.5263 19.4895 26.3677L20.3847 25.3072L21.0707 26.1195V29.1538C21.0707 29.6209 21.3909 30 21.7854 30C22.1798 30 22.5 29.6209 22.5 29.1538V25.7692C22.5 25.5447 22.4247 25.3298 22.2909 25.1707L21.3952 24.1108Z" fill="white"/>
<path d="M22.0335 3.39974V4.53307C22.0335 5.15641 21.5235 5.66641 20.9001 5.66641H14.1001C13.4768 5.66641 12.9668 5.15641 12.9668 4.53307V3.39974C12.9668 2.77641 13.4768 2.26641 14.1001 2.26641H15.2335V1.69974C15.2335 1.07641 15.7435 0.566406 16.3668 0.566406H18.6335C19.2568 0.566406 19.7668 1.07641 19.7668 1.69974V2.26641H20.9001C21.5235 2.26641 22.0335 2.77641 22.0335 3.39974Z" fill="#19CE67"/>
</svg>
